<?xml version="1.0" encoding="iso-8859-1"?>
<!-- Generator: Adobe Illustrator 19.0.0, SVG Export Plug-In . SVG Version: 6.00 Build 0)  -->
<svg version="1.1" id="Capa_1" xmlns="http://www.w3.org/2000/svg" xmlns:xlink="http://www.w3.org/1999/xlink" x="0px" y="0px"
	 viewBox="0 0 512 512" style="enable-background:new 0 0 512 512;" xml:space="preserve">
<path style="fill:#353535;" d="M512,256c0,129.379-95.974,236.335-220.599,253.565c-0.972,0.136-1.954,0.261-2.926,0.376
	C277.838,511.31,266.992,512,256,512s-21.838-0.69-32.475-2.058c-0.972-0.115-1.954-0.24-2.926-0.376
	C95.974,492.335,0,385.379,0,256C0,114.615,114.615,0,256,0S512,114.615,512,256z"/>
<g>
	<path style="fill:#659172;" d="M413.194,331.389L288.475,509.942C277.838,511.31,266.992,512,256,512s-21.838-0.69-32.475-2.058
		L98.806,331.389L256,421.815L413.194,331.389z"/>
	<polygon style="fill:#659172;" points="413.195,246.533 256,0 98.804,246.533 256,181.151 	"/>
	<polygon style="fill:#659172;" points="420.151,288.266 256,218.712 91.849,288.266 256,380.081 	"/>
</g>
<g>
</g>
<g>
</g>
<g>
</g>
<g>
</g>
<g>
</g>
<g>
</g>
<g>
</g>
<g>
</g>
<g>
</g>
<g>
</g>
<g>
</g>
<g>
</g>
<g>
</g>
<g>
</g>
<g>
</g>
</svg>
