<?xml version="1.0" encoding="iso-8859-1"?>
<!-- Generator: Adobe Illustrator 19.0.0, SVG Export Plug-In . SVG Version: 6.00 Build 0)  -->
<svg version="1.1" id="Capa_1" xmlns="http://www.w3.org/2000/svg" xmlns:xlink="http://www.w3.org/1999/xlink" x="0px" y="0px"
	 viewBox="0 0 512 512" style="enable-background:new 0 0 512 512;" xml:space="preserve">
<path style="fill:#F0EFEB;" d="M512,256c0,141.385-114.615,256-256,256c-70.886,0-135.043-28.808-181.405-75.368
	c-15.569-15.632-29.132-33.27-40.26-52.496C12.497,346.457,0,302.686,0,256C0,114.615,114.615,0,256,0
	c50.427,0,97.437,14.576,137.059,39.748c34.753,22.068,63.812,52.276,84.511,87.949C499.472,165.418,512,209.251,512,256z"/>
<g>
	<polygon style="fill:#FE9A00;" points="453.604,274.335 291.312,274.335 264.754,436.626 427.046,436.626 	"/>
	<polygon style="fill:#FE9A00;" points="491.963,39.75 329.672,39.75 303.112,202.041 465.404,202.041 	"/>
	<path style="fill:#FE9A00;" d="M214.591,274.338L188.03,436.632H74.595c-15.569-15.632-29.132-33.27-40.26-52.496l17.962-109.798
		L214.591,274.338L214.591,274.338z"/>
</g>
<g>
</g>
<g>
</g>
<g>
</g>
<g>
</g>
<g>
</g>
<g>
</g>
<g>
</g>
<g>
</g>
<g>
</g>
<g>
</g>
<g>
</g>
<g>
</g>
<g>
</g>
<g>
</g>
<g>
</g>
</svg>
