<?xml version="1.0" encoding="iso-8859-1"?>
<!-- Generator: Adobe Illustrator 19.0.0, SVG Export Plug-In . SVG Version: 6.00 Build 0)  -->
<svg version="1.1" id="Capa_1" xmlns="http://www.w3.org/2000/svg" xmlns:xlink="http://www.w3.org/1999/xlink" x="0px" y="0px"
	 viewBox="0 0 512 512" style="enable-background:new 0 0 512 512;" xml:space="preserve">
<path style="fill:#F0EFEB;" d="M512,256c0,76.591-33.635,145.335-86.946,192.24C379.956,487.936,320.794,512,256,512
	c-32.528,0-63.634-6.06-92.254-17.126c-5.998-2.32-11.88-4.848-17.648-7.596C121.7,475.659,99.433,460.299,80.04,441.94
	C30.751,395.274,0,329.226,0,256C0,114.615,114.615,0,256,0S512,114.615,512,256z"/>
<path style="fill:#2AAC59;" d="M425.054,142.764V448.24C379.956,487.936,320.794,512,256,512c-32.528,0-63.634-6.06-92.254-17.126
	V61.795l219.648,32.653C407.333,98.001,425.054,118.554,425.054,142.764z"/>
<g>
	<circle style="fill:#F0EFEB;" cx="297.93" cy="480.24" r="15.89"/>
	<polygon style="fill:#F0EFEB;" points="200.827,450.22 391.509,436.096 391.509,165.964 200.827,148.309 	"/>
</g>
<path style="fill:#25854F;" d="M146.098,67.093v420.185C121.7,475.659,99.433,460.299,80.04,441.94L96.664,82.986l24.712,8.829
	L146.098,67.093z"/>
<polygon style="fill:#26844F;" points="222.015,0.001 334.754,17.681 339.384,33.145 335.096,38.857 221.607,25.14 216.718,17.657 
	"/>
<g>
	<polygon style="fill:#2AAC59;" points="221.132,54.734 197.297,51.202 197.297,23.395 222.015,0.001 	"/>
	<polygon style="fill:#2AAC59;" points="335.637,72.414 359.472,76.828 359.472,42.399 334.754,17.681 	"/>
</g>
<g>
</g>
<g>
</g>
<g>
</g>
<g>
</g>
<g>
</g>
<g>
</g>
<g>
</g>
<g>
</g>
<g>
</g>
<g>
</g>
<g>
</g>
<g>
</g>
<g>
</g>
<g>
</g>
<g>
</g>
</svg>
