<?xml version="1.0" encoding="iso-8859-1"?>
<!-- Generator: Adobe Illustrator 19.0.0, SVG Export Plug-In . SVG Version: 6.00 Build 0)  -->
<svg version="1.1" id="Capa_1" xmlns="http://www.w3.org/2000/svg" xmlns:xlink="http://www.w3.org/1999/xlink" x="0px" y="0px"
	 viewBox="0 0 512 512" style="enable-background:new 0 0 512 512;" xml:space="preserve">
<path style="fill:#F0EFEB;" d="M504.605,256c0,19.834-2.286,39.133-6.611,57.649c-26.085,111.559-126.182,194.654-245.691,194.654
	c-19.103,0-37.711-2.121-55.599-6.148c-20.545-4.614-40.132-11.74-58.441-21.039C72.9,447.946,23.933,387.146,6.725,314.081
	C2.327,295.442,0,275.989,0,256c0-33.788,6.642-66.031,18.701-95.484c8.063-19.71,18.547-38.175,31.08-55.012
	c9.155-12.306,19.412-23.747,30.616-34.179C125.451,29.361,185.87,3.698,252.302,3.698c82.776,0,156.252,39.864,202.254,101.446
	c6.333,8.474,12.141,17.363,17.383,26.61c2.08,3.666,4.078,7.384,5.952,11.173l0.01,0.01c3.089,6.117,5.911,12.378,8.486,18.773
	c6.313,15.632,11.091,32.037,14.17,49.039C503.215,225.425,504.605,240.553,504.605,256z"/>
<path style="fill:#1CB255;" d="M294.957,97.997c21.753-0.059,61.99,4.209,101.553,13.946c34.491,8.489,67.495,20.69,97.16,40.756
	c5.519,3.733,10.724,7.881,15.762,12.237c2.004,1.733,3.65,3.722,1.684,6.42c-1.94,2.663-4.287,1.841-6.61,0.426
	c-34.383-20.938-72.111-32.892-111.21-40.918c-51.547-10.583-103.643-13.638-156.131-10.338
	c-39.038,2.454-77.501,8.366-115.114,19.317c-11.534,3.358-22.918,7.174-34.032,11.742c-2.278,0.936-4.169,1.034-6.387-0.213
	c-2.682-1.507-5.613-2.563-8.416-3.863c-0.931-0.432-2.323-0.549-2.427-1.809c-0.12-1.453,1.312-1.797,2.318-2.365
	c19.87-11.222,40.927-19.605,62.76-26.089C181.588,103.666,228.405,98.051,294.957,97.997z"/>
<g>
	<path style="fill:#334149;" d="M88.553,201.534c-1.174-19.093-14.047-33.736-35.075-38.412c-11.554-2.564-23.16-3.089-34.777-2.605
		C6.642,189.969,0,222.212,0,256c0,19.989,2.327,39.442,6.725,58.081c1.771-0.34,3.553-0.844,5.334-1.514
		c2.214-0.844,3.079-2.111,3.038-4.531c-0.124-8.197-0.051-16.415-0.051-24.623c0-7.847-0.01-15.694,0-23.552
		c0-4.541,0-4.48,4.583-4.14c13.305,0.978,26.384,0.021,38.978-4.789C79.676,242.882,90.036,225.787,88.553,201.534z
		 M45.281,231.573c-9.042,3.625-18.516,3.748-28.073,2.348c-2.142-0.309-2.245-1.689-2.245-3.337c0.021-7.6,0.01-15.2,0.01-22.8
		c0-7.25,0.051-14.489-0.031-21.739c-0.031-2.06,0.36-3.429,2.719-3.697c8.177-0.927,16.353-1.524,24.437,0.505
		c11.451,2.853,18.197,10.494,18.959,21.224C62.015,217.394,56.681,227.011,45.281,231.573z"/>
	<path style="fill:#334149;" d="M214.8,200.851c0.819,0.091,2.482,0.203,4.12,0.47c6.14,0.999,10.196,3.616,12.258,10.356
		c6.779,22.157,15.47,43.705,21.546,66.106c0.266,0.979,0.37,2.529,1.567,2.56c1.487,0.039,1.481-1.601,1.795-2.694
		c6.617-22.96,13.281-45.905,19.755-68.904c0.908-3.226,2.538-5.098,5.628-6.15c7.683-2.617,15.174-2.369,22.571,1.013
		c1.807,0.826,2.455,1.817,1.665,3.897c-12.5,32.895-23.628,66.31-37.29,98.764c-4.759,11.302-10.189,22.303-17.881,31.982
		c-8.506,10.703-19.051,18.44-32.343,22.313c-3.789,1.104-5.93,0.196-7.719-3.26c-2.588-4.996-3.834-10.166-3.722-15.775
		c0.048-2.424,1.032-3.53,3.279-4.316c12.191-4.259,21.36-12.091,27.592-23.462c1.894-3.457,1.928-6.583,0.473-10.177
		c-12.759-31.521-25.373-63.101-38.169-94.607c-1.233-3.036-0.773-4.482,2.241-5.674C205.984,201.779,209.857,200.861,214.8,200.851
		z"/>
	<path style="fill:#334149;" d="M192.079,308.819c-1.514-11.946-1.195-23.964-1.215-38.185c-0.515-10.483,0.927-23.222-0.947-35.889
		c-2.564-17.352-12.862-28.824-30.039-32.459c-16.034-3.398-31.697-1.308-46.794,4.861c-7.003,2.863-8.043,5.406-5.736,12.636
		c0.391,1.236,0.958,2.43,1.596,3.563c2.585,4.562,3.069,4.696,7.682,2.492c0.968-0.463,1.946-0.906,2.935-1.287
		c9.495-3.625,19.247-5.468,29.349-3.47c8.805,1.74,13.902,7.857,14.366,16.292c0.124,2.399-0.474,3.46-3.079,3.46
		c-6.066,0-12.111,0.474-18.114,1.411c-10.556,1.658-20.699,4.48-29.391,11.04c-10.854,8.208-15.148,19.432-13.521,32.614
		c1.596,12.903,8.867,22.1,21.296,26.126c14.304,4.644,27.65,1.977,39.689-7.167c1.699-1.287,2.822-4.624,5.17-3.491
		c1.843,0.875,1.184,4.068,1.565,6.23c0.371,2.06,0.577,3.975,2.966,4.768c6.786,2.255,13.521,2.266,20.236-0.288
		C191.667,311.476,192.306,310.539,192.079,308.819z M155.305,290.036c-5.159,3.749-10.957,5.087-17.187,4.047
		c-5.273-0.886-9.176-3.738-10.885-9.031c-1.998-6.179-1.401-11.987,2.873-17.064c3.594-4.284,8.619-6.158,13.851-7.476
		c5.551-1.38,11.245-1.637,16.94-1.885c2.224-0.103,3.316,0.535,3.131,2.976c-0.165,2.245-0.031,4.511-0.031,6.766
		C164.769,277.061,162.74,284.639,155.305,290.036z"/>
	<path style="fill:#334149;" d="M500.558,210.751c-5.231-4.624-11.925-7.713-19.793-8.97c-15.344-2.461-30.348-0.659-44.755,5.314
		c-7.229,2.997-8.135,5.056-5.777,12.615c0.453,1.452,1.112,2.883,1.895,4.202c2.358,3.944,2.914,4.037,7.003,2.111
		c10.03-4.686,20.534-6.859,31.564-5.159c9.361,1.431,14.86,7.631,15.385,16.497c0.144,2.41-0.535,3.47-3.12,3.47
		c-5.942,0-11.874,0.433-17.754,1.37c-10.916,1.73-21.451,4.572-30.307,11.585c-10.792,8.537-14.706,19.999-12.667,33.294
		c1.926,12.461,9.227,21.173,21.224,25.004c14.201,4.531,27.455,1.926,39.4-7.126c1.73-1.308,2.976-4.593,5.149-3.646
		c2.08,0.906,1.452,4.222,1.699,6.488c0.299,2.739,1.473,4.16,4.181,4.943c1.37,0.391,2.739,0.7,4.109,0.906
		c4.325-18.516,6.611-37.814,6.611-57.649C504.605,240.553,503.215,225.425,500.558,210.751z M478.417,289.85
		c-5.118,3.821-10.916,5.242-17.177,4.284c-5.921-0.917-10.133-4.233-11.513-10.216c-1.576-6.776-0.577-13.058,5.108-17.826
		c5.118-4.294,11.379-5.798,17.785-6.653c3.646-0.484,7.353-0.463,11.019-0.814c2.564-0.247,3.388,0.803,3.192,3.264
		c-0.165,2.245-0.031,4.511-0.031,6.776C487.531,277.123,485.564,284.516,478.417,289.85z"/>
	<path style="fill:#334149;" d="M364.561,311.665c-14.034,0.002-28.069-0.068-42.104,0.059c-2.917,0.027-3.628-0.868-3.965-3.8
		c-0.976-8.484,1.823-15.079,7.309-21.602c15.986-19.008,30.107-39.542,46.958-57.866c0.613-0.666,1.659-1.305,1.26-2.375
		c-0.472-1.269-1.761-0.979-2.789-0.979c-14.748,0-29.497-0.085-44.242,0.117c-3.294,0.045-4.695-1.067-5.3-4.171
		c-0.974-4.997-0.994-9.902,0.303-14.835c0.519-1.976,1.394-2.935,3.67-2.929c26.761,0.076,53.522,0.069,80.283,0.014
		c2.242-0.004,3.426,0.606,3.156,3.008c-0.039,0.352-0.053,0.721,0.002,1.069c1.366,8.687-1.716,15.524-7.358,22.248
		c-15.66,18.664-29.598,38.735-45.943,56.862c-0.631,0.7-1.549,1.431-1.099,2.446c0.542,1.22,1.843,0.836,2.867,0.837
		c16.175,0.016,32.352,0.112,48.525-0.072c3.302-0.038,4.695,1.074,5.295,4.17c0.947,4.877,0.926,9.66-0.238,14.496
		c-0.603,2.51-1.859,3.386-4.49,3.362C392.63,311.598,378.595,311.662,364.561,311.665z"/>
</g>
<g>
</g>
<g>
</g>
<g>
</g>
<g>
</g>
<g>
</g>
<g>
</g>
<g>
</g>
<g>
</g>
<g>
</g>
<g>
</g>
<g>
</g>
<g>
</g>
<g>
</g>
<g>
</g>
<g>
</g>
</svg>
