<?xml version="1.0" encoding="iso-8859-1"?>
<!-- Generator: Adobe Illustrator 19.0.0, SVG Export Plug-In . SVG Version: 6.00 Build 0)  -->
<svg version="1.1" id="Capa_1" xmlns="http://www.w3.org/2000/svg" xmlns:xlink="http://www.w3.org/1999/xlink" x="0px" y="0px"
	 viewBox="0 0 512 512" style="enable-background:new 0 0 512 512;" xml:space="preserve">
<path style="fill:#5C5560;" d="M512,256c0,42.621-10.418,82.819-28.85,118.167c-24.263,46.561-62.422,84.72-108.983,108.983
	C338.819,501.582,298.632,512,256,512s-82.819-10.418-118.167-28.85c-46.561-24.263-84.72-62.422-108.983-108.983
	C10.418,338.819,0,298.621,0,256s10.418-82.819,28.85-118.167C53.112,91.272,91.272,53.112,137.832,28.85
	C173.181,10.418,213.368,0,256,0s82.819,10.418,118.167,28.85c46.561,24.263,84.72,62.422,108.983,108.983
	C501.582,173.181,512,213.379,512,256z"/>
<path style="fill:#15B7DA;" d="M483.15,96.569v277.598c-24.263,46.561-62.422,84.72-108.983,108.983H137.832
	c-46.561-24.263-84.72-62.422-108.983-108.983V96.569c0-37.397,30.312-67.72,67.709-67.72H415.43
	C452.827,28.85,483.15,59.173,483.15,96.569z"/>
<path style="fill:#FFFFFF;" d="M205.049,157.293h142.649c18.719,0,33.893,15.175,33.893,33.893v126.912
	c0,18.719-15.175,33.893-33.893,33.893H205.049c-8.298,0-16.266-3.241-22.207-9.033L119.85,281.55
	c-15.129-14.749-15.129-39.067,0-53.814l62.992-61.409C188.782,160.535,196.751,157.293,205.049,157.293z"/>
<circle style="fill:#15B7DA;" cx="206.27" cy="254.64" r="32.455"/>
<g>
</g>
<g>
</g>
<g>
</g>
<g>
</g>
<g>
</g>
<g>
</g>
<g>
</g>
<g>
</g>
<g>
</g>
<g>
</g>
<g>
</g>
<g>
</g>
<g>
</g>
<g>
</g>
<g>
</g>
</svg>
