<?xml version="1.0" encoding="iso-8859-1"?>
<!-- Generator: Adobe Illustrator 19.0.0, SVG Export Plug-In . SVG Version: 6.00 Build 0)  -->
<svg version="1.1" id="Capa_1" xmlns="http://www.w3.org/2000/svg" xmlns:xlink="http://www.w3.org/1999/xlink" x="0px" y="0px"
	 viewBox="0 0 512 512" style="enable-background:new 0 0 512 512;" xml:space="preserve">
<circle style="fill:#F0EFEB;" cx="256" cy="256" r="256"/>
<path style="fill:#00499B;" d="M109.916,199.125l-36.415,96.12h-9.55l-20.302-64.481l-20.302,64.481h-9.55L0.024,258.883
	c-0.01-0.961-0.021-1.923-0.021-2.884c0-13.322,1.014-26.405,2.978-39.173l14.994,44.983l20.302-62.683h10.742l20.302,62.683
	l20.898-62.683L109.916,199.125L109.916,199.125z"/>
<path style="fill:#2A8BE1;" d="M207.227,247.807c0-2.236-0.136-4.441-0.408-6.593c-3.062-24.712-23.155-43.792-47.491-43.792
	c-26.478,0-47.919,22.549-47.919,50.385s21.441,50.385,47.919,50.385c20.208,0,37.512-13.166,44.544-31.807h-17.168
	c-5.736,9.78-15.872,16.29-27.376,16.29c-15.485,0-28.484-11.766-31.66-27.429h79.047
	C207.05,252.822,207.227,250.336,207.227,247.807z M127.522,241.214c2.863-16.081,16.029-28.275,31.807-28.275
	c15.757,0,28.933,12.194,31.796,28.275H127.522z"/>
<g>
	<path style="fill:#34B119;" d="M271.624,197.422c-12.967,0-24.722,5.423-33.353,14.221v-11.922H221.26v128.063h17.011v-43.813
		c8.631,8.798,20.386,14.221,33.353,14.221c26.457,0,47.909-22.559,47.909-50.385S298.081,197.422,271.624,197.422z
		 M271.624,282.675c-17.868,0-32.392-15.642-32.392-34.868s14.524-34.868,32.392-34.868c17.857,0,32.381,15.642,32.381,34.868
		S289.482,282.675,271.624,282.675z"/>
	<path style="fill:#34B119;" d="M412.309,199.721v13.302c-8.725-9.613-21.023-15.6-34.649-15.6
		c-26.467,0-47.909,22.559-47.909,50.385s21.441,50.385,47.909,50.385c13.625,0,25.924-5.998,34.649-15.6v13.249h17.011v-96.12
		L412.309,199.721L412.309,199.721z M378.789,282.675c-18.484,0-33.52-15.642-33.52-34.868s15.036-34.868,33.52-34.868
		c18.484,0,33.52,15.642,33.52,34.868S397.273,282.675,378.789,282.675z"/>
	<path style="fill:#34B119;" d="M511.94,250.576l-31.577,77.511h-17.607l13.761-34.388l-37.648-93.978h19.101l26.718,73.592
		l23.845-59.538C510.53,225.78,511.69,238.068,511.94,250.576z"/>
</g>
<g>
</g>
<g>
</g>
<g>
</g>
<g>
</g>
<g>
</g>
<g>
</g>
<g>
</g>
<g>
</g>
<g>
</g>
<g>
</g>
<g>
</g>
<g>
</g>
<g>
</g>
<g>
</g>
<g>
</g>
</svg>
