<?xml version="1.0" encoding="iso-8859-1"?>
<!-- Generator: Adobe Illustrator 19.0.0, SVG Export Plug-In . SVG Version: 6.00 Build 0)  -->
<svg version="1.1" id="Capa_1" xmlns="http://www.w3.org/2000/svg" xmlns:xlink="http://www.w3.org/1999/xlink" x="0px" y="0px"
	 viewBox="0 0 512 512" style="enable-background:new 0 0 512 512;" xml:space="preserve">
<path style="fill:#E53333;" d="M512,256c0,49.11-13.834,95.002-37.825,133.977c-2.602,4.242-5.329,8.391-8.171,12.466
	C419.736,468.679,342.925,512,256,512c-86.936,0-163.746-43.332-210.004-109.568c-2.853-4.075-5.58-8.223-8.182-12.466
	C13.834,351.002,0,305.11,0,256C0,114.615,114.615,0,256,0S512,114.615,512,256z"/>
<g>
	<path style="fill:#F0EFEB;" d="M474.175,389.977c-2.602,4.242-5.329,8.391-8.171,12.466L256,185.814L45.996,402.432
		c-2.853-4.075-5.58-8.223-8.182-12.466L256,42.433L474.175,389.977z"/>
	<polygon style="fill:#F0EFEB;" points="296.914,290.35 255.997,247.654 215.08,290.35 	"/>
	<polygon style="fill:#F0EFEB;" points="327.737,322.514 184.256,322.514 143.707,364.826 368.286,364.826 	"/>
</g>
<g>
</g>
<g>
</g>
<g>
</g>
<g>
</g>
<g>
</g>
<g>
</g>
<g>
</g>
<g>
</g>
<g>
</g>
<g>
</g>
<g>
</g>
<g>
</g>
<g>
</g>
<g>
</g>
<g>
</g>
</svg>
