<?xml version="1.0" encoding="iso-8859-1"?>
<!-- Generator: Adobe Illustrator 19.0.0, SVG Export Plug-In . SVG Version: 6.00 Build 0)  -->
<svg version="1.1" id="Capa_1" xmlns="http://www.w3.org/2000/svg" xmlns:xlink="http://www.w3.org/1999/xlink" x="0px" y="0px"
	 viewBox="0 0 512.001 512.001" style="enable-background:new 0 0 512.001 512.001;" xml:space="preserve">
<circle style="fill:#F0EFEB;" cx="256" cy="256" r="256"/>
<path style="fill:#5FB0E7;" d="M451.997,153.523c-11.515,5.754-22.712,12.136-33.56,19.105
	c12.774,24.682,19.994,52.71,19.994,82.418c0,99.169-80.39,179.559-179.559,179.559s-179.56-80.389-179.56-179.559
	c0-99.162,80.39-179.552,179.559-179.552c33.027,0,63.98,8.916,90.564,24.481c7.753-7.976,15.787-15.906,24.096-23.77
	c1.437-1.363,2.866-2.703,4.287-4.028c-34.212-22.304-75.065-35.263-118.949-35.263c-120.474,0-218.14,97.658-218.14,218.133
	s97.666,218.14,218.14,218.14s218.14-97.667,218.14-218.14C477.012,218.393,467.97,183.847,451.997,153.523z"/>
<path style="fill:#00327A;" d="M186.561,189.887c0,0-12.996,38.805-58.867,67.012c0,0,68.864-5.554,125.511,93.3
	c0,0,63.31-181.046,258.796-236.582c0,0-43.317-49.688-36.654-100.928c0,0-167.218,112.406-227.326,261.241
	C248.02,273.93,230.434,213.767,186.561,189.887z"/>
<g>
</g>
<g>
</g>
<g>
</g>
<g>
</g>
<g>
</g>
<g>
</g>
<g>
</g>
<g>
</g>
<g>
</g>
<g>
</g>
<g>
</g>
<g>
</g>
<g>
</g>
<g>
</g>
<g>
</g>
</svg>
