<?xml version="1.0" encoding="iso-8859-1"?>
<!-- Generator: Adobe Illustrator 19.0.0, SVG Export Plug-In . SVG Version: 6.00 Build 0)  -->
<svg version="1.1" id="Capa_1" xmlns="http://www.w3.org/2000/svg" xmlns:xlink="http://www.w3.org/1999/xlink" x="0px" y="0px"
	 viewBox="0 0 512 512" style="enable-background:new 0 0 512 512;" xml:space="preserve">
<path style="fill:#F3E200;" d="M512,256c0,141.385-114.615,256-256,256c-86.873,0-163.641-43.28-209.92-109.443
	c-11.567-16.53-21.232-34.503-28.672-53.572C6.165,320.157,0,288.799,0,256C0,114.615,114.615,0,256,0S512,114.615,512,256z"/>
<g>
	<path style="fill:#0043BA;" d="M504.021,160.805c-21.862-46.64-92.552-45.182-141.378-1.458l-0.816,1.777l6.238-29.47h-75.382
		L230.01,427.528h75.382l23.349-110.334c13.03,19.385,36.846,35.33,80.542,28.713C505.479,331.333,525.884,207.445,504.021,160.805z
		 M426.773,248.255c-7.287,24.778-26.235,56.842-61.215,51.013c-34.505-5.751-19.676-66.317-19.676-66.317
		c15.304-51.741,39.207-66.199,66.317-60.487C439.891,178.295,434.061,223.478,426.773,248.255z"/>
	<path style="fill:#0043BA;" d="M236.711,160.81c-21.535-45.944-81.209-45.192-138.689-3.417l5.444-25.736h-40.02L17.408,348.985
		c7.44,19.069,17.105,37.042,28.672,53.572l17.45-82.39c13.416,17.983,36.989,32.005,78.451,25.736
		C238.174,331.337,258.581,207.444,236.711,160.81z M139.64,320.397c-57.543,12.988-70.917-24.827-59.465-78.785
		c5.653-26.708,16.468-69.872,64.575-82.996c48.097-13.113,59.026,21.138,59.026,48.828S199.868,306.813,139.64,320.397z"/>
</g>
<g>
</g>
<g>
</g>
<g>
</g>
<g>
</g>
<g>
</g>
<g>
</g>
<g>
</g>
<g>
</g>
<g>
</g>
<g>
</g>
<g>
</g>
<g>
</g>
<g>
</g>
<g>
</g>
<g>
</g>
</svg>
