<?xml version="1.0" encoding="iso-8859-1"?>
<!-- Generator: Adobe Illustrator 19.0.0, SVG Export Plug-In . SVG Version: 6.00 Build 0)  -->
<svg version="1.1" id="Capa_1" xmlns="http://www.w3.org/2000/svg" xmlns:xlink="http://www.w3.org/1999/xlink" x="0px" y="0px"
	 viewBox="0 0 512 512" style="enable-background:new 0 0 512 512;" xml:space="preserve">
<path style="fill:#4A6881;" d="M512,256c0,55.244-17.502,106.412-47.261,148.24c-15.6,21.922-34.555,41.273-56.132,57.323
	C365.986,493.255,313.187,512,256,512s-109.986-18.745-152.607-50.437c-21.577-16.05-40.532-35.401-56.132-57.323
	C17.502,362.412,0,311.244,0,256C0,114.615,114.615,0,256,0c55.39,0,106.653,17.586,148.543,47.48
	c23.259,16.593,43.624,37,60.197,60.28C494.498,149.588,512,200.756,512,256z"/>
<path style="fill:#F0EFEB;" d="M464.739,31.284V404.24c-15.6,21.922-34.555,41.273-56.132,57.323h-4.065V31.284H464.739z"/>
<g>
	<rect x="166.36" y="138.86" style="fill:#809AB1;" width="60.19" height="322.72"/>
	<path style="fill:#809AB1;" d="M107.447,353.991v107.572h-4.054c-21.577-16.05-40.532-35.401-56.132-57.323v-50.249H107.447z"/>
	<rect x="285.46" y="246.43" style="fill:#809AB1;" width="60.19" height="215.14"/>
</g>
<g>
</g>
<g>
</g>
<g>
</g>
<g>
</g>
<g>
</g>
<g>
</g>
<g>
</g>
<g>
</g>
<g>
</g>
<g>
</g>
<g>
</g>
<g>
</g>
<g>
</g>
<g>
</g>
<g>
</g>
</svg>
