<?xml version="1.0" encoding="iso-8859-1"?>
<!-- Generator: Adobe Illustrator 19.0.0, SVG Export Plug-In . SVG Version: 6.00 Build 0)  -->
<svg version="1.1" id="Capa_1" xmlns="http://www.w3.org/2000/svg" xmlns:xlink="http://www.w3.org/1999/xlink" x="0px" y="0px"
	 viewBox="0 0 512 512" style="enable-background:new 0 0 512 512;" xml:space="preserve">
<path style="fill:#F0EFEB;" d="M512,256c0,51.984-15.496,100.352-42.109,140.737c-9.195,13.918-19.696,26.896-31.336,38.734
	C392.108,482.711,327.471,512,256,512c-70.144,0-133.695-28.212-179.931-73.906c-12.549-12.392-23.813-26.07-33.593-40.824
	C15.632,356.78,0,308.214,0,256C0,114.615,114.615,0,256,0S512,114.615,512,256z"/>
<path style="fill:#0661A3;" d="M315.058,128.334l-180.255,309.76H76.069c-12.549-12.392-23.813-26.07-33.593-40.824l211.33-372.192
	L315.058,128.334z"/>
<path style="fill:#3585C9;" d="M469.891,396.737c-9.195,13.918-19.696,26.896-31.336,38.734h-51.743l-140.873-171.51l110.247-60.374
	L469.891,396.737z"/>
<polygon style="fill:#01416F;" points="240.684,273.588 146.18,437.22 299.311,345.341 "/>
<g>
</g>
<g>
</g>
<g>
</g>
<g>
</g>
<g>
</g>
<g>
</g>
<g>
</g>
<g>
</g>
<g>
</g>
<g>
</g>
<g>
</g>
<g>
</g>
<g>
</g>
<g>
</g>
<g>
</g>
</svg>
