<?xml version="1.0" encoding="iso-8859-1"?>
<!-- Generator: Adobe Illustrator 19.0.0, SVG Export Plug-In . SVG Version: 6.00 Build 0)  -->
<svg version="1.1" id="Capa_1" xmlns="http://www.w3.org/2000/svg" xmlns:xlink="http://www.w3.org/1999/xlink" x="0px" y="0px"
	 viewBox="0 0 512 512" style="enable-background:new 0 0 512 512;" xml:space="preserve">
<path style="fill:#9F9FA0;" d="M512,256c0,72.903-30.48,138.7-79.391,185.323c-2.581,2.456-5.214,4.869-7.899,7.22
	C379.653,488.051,320.627,512,256,512c-65.964,0-126.088-24.942-171.468-65.912c-5.413-4.88-10.616-10-15.59-15.318
	C26.175,385.024,0,323.563,0,256C0,114.615,114.615,0,256,0S512,114.615,512,256z"/>
<polygon style="fill:#F0EFEB;" points="369.836,78.118 142.157,78.118 113.894,187.319 142.157,305.797 369.836,305.797 
	426.756,191.957 "/>
<g>
	<path style="fill:#353535;" d="M338.636,389.756c3.971,1.665,8.085,2.977,11.794,5.025c9.278,5.126,12.648,14.091,11.843,24.045
		c-1.035,12.811-11.934,23.502-25.057,25.71c-5.959,1.003-12.059,1.526-18.104,1.598c-17.581,0.21-35.166,0.083-52.75,0.082
		c-0.582,0-1.163-0.059-1.838-0.094c0-0.999,0-1.892,0-2.829c2.558-0.21,5.06-0.25,7.502-0.653c3.978-0.657,6.58-2.981,7.176-7.078
		c0.417-2.861,0.784-5.761,0.79-8.644c0.053-24.656,0.037-49.313-0.02-73.969c-0.005-2.16-0.272-4.352-0.707-6.47
		c-0.899-4.367-3.495-6.742-7.92-7.351c-2.207-0.303-4.447-0.364-6.797-0.543c0-0.76,0-1.515,0-2.545c0.763,0,1.467,0,2.172,0
		c14.741,0,29.483-0.086,44.223,0.031c9.38,0.074,18.736,0.626,27.694,3.849c8.644,3.111,15.367,8.257,17.679,17.635
		c1.991,8.078,1.449,15.886-3.742,22.807c-3.143,4.191-7.521,6.748-12.303,8.678c-0.543,0.219-1.081,0.453-1.618,0.69
		C338.609,389.75,338.595,389.839,338.636,389.756z M295.744,393.097c-0.072,0.475-0.126,0.669-0.126,0.862
		c-0.007,14.342,0.003,28.685-0.036,43.027c-0.003,1.186,0.451,1.58,1.549,1.794c9.485,1.849,19.02,2.549,28.482,0.233
		c9.8-2.398,17.977-8.604,18.474-20.727c0.358-8.757-4.315-17.478-12.189-21.524c-5.26-2.703-10.902-3.889-16.741-4.28
		C308.687,392.049,302.234,392.193,295.744,393.097z M295.605,364.375c0,6.413,0.036,12.826-0.027,19.238
		c-0.015,1.477,0.197,2.394,1.961,2.397c1.308,0.002,2.611,0.365,3.925,0.458c7.523,0.533,15.042,0.82,22.462-0.974
		c14.12-3.416,18.864-14.047,16.352-26.04c-1.568-7.487-6.718-12.141-13.425-15.074c-9.785-4.278-19.898-3.935-30.078-1.55
		c-1.126,0.264-1.182,0.983-1.179,1.91C295.615,351.284,295.605,357.829,295.605,364.375z"/>
	<path style="fill:#353535;" d="M151.113,349.591c-0.24,3.093-0.115,82.526,0.376,85.776c0.752,5.016,3.699,7.481,8.746,7.659
		c1.975,0.073,3.96,0.01,6.102,0.01v3.072h-46.456v-3.03c1.243,0,2.476,0.01,3.709,0c8.119-0.063,11.327-2.926,11.588-11.149
		c0.334-10.292,0.397-36.039,0.397-38.766H84.553c-0.042,0.721,0.063,38.745,0.366,41.033c0.731,5.622,3.281,7.993,10.073,8.829
		c1.609,0.188,3.271,0.021,5.047,0.021v3.041H84.532c-5.413-4.88-10.616-10-15.59-15.318c0.157-1.912,0.24-3.824,0.251-5.726
		c0.052-22.674,0.052-45.349,0.01-68.023c-0.01-3.553-0.376-7.105-0.596-10.668c-0.146-2.382-1.442-4.044-3.438-5.204
		c-2.727-1.588-5.642-2.508-8.84-2.393c-0.857,0.031-1.703,0-2.685,0v-2.717H97.97c2.351,0,2.403,0.073,1.954,2.602
		c-1.797,0.104-3.647,0.052-5.444,0.334c-6.353,1.003-9.258,3.908-9.582,10.355c-0.397,7.91-0.449,32.987-0.449,37.731h51.127
		c0-0.721,0.052-21.295-0.031-30.877c-0.031-3.354-0.397-6.708-0.669-10.062c-0.209-2.456-1.672-4.054-3.793-5.183
		c-2.727-1.452-5.59-2.299-8.704-2.194c-0.784,0.031-1.567,0.01-2.476,0.01v-2.57h46.456v2.581c-1.233,0-2.476-0.021-3.709,0
		C155.533,338.881,151.656,342.465,151.113,349.591z"/>
	<path style="fill:#353535;" d="M242.546,333.358c0.903,0,1.75,0,2.777,0c0,12.698,0,25.398,0,38.206c-0.899,0-1.794,0-2.418,0
		c-1.4-4.729-2.445-9.494-4.205-13.978c-5.969-15.218-23.177-20.504-34.627-16.075c-7.62,2.948-11.802,9.213-10.918,16.882
		c0.622,5.397,3.824,9.474,8.202,12.299c7.577,4.89,15.421,9.365,23.136,14.041c5.405,3.276,11.03,6.257,16.125,9.962
		c11.901,8.654,15.544,24.767,8.471,37.475c-4.834,8.686-12.683,13.527-22.296,15.617c-8.73,1.898-17.171,0.194-25.551-2.118
		c-2.855-0.788-5.654-1.783-8.524-2.501c-5.546-1.389-7.299-0.262-8.559,5.354c-0.875,0-1.773,0-2.798,0c0-12.485,0-24.934,0-37.469
		c0.998,0,1.895,0,2.559,0c1.369,4.321,2.426,8.612,4.071,12.665c3.907,9.624,10.793,15.952,21.229,17.901
		c6.122,1.143,12.192,1.102,18.085-1.288c12.241-4.966,15.075-19.853,5.281-28.716c-2.952-2.672-6.46-4.765-9.845-6.915
		c-9.184-5.834-18.463-11.516-27.655-17.337c-6.04-3.824-11.041-8.643-13.43-15.597c-5.564-16.199,3.632-31.372,18.751-36.558
		c8.774-3.009,17.534-2.29,26.138,0.935c2.093,0.785,4.137,1.697,6.214,2.526c5.339,2.129,7.864,0.924,9.534-4.533
		C242.368,333.894,242.45,333.656,242.546,333.358z"/>
	<path style="fill:#353535;" d="M473.59,370.636c-1.975,0.669-2.811,0.073-3.406-1.787c-2.759-8.589-6.802-16.447-13.949-22.309
		c-7.116-5.841-15.444-7.722-24.419-7.262c-5.11,0.261-10.031,1.348-14.639,3.709c-6.802,3.469-11.097,9.164-14.305,15.872
		c-5.747,12.016-7.325,24.775-6.813,37.93c0.303,8.046,1.515,15.882,4.974,23.218c5.883,12.507,16.018,19.195,29.518,21.065
		c0.69,0.094,1.369,0.178,2.058,0.251c-2.581,2.456-5.214,4.869-7.899,7.22c-8.631-0.616-16.896-3.208-24.377-8.673
		c-12.309-8.986-19.717-21.232-21.953-36.404c-1.964-13.281-0.825-26.237,5.193-38.39c7.91-15.956,20.313-26.624,37.909-30.532
		c11.41-2.518,22.549-1.348,33.144,3.845c1.411,0.7,2.821,1.421,4.253,2.079c2.967,1.348,5.193,0.805,7.074-1.86
		c0.711-1.003,1.337-2.163,1.62-3.344c0.408-1.682,1.16-2.424,3.291-1.755C471.761,345.767,472.68,358.212,473.59,370.636z"/>
</g>
<g>
	<polygon style="fill:#EA1808;" points="255.997,191.957 142.157,78.118 369.836,78.118 	"/>
	<polygon style="fill:#EA1808;" points="255.997,191.957 369.836,305.797 142.157,305.797 	"/>
	<polygon style="fill:#EA1808;" points="483.676,191.957 369.836,305.797 369.836,78.118 	"/>
	<polygon style="fill:#EA1808;" points="28.317,191.957 142.157,78.118 142.157,305.797 	"/>
</g>
<g>
</g>
<g>
</g>
<g>
</g>
<g>
</g>
<g>
</g>
<g>
</g>
<g>
</g>
<g>
</g>
<g>
</g>
<g>
</g>
<g>
</g>
<g>
</g>
<g>
</g>
<g>
</g>
<g>
</g>
</svg>
