<?xml version="1.0" encoding="iso-8859-1"?>
<!-- Generator: Adobe Illustrator 19.0.0, SVG Export Plug-In . SVG Version: 6.00 Build 0)  -->
<svg version="1.1" id="Capa_1" xmlns="http://www.w3.org/2000/svg" xmlns:xlink="http://www.w3.org/1999/xlink" x="0px" y="0px"
	 viewBox="0 0 512 512" style="enable-background:new 0 0 512 512;" xml:space="preserve">
<path style="fill:#FFCD00;" d="M512,256c0,126.725-92.076,231.946-212.982,252.395C285.027,510.767,270.66,512,256,512
	s-29.038-1.233-43.029-3.605C92.076,487.936,0,382.725,0,256c0-60.176,20.762-115.503,55.515-159.201
	C66.926,82.442,79.841,69.35,94.03,57.752C138.156,21.65,194.539,0,256,0s117.844,21.65,161.97,57.752
	c14.19,11.598,27.105,24.691,38.504,39.037C491.238,140.487,512,195.824,512,256z"/>
<path style="fill:#F2F2F2;" d="M456.474,57.752v225.437c0,59.162-67.406,108.596-157.456,120.738v28.975h57.219v40.438h-57.219
	v35.056C285.027,510.767,270.66,512,256,512s-29.038-1.233-43.029-3.605v-35.056h-57.219v-40.438h57.219v-28.975
	C122.932,391.784,55.515,342.35,55.515,283.188V57.752h86.047V271.81c0,27.084,29.539,50.26,71.408,59.862V57.752h86.047v273.92
	c41.879-9.603,71.419-32.778,71.419-59.862V57.752H456.474z"/>
<g>
</g>
<g>
</g>
<g>
</g>
<g>
</g>
<g>
</g>
<g>
</g>
<g>
</g>
<g>
</g>
<g>
</g>
<g>
</g>
<g>
</g>
<g>
</g>
<g>
</g>
<g>
</g>
<g>
</g>
</svg>
