<?xml version="1.0" encoding="iso-8859-1"?>
<!-- Generator: Adobe Illustrator 19.0.0, SVG Export Plug-In . SVG Version: 6.00 Build 0)  -->
<svg version="1.1" id="Capa_1" xmlns="http://www.w3.org/2000/svg" xmlns:xlink="http://www.w3.org/1999/xlink" x="0px" y="0px"
	 viewBox="0 0 512 512" style="enable-background:new 0 0 512 512;" xml:space="preserve">
<path style="fill:#F0EFEB;" d="M512,256c0,25.757-3.803,50.636-10.888,74.083C469.347,435.346,371.628,512,256,512
	C135.063,512,33.719,428.147,6.938,315.413C2.403,296.343,0,276.449,0,256c0-20.574,2.424-40.573,7.011-59.747
	C33.917,83.686,135.189,0,256,0c116.297,0,214.476,77.542,245.656,183.756c3.741,12.727,6.52,25.872,8.244,39.34
	c1.264,9.853,1.975,19.884,2.079,30.051C512,254.098,512,255.049,512,256z"/>
<path style="fill:#353535;" d="M511.979,253.147c-5.099-3.271-10.094-5.642-13.646-7.304c-15.057-7.001-52.454-7.001-57.407-24.148
	c-4.712-16.3,8.746-22.403,21.703-22.403c12.946,0,28.348,5.945,30.448,23.803H509.9c-1.724-13.469-4.504-26.614-8.244-39.34
	c-12.403-6.332-25.631-7.576-37.627-8.056c-45.861,0-58.023,24.858-60.217,35.84c-0.93,4.681-0.209,7.868-0.084,12.1
	c-11.316-26.802-36.822-47.417-72.61-47.417c-33.698,0-58.284,18.275-70.478,42.778c-2.361-7.492-8.401-23.312-19.132-30.908
	c-14.357-10.156-30.459-11.818-44.816-12.393c-45.85,0-60.207,24.639-60.207,35.84v-31.848h-32.904v12.8
	c-11.4-11.003-26.499-16.791-43.75-16.791c-18.881,0-38.118,7.262-52.82,20.553C2.424,215.427,0,235.426,0,256
	c0,20.449,2.403,40.343,6.938,59.413C21.65,328.85,40.918,336.3,59.831,336.3c17.251,0,32.35-6.228,43.75-17.533v12.497h32.904
	v-29.132c3.845,8.871,10.439,18.766,21.703,25.276c24.858,14.357,71.064,7.356,86.821-2.1c10.637-6.384,17.115-14.848,19.56-25.924
	c12.925,20.699,35.537,36.216,66.55,36.216c33.217,0,57.417-17.774,69.799-41.524c2.999,10.24,9.718,24.743,24.597,33.332
	c20.365,11.766,55.066,9.185,75.598,2.675C508.197,306.636,512,281.757,512,256C512,255.049,512,254.098,511.979,253.147z
	 M103.581,263.043c-2.738,27.032-21.285,43.719-43.75,43.719c-24.367,0-44.116-22.727-44.116-50.761s19.749-50.761,44.116-50.761
	c22.465,0,41.012,15.496,43.75,43.447V263.043z M204.748,310.262c-19.602,0-35.004-6.656-37.804-28.003h-30.459v-56.613
	c0.46,7.816,2.351,15.893,9.101,22.653c17.157,17.157,64.146,15.141,78.764,29.759C236.251,289.959,224.35,310.262,204.748,310.262z
	 M251.977,255.916c0,0.878,0.021,1.766,0.052,2.654c-7.241-6.196-15.747-10.261-21.023-12.727
	c-15.057-7.001-52.464-7.001-57.417-24.148c-4.702-16.3,8.756-22.403,21.703-22.403c12.957,0,28.359,5.945,30.459,23.803h32.977
	C254.307,233.378,251.977,244.59,251.977,255.916z M331.118,306.228c-28.526,0-44.366-22.528-44.366-50.312
	c0-27.794,16.708-50.322,44.366-50.322c27.648,0,44.366,22.528,44.366,50.322C375.484,283.7,358.943,306.228,331.118,306.228z
	 M472.074,310.262c-19.602,0-35.004-6.656-37.804-28.003h-28.338c2.842-8.474,4.326-17.408,4.326-26.342
	c0-3.971-0.293-7.931-0.857-11.839c0.993,1.452,2.152,2.863,3.511,4.221c17.157,17.157,64.146,15.141,78.764,29.759
	C503.578,289.959,491.677,310.262,472.074,310.262z"/>
<g>
</g>
<g>
</g>
<g>
</g>
<g>
</g>
<g>
</g>
<g>
</g>
<g>
</g>
<g>
</g>
<g>
</g>
<g>
</g>
<g>
</g>
<g>
</g>
<g>
</g>
<g>
</g>
<g>
</g>
</svg>
