<?xml version="1.0" encoding="iso-8859-1"?>
<!-- Generator: Adobe Illustrator 19.0.0, SVG Export Plug-In . SVG Version: 6.00 Build 0)  -->
<svg version="1.1" id="Capa_1" xmlns="http://www.w3.org/2000/svg" xmlns:xlink="http://www.w3.org/1999/xlink" x="0px" y="0px"
	 viewBox="0 0 512 512" style="enable-background:new 0 0 512 512;" xml:space="preserve">
<path style="fill:#F0EFEB;" d="M512,256c0,8.632-0.428,17.17-1.263,25.582c-0.522,5.229-1.2,10.406-2.035,15.531
	c-1.284,7.985-2.943,15.844-4.958,23.568c-28.64,109.907-128.579,191.037-247.462,191.037
	c-132.598,0-241.617-100.92-254.455-230.136c-0.511-5.208-0.877-10.469-1.075-15.761c-0.125-3.257-0.188-6.534-0.188-9.822
	c0-13.684,1.075-27.117,3.152-40.216c0.825-5.26,1.816-10.469,2.964-15.614C32.147,85.786,134.226,0.282,256.282,0.282
	c101.191,0,188.657,58.784,230.115,144.058c0.929,1.91,1.837,3.841,2.724,5.782c2.317,5.093,4.478,10.27,6.461,15.531
	c6.043,16.011,10.531,32.774,13.266,50.131c0.814,5.125,1.472,10.302,1.973,15.521C511.603,239.425,512,247.671,512,256z"/>
<g>
	<path style="fill:#005DAE;" d="M512,256c0,8.632-0.428,17.17-1.263,25.582H1.827c-0.511-5.208-0.877-10.469-1.075-15.761h105.544
		c-0.188-3.246-0.324-6.523-0.324-9.822c0-2.599,0.063-5.177,0.188-7.745h126.46c0.261-5.73,0.804-11.387,1.639-16.95h276.562
		C511.603,239.425,512,247.671,512,256z"/>
	<path style="fill:#005DAE;" d="M508.702,297.113c-1.284,7.985-2.943,15.844-4.958,23.568l-24.643,26.323H22.691
		c-3.34-4.927-6.409-10.062-9.195-15.374h110.94c-2.964-5.657-5.615-11.523-7.901-17.577h126.481
		c-2.088-5.501-3.924-11.147-5.417-16.94H508.702L508.702,297.113z"/>
	<path style="fill:#005DAE;" d="M289.585,379.471H163.116c8.239,6.802,17.186,12.694,26.69,17.573H78.842
		c19.745,10.142,41.932,15.84,65.386,15.84c19.596,0,91.321,0,110.934,0c22.601,0,103.838,0.005,126.442,0.005h35.817l47.148-50.36
		H272.097C277.484,368.652,283.338,374.314,289.585,379.471z"/>
	<path style="fill:#005DAE;" d="M508.848,215.784H0c1.336-5.323,2.933-10.531,4.78-15.614h110.94
		c2.192-6.043,4.718-11.909,7.567-17.566h126.45c2.964-5.876,6.262-11.544,9.884-16.95h235.96
		C501.625,181.664,506.113,198.427,508.848,215.784z"/>
	<path style="fill:#005DAE;" d="M489.121,150.122H34.141c5.093-5.855,10.615-11.314,16.502-16.303h110.992
		c7.129-6.043,14.769-11.429,22.889-16.022h126.44c21.021-11.92,45.079-18.683,70.641-18.683c40.842,0,77.853,17.264,104.792,45.226
		C487.326,146.25,488.234,148.181,489.121,150.122z"/>
</g>
<g>
</g>
<g>
</g>
<g>
</g>
<g>
</g>
<g>
</g>
<g>
</g>
<g>
</g>
<g>
</g>
<g>
</g>
<g>
</g>
<g>
</g>
<g>
</g>
<g>
</g>
<g>
</g>
<g>
</g>
</svg>
