<?xml version="1.0" encoding="iso-8859-1"?>
<!-- Generator: Adobe Illustrator 19.0.0, SVG Export Plug-In . SVG Version: 6.00 Build 0)  -->
<svg version="1.1" id="Capa_1" xmlns="http://www.w3.org/2000/svg" xmlns:xlink="http://www.w3.org/1999/xlink" x="0px" y="0px"
	 viewBox="0 0 512 512" style="enable-background:new 0 0 512 512;" xml:space="preserve">
<path style="fill:#002654;" d="M512,256c0,54.032-16.739,104.155-45.328,145.471c-4.253,6.165-8.777,12.131-13.563,17.878
	C406.162,475.951,335.287,512,256,512s-150.162-36.049-197.11-92.651c-4.786-5.747-9.31-11.713-13.563-17.878
	C16.739,360.155,0,310.032,0,256C0,114.615,114.615,0,256,0S512,114.615,512,256z"/>
<path style="fill:#F0EFEB;" d="M466.672,401.471c-4.253,6.165-8.777,12.131-13.563,17.878H295.194l-11.797-20.428L175.71,212.407
	L68.023,398.921h181.551l11.797,20.428H58.89c-4.786-5.747-9.31-11.713-13.563-17.878L256,36.571L466.672,401.471z"/>
<g>
</g>
<g>
</g>
<g>
</g>
<g>
</g>
<g>
</g>
<g>
</g>
<g>
</g>
<g>
</g>
<g>
</g>
<g>
</g>
<g>
</g>
<g>
</g>
<g>
</g>
<g>
</g>
<g>
</g>
</svg>
