<?xml version="1.0" encoding="iso-8859-1"?>
<!-- Generator: Adobe Illustrator 19.0.0, SVG Export Plug-In . SVG Version: 6.00 Build 0)  -->
<svg version="1.1" id="Capa_1" xmlns="http://www.w3.org/2000/svg" xmlns:xlink="http://www.w3.org/1999/xlink" x="0px" y="0px"
	 viewBox="0 0 512 512" style="enable-background:new 0 0 512 512;" xml:space="preserve">
<path style="fill:#F0EFEB;" d="M512,256c0,20.658-2.445,40.741-7.074,59.988c-15.256,63.572-54.241,117.906-107.06,153.14
	C357.261,496.212,308.475,512,256,512c-53.52,0-103.194-16.415-144.269-44.502c-45.15-30.845-79.903-75.766-97.959-128.449
	C4.848,313.01,0,285.069,0,256c0-20.658,2.445-40.741,7.074-59.988c8.892-37.063,25.851-70.99,48.922-99.809
	C102.902,37.564,175.062,0,256,0c80.321,0,152.001,36.989,198.928,94.866c23.625,29.111,40.97,63.519,49.998,101.146
	C509.555,215.259,512,235.342,512,256z"/>
<path style="fill:#00529E;" d="M159.305,94.866v312.529c0,29.226-20.302,53.697-47.574,60.103
	c-45.15-30.845-79.903-75.766-97.959-128.449c11.557,2.654,23.301,4.232,35.119,5.235c16.896,1.442,33.782,1.578,50.563-1.317
	c11.055-1.912,21.629-5.151,30.814-11.891c9.979-7.325,15.37-17.293,16.886-29.477c0.408-3.291,0.449-6.572,0.449-9.864
	c-0.01-22.444-0.031-47.637,0.042-70.081H93.978c0.052,23.855,0.209,50.385-0.084,74.23c-0.209,16.572-11.577,28.003-28.16,29.194
	c-14.242,1.014-27.888-1.829-41.242-6.405c-5.402-1.849-10.616-4.159-15.799-6.541c-0.846-0.387-1.62-1.233-1.62-1.233v-154.3
	c0-29.706,20.971-54.502,48.922-60.395c4.138-0.878,8.422-1.337,12.81-1.337C68.807,94.866,159.305,94.866,159.305,94.866z"/>
<path style="fill:#C70C2F;" d="M241.906,94.868c-34.094,0-61.732,27.639-61.732,61.732v81.679c0.062,0.052,0.132,0.099,0.216,0.146
	c0.329-0.235,0.706-0.481,1.06-0.758c5.443-4.327,11.488-7.581,17.928-10.146c15.137-6.031,31.022-8.075,47.148-8.705
	c22.92-0.9,45.453,1.869,67.723,7.209c1.93,0.462,2.279,1.177,2.255,2.929c-0.09,7.298-0.085,14.595-0.004,21.889
	c0.019,1.775-0.395,2.015-1.93,1.214c-5.141-2.689-10.462-4.996-15.965-6.808c-16.13-5.321-32.576-8.197-49.511-4.906
	c-15.42,2.999-26.785,11.243-31.672,26.733c-3.145,9.967-3.027,20.128-0.038,30.137c3.121,10.452,9.723,18.112,19.548,22.91
	c6.206,3.032,12.834,4.553,19.699,4.934c19.224,1.069,37.322-3.376,54.662-11.375c1.667-0.772,3.282-1.648,5.174-2.194
	c0,8.329-0.038,16.483,0.038,24.643c0.015,1.37-0.626,1.714-1.704,1.968c-11.662,2.778-23.437,4.972-35.358,6.182
	c-16.987,1.719-33.994,1.832-50.947-0.387c-17.359-2.274-33.87-6.893-48.32-18.3v143.535h90.501
	c34.094,0,61.733-27.639,61.733-61.732V94.868H241.906z"/>
<g>
	<path style="fill:#28A032;" d="M504.926,94.866v221.121c-15.256,63.572-54.241,117.906-107.06,153.14h-45.181v-127.08
		c0,0,64.042,0.052,94.95,0.136c9.091,0.021,17.774-1.411,25.778-5.883c13.437-7.502,19.08-22.831,13.228-36.143
		c-3.783-8.61-10.867-13.5-19.404-16.635c-4.483-1.651-9.164-2.393-13.897-3.145c4.096-0.951,8.119-1.87,11.87-3.699
		c10.146-4.953,15.935-12.915,16.332-24.325c0.397-11.421-4.901-19.634-14.848-24.973c-4.598-2.476-9.561-3.835-14.733-4.535
		c-5.214-0.69-10.449-0.878-15.715-0.867c-27.073,0.052-83.56,0.115-83.56,0.115v-65.494c0-34.095,27.648-61.733,61.733-61.733
		C414.417,94.866,504.926,94.866,504.926,94.866z"/>
	<path style="fill:#28A032;" d="M416.865,270.711c8.704-0.207,14.903-6.701,14.908-15.02c0.005-8.226-5.824-14.397-14.45-14.858
		c-5.392-0.288-34.281,0-34.281,0l0.013,29.878C383.055,270.711,406.132,270.966,416.865,270.711z"/>
	<path style="fill:#28A032;" d="M383.037,322.211c0,0,24.196,0.032,35.254,0c2.348-0.007,4.71-0.098,6.974-0.836
		c7.334-2.391,11.961-9.979,10.842-17.746c-1.156-8.021-7.838-14.173-15.638-14.277c-5.724-0.076-37.444-0.093-37.444-0.093
		L383.037,322.211z"/>
</g>
<g>
</g>
<g>
</g>
<g>
</g>
<g>
</g>
<g>
</g>
<g>
</g>
<g>
</g>
<g>
</g>
<g>
</g>
<g>
</g>
<g>
</g>
<g>
</g>
<g>
</g>
<g>
</g>
<g>
</g>
</svg>
