<?xml version="1.0" encoding="iso-8859-1"?>
<!-- Generator: Adobe Illustrator 19.0.0, SVG Export Plug-In . SVG Version: 6.00 Build 0)  -->
<svg version="1.1" id="Capa_1" xmlns="http://www.w3.org/2000/svg" xmlns:xlink="http://www.w3.org/1999/xlink" x="0px" y="0px"
	 viewBox="0 0 512 512" style="enable-background:new 0 0 512 512;" xml:space="preserve">
<circle style="fill:#755996;" cx="256" cy="256" r="256"/>
<g>
	<path style="fill:#BEA8D3;" d="M375.986,48.179H136.014L16.029,256l119.986,207.821h239.971L495.971,256L375.986,48.179z
		 M350.394,419.495H161.606L67.212,256l94.394-163.495h188.788L444.788,256L350.394,419.495z"/>
	<polygon style="fill:#BEA8D3;" points="303.548,165.075 164.583,165.075 164.583,204.779 232.492,204.779 232.492,237.692 
		164.583,237.692 164.583,277.396 232.492,277.396 272.196,277.396 272.196,237.692 272.196,204.779 303.548,204.779 
		303.548,304.04 164.583,304.04 164.583,343.744 303.548,343.744 343.252,343.744 343.252,304.04 343.252,204.779 343.252,165.075 	
		"/>
</g>
<g>
</g>
<g>
</g>
<g>
</g>
<g>
</g>
<g>
</g>
<g>
</g>
<g>
</g>
<g>
</g>
<g>
</g>
<g>
</g>
<g>
</g>
<g>
</g>
<g>
</g>
<g>
</g>
<g>
</g>
</svg>
