<?xml version="1.0" encoding="iso-8859-1"?>
<!-- Generator: Adobe Illustrator 19.0.0, SVG Export Plug-In . SVG Version: 6.00 Build 0)  -->
<svg version="1.1" id="Capa_1" xmlns="http://www.w3.org/2000/svg" xmlns:xlink="http://www.w3.org/1999/xlink" x="0px" y="0px"
	 viewBox="0 0 512 512" style="enable-background:new 0 0 512 512;" xml:space="preserve">
<path style="fill:#116BA0;" d="M512,256c0,141.385-114.615,256-256,256c-68.942,0-131.511-27.251-177.539-71.576
	C62.652,425.21,48.796,407.98,37.302,389.14C13.636,350.354,0,304.765,0,256C0,114.615,114.615,0,256,0
	c68.953,0,131.521,27.251,177.549,71.576c15.809,15.224,29.654,32.455,41.148,51.284C498.364,161.646,512,207.235,512,256z"/>
<path style="fill:#C1D3DB;" d="M469.608,60.991c-13.145,0-25.579,3.845-36.059,10.585c-13.709,8.808-24.106,22.559-28.463,39.163
	l-45.944,174.717L196.389,60.991h-21.358c-30.312,0-56.811,20.428-64.522,49.748L37.303,389.141
	c11.494,18.84,25.349,36.07,41.159,51.284c13.699-8.808,24.085-22.559,28.453-39.152l45.944-174.728L315.601,451.02h21.368
	c30.302,0,56.811-20.438,64.512-49.748l73.216-278.413l16.269-61.868L469.608,60.991L469.608,60.991z M331.4,390.949
	L168.647,166.484l13.072-49.727l162.753,224.475L331.4,390.949z"/>
<g>
</g>
<g>
</g>
<g>
</g>
<g>
</g>
<g>
</g>
<g>
</g>
<g>
</g>
<g>
</g>
<g>
</g>
<g>
</g>
<g>
</g>
<g>
</g>
<g>
</g>
<g>
</g>
<g>
</g>
</svg>
