<?xml version="1.0" encoding="iso-8859-1"?>
<!-- Generator: Adobe Illustrator 19.0.0, SVG Export Plug-In . SVG Version: 6.00 Build 0)  -->
<svg version="1.1" id="Capa_1" xmlns="http://www.w3.org/2000/svg" xmlns:xlink="http://www.w3.org/1999/xlink" x="0px" y="0px"
	 viewBox="0 0 512 512" style="enable-background:new 0 0 512 512;" xml:space="preserve">
<path style="fill:#F0EFEB;" d="M512,256c0,48.452-13.458,93.769-36.854,132.399c-3.49,5.757-7.189,11.368-11.118,16.823
	C417.573,469.891,341.703,512,256,512C114.615,512,0,397.385,0,256S114.615,0,256,0S512,114.615,512,256z"/>
<path style="fill:#433AC3;" d="M477.045,254.4c0.149,21.547-2.728,42.398-8.23,62.157c-2.412,8.66-13.478,11.198-19.442,4.472
	l-55.909-63.044c-3.549-4.003-5.63-9.061-6.109-14.39c-6.351-70.502-66.381-125.505-138.911-123.847
	c-72.766,1.663-131.994,61.429-133.061,134.206c-1.118,76.207,60.303,138.315,136.253,138.315c7.312,0,14.486-0.577,21.482-1.683
	c5.032-0.796,10.131,0.926,13.51,4.739l50.573,57.04c3.916,4.418,2.234,11.383-3.261,13.541
	c-26.15,10.268-54.682,15.792-84.545,15.501C127.12,480.218,27.275,380.255,26.225,257.98
	C25.159,133.661,124.74,32.346,248.399,30.607C372.96,28.855,476.18,129.831,477.045,254.4z"/>
<g>
	<path style="fill:#6361FF;" d="M422.197,438.235L314.841,317.147c-2.976-3.356-7.246-5.278-11.732-5.278h-47.428
		c-3.021,0-4.626,3.567-2.622,5.827l107.357,121.088c2.976,3.356,7.246,5.278,11.732,5.278h47.428
		C422.597,444.063,424.201,440.496,422.197,438.235z"/>
	<path style="fill:#6361FF;" d="M475.146,388.399c-3.49,5.757-7.189,11.368-11.118,16.823h-29.194
		c-4.483,0-8.756-1.923-11.724-5.277L315.747,278.852c-2.006-2.257-0.397-5.82,2.623-5.82h47.428c4.483,0,8.756,1.923,11.734,5.277
		L475.146,388.399z"/>
</g>
<g>
</g>
<g>
</g>
<g>
</g>
<g>
</g>
<g>
</g>
<g>
</g>
<g>
</g>
<g>
</g>
<g>
</g>
<g>
</g>
<g>
</g>
<g>
</g>
<g>
</g>
<g>
</g>
<g>
</g>
</svg>
