<?xml version="1.0" encoding="iso-8859-1"?>
<!-- Generator: Adobe Illustrator 19.0.0, SVG Export Plug-In . SVG Version: 6.00 Build 0)  -->
<svg version="1.1" id="Capa_1" xmlns="http://www.w3.org/2000/svg" xmlns:xlink="http://www.w3.org/1999/xlink" x="0px" y="0px"
	 viewBox="0 0 511.999 511.999" style="enable-background:new 0 0 511.999 511.999;" xml:space="preserve">
<path style="fill:#F0EFEB;" d="M508.244,255.999c0,52.681-16.036,101.638-43.491,142.215c-4.719,6.97-9.771,13.691-15.144,20.143
	c-46.603,56.073-116.875,91.764-195.487,91.764c-83.196,0-157.058-39.975-203.412-101.773c-4.222-5.632-8.215-11.441-11.959-17.415
	c-10.455-16.648-19.033-34.592-25.423-53.542c0,0,0,0-0.01,0c-5.051-14.936-8.744-30.495-10.943-46.53
	C0.809,279.461,0,267.824,0,255.999c0-22.767,2.998-44.829,8.609-65.823c4.17-15.61,9.791-30.629,16.72-44.902
	C66.476,60.398,153.469,1.877,254.122,1.877C394.47,1.877,508.244,115.651,508.244,255.999z"/>
<g>
	<path style="fill:#FEBA01;" d="M464.753,398.214c-4.719,6.97-9.771,13.691-15.144,20.143c-13.982,2.157-28.005,3.993-42.06,5.591
		c-19.479,2.209-39,3.838-58.552,5.051c-11.814,0.726-23.649,1.048-35.473,1.587c-0.726,0.031-1.618-0.456-2.178,0.456h-58.147
		c-5.238-0.685-10.507-0.342-15.766-0.55c-18.307-0.726-36.594-1.649-54.859-3.132c-14.749-1.203-29.478-2.655-44.176-4.429
		c-21.678-2.624-43.263-5.891-64.723-9.937c-7.676-1.442-15.341-2.987-22.964-4.647c-4.222-5.632-8.215-11.441-11.959-17.415
		c25.599,4.149,51.312,7.53,77.118,10.217c29.603,3.091,59.278,5.28,89.015,6.576c14.148,0.612,28.306,1.027,42.464,1.328
		c15.133,0.332,30.266,0.446,45.389,0.27c23.441-0.28,46.873-0.934,70.293-2.23c23.006-1.286,45.97-3.008,68.903-5.259
		C442.898,400.755,453.841,399.552,464.753,398.214z"/>
	<path style="fill:#FEBA01;" d="M89.596,128.264c-23.898-0.643-45.835,5.736-64.267,17.011
		c-6.929,14.272-12.551,29.291-16.72,44.902c17.54-24.499,46.261-40.172,77.647-39.882c52.878,0,95.519,42.744,95.208,96.017
		c-0.311,52.671-43.585,94.637-95.612,94.482c-35.567-0.104-67.233-20.102-83.477-49.932c2.199,16.036,5.891,31.594,10.943,46.53
		c0.01,0,0.01,0,0.01,0c19.759,15.745,44.694,25.225,71.818,25.35c65.74,0.29,118.245-52.007,118.245-117.207
		C203.681,181.889,152.401,129.955,89.596,128.264z"/>
</g>
<g>
	<path style="fill:#424143;" d="M273.569,206.355c-5.226,17.023-10.38,33.811-15.534,50.598
		c-3.702,12.06-7.476,24.099-11.036,36.202c-0.632,2.147-1.92,1.768-3.368,1.907c-1.555,0.149-2.184-0.406-2.61-1.944
		c-6.974-25.248-14.017-50.478-21.053-75.709c-1.631-5.848-3.247-11.701-4.966-17.523c-0.466-1.577-0.231-2.067,1.512-2.065
		c4.687,0.005,4.646-0.06,5.925,4.823c7.084,27.052,14.19,54.098,21.298,81.18c1.094-0.428,0.935-1.477,1.166-2.238
		c8.24-27.129,16.474-54.26,24.593-81.426c0.593-1.984,1.474-2.386,3.316-2.339c4.458,0.112,4.491,0.021,5.751,4.19
		c8.066,26.676,16.117,53.356,24.176,80.035c0.185,0.61,0.41,1.207,0.658,1.931c0.885-0.781,0.876-1.883,1.116-2.791
		c7.114-26.962,14.226-53.926,21.182-80.929c0.612-2.376,1.794-2.469,3.672-2.424c3.752,0.09,3.721,0.018,2.732,3.554
		c-8.515,30.46-17.021,60.923-25.51,91.391c-0.378,1.357-0.545,2.594-2.536,2.307c-1.534-0.221-2.83,0.211-3.518-2.064
		c-8.469-27.965-17.097-55.882-25.695-83.808C274.566,208.328,274.517,207.331,273.569,206.355z"/>
	<path style="fill:#424143;" d="M355.246,206.102c-0.261-6.453-1.052-5.17,4.313-6.42c13.449-3.136,27.038-4.26,40.595-0.75
		c10.514,2.723,16.176,9.619,17.405,20.402c0.336,2.945,0.499,5.893,0.496,8.86c-0.021,21.137,0.001,42.273-0.057,63.41
		c-0.002,0.802,0.887,2.143-0.868,2.477c-1.697,0.324-2.436-0.478-2.886-2.007c-0.493-1.675-0.758-4.066-1.923-4.719
		c-1.267-0.712-2.952,1.298-4.541,1.947c-13.512,5.521-27.382,7.757-41.699,3.868c-12.034-3.27-19.249-12.87-19.646-25.381
		c-0.25-7.877,0.868-15.347,6.52-21.413c4.978-5.343,11.46-7.745,18.412-8.97c10.178-1.792,20.532-1.608,30.798-2.436
		c2.709-0.219,5.428-0.338,8.142-0.485c0.735-0.039,1.485,0.027,1.483-1.053c-0.016-6.55,0.416-13.161-1.966-19.454
		c-2.555-6.748-8.086-9.657-14.731-10.744c-12.997-2.125-25.815-0.958-38.466,2.508
		C356.174,205.866,355.718,205.979,355.246,206.102z M411.795,260.447c0-6.323-0.044-12.647,0.031-18.97
		c0.019-1.551-0.309-1.991-1.984-1.844c-5.73,0.504-11.486,0.7-17.218,1.177c-7.083,0.59-14.234,0.503-21.24,1.872
		c-7.677,1.5-14.015,4.957-17.14,12.627c-1.722,4.227-1.895,8.68-1.635,13.197c0.591,10.261,6.08,17.403,16.09,19.804
		c14.878,3.569,28.82,0.51,42.039-6.746c1.096-0.602,1.065-1.42,1.064-2.388C411.79,272.934,411.795,266.69,411.795,260.447z"/>
	<path style="fill:#424143;" d="M449.602,342.134c2.969-7.046,5.82-13.794,8.656-20.549c3.709-8.834,7.377-17.687,11.138-26.499
		c0.615-1.441,0.602-2.666,0.04-4.105c-11.702-30.048-23.368-60.11-35.035-90.171c-0.342-0.883-0.633-1.785-1.041-2.946
		c2.101,0,3.999,0.059,5.89-0.02c1.388-0.057,1.47,1.009,1.785,1.858c5.957,16.011,11.902,32.025,17.842,48.042
		c4.525,12.201,9.039,24.406,13.566,36.606c0.108,0.289,0.309,0.545,0.632,1.1c2.752-7.359,5.416-14.474,8.073-21.591
		c8.013-21.464,16.037-42.925,23.998-64.409c0.485-1.31,1.163-1.606,2.436-1.616c5.121-0.037,5.136-0.072,3.315,4.594
		c-15.911,40.749-31.827,81.495-47.745,122.242c-2.005,5.131-4.084,10.235-5.987,15.404c-0.582,1.581-1.322,2.302-3.054,2.092
		C452.774,342.004,451.399,342.134,449.602,342.134z"/>
	<path style="fill:#424143;" d="M131.608,276.703c0,8.026-0.035,15.791,0.035,23.555c0.011,1.294-0.717,1.569-1.618,1.955
		c-11.606,4.971-23.754,7.373-36.339,7.827c-9.381,0.339-18.691,0.007-27.746-2.735C49.127,302.211,39.19,290.538,34.518,274
		c-4.148-14.684-4.378-29.679-3.132-44.747c0.715-8.643,2.437-17.083,5.944-25.069c6.431-14.645,17.652-23.321,33.225-26.574
		c10.87-2.271,21.774-2.479,32.633-0.21c16.329,3.411,26.537,13.507,31.275,29.355c2.866,9.586,3.738,19.443,3.952,29.38
		c0.119,5.521-0.001,11.049,0.158,16.569c0.057,2.005-0.334,2.706-2.568,2.7c-25.179-0.078-50.358,0.015-75.535-0.079
		c-2.459-0.009-2.602,0.834-2.203,2.758c0.617,2.972,1.197,5.939,2.167,8.832c4.124,12.309,13.064,18.714,26.124,18.919
		c15.092,0.238,29.581-2.401,43.4-8.544C130.38,277.102,130.835,276.976,131.608,276.703z M84.497,232.557
		c8.33,0,16.66-0.033,24.99,0.031c1.43,0.011,1.939-0.291,1.879-1.834c-0.194-5.127-0.538-10.23-1.921-15.193
		c-2.319-8.325-7.535-13.554-16.266-14.88c-4.794-0.728-9.562-0.558-14.307,0.505c-7.491,1.678-12.994,5.86-16.462,12.742
		c-2.631,5.222-3.728,10.827-4.541,16.554c-0.266,1.872,0.235,2.117,1.876,2.104C67.997,232.521,76.247,232.557,84.497,232.557z"/>
</g>
<g>
</g>
<g>
</g>
<g>
</g>
<g>
</g>
<g>
</g>
<g>
</g>
<g>
</g>
<g>
</g>
<g>
</g>
<g>
</g>
<g>
</g>
<g>
</g>
<g>
</g>
<g>
</g>
<g>
</g>
</svg>
