<?xml version="1.0" encoding="iso-8859-1"?>
<!-- Generator: Adobe Illustrator 19.0.0, SVG Export Plug-In . SVG Version: 6.00 Build 0)  -->
<svg version="1.1" id="Capa_1" xmlns="http://www.w3.org/2000/svg" xmlns:xlink="http://www.w3.org/1999/xlink" x="0px" y="0px"
	 viewBox="0 0 512 512" style="enable-background:new 0 0 512 512;" xml:space="preserve">
<path style="fill:#353535;" d="M512,256c0,39.163-8.798,76.278-24.524,109.464c-14.315,30.239-34.398,57.229-58.817,79.538
	C383.133,486.619,322.539,512,256,512c-64.345,0-123.12-23.73-168.093-62.913c-12.455-10.846-23.834-22.873-33.991-35.913
	C20.125,369.8,0,315.246,0,256c0-59.214,20.104-113.737,53.875-157.111v-0.01C62.13,88.273,71.199,78.336,81,69.162
	C126.777,26.258,188.312,0,256,0C397.385,0,512,114.615,512,256z"/>
<g>
	<path style="fill:#F0EFEB;" d="M359.108,69.163c-0.135,14.001-0.953,27.958-2.855,41.834
		c-4.082,29.776-12.256,58.379-24.825,85.701c-14.87,32.325-34.81,61.145-59.917,86.358c-1.55,1.557-1.125,2.385-0.086,3.8
		c39.101,53.261,78.172,106.543,117.246,159.824c0.476,0.65,0.936,1.312,1.446,2.027c-0.751,0.631-1.509,0.369-2.18,0.37
		c-34.364,0.017-68.726,0.004-103.09,0.048c-1.622,0.002-2.634-0.424-3.633-1.789c-42.607-58.193-85.251-116.36-127.955-174.482
		c-1.394-1.898-1.346-2.69,0.586-4.158c15.454-11.746,31.68-22.519,46.163-35.496c37.581-33.678,61.101-75.328,70.139-125.046
		c2.342-12.885,3.649-25.871,3.263-38.99C301.977,69.163,330.543,69.163,359.108,69.163z"/>
	<path style="fill:#F0EFEB;" d="M141.427,445.858c0,2.602-0.502,3.323-3.229,3.302c-16.76-0.073-33.531-0.073-50.291-0.073
		c-12.455-10.846-23.834-22.873-33.991-35.913c0-104.761,0-209.523-0.042-314.284v-0.01c0-9.08-0.01-18.15-0.01-27.23
		c0-2.069,0.46-2.55,2.539-2.539c8.202,0.031,16.405,0.042,24.597,0.052c20.093,0.021,40.187,0,60.27,0
		c0.031,1.014,0.084,2.027,0.084,3.03C141.364,196.754,141.354,321.306,141.427,445.858z"/>
	<path style="fill:#F0EFEB;" d="M487.476,365.464c-14.315,30.239-34.398,57.229-58.817,79.538
		c-12.246-8.997-20.24-23.51-20.292-39.852c-0.084-27.157,22.277-49.507,49.539-49.497
		C469.023,355.652,479.263,359.299,487.476,365.464z"/>
</g>
<g>
</g>
<g>
</g>
<g>
</g>
<g>
</g>
<g>
</g>
<g>
</g>
<g>
</g>
<g>
</g>
<g>
</g>
<g>
</g>
<g>
</g>
<g>
</g>
<g>
</g>
<g>
</g>
<g>
</g>
</svg>
