<?xml version="1.0" encoding="iso-8859-1"?>
<!-- Generator: Adobe Illustrator 19.0.0, SVG Export Plug-In . SVG Version: 6.00 Build 0)  -->
<svg version="1.1" id="Capa_1" xmlns="http://www.w3.org/2000/svg" xmlns:xlink="http://www.w3.org/1999/xlink" x="0px" y="0px"
	 viewBox="0 0 512 512" style="enable-background:new 0 0 512 512;" xml:space="preserve">
<path style="fill:#F2F2F2;" d="M512,256c0,23.04-3.041,45.369-8.756,66.612C473.934,431.7,374.345,512,256,512
	C137.634,512,38.024,431.658,8.735,322.539C3.041,301.317,0,279.009,0,256c0-23.05,3.051-45.39,8.767-66.644
	C38.087,80.29,137.665,0,256,0c118.356,0,217.955,80.321,247.254,189.419C508.959,210.651,512,232.97,512,256z"/>
<g>
	<path style="fill:#606062;" d="M269.103,325.005c-3.783,22.685-14.848,38.912-33.823,49.57
		c-30.396,17.095-77.04,17.408-119.035,10.512c-8.129-1.337-18.056-3.699-27.627-6.228c-32.632-8.641-61.388-28.432-79.882-56.32
		C3.041,301.317,0,279.009,0,256c0-23.05,3.051-45.39,8.767-66.644c4.169-6.405,8.944-12.612,14.252-18.589
		c-1.494,20.971,7.105,42.224,25.161,60.28c26.499,26.509,73.665,31.389,119.286,36.112c40.636,4.19,82.672,8.547,96.893,27.23
		C269.803,301.516,271.339,311.526,269.103,325.005z"/>
	<path style="fill:#606062;" d="M441.33,380.452c-48.148,29.634-113.437,47.834-185.346,47.834c-18.032,0-35.654-1.156-52.674-3.322
		c18.368-2.961,35.726-8.33,50.845-16.828c28.961-16.274,47.282-42.852,52.939-76.797c4.021-24.194-0.048-44.489-12.085-60.305
		c-24.339-31.923-74.798-37.147-123.572-42.201c-38.928-4.021-79.179-8.186-96.031-25.013c-9.846-9.87-19.62-25.302-10.184-42.803
		c11.267-20.848,46.824-38.133,90.567-29.057C230.49,147.487,301.316,162.172,441.33,380.452z"/>
</g>
<g>
	<path style="fill:#F78624;" d="M255.984,83.715c82.502,0,156.289,23.953,205.448,61.63v195.456
		c-141.458-214.113-220.831-230.58-297.82-246.542c-0.024,0-0.072-0.024-0.096-0.024C192.357,87.422,223.485,83.715,255.984,83.715z
		"/>
	<path style="fill:#F78624;" d="M512,256c0,23.04-3.041,45.369-8.756,66.612c-1.055,1.63-2.152,3.25-3.291,4.848v-142.9
		c1.139,1.609,2.247,3.229,3.302,4.859C508.959,210.651,512,232.97,512,256z"/>
</g>
<g>
</g>
<g>
</g>
<g>
</g>
<g>
</g>
<g>
</g>
<g>
</g>
<g>
</g>
<g>
</g>
<g>
</g>
<g>
</g>
<g>
</g>
<g>
</g>
<g>
</g>
<g>
</g>
<g>
</g>
</svg>
