<?xml version="1.0" encoding="iso-8859-1"?>
<!-- Generator: Adobe Illustrator 19.0.0, SVG Export Plug-In . SVG Version: 6.00 Build 0)  -->
<svg version="1.1" id="Capa_1" xmlns="http://www.w3.org/2000/svg" xmlns:xlink="http://www.w3.org/1999/xlink" x="0px" y="0px"
	 viewBox="0 0 512 512" style="enable-background:new 0 0 512 512;" xml:space="preserve">
<path style="fill:#F0EFEB;" d="M512,256c0,104.187-62.245,193.839-151.573,233.796c-28.264,12.654-59.235,20.323-91.815,21.891
	c-4.18,0.209-8.38,0.313-12.612,0.313c-4.075,0-8.119-0.094-12.142-0.293c-32.632-1.515-63.655-9.143-91.972-21.765
	C62.391,450.048,0,360.312,0,256c0-78.858,35.652-149.379,91.721-196.336c11.41-9.561,23.667-18.15,36.645-25.621
	C165.94,12.382,209.523,0,256,0C397.385,0,512,114.615,512,256z"/>
<g>
	<path style="fill:#29B9ED;" d="M205.722,335.085L92.78,222.143v127.325c-0.233,2.072-0.433,4.155-0.588,6.25h104.977
		C198.728,348.237,201.674,341.268,205.722,335.085z"/>
	<path style="fill:#29B9ED;" d="M363.472,243.353c-25.872-22.262-58.741-36.613-94.862-39.301v104.977
		c7.479,1.559,14.45,4.505,20.633,8.554L363.472,243.353z"/>
	<path style="fill:#29B9ED;" d="M197.168,380.469H92.191c2.686,36.121,17.039,68.991,39.301,94.862l74.23-74.23
		C201.674,394.919,198.728,387.95,197.168,380.469z"/>
	<path style="fill:#29B9ED;" d="M315.298,355.718h104.977c-2.686-36.121-17.039-68.991-39.301-94.862l-74.23,74.23
		C310.793,341.268,313.739,348.237,315.298,355.718z"/>
	<path style="fill:#29B9ED;" d="M306.744,401.102l74.23,74.23c22.262-25.872,36.613-58.741,39.301-94.862H315.298
		C313.739,387.95,310.793,394.919,306.744,401.102z"/>
	<path style="fill:#29B9ED;" d="M243.858,427.154v84.553c-32.632-1.515-63.655-9.143-91.972-21.765l71.335-71.335
		C229.407,422.651,236.377,425.597,243.858,427.154z"/>
	<path style="fill:#29B9ED;" d="M360.427,489.796c-28.264,12.654-59.235,20.323-91.815,21.891v-84.532
		c7.481-1.557,14.451-4.504,20.626-8.547L360.427,489.796z"/>
	<path style="fill:#29B9ED;" d="M91.718,186.076l57.276,57.276l74.23,74.23c6.183-4.049,13.153-6.995,20.633-8.554V228.35v-24.298
		v-66.46L91.718,1.194V186.076z"/>
</g>
<g>
</g>
<g>
</g>
<g>
</g>
<g>
</g>
<g>
</g>
<g>
</g>
<g>
</g>
<g>
</g>
<g>
</g>
<g>
</g>
<g>
</g>
<g>
</g>
<g>
</g>
<g>
</g>
<g>
</g>
</svg>
