<?xml version="1.0" encoding="iso-8859-1"?>
<!-- Generator: Adobe Illustrator 19.0.0, SVG Export Plug-In . SVG Version: 6.00 Build 0)  -->
<svg version="1.1" id="Capa_1" xmlns="http://www.w3.org/2000/svg" xmlns:xlink="http://www.w3.org/1999/xlink" x="0px" y="0px"
	 viewBox="0 0 512 512" style="enable-background:new 0 0 512 512;" xml:space="preserve">
<path style="fill:#F0EFEB;" d="M512,256c0,12.298-0.867,24.398-2.55,36.227C491.854,416.454,385.087,512,256,512
	C135.032,512,33.667,428.105,6.917,315.319C2.393,296.281,0,276.417,0,256c0-18.045,1.87-35.662,5.423-52.652c0,0,0,0,0.01,0
	C29.696,87.218,132.66,0,256,0c132.901,0,242.145,101.272,254.777,230.86v0.01C511.592,239.135,512,247.515,512,256z"/>
<path style="fill:#E82F31;" d="M54.774,189.837c-22.497,0-38.285,5.496-49.34,13.511c-0.01,0-0.01,0-0.01,0
	C1.87,220.338,0,237.955,0,256c0,20.417,2.393,40.281,6.917,59.319c10.574,6.99,25.328,11.776,45.923,11.776
	c65.735,0,68.629-41.566,68.629-41.566H91.512c0,0-5.799,22.235-38.672,21.264c-41.556,0-43.489-41.556-43.489-41.556h115.984
	C126.307,265.237,135.001,189.837,54.774,189.837z M10.313,245.896c0,0,1.933-36.728,43.499-36.728s41.566,36.728,41.566,36.728
	H10.313L10.313,245.896z"/>
<path style="fill:#0061D5;" d="M209.428,190.807c-36.729,0-50.262,21.265-50.262,21.265V139.58h-32.863l0.967,153.684
	c0,0,0,20.298-0.967,29.964h28.03l0.967-17.399c0,0,13.531,21.265,52.195,21.265s69.592-24.164,70.559-67.659
	C278.054,215.938,245.191,190.807,209.428,190.807z M200.729,307.761c-45.428,0.967-45.428-48.329-45.428-48.329
	s-1.933-47.361,45.428-48.329c46.395-0.967,45.428,49.295,45.428,49.295S246.157,306.795,200.729,307.761z"/>
<path style="fill:#F7B000;" d="M410.472,292.296c0-20.298,0.967-37.696,0-50.262c-0.967-14.498,0.967-51.228-61.86-54.128
	c0,0-59.927-0.967-66.693,37.696h30.93c0,0,1.933-19.332,33.83-18.365c29.964,0.967,34.796,15.464,34.796,33.83
	c0,0-25.131,0.967-33.83,0.967c-15.464,0-68.626,1.933-73.458,34.796c-5.799,38.662,28.03,50.262,55.094,50.262
	s42.528-7.732,54.128-22.231l0.967,18.365h27.064C411.439,322.259,410.472,312.594,410.472,292.296z M334.114,308.728
	c0,0-28.997,0-30.93-23.198c-1.933-25.131,44.461-23.198,44.461-23.198h32.863C381.476,262.332,387.275,309.694,334.114,308.728z"/>
<path style="fill:#85BA00;" d="M512,256c0,12.298-0.867,24.398-2.55,36.227l-40.981,79.329h-32.862l26.091-48.327L395.002,197.57
	h33.834l49.298,98.597l32.643-65.296C511.592,239.135,512,247.515,512,256z"/>
<g>
</g>
<g>
</g>
<g>
</g>
<g>
</g>
<g>
</g>
<g>
</g>
<g>
</g>
<g>
</g>
<g>
</g>
<g>
</g>
<g>
</g>
<g>
</g>
<g>
</g>
<g>
</g>
<g>
</g>
</svg>
