<?xml version="1.0" encoding="iso-8859-1"?>
<!-- Generator: Adobe Illustrator 19.0.0, SVG Export Plug-In . SVG Version: 6.00 Build 0)  -->
<svg version="1.1" id="Capa_1" xmlns="http://www.w3.org/2000/svg" xmlns:xlink="http://www.w3.org/1999/xlink" x="0px" y="0px"
	 viewBox="0 0 512 512" style="enable-background:new 0 0 512 512;" xml:space="preserve">
<path style="fill:#3979A8;" d="M512,256c0,128.585-94.793,235.018-218.311,253.241C281.391,511.06,268.81,512,256,512
	s-25.401-0.94-37.7-2.759C94.793,491.018,0,384.575,0,256C0,114.615,114.615,0,256,0S512,114.615,512,256z"/>
<path style="fill:#2451BD;" d="M487.403,315.528L293.689,509.241C281.391,511.06,268.81,512,256,512s-25.401-0.94-37.7-2.759
	L24.586,315.528c-20.752-20.762-20.752-54.408,0-75.17L218.415,46.54c20.762-20.762,54.408-20.762,75.16,0l193.829,193.818
	C508.165,261.12,508.165,294.766,487.403,315.528z"/>
<path style="fill:#00ADE9;" d="M422.661,380.27L293.689,509.241C281.391,511.06,268.81,512,256,512s-25.401-0.94-37.7-2.759
	L90.112,381.043l166.661-166.661L422.661,380.27z"/>
<path style="fill:#0F3863;" d="M153.673,111.28l103.099,103.099L90.108,381.043L24.59,315.525
	c-20.759-20.759-20.759-54.403,0-75.162L153.673,111.28z"/>
<path style="fill:#789EB3;" d="M293.578,46.537l65.518,65.518L256.772,214.379L153.673,111.28l64.743-64.743
	C239.175,25.777,272.819,25.777,293.578,46.537z"/>
<path style="fill:#B0D4E6;" d="M460.645,213.603l26.76,26.76c20.759,20.759,20.759,54.403,0,75.162l-64.744,64.743l-64.341-64.341
	L460.645,213.603z"/>
<g>
</g>
<g>
</g>
<g>
</g>
<g>
</g>
<g>
</g>
<g>
</g>
<g>
</g>
<g>
</g>
<g>
</g>
<g>
</g>
<g>
</g>
<g>
</g>
<g>
</g>
<g>
</g>
<g>
</g>
</svg>
