<?xml version="1.0" encoding="iso-8859-1"?>
<!-- Generator: Adobe Illustrator 19.0.0, SVG Export Plug-In . SVG Version: 6.00 Build 0)  -->
<svg version="1.1" id="Capa_1" xmlns="http://www.w3.org/2000/svg" xmlns:xlink="http://www.w3.org/1999/xlink" x="0px" y="0px"
	 viewBox="0 0 512 512" style="enable-background:new 0 0 512 512;" xml:space="preserve">
<path style="fill:#F0EFEB;" d="M512,256c0,13.782-1.087,27.314-3.197,40.511C489.388,418.649,383.603,512,256,512
	C126.757,512,19.884,416.225,2.487,291.777C0.846,280.085,0,268.142,0,256s0.846-24.085,2.487-35.777C19.884,95.775,126.757,0,256,0
	c126.934,0,232.281,92.379,252.5,213.577C510.798,227.37,512,241.549,512,256z"/>
<g>
	<path style="fill:#00A500;" d="M72.965,256c0,24.482-19.843,44.325-44.325,44.325c-9.78,0-18.829-3.177-26.154-8.547
		C0.846,280.085,0,268.142,0,256s0.846-24.085,2.487-35.777c7.325-5.371,16.374-8.547,26.154-8.547
		c19.09,0,35.359,12.069,41.597,28.996H45.704c-4.117-5.005-10.198-8.192-17.011-8.192c-12.382,0-22.434,10.533-22.434,23.521
		s10.052,23.521,22.434,23.521c8.307,0,15.548-4.733,19.425-11.755H23.792v-16.865h48.87C72.861,252.573,72.965,254.276,72.965,256z
		"/>
	<path style="fill:#00A500;" d="M118.711,269.249c6.395-1.62,19.226-7.346,19.226-27.157c0-27.533-22.183-28.745-34.712-28.745
		H76.842v85.159h20.647v-27.282l16.165,27.094h25.621L118.711,269.249z M97.583,252.803V232.72c0,0,19.508-3.636,19.508,9.373
		C117.091,255.101,101.407,252.803,97.583,252.803z"/>
	<path style="fill:#00A500;" d="M184.79,212.261c-24.137,0-43.708,19.675-43.708,43.959c0,24.273,19.571,43.959,43.708,43.959
		s43.708-19.686,43.708-43.959C228.498,231.936,208.927,212.261,184.79,212.261z M184.79,278.81
		c-12.403,0-22.465-10.115-22.465-22.591c0-12.476,10.062-22.591,22.465-22.591s22.465,10.115,22.465,22.591
		C207.256,268.695,197.193,278.81,184.79,278.81z"/>
	<path style="fill:#00A500;" d="M409.59,212.261c-24.148,0-43.719,19.675-43.719,43.959c0,24.273,19.571,43.959,43.719,43.959
		c24.137,0,43.708-19.686,43.708-43.959C453.298,231.936,433.727,212.261,409.59,212.261z M409.59,278.81
		c-12.413,0-22.465-10.115-22.465-22.591c0-12.476,10.052-22.591,22.465-22.591c12.403,0,22.455,10.115,22.455,22.591
		C432.044,268.695,421.992,278.81,409.59,278.81z"/>
	<path style="fill:#00A500;" d="M275.243,213.408v56.701c0,5.756-4.667,10.422-10.422,10.422l0,0
		c-5.756,0-10.422-4.667-10.422-10.422v-56.701h-21.036v56.608c0,16.157,13.098,29.255,29.255,29.255h4.405
		c16.157,0,29.255-13.098,29.255-29.255v-56.608L275.243,213.408L275.243,213.408z"/>
	<path style="fill:#00A500;" d="M328.694,213.588H302.3v84.731h20.658v-27.387c5.768,0.199,12.528,0.136,17.69-0.825
		c0,0,22.758-1.818,22.758-28.202C363.405,214.361,341.222,213.588,328.694,213.588z M323.103,252.803V232.72
		c0,0,19.498-3.636,19.498,9.373C342.601,255.101,326.928,252.803,323.103,252.803z"/>
	<path style="fill:#00A500;" d="M512,256c0,13.782-1.087,27.314-3.197,40.511l-30.657-45.516v47.125H457.3v-84.543h18.787
		l30.741,45.955v-45.955h1.672C510.798,227.37,512,241.549,512,256z"/>
</g>
<g>
</g>
<g>
</g>
<g>
</g>
<g>
</g>
<g>
</g>
<g>
</g>
<g>
</g>
<g>
</g>
<g>
</g>
<g>
</g>
<g>
</g>
<g>
</g>
<g>
</g>
<g>
</g>
<g>
</g>
</svg>
