<?xml version="1.0" encoding="iso-8859-1"?>
<!-- Generator: Adobe Illustrator 19.0.0, SVG Export Plug-In . SVG Version: 6.00 Build 0)  -->
<svg version="1.1" id="Capa_1" xmlns="http://www.w3.org/2000/svg" xmlns:xlink="http://www.w3.org/1999/xlink" x="0px" y="0px"
	 viewBox="0 0 512 512" style="enable-background:new 0 0 512 512;" xml:space="preserve">
<path style="fill:#F0EFEB;" d="M512,256c0,6.165-0.219,12.278-0.658,18.338c-0.491,7.116-1.285,14.137-2.372,21.076
	c-1.317,8.631-3.082,17.126-5.256,25.443C475,430.832,374.972,512,256,512c-57.522,0-110.602-18.965-153.349-50.991
	c-52.35-39.225-89.193-98.043-99.631-165.575C1.034,282.582,0,269.406,0,256c0-15.841,1.442-31.336,4.2-46.383
	C26.018,90.373,130.456,0,256,0c127.101,0,232.563,92.62,252.573,214.058c2.142,12.925,3.302,26.185,3.417,39.696
	C512,254.506,512,255.248,512,256z"/>
<g>
	<path style="fill:#5C5560;" d="M511.99,253.753c-0.115-13.511-1.275-26.77-3.417-39.696c-4.942-2.915-11.452-4.451-19.32-4.451
		h-24.816v85.807h16.75v-34.471h2.173l23.155,34.471h2.456c1.087-6.938,1.881-13.96,2.372-21.076l-11.264-15.067
		C504.895,258.288,508.897,256.428,511.99,253.753z M486.055,249.114h-4.869v-25.987h5.13c10.428,0,16.091,4.368,16.091,12.706
		C502.408,244.475,496.744,249.114,486.055,249.114z"/>
	<polygon style="fill:#5C5560;" points="453.35,280.891 453.35,295.414 405.905,295.414 405.905,209.611 453.35,209.611 
		453.35,224.152 422.627,224.152 422.627,243.192 452.241,243.192 452.241,257.723 422.627,257.723 422.627,280.891 	"/>
	<polygon style="fill:#5C5560;" points="398.323,209.611 361.255,297.595 352.295,297.595 315.875,209.611 334.156,209.611 
		357.027,267.242 380.204,209.611 	"/>
</g>
<path style="fill:#F98200;" d="M321.094,252.801c0,3.164-0.316,6.256-0.929,9.222c-0.135,0.658-0.343,1.317-0.495,1.993
	c-0.216,0.785-0.37,1.586-0.641,2.371c-5.733,18.57-23.105,32.066-43.586,32.066c-25.197,0-45.623-20.428-45.623-45.623
	c0-6.302,1.253-12.305,3.579-17.768c6.906-16.389,23.15-27.883,42.045-27.883C300.666,207.177,321.094,227.613,321.094,252.801z"/>
<path style="fill:#DF5000;" d="M238.179,261.187c0-6.302,1.253-12.305,3.579-17.768c6.906-16.389,23.15-27.882,42.045-27.882
	c10.481,0,20.128,3.537,27.831,9.47c-8.345-10.837-21.443-17.829-36.19-17.829c-18.895,0-35.14,11.494-42.045,27.882
	c-2.326,5.463-3.579,11.467-3.579,17.768c0,14.729,6.987,27.82,17.821,36.162C241.713,281.292,238.179,271.655,238.179,261.187z"/>
<g>
	<path style="fill:#5C5560;" d="M224.356,212.983v19.68c-6.932-6.806-12.99-9.664-20.977-9.664
		c-15.694,0-28.027,13.008-28.027,29.469c0,17.371,11.944,29.596,28.803,29.596c7.572,0,13.504-2.714,20.193-9.411v19.68
		c-7.59,3.615-13.765,5.012-20.987,5.012c-25.476,0-45.272-19.553-45.272-44.758c0-24.953,20.328-44.902,45.687-44.875
		C210.97,207.709,217.027,209.25,224.356,212.983z"/>
	<path style="fill:#5C5560;" d="M149.877,217.716l-8.753,11.484c-4.363-4.895-8.501-6.959-13.495-6.959
		c-7.221,0-12.485,4.101-12.485,9.511c0,4.615,2.957,7.095,13.017,10.8c19.004,6.951,24.665,13.117,24.665,26.738
		c0,16.623-12.207,28.18-29.596,28.216c-12.72,0-21.969-5.021-29.695-16.343l10.827-10.421c3.832,7.446,10.286,11.449,18.254,11.449
		c7.464,0,12.99-5.165,12.99-12.107c0-3.606-1.668-6.707-5.021-8.889c-1.677-1.028-5.012-2.569-11.566-4.877
		c-15.722-5.661-21.094-11.71-21.094-23.529c0-14.036,11.548-24.574,26.738-24.574C134.056,208.214,142.656,211.432,149.877,217.716
		z"/>
	<rect x="70.5" y="209.61" style="fill:#5C5560;" width="16.718" height="85.81"/>
	<path style="fill:#5C5560;" d="M16.729,209.617H4.2C1.442,224.663,0,240.159,0,256c0,13.406,1.034,26.582,3.02,39.434h13.615
		c12.967,0,22.34-3.072,30.605-9.916c9.77-8.129,15.538-20.323,15.538-32.935C62.777,227.265,43.865,209.617,16.729,209.617z
		 M36.268,274.066c-5.245,4.744-12.079,6.823-22.862,6.823H8.903v-56.738h4.504c10.783,0,17.345,1.944,22.862,6.938
		c5.799,5.162,9.279,13.155,9.279,21.368C45.547,260.692,42.068,268.915,36.268,274.066z"/>
</g>
<path style="fill:#F98200;" d="M503.714,320.857C475,430.832,374.972,512,256,512c-57.522,0-110.602-18.965-153.349-50.991
	C310.826,422.87,448.021,353.322,503.714,320.857z"/>
<g>
</g>
<g>
</g>
<g>
</g>
<g>
</g>
<g>
</g>
<g>
</g>
<g>
</g>
<g>
</g>
<g>
</g>
<g>
</g>
<g>
</g>
<g>
</g>
<g>
</g>
<g>
</g>
<g>
</g>
</svg>
