<?xml version="1.0" encoding="utf-8"?><svg xmlns="http://www.w3.org/2000/svg" xmlns:xlink="http://www.w3.org/1999/xlink" width="174" height="174" preserveAspectRatio="xMidYMid" viewBox="0 0 174 174" style="display:block;animation-play-state:paused" ><g transform="scale(0.6799999999999999)" style="animation-play-state:paused" ><defs style="animation-play-state:paused" ><g id="id-0.8339586577308877" style="animation-play-state:paused" ><style type="text/css" style="animation-play-state:paused" >.st1{fill:#323232}.st2{fill:#cccccb}</style>
<path id="XMLID_910_" class="st1" d="M50,74.07c-0.53,0-1.061-0.213-1.451-0.638L15.388,47.59H9.472 c-1.713,0-2.608,2.036-1.451,3.298l40.528,33.877c0.39,0.425,0.92,0.638,1.451,0.638c0.53,0,1.061-0.213,1.451-0.638l40.528-33.877 c1.157-1.262,0.262-3.298-1.451-3.298h-5.916L51.451,73.432C51.061,73.857,50.53,74.07,50,74.07z" data-fill="c1" style="fill:rgb(235, 235, 235);animation-play-state:paused" ></path>
<path id="XMLID_909_" class="st2" d="M50,41.077c-0.53,0-1.061-0.213-1.451-0.638L15.388,14.597H9.472 c-1.713,0-2.608,2.036-1.451,3.298l40.528,33.877c0.39,0.425,0.92,0.638,1.451,0.638c0.53,0,1.061-0.213,1.451-0.638l40.528-33.877 c1.157-1.262,0.262-3.298-1.451-3.298h-5.916L51.451,40.439C51.061,40.864,50.53,41.077,50,41.077z" data-fill="c2" style="fill:rgb(230, 230, 230);animation-play-state:paused" ></path>
<metadata xmlns:d="https://loading.io/stock/" style="animation-play-state:paused" ><d:name style="animation-play-state:paused" >down</d:name>
<d:tags style="animation-play-state:paused" >south,download,bottom,direction,way,dart,chevron,down,arrow</d:tags>
<d:license style="animation-play-state:paused" >by</d:license>
<d:slug style="animation-play-state:paused" >ia99jj</d:slug></metadata></g></defs>


































<g data-idx="0" data-dup="" dx="-128" dy="-128" style="transform-origin:-43.697px -33.235px;transform:matrix(1, 0, 0, 1, 0, 0);animation-timing-function:linear;animation-play-state:paused;animation-name:beat-86e01bf3-b05b-4b94-a0db-05f25bd11bbf;animation-iteration-count:infinite;animation-fill-mode:forwards;animation-duration:1.88679s" ><g transform="translate(-128,-128)" style="animation-play-state:paused" ><polygon fill="#B3B4B4" points="95.261,98.953 73.345,96.2 74.22,90.577 94.461,93.724 " data-fill="c3" style="fill:rgb(239, 239, 239);animation-play-state:paused" ></polygon></g></g>
<g data-idx="0" data-dup="" dx="128" dy="-128" style="transform-origin:212.303px -33.235px;transform:matrix(1, 0, 0, 1, 0, 0);animation-timing-function:linear;animation-play-state:paused;animation-name:beat-86e01bf3-b05b-4b94-a0db-05f25bd11bbf;animation-iteration-count:infinite;animation-fill-mode:forwards;animation-duration:1.88679s" ><g transform="translate(128,-128)" style="animation-play-state:paused" ><polygon fill="#B3B4B4" points="95.261,98.953 73.345,96.2 74.22,90.577 94.461,93.724 " data-fill="c3" style="fill:rgb(239, 239, 239);animation-play-state:paused" ></polygon></g></g>
<g data-idx="1" data-dup="" dx="-128" dy="-128" style="transform-origin:-89.8984px 85.4707px;transform:matrix(1, 0, 0, 1, 0, 0);animation-timing-function:linear;animation-play-state:paused;animation-name:beat-86e01bf3-b05b-4b94-a0db-05f25bd11bbf;animation-iteration-count:infinite;animation-fill-mode:forwards;animation-duration:1.88679s" ><g transform="translate(-128,-128)" style="animation-play-state:paused" ><path fill="#B3B4B4" d="M38.105,224.49c-0.05,0-0.099,0-0.149-0.001c-2.943-0.039-5.694-1.221-7.748-3.33
	c-4.239-4.352-4.147-11.342,0.205-15.581c2.108-2.054,4.884-3.157,7.833-3.124c2.943,0.039,5.694,1.222,7.748,3.33
	c4.239,4.352,4.147,11.342-0.205,15.58C43.716,223.383,40.992,224.49,38.105,224.49z M38.098,207.494
	c-1.567,0-3.044,0.6-4.169,1.695c-2.361,2.3-2.411,6.092-0.111,8.453c1.114,1.144,2.607,1.785,4.204,1.806
	c1.609,0.014,3.106-0.581,4.25-1.695c2.361-2.3,2.411-6.092,0.112-8.453l0,0c-1.114-1.144-2.607-1.785-4.204-1.806
	C38.152,207.494,38.125,207.494,38.098,207.494z" data-fill="c3" style="fill:rgb(239, 239, 239);animation-play-state:paused" ></path></g></g>
<g data-idx="1" data-dup="" dx="128" dy="-128" style="transform-origin:166.102px 85.4707px;transform:matrix(1, 0, 0, 1, 0, 0);animation-timing-function:linear;animation-play-state:paused;animation-name:beat-86e01bf3-b05b-4b94-a0db-05f25bd11bbf;animation-iteration-count:infinite;animation-fill-mode:forwards;animation-duration:1.88679s" ><g transform="translate(128,-128)" style="animation-play-state:paused" ><path fill="#B3B4B4" d="M38.105,224.49c-0.05,0-0.099,0-0.149-0.001c-2.943-0.039-5.694-1.221-7.748-3.33
	c-4.239-4.352-4.147-11.342,0.205-15.581c2.108-2.054,4.884-3.157,7.833-3.124c2.943,0.039,5.694,1.222,7.748,3.33
	c4.239,4.352,4.147,11.342-0.205,15.58C43.716,223.383,40.992,224.49,38.105,224.49z M38.098,207.494
	c-1.567,0-3.044,0.6-4.169,1.695c-2.361,2.3-2.411,6.092-0.111,8.453c1.114,1.144,2.607,1.785,4.204,1.806
	c1.609,0.014,3.106-0.581,4.25-1.695c2.361-2.3,2.411-6.092,0.112-8.453l0,0c-1.114-1.144-2.607-1.785-4.204-1.806
	C38.152,207.494,38.125,207.494,38.098,207.494z" data-fill="c3" style="fill:rgb(239, 239, 239);animation-play-state:paused" ></path></g></g>
<g data-idx="2" data-dup="" dx="-128" dy="-128" style="transform-origin:106.49px -80.5px;transform:matrix(1, 0, 0, 1, 0, 0);animation-timing-function:linear;animation-play-state:paused;animation-name:beat-86e01bf3-b05b-4b94-a0db-05f25bd11bbf;animation-iteration-count:infinite;animation-fill-mode:forwards;animation-duration:1.88679s" ><g transform="translate(-128,-128)" style="animation-play-state:paused" ><ellipse transform="matrix(0.7249 -0.6888 0.6888 0.7249 31.7828 174.5914)" fill="#B3B4B4" cx="234.5" cy="47.5" rx="4.4" ry="4.4" data-fill="c3" style="fill:rgb(239, 239, 239);animation-play-state:paused" ></ellipse></g></g>
<g data-idx="2" data-dup="" dx="128" dy="-128" style="transform-origin:362.49px -80.5px;transform:matrix(1, 0, 0, 1, 0, 0);animation-timing-function:linear;animation-play-state:paused;animation-name:beat-86e01bf3-b05b-4b94-a0db-05f25bd11bbf;animation-iteration-count:infinite;animation-fill-mode:forwards;animation-duration:1.88679s" ><g transform="translate(128,-128)" style="animation-play-state:paused" ><ellipse transform="matrix(0.7249 -0.6888 0.6888 0.7249 31.7828 174.5914)" fill="#B3B4B4" cx="234.5" cy="47.5" rx="4.4" ry="4.4" data-fill="c3" style="fill:rgb(239, 239, 239);animation-play-state:paused" ></ellipse></g></g>
<g data-idx="3" data-dup="" dx="-128" dy="-128" style="transform-origin:28.5332px 18.6523px;transform:matrix(1, 0, 0, 1, 0, 0);animation-timing-function:linear;animation-play-state:paused;animation-name:beat-86e01bf3-b05b-4b94-a0db-05f25bd11bbf;animation-iteration-count:infinite;animation-fill-mode:forwards;animation-duration:1.88679s" ><g transform="translate(-128,-128)" style="animation-play-state:paused" ><path fill="#B3B4B4" d="M156.299,159.176l-1.714-5.053c3.929-1.333,6.042-5.614,4.709-9.543c-0.645-1.903-1.994-3.442-3.796-4.331
	c-1.803-0.89-3.844-1.024-5.747-0.378l-1.714-5.053c3.254-1.103,6.741-0.874,9.822,0.646c3.08,1.52,5.385,4.149,6.488,7.402
	C166.625,149.582,163.015,156.898,156.299,159.176z" data-fill="c3" style="fill:rgb(239, 239, 239);animation-play-state:paused" ></path></g></g>
<g data-idx="3" data-dup="" dx="128" dy="-128" style="transform-origin:284.533px 18.6523px;transform:matrix(1, 0, 0, 1, 0, 0);animation-timing-function:linear;animation-play-state:paused;animation-name:beat-86e01bf3-b05b-4b94-a0db-05f25bd11bbf;animation-iteration-count:infinite;animation-fill-mode:forwards;animation-duration:1.88679s" ><g transform="translate(128,-128)" style="animation-play-state:paused" ><path fill="#B3B4B4" d="M156.299,159.176l-1.714-5.053c3.929-1.333,6.042-5.614,4.709-9.543c-0.645-1.903-1.994-3.442-3.796-4.331
	c-1.803-0.89-3.844-1.024-5.747-0.378l-1.714-5.053c3.254-1.103,6.741-0.874,9.822,0.646c3.08,1.52,5.385,4.149,6.488,7.402
	C166.625,149.582,163.015,156.898,156.299,159.176z" data-fill="c3" style="fill:rgb(239, 239, 239);animation-play-state:paused" ></path></g></g>
<g data-idx="4" data-dup="" dx="-128" dy="-128" style="transform-origin:-25.5059px 21.4961px;transform:matrix(1, 0, 0, 1, 0, 0);animation-timing-function:linear;animation-play-state:paused;animation-name:beat-86e01bf3-b05b-4b94-a0db-05f25bd11bbf;animation-iteration-count:infinite;animation-fill-mode:forwards;animation-duration:1.88679s" ><g transform="translate(-128,-128)" style="animation-play-state:paused" ><ellipse transform="matrix(0.7249 -0.6888 0.6888 0.7249 -74.7837 111.7244)" fill="#B3B4B4" cx="102.5" cy="149.5" rx="4.4" ry="4.4" data-fill="c3" style="fill:rgb(239, 239, 239);animation-play-state:paused" ></ellipse></g></g>
<g data-idx="4" data-dup="" dx="128" dy="-128" style="transform-origin:230.494px 21.4961px;transform:matrix(1, 0, 0, 1, 0, 0);animation-timing-function:linear;animation-play-state:paused;animation-name:beat-86e01bf3-b05b-4b94-a0db-05f25bd11bbf;animation-iteration-count:infinite;animation-fill-mode:forwards;animation-duration:1.88679s" ><g transform="translate(128,-128)" style="animation-play-state:paused" ><ellipse transform="matrix(0.7249 -0.6888 0.6888 0.7249 -74.7837 111.7244)" fill="#B3B4B4" cx="102.5" cy="149.5" rx="4.4" ry="4.4" data-fill="c3" style="fill:rgb(239, 239, 239);animation-play-state:paused" ></ellipse></g></g>
<g data-idx="5" data-dup="" dx="-128" dy="-128" style="transform-origin:114.171px 116.691px;transform:matrix(1, 0, 0, 1, 0, 0);animation-timing-function:linear;animation-play-state:paused;animation-name:beat-86e01bf3-b05b-4b94-a0db-05f25bd11bbf;animation-iteration-count:infinite;animation-fill-mode:forwards;animation-duration:1.88679s" ><g transform="translate(-128,-128)" style="animation-play-state:paused" ><polygon fill="#B3B4B4" points="231.486,249.178 247.065,235.877 252.857,238.786 235.18,253.505 " data-fill="c3" style="fill:rgb(239, 239, 239);animation-play-state:paused" ></polygon></g></g>
<g data-idx="5" data-dup="" dx="128" dy="-128" style="transform-origin:370.172px 116.691px;transform:matrix(1, 0, 0, 1, 0, 0);animation-timing-function:linear;animation-play-state:paused;animation-name:beat-86e01bf3-b05b-4b94-a0db-05f25bd11bbf;animation-iteration-count:infinite;animation-fill-mode:forwards;animation-duration:1.88679s" ><g transform="translate(128,-128)" style="animation-play-state:paused" ><polygon fill="#B3B4B4" points="231.486,249.178 247.065,235.877 252.857,238.786 235.18,253.505 " data-fill="c3" style="fill:rgb(239, 239, 239);animation-play-state:paused" ></polygon></g></g>
<g data-idx="6" data-dup="" dx="-128" dy="-128" style="transform-origin:-20.197px -96.9315px;transform:matrix(1, 0, 0, 1, 0, 0);animation-timing-function:linear;animation-play-state:paused;animation-name:beat-86e01bf3-b05b-4b94-a0db-05f25bd11bbf;animation-iteration-count:infinite;animation-fill-mode:forwards;animation-duration:1.88679s" ><g transform="translate(-128,-128)" style="animation-play-state:paused" ><polygon fill="#B3B4B4" points="115.367,21.954 103.961,43.014 100.239,36.891 110.431,19.123 " data-fill="c3" style="fill:rgb(239, 239, 239);animation-play-state:paused" ></polygon></g></g>
<g data-idx="6" data-dup="" dx="128" dy="-128" style="transform-origin:235.803px -96.9315px;transform:matrix(1, 0, 0, 1, 0, 0);animation-timing-function:linear;animation-play-state:paused;animation-name:beat-86e01bf3-b05b-4b94-a0db-05f25bd11bbf;animation-iteration-count:infinite;animation-fill-mode:forwards;animation-duration:1.88679s" ><g transform="translate(128,-128)" style="animation-play-state:paused" ><polygon fill="#B3B4B4" points="115.367,21.954 103.961,43.014 100.239,36.891 110.431,19.123 " data-fill="c3" style="fill:rgb(239, 239, 239);animation-play-state:paused" ></polygon></g></g>
<g data-idx="7" data-dup="" dx="-128" dy="-128" style="transform-origin:94.0996px -7.15039px;transform:matrix(1, 0, 0, 1, 0, 0);animation-timing-function:linear;animation-play-state:paused;animation-name:beat-86e01bf3-b05b-4b94-a0db-05f25bd11bbf;animation-iteration-count:infinite;animation-fill-mode:forwards;animation-duration:1.88679s" ><g transform="translate(-128,-128)" style="animation-play-state:paused" ><path fill="#B3B4B4" d="M222.104,130.57c-0.044,0-0.088,0-0.132-0.001c-2.596-0.034-5.024-1.077-6.835-2.937
	c-3.74-3.84-3.659-10.006,0.181-13.746c1.86-1.812,4.308-2.785,6.91-2.756c2.596,0.034,5.024,1.078,6.835,2.938
	c3.74,3.839,3.659,10.006-0.181,13.745C227.054,129.594,224.651,130.57,222.104,130.57z M222.099,115.576
	c-1.382,0-2.686,0.53-3.678,1.496c-2.083,2.029-2.127,5.374-0.098,7.458c0.983,1.009,2.3,1.575,3.708,1.594
	c1.42,0.013,2.74-0.512,3.749-1.495c2.083-2.029,2.127-5.374,0.098-7.457l0,0c-0.983-1.009-2.3-1.575-3.708-1.594
	C222.146,115.576,222.122,115.576,222.099,115.576z" data-fill="c3" style="fill:rgb(239, 239, 239);animation-play-state:paused" ></path></g></g>
<g data-idx="7" data-dup="" dx="128" dy="-128" style="transform-origin:350.1px -7.15039px;transform:matrix(1, 0, 0, 1, 0, 0);animation-timing-function:linear;animation-play-state:paused;animation-name:beat-86e01bf3-b05b-4b94-a0db-05f25bd11bbf;animation-iteration-count:infinite;animation-fill-mode:forwards;animation-duration:1.88679s" ><g transform="translate(128,-128)" style="animation-play-state:paused" ><path fill="#B3B4B4" d="M222.104,130.57c-0.044,0-0.088,0-0.132-0.001c-2.596-0.034-5.024-1.077-6.835-2.937
	c-3.74-3.84-3.659-10.006,0.181-13.746c1.86-1.812,4.308-2.785,6.91-2.756c2.596,0.034,5.024,1.078,6.835,2.938
	c3.74,3.839,3.659,10.006-0.181,13.745C227.054,129.594,224.651,130.57,222.104,130.57z M222.099,115.576
	c-1.382,0-2.686,0.53-3.678,1.496c-2.083,2.029-2.127,5.374-0.098,7.458c0.983,1.009,2.3,1.575,3.708,1.594
	c1.42,0.013,2.74-0.512,3.749-1.495c2.083-2.029,2.127-5.374,0.098-7.457l0,0c-0.983-1.009-2.3-1.575-3.708-1.594
	C222.146,115.576,222.122,115.576,222.099,115.576z" data-fill="c3" style="fill:rgb(239, 239, 239);animation-play-state:paused" ></path></g></g>
<g data-idx="8" data-dup="" dx="-128" dy="-128" style="transform-origin:46.6641px -119.158px;transform:matrix(1, 0, 0, 1, 0, 0);animation-timing-function:linear;animation-play-state:paused;animation-name:beat-86e01bf3-b05b-4b94-a0db-05f25bd11bbf;animation-iteration-count:infinite;animation-fill-mode:forwards;animation-duration:1.88679s" ><g transform="translate(-128,-128)" style="animation-play-state:paused" ><path fill="#B3B4B4" d="M184.509,10.022l-4.015,1.058c-0.822-3.122-4.032-4.993-7.154-4.17c-1.512,0.398-2.779,1.362-3.567,2.713
	c-0.788,1.352-1.003,2.929-0.603,4.44l-4.015,1.058c-0.681-2.585-0.315-5.28,1.031-7.589c1.346-2.309,3.511-3.956,6.096-4.637
	C177.619,1.489,183.103,4.687,184.509,10.022z" data-fill="c3" style="fill:rgb(239, 239, 239);animation-play-state:paused" ></path></g></g>
<g data-idx="8" data-dup="" dx="128" dy="-128" style="transform-origin:302.664px -119.158px;transform:matrix(1, 0, 0, 1, 0, 0);animation-timing-function:linear;animation-play-state:paused;animation-name:beat-86e01bf3-b05b-4b94-a0db-05f25bd11bbf;animation-iteration-count:infinite;animation-fill-mode:forwards;animation-duration:1.88679s" ><g transform="translate(128,-128)" style="animation-play-state:paused" ><path fill="#B3B4B4" d="M184.509,10.022l-4.015,1.058c-0.822-3.122-4.032-4.993-7.154-4.17c-1.512,0.398-2.779,1.362-3.567,2.713
	c-0.788,1.352-1.003,2.929-0.603,4.44l-4.015,1.058c-0.681-2.585-0.315-5.28,1.031-7.589c1.346-2.309,3.511-3.956,6.096-4.637
	C177.619,1.489,183.103,4.687,184.509,10.022z" data-fill="c3" style="fill:rgb(239, 239, 239);animation-play-state:paused" ></path></g></g>
<g data-idx="9" data-dup="" dx="-128" dy="-128" style="transform-origin:-5.55273px 92.7578px;transform:matrix(1, 0, 0, 1, 0, 0);animation-timing-function:linear;animation-play-state:paused;animation-name:beat-86e01bf3-b05b-4b94-a0db-05f25bd11bbf;animation-iteration-count:infinite;animation-fill-mode:forwards;animation-duration:1.88679s" ><g transform="translate(-128,-128)" style="animation-play-state:paused" ><g transform="matrix(0.9912 0.1325 -0.1325 0.9912 30.542 -14.083) translate(121.067,222.398) scale(0.6786666666666666)" style="animation-play-state:paused" ><g data-icon="" transform="scale(0.9)" style="animation-play-state:paused" ><use xlink:href="#id-0.8339586577308877" x="-50" y="-50" style="animation-play-state:paused" ></use></g></g></g></g>
<g data-idx="9" data-dup="" dx="128" dy="-128" style="transform-origin:250.447px 92.7578px;transform:matrix(1, 0, 0, 1, 0, 0);animation-timing-function:linear;animation-play-state:paused;animation-name:beat-86e01bf3-b05b-4b94-a0db-05f25bd11bbf;animation-iteration-count:infinite;animation-fill-mode:forwards;animation-duration:1.88679s" ><g transform="translate(128,-128)" style="animation-play-state:paused" ><g transform="matrix(0.9912 0.1325 -0.1325 0.9912 30.542 -14.083) translate(121.067,222.398) scale(0.6786666666666666)" style="animation-play-state:paused" ><g data-icon="" transform="scale(0.9)" style="animation-play-state:paused" ><use xlink:href="#id-0.8339586577308877" x="-50" y="-50" style="animation-play-state:paused" ></use></g></g></g></g>
<g data-idx="10" data-dup="" dx="-128" dy="-128" style="transform-origin:33.6523px -52.4941px;transform:matrix(1, 0, 0, 1, 0, 0);animation-timing-function:linear;animation-play-state:paused;animation-name:beat-86e01bf3-b05b-4b94-a0db-05f25bd11bbf;animation-iteration-count:infinite;animation-fill-mode:forwards;animation-duration:1.88679s" ><g transform="translate(-128,-128)" style="animation-play-state:paused" ><g transform="matrix(-0.0456 0.999 -0.999 -0.0456 243.7065 -82.5047) translate(161.268,75.17099999999999) scale(0.47706666666666664)" style="animation-play-state:paused" ><g data-icon="" transform="scale(0.9)" style="animation-play-state:paused" ><use xlink:href="#id-0.8339586577308877" x="-50" y="-50" style="animation-play-state:paused" ></use></g></g></g></g>
<g data-idx="10" data-dup="" dx="128" dy="-128" style="transform-origin:289.652px -52.4941px;transform:matrix(1, 0, 0, 1, 0, 0);animation-timing-function:linear;animation-play-state:paused;animation-name:beat-86e01bf3-b05b-4b94-a0db-05f25bd11bbf;animation-iteration-count:infinite;animation-fill-mode:forwards;animation-duration:1.88679s" ><g transform="translate(128,-128)" style="animation-play-state:paused" ><g transform="matrix(-0.0456 0.999 -0.999 -0.0456 243.7065 -82.5047) translate(161.268,75.17099999999999) scale(0.47706666666666664)" style="animation-play-state:paused" ><g data-icon="" transform="scale(0.9)" style="animation-play-state:paused" ><use xlink:href="#id-0.8339586577308877" x="-50" y="-50" style="animation-play-state:paused" ></use></g></g></g></g>
<g data-idx="11" data-dup="" dx="-128" dy="-128" style="transform-origin:81.6914px 60.3867px;transform:matrix(1, 0, 0, 1, 0, 0);animation-timing-function:linear;animation-play-state:paused;animation-name:beat-86e01bf3-b05b-4b94-a0db-05f25bd11bbf;animation-iteration-count:infinite;animation-fill-mode:forwards;animation-duration:1.88679s" ><g transform="translate(-128,-128)" style="animation-play-state:paused" ><g transform="matrix(0.5905 -0.8071 0.8071 0.5905 -67.6584 252.8308) translate(215.293,193.0815) scale(0.5214666666666667)" style="animation-play-state:paused" ><g data-icon="" transform="scale(0.9)" style="animation-play-state:paused" ><use xlink:href="#id-0.8339586577308877" x="-50" y="-50" style="animation-play-state:paused" ></use></g></g></g></g>
<g data-idx="11" data-dup="" dx="128" dy="-128" style="transform-origin:337.691px 60.3867px;transform:matrix(1, 0, 0, 1, 0, 0);animation-timing-function:linear;animation-play-state:paused;animation-name:beat-86e01bf3-b05b-4b94-a0db-05f25bd11bbf;animation-iteration-count:infinite;animation-fill-mode:forwards;animation-duration:1.88679s" ><g transform="translate(128,-128)" style="animation-play-state:paused" ><g transform="matrix(0.5905 -0.8071 0.8071 0.5905 -67.6584 252.8308) translate(215.293,193.0815) scale(0.5214666666666667)" style="animation-play-state:paused" ><g data-icon="" transform="scale(0.9)" style="animation-play-state:paused" ><use xlink:href="#id-0.8339586577308877" x="-50" y="-50" style="animation-play-state:paused" ></use></g></g></g></g>
<g data-idx="12" data-dup="" dx="-128" dy="-128" style="transform-origin:-83.9961px -85.3672px;transform:matrix(1, 0, 0, 1, 0, 0);animation-timing-function:linear;animation-play-state:paused;animation-name:beat-86e01bf3-b05b-4b94-a0db-05f25bd11bbf;animation-iteration-count:infinite;animation-fill-mode:forwards;animation-duration:1.88679s" ><g transform="translate(-128,-128)" style="animation-play-state:paused" ><g transform="matrix(-0.4749 -0.8801 0.8801 -0.4749 38.8277 99.7848) translate(49.185,38.308499999999995) scale(0.5980444444444444)" style="animation-play-state:paused" ><g data-icon="" transform="scale(0.9)" style="animation-play-state:paused" ><use xlink:href="#id-0.8339586577308877" x="-50" y="-50" style="animation-play-state:paused" ></use></g></g></g></g>
<g data-idx="12" data-dup="" dx="128" dy="-128" style="transform-origin:172.004px -85.3672px;transform:matrix(1, 0, 0, 1, 0, 0);animation-timing-function:linear;animation-play-state:paused;animation-name:beat-86e01bf3-b05b-4b94-a0db-05f25bd11bbf;animation-iteration-count:infinite;animation-fill-mode:forwards;animation-duration:1.88679s" ><g transform="translate(128,-128)" style="animation-play-state:paused" ><g transform="matrix(-0.4749 -0.8801 0.8801 -0.4749 38.8277 99.7848) translate(49.185,38.308499999999995) scale(0.5980444444444444)" style="animation-play-state:paused" ><g data-icon="" transform="scale(0.9)" style="animation-play-state:paused" ><use xlink:href="#id-0.8339586577308877" x="-50" y="-50" style="animation-play-state:paused" ></use></g></g></g></g>
<g data-idx="13" data-dup="" dx="-128" dy="-128" style="transform-origin:-95.8184px 7.4043px;transform:matrix(1, 0, 0, 1, 0, 0);animation-timing-function:linear;animation-play-state:paused;animation-name:beat-86e01bf3-b05b-4b94-a0db-05f25bd11bbf;animation-iteration-count:infinite;animation-fill-mode:forwards;animation-duration:1.88679s" ><g transform="translate(-128,-128)" style="animation-play-state:paused" ><g transform="matrix(0.7381 -0.6747 0.6747 0.7381 -85.9069 63.1885) translate(38.434,142.243) scale(0.607688888888889)" style="animation-play-state:paused" ><g data-icon="" transform="scale(0.9)" style="animation-play-state:paused" ><use xlink:href="#id-0.8339586577308877" x="-50" y="-50" style="animation-play-state:paused" ></use></g></g></g></g>
<g data-idx="13" data-dup="" dx="128" dy="-128" style="transform-origin:160.182px 7.4043px;transform:matrix(1, 0, 0, 1, 0, 0);animation-timing-function:linear;animation-play-state:paused;animation-name:beat-86e01bf3-b05b-4b94-a0db-05f25bd11bbf;animation-iteration-count:infinite;animation-fill-mode:forwards;animation-duration:1.88679s" ><g transform="translate(128,-128)" style="animation-play-state:paused" ><g transform="matrix(0.7381 -0.6747 0.6747 0.7381 -85.9069 63.1885) translate(38.434,142.243) scale(0.607688888888889)" style="animation-play-state:paused" ><g data-icon="" transform="scale(0.9)" style="animation-play-state:paused" ><use xlink:href="#id-0.8339586577308877" x="-50" y="-50" style="animation-play-state:paused" ></use></g></g></g></g>
<g data-idx="0" data-dup="" dx="-128" dy="128" style="transform-origin:-43.697px 222.765px;transform:matrix(1, 0, 0, 1, 0, 0);animation-timing-function:linear;animation-play-state:paused;animation-name:beat-86e01bf3-b05b-4b94-a0db-05f25bd11bbf;animation-iteration-count:infinite;animation-fill-mode:forwards;animation-duration:1.88679s" ><g transform="translate(-128,128)" style="animation-play-state:paused" ><polygon fill="#B3B4B4" points="95.261,98.953 73.345,96.2 74.22,90.577 94.461,93.724 " data-fill="c3" style="fill:rgb(239, 239, 239);animation-play-state:paused" ></polygon></g></g>
<g data-idx="0" data-dup="" dx="128" dy="128" style="transform-origin:212.303px 222.765px;transform:matrix(1, 0, 0, 1, 0, 0);animation-timing-function:linear;animation-play-state:paused;animation-name:beat-86e01bf3-b05b-4b94-a0db-05f25bd11bbf;animation-iteration-count:infinite;animation-fill-mode:forwards;animation-duration:1.88679s" ><g transform="translate(128,128)" style="animation-play-state:paused" ><polygon fill="#B3B4B4" points="95.261,98.953 73.345,96.2 74.22,90.577 94.461,93.724 " data-fill="c3" style="fill:rgb(239, 239, 239);animation-play-state:paused" ></polygon></g></g>
<g data-idx="1" data-dup="" dx="-128" dy="128" style="transform-origin:-89.8984px 341.471px;transform:matrix(1, 0, 0, 1, 0, 0);animation-timing-function:linear;animation-play-state:paused;animation-name:beat-86e01bf3-b05b-4b94-a0db-05f25bd11bbf;animation-iteration-count:infinite;animation-fill-mode:forwards;animation-duration:1.88679s" ><g transform="translate(-128,128)" style="animation-play-state:paused" ><path fill="#B3B4B4" d="M38.105,224.49c-0.05,0-0.099,0-0.149-0.001c-2.943-0.039-5.694-1.221-7.748-3.33
	c-4.239-4.352-4.147-11.342,0.205-15.581c2.108-2.054,4.884-3.157,7.833-3.124c2.943,0.039,5.694,1.222,7.748,3.33
	c4.239,4.352,4.147,11.342-0.205,15.58C43.716,223.383,40.992,224.49,38.105,224.49z M38.098,207.494
	c-1.567,0-3.044,0.6-4.169,1.695c-2.361,2.3-2.411,6.092-0.111,8.453c1.114,1.144,2.607,1.785,4.204,1.806
	c1.609,0.014,3.106-0.581,4.25-1.695c2.361-2.3,2.411-6.092,0.112-8.453l0,0c-1.114-1.144-2.607-1.785-4.204-1.806
	C38.152,207.494,38.125,207.494,38.098,207.494z" data-fill="c3" style="fill:rgb(239, 239, 239);animation-play-state:paused" ></path></g></g>
<g data-idx="1" data-dup="" dx="128" dy="128" style="transform-origin:166.102px 341.471px;transform:matrix(1, 0, 0, 1, 0, 0);animation-timing-function:linear;animation-play-state:paused;animation-name:beat-86e01bf3-b05b-4b94-a0db-05f25bd11bbf;animation-iteration-count:infinite;animation-fill-mode:forwards;animation-duration:1.88679s" ><g transform="translate(128,128)" style="animation-play-state:paused" ><path fill="#B3B4B4" d="M38.105,224.49c-0.05,0-0.099,0-0.149-0.001c-2.943-0.039-5.694-1.221-7.748-3.33
	c-4.239-4.352-4.147-11.342,0.205-15.581c2.108-2.054,4.884-3.157,7.833-3.124c2.943,0.039,5.694,1.222,7.748,3.33
	c4.239,4.352,4.147,11.342-0.205,15.58C43.716,223.383,40.992,224.49,38.105,224.49z M38.098,207.494
	c-1.567,0-3.044,0.6-4.169,1.695c-2.361,2.3-2.411,6.092-0.111,8.453c1.114,1.144,2.607,1.785,4.204,1.806
	c1.609,0.014,3.106-0.581,4.25-1.695c2.361-2.3,2.411-6.092,0.112-8.453l0,0c-1.114-1.144-2.607-1.785-4.204-1.806
	C38.152,207.494,38.125,207.494,38.098,207.494z" data-fill="c3" style="fill:rgb(239, 239, 239);animation-play-state:paused" ></path></g></g>
<g data-idx="2" data-dup="" dx="-128" dy="128" style="transform-origin:106.49px 175.5px;transform:matrix(1, 0, 0, 1, 0, 0);animation-timing-function:linear;animation-play-state:paused;animation-name:beat-86e01bf3-b05b-4b94-a0db-05f25bd11bbf;animation-iteration-count:infinite;animation-fill-mode:forwards;animation-duration:1.88679s" ><g transform="translate(-128,128)" style="animation-play-state:paused" ><ellipse transform="matrix(0.7249 -0.6888 0.6888 0.7249 31.7828 174.5914)" fill="#B3B4B4" cx="234.5" cy="47.5" rx="4.4" ry="4.4" data-fill="c3" style="fill:rgb(239, 239, 239);animation-play-state:paused" ></ellipse></g></g>
<g data-idx="2" data-dup="" dx="128" dy="128" style="transform-origin:362.49px 175.5px;transform:matrix(1, 0, 0, 1, 0, 0);animation-timing-function:linear;animation-play-state:paused;animation-name:beat-86e01bf3-b05b-4b94-a0db-05f25bd11bbf;animation-iteration-count:infinite;animation-fill-mode:forwards;animation-duration:1.88679s" ><g transform="translate(128,128)" style="animation-play-state:paused" ><ellipse transform="matrix(0.7249 -0.6888 0.6888 0.7249 31.7828 174.5914)" fill="#B3B4B4" cx="234.5" cy="47.5" rx="4.4" ry="4.4" data-fill="c3" style="fill:rgb(239, 239, 239);animation-play-state:paused" ></ellipse></g></g>
<g data-idx="3" data-dup="" dx="-128" dy="128" style="transform-origin:28.5332px 274.652px;transform:matrix(1, 0, 0, 1, 0, 0);animation-timing-function:linear;animation-play-state:paused;animation-name:beat-86e01bf3-b05b-4b94-a0db-05f25bd11bbf;animation-iteration-count:infinite;animation-fill-mode:forwards;animation-duration:1.88679s" ><g transform="translate(-128,128)" style="animation-play-state:paused" ><path fill="#B3B4B4" d="M156.299,159.176l-1.714-5.053c3.929-1.333,6.042-5.614,4.709-9.543c-0.645-1.903-1.994-3.442-3.796-4.331
	c-1.803-0.89-3.844-1.024-5.747-0.378l-1.714-5.053c3.254-1.103,6.741-0.874,9.822,0.646c3.08,1.52,5.385,4.149,6.488,7.402
	C166.625,149.582,163.015,156.898,156.299,159.176z" data-fill="c3" style="fill:rgb(239, 239, 239);animation-play-state:paused" ></path></g></g>
<g data-idx="3" data-dup="" dx="128" dy="128" style="transform-origin:284.533px 274.652px;transform:matrix(1, 0, 0, 1, 0, 0);animation-timing-function:linear;animation-play-state:paused;animation-name:beat-86e01bf3-b05b-4b94-a0db-05f25bd11bbf;animation-iteration-count:infinite;animation-fill-mode:forwards;animation-duration:1.88679s" ><g transform="translate(128,128)" style="animation-play-state:paused" ><path fill="#B3B4B4" d="M156.299,159.176l-1.714-5.053c3.929-1.333,6.042-5.614,4.709-9.543c-0.645-1.903-1.994-3.442-3.796-4.331
	c-1.803-0.89-3.844-1.024-5.747-0.378l-1.714-5.053c3.254-1.103,6.741-0.874,9.822,0.646c3.08,1.52,5.385,4.149,6.488,7.402
	C166.625,149.582,163.015,156.898,156.299,159.176z" data-fill="c3" style="fill:rgb(239, 239, 239);animation-play-state:paused" ></path></g></g>
<g data-idx="4" data-dup="" dx="-128" dy="128" style="transform-origin:-25.5059px 277.496px;transform:matrix(1, 0, 0, 1, 0, 0);animation-timing-function:linear;animation-play-state:paused;animation-name:beat-86e01bf3-b05b-4b94-a0db-05f25bd11bbf;animation-iteration-count:infinite;animation-fill-mode:forwards;animation-duration:1.88679s" ><g transform="translate(-128,128)" style="animation-play-state:paused" ><ellipse transform="matrix(0.7249 -0.6888 0.6888 0.7249 -74.7837 111.7244)" fill="#B3B4B4" cx="102.5" cy="149.5" rx="4.4" ry="4.4" data-fill="c3" style="fill:rgb(239, 239, 239);animation-play-state:paused" ></ellipse></g></g>
<g data-idx="4" data-dup="" dx="128" dy="128" style="transform-origin:230.494px 277.496px;transform:matrix(1, 0, 0, 1, 0, 0);animation-timing-function:linear;animation-play-state:paused;animation-name:beat-86e01bf3-b05b-4b94-a0db-05f25bd11bbf;animation-iteration-count:infinite;animation-fill-mode:forwards;animation-duration:1.88679s" ><g transform="translate(128,128)" style="animation-play-state:paused" ><ellipse transform="matrix(0.7249 -0.6888 0.6888 0.7249 -74.7837 111.7244)" fill="#B3B4B4" cx="102.5" cy="149.5" rx="4.4" ry="4.4" data-fill="c3" style="fill:rgb(239, 239, 239);animation-play-state:paused" ></ellipse></g></g>
<g data-idx="5" data-dup="" dx="-128" dy="128" style="transform-origin:114.171px 372.691px;transform:matrix(1, 0, 0, 1, 0, 0);animation-timing-function:linear;animation-play-state:paused;animation-name:beat-86e01bf3-b05b-4b94-a0db-05f25bd11bbf;animation-iteration-count:infinite;animation-fill-mode:forwards;animation-duration:1.88679s" ><g transform="translate(-128,128)" style="animation-play-state:paused" ><polygon fill="#B3B4B4" points="231.486,249.178 247.065,235.877 252.857,238.786 235.18,253.505 " data-fill="c3" style="fill:rgb(239, 239, 239);animation-play-state:paused" ></polygon></g></g>
<g data-idx="5" data-dup="" dx="128" dy="128" style="transform-origin:370.172px 372.691px;transform:matrix(1, 0, 0, 1, 0, 0);animation-timing-function:linear;animation-play-state:paused;animation-name:beat-86e01bf3-b05b-4b94-a0db-05f25bd11bbf;animation-iteration-count:infinite;animation-fill-mode:forwards;animation-duration:1.88679s" ><g transform="translate(128,128)" style="animation-play-state:paused" ><polygon fill="#B3B4B4" points="231.486,249.178 247.065,235.877 252.857,238.786 235.18,253.505 " data-fill="c3" style="fill:rgb(239, 239, 239);animation-play-state:paused" ></polygon></g></g>
<g data-idx="6" data-dup="" dx="-128" dy="128" style="transform-origin:-20.197px 159.069px;transform:matrix(1, 0, 0, 1, 0, 0);animation-timing-function:linear;animation-play-state:paused;animation-name:beat-86e01bf3-b05b-4b94-a0db-05f25bd11bbf;animation-iteration-count:infinite;animation-fill-mode:forwards;animation-duration:1.88679s" ><g transform="translate(-128,128)" style="animation-play-state:paused" ><polygon fill="#B3B4B4" points="115.367,21.954 103.961,43.014 100.239,36.891 110.431,19.123 " data-fill="c3" style="fill:rgb(239, 239, 239);animation-play-state:paused" ></polygon></g></g>
<g data-idx="6" data-dup="" dx="128" dy="128" style="transform-origin:235.803px 159.069px;transform:matrix(1, 0, 0, 1, 0, 0);animation-timing-function:linear;animation-play-state:paused;animation-name:beat-86e01bf3-b05b-4b94-a0db-05f25bd11bbf;animation-iteration-count:infinite;animation-fill-mode:forwards;animation-duration:1.88679s" ><g transform="translate(128,128)" style="animation-play-state:paused" ><polygon fill="#B3B4B4" points="115.367,21.954 103.961,43.014 100.239,36.891 110.431,19.123 " data-fill="c3" style="fill:rgb(239, 239, 239);animation-play-state:paused" ></polygon></g></g>
<g data-idx="7" data-dup="" dx="-128" dy="128" style="transform-origin:94.0996px 248.85px;transform:matrix(1, 0, 0, 1, 0, 0);animation-timing-function:linear;animation-play-state:paused;animation-name:beat-86e01bf3-b05b-4b94-a0db-05f25bd11bbf;animation-iteration-count:infinite;animation-fill-mode:forwards;animation-duration:1.88679s" ><g transform="translate(-128,128)" style="animation-play-state:paused" ><path fill="#B3B4B4" d="M222.104,130.57c-0.044,0-0.088,0-0.132-0.001c-2.596-0.034-5.024-1.077-6.835-2.937
	c-3.74-3.84-3.659-10.006,0.181-13.746c1.86-1.812,4.308-2.785,6.91-2.756c2.596,0.034,5.024,1.078,6.835,2.938
	c3.74,3.839,3.659,10.006-0.181,13.745C227.054,129.594,224.651,130.57,222.104,130.57z M222.099,115.576
	c-1.382,0-2.686,0.53-3.678,1.496c-2.083,2.029-2.127,5.374-0.098,7.458c0.983,1.009,2.3,1.575,3.708,1.594
	c1.42,0.013,2.74-0.512,3.749-1.495c2.083-2.029,2.127-5.374,0.098-7.457l0,0c-0.983-1.009-2.3-1.575-3.708-1.594
	C222.146,115.576,222.122,115.576,222.099,115.576z" data-fill="c3" style="fill:rgb(239, 239, 239);animation-play-state:paused" ></path></g></g>
<g data-idx="7" data-dup="" dx="128" dy="128" style="transform-origin:350.1px 248.85px;transform:matrix(1, 0, 0, 1, 0, 0);animation-timing-function:linear;animation-play-state:paused;animation-name:beat-86e01bf3-b05b-4b94-a0db-05f25bd11bbf;animation-iteration-count:infinite;animation-fill-mode:forwards;animation-duration:1.88679s" ><g transform="translate(128,128)" style="animation-play-state:paused" ><path fill="#B3B4B4" d="M222.104,130.57c-0.044,0-0.088,0-0.132-0.001c-2.596-0.034-5.024-1.077-6.835-2.937
	c-3.74-3.84-3.659-10.006,0.181-13.746c1.86-1.812,4.308-2.785,6.91-2.756c2.596,0.034,5.024,1.078,6.835,2.938
	c3.74,3.839,3.659,10.006-0.181,13.745C227.054,129.594,224.651,130.57,222.104,130.57z M222.099,115.576
	c-1.382,0-2.686,0.53-3.678,1.496c-2.083,2.029-2.127,5.374-0.098,7.458c0.983,1.009,2.3,1.575,3.708,1.594
	c1.42,0.013,2.74-0.512,3.749-1.495c2.083-2.029,2.127-5.374,0.098-7.457l0,0c-0.983-1.009-2.3-1.575-3.708-1.594
	C222.146,115.576,222.122,115.576,222.099,115.576z" data-fill="c3" style="fill:rgb(239, 239, 239);animation-play-state:paused" ></path></g></g>
<g data-idx="8" data-dup="" dx="-128" dy="128" style="transform-origin:46.6641px 136.842px;transform:matrix(1, 0, 0, 1, 0, 0);animation-timing-function:linear;animation-play-state:paused;animation-name:beat-86e01bf3-b05b-4b94-a0db-05f25bd11bbf;animation-iteration-count:infinite;animation-fill-mode:forwards;animation-duration:1.88679s" ><g transform="translate(-128,128)" style="animation-play-state:paused" ><path fill="#B3B4B4" d="M184.509,10.022l-4.015,1.058c-0.822-3.122-4.032-4.993-7.154-4.17c-1.512,0.398-2.779,1.362-3.567,2.713
	c-0.788,1.352-1.003,2.929-0.603,4.44l-4.015,1.058c-0.681-2.585-0.315-5.28,1.031-7.589c1.346-2.309,3.511-3.956,6.096-4.637
	C177.619,1.489,183.103,4.687,184.509,10.022z" data-fill="c3" style="fill:rgb(239, 239, 239);animation-play-state:paused" ></path></g></g>
<g data-idx="8" data-dup="" dx="128" dy="128" style="transform-origin:302.664px 136.842px;transform:matrix(1, 0, 0, 1, 0, 0);animation-timing-function:linear;animation-play-state:paused;animation-name:beat-86e01bf3-b05b-4b94-a0db-05f25bd11bbf;animation-iteration-count:infinite;animation-fill-mode:forwards;animation-duration:1.88679s" ><g transform="translate(128,128)" style="animation-play-state:paused" ><path fill="#B3B4B4" d="M184.509,10.022l-4.015,1.058c-0.822-3.122-4.032-4.993-7.154-4.17c-1.512,0.398-2.779,1.362-3.567,2.713
	c-0.788,1.352-1.003,2.929-0.603,4.44l-4.015,1.058c-0.681-2.585-0.315-5.28,1.031-7.589c1.346-2.309,3.511-3.956,6.096-4.637
	C177.619,1.489,183.103,4.687,184.509,10.022z" data-fill="c3" style="fill:rgb(239, 239, 239);animation-play-state:paused" ></path></g></g>
<g data-idx="9" data-dup="" dx="-128" dy="128" style="transform-origin:-5.55273px 348.758px;transform:matrix(1, 0, 0, 1, 0, 0);animation-timing-function:linear;animation-play-state:paused;animation-name:beat-86e01bf3-b05b-4b94-a0db-05f25bd11bbf;animation-iteration-count:infinite;animation-fill-mode:forwards;animation-duration:1.88679s" ><g transform="translate(-128,128)" style="animation-play-state:paused" ><g transform="matrix(0.9912 0.1325 -0.1325 0.9912 30.542 -14.083) translate(121.067,222.398) scale(0.6786666666666666)" style="animation-play-state:paused" ><g data-icon="" transform="scale(0.9)" style="animation-play-state:paused" ><use xlink:href="#id-0.8339586577308877" x="-50" y="-50" style="animation-play-state:paused" ></use></g></g></g></g>
<g data-idx="9" data-dup="" dx="128" dy="128" style="transform-origin:250.447px 348.758px;transform:matrix(1, 0, 0, 1, 0, 0);animation-timing-function:linear;animation-play-state:paused;animation-name:beat-86e01bf3-b05b-4b94-a0db-05f25bd11bbf;animation-iteration-count:infinite;animation-fill-mode:forwards;animation-duration:1.88679s" ><g transform="translate(128,128)" style="animation-play-state:paused" ><g transform="matrix(0.9912 0.1325 -0.1325 0.9912 30.542 -14.083) translate(121.067,222.398) scale(0.6786666666666666)" style="animation-play-state:paused" ><g data-icon="" transform="scale(0.9)" style="animation-play-state:paused" ><use xlink:href="#id-0.8339586577308877" x="-50" y="-50" style="animation-play-state:paused" ></use></g></g></g></g>
<g data-idx="10" data-dup="" dx="-128" dy="128" style="transform-origin:33.6523px 203.506px;transform:matrix(1, 0, 0, 1, 0, 0);animation-timing-function:linear;animation-play-state:paused;animation-name:beat-86e01bf3-b05b-4b94-a0db-05f25bd11bbf;animation-iteration-count:infinite;animation-fill-mode:forwards;animation-duration:1.88679s" ><g transform="translate(-128,128)" style="animation-play-state:paused" ><g transform="matrix(-0.0456 0.999 -0.999 -0.0456 243.7065 -82.5047) translate(161.268,75.17099999999999) scale(0.47706666666666664)" style="animation-play-state:paused" ><g data-icon="" transform="scale(0.9)" style="animation-play-state:paused" ><use xlink:href="#id-0.8339586577308877" x="-50" y="-50" style="animation-play-state:paused" ></use></g></g></g></g>
<g data-idx="10" data-dup="" dx="128" dy="128" style="transform-origin:289.652px 203.506px;transform:matrix(1, 0, 0, 1, 0, 0);animation-timing-function:linear;animation-play-state:paused;animation-name:beat-86e01bf3-b05b-4b94-a0db-05f25bd11bbf;animation-iteration-count:infinite;animation-fill-mode:forwards;animation-duration:1.88679s" ><g transform="translate(128,128)" style="animation-play-state:paused" ><g transform="matrix(-0.0456 0.999 -0.999 -0.0456 243.7065 -82.5047) translate(161.268,75.17099999999999) scale(0.47706666666666664)" style="animation-play-state:paused" ><g data-icon="" transform="scale(0.9)" style="animation-play-state:paused" ><use xlink:href="#id-0.8339586577308877" x="-50" y="-50" style="animation-play-state:paused" ></use></g></g></g></g>
<g data-idx="11" data-dup="" dx="-128" dy="128" style="transform-origin:81.6914px 316.387px;transform:matrix(1, 0, 0, 1, 0, 0);animation-timing-function:linear;animation-play-state:paused;animation-name:beat-86e01bf3-b05b-4b94-a0db-05f25bd11bbf;animation-iteration-count:infinite;animation-fill-mode:forwards;animation-duration:1.88679s" ><g transform="translate(-128,128)" style="animation-play-state:paused" ><g transform="matrix(0.5905 -0.8071 0.8071 0.5905 -67.6584 252.8308) translate(215.293,193.0815) scale(0.5214666666666667)" style="animation-play-state:paused" ><g data-icon="" transform="scale(0.9)" style="animation-play-state:paused" ><use xlink:href="#id-0.8339586577308877" x="-50" y="-50" style="animation-play-state:paused" ></use></g></g></g></g>
<g data-idx="11" data-dup="" dx="128" dy="128" style="transform-origin:337.691px 316.387px;transform:matrix(1, 0, 0, 1, 0, 0);animation-timing-function:linear;animation-play-state:paused;animation-name:beat-86e01bf3-b05b-4b94-a0db-05f25bd11bbf;animation-iteration-count:infinite;animation-fill-mode:forwards;animation-duration:1.88679s" ><g transform="translate(128,128)" style="animation-play-state:paused" ><g transform="matrix(0.5905 -0.8071 0.8071 0.5905 -67.6584 252.8308) translate(215.293,193.0815) scale(0.5214666666666667)" style="animation-play-state:paused" ><g data-icon="" transform="scale(0.9)" style="animation-play-state:paused" ><use xlink:href="#id-0.8339586577308877" x="-50" y="-50" style="animation-play-state:paused" ></use></g></g></g></g>
<g data-idx="12" data-dup="" dx="-128" dy="128" style="transform-origin:-83.9961px 170.633px;transform:matrix(1, 0, 0, 1, 0, 0);animation-timing-function:linear;animation-play-state:paused;animation-name:beat-86e01bf3-b05b-4b94-a0db-05f25bd11bbf;animation-iteration-count:infinite;animation-fill-mode:forwards;animation-duration:1.88679s" ><g transform="translate(-128,128)" style="animation-play-state:paused" ><g transform="matrix(-0.4749 -0.8801 0.8801 -0.4749 38.8277 99.7848) translate(49.185,38.308499999999995) scale(0.5980444444444444)" style="animation-play-state:paused" ><g data-icon="" transform="scale(0.9)" style="animation-play-state:paused" ><use xlink:href="#id-0.8339586577308877" x="-50" y="-50" style="animation-play-state:paused" ></use></g></g></g></g>
<g data-idx="12" data-dup="" dx="128" dy="128" style="transform-origin:172.004px 170.633px;transform:matrix(1, 0, 0, 1, 0, 0);animation-timing-function:linear;animation-play-state:paused;animation-name:beat-86e01bf3-b05b-4b94-a0db-05f25bd11bbf;animation-iteration-count:infinite;animation-fill-mode:forwards;animation-duration:1.88679s" ><g transform="translate(128,128)" style="animation-play-state:paused" ><g transform="matrix(-0.4749 -0.8801 0.8801 -0.4749 38.8277 99.7848) translate(49.185,38.308499999999995) scale(0.5980444444444444)" style="animation-play-state:paused" ><g data-icon="" transform="scale(0.9)" style="animation-play-state:paused" ><use xlink:href="#id-0.8339586577308877" x="-50" y="-50" style="animation-play-state:paused" ></use></g></g></g></g>
<g data-idx="13" data-dup="" dx="-128" dy="128" style="transform-origin:-95.8184px 263.404px;transform:matrix(1, 0, 0, 1, 0, 0);animation-timing-function:linear;animation-play-state:paused;animation-name:beat-86e01bf3-b05b-4b94-a0db-05f25bd11bbf;animation-iteration-count:infinite;animation-fill-mode:forwards;animation-duration:1.88679s" ><g transform="translate(-128,128)" style="animation-play-state:paused" ><g transform="matrix(0.7381 -0.6747 0.6747 0.7381 -85.9069 63.1885) translate(38.434,142.243) scale(0.607688888888889)" style="animation-play-state:paused" ><g data-icon="" transform="scale(0.9)" style="animation-play-state:paused" ><use xlink:href="#id-0.8339586577308877" x="-50" y="-50" style="animation-play-state:paused" ></use></g></g></g></g>
<g data-idx="13" data-dup="" dx="128" dy="128" style="transform-origin:160.182px 263.404px;transform:matrix(1, 0, 0, 1, 0, 0);animation-timing-function:linear;animation-play-state:paused;animation-name:beat-86e01bf3-b05b-4b94-a0db-05f25bd11bbf;animation-iteration-count:infinite;animation-fill-mode:forwards;animation-duration:1.88679s" ><g transform="translate(128,128)" style="animation-play-state:paused" ><g transform="matrix(0.7381 -0.6747 0.6747 0.7381 -85.9069 63.1885) translate(38.434,142.243) scale(0.607688888888889)" style="animation-play-state:paused" ><g data-icon="" transform="scale(0.9)" style="animation-play-state:paused" ><use xlink:href="#id-0.8339586577308877" x="-50" y="-50" style="animation-play-state:paused" ></use></g></g></g></g></g></svg>