<?xml version="1.0" encoding="utf-8"?><svg xmlns="http://www.w3.org/2000/svg" xmlns:xlink="http://www.w3.org/1999/xlink" width="296" height="296" preserveAspectRatio="xMidYMid" viewBox="0 0 296 296" style="display:block;animation-play-state:paused" ><g transform="scale(1.1600000000000001)" style="animation-play-state:paused" ><g data-idx="0" data-dup="" dx="-128" dy="-128" style="transform-origin:-58.3242px -91.7539px;transform:matrix(1, 0, 0, 1, 0, 0);animation-timing-function:linear;animation-play-state:paused;animation-name:beat-ecb1af76-fde2-4406-b5c0-47755bbec715;animation-iteration-count:infinite;animation-fill-mode:forwards;animation-duration:14.2857s" ><g transform="translate(-128,-128)" style="animation-play-state:paused" ><path fill="none" stroke="#0089D0" stroke-width="3" stroke-miterlimit="10" d="M60.206,40.745c-0.232,3.342,1.993,7.1,5.338,7.266
	c2.88,0.142,5.202-2.266,6.862-4.623c2.703-3.838,4.815-8.092,6.24-12.565c0.509-1.598,0.888-3.486-0.107-4.836
	c-0.805-1.092-2.274-1.464-3.63-1.51C67.007,24.208,60.705,33.579,60.206,40.745z" data-stroke="c1" style="stroke:rgb(133, 162, 182);animation-play-state:paused" ></path></g></g>
<g data-idx="0" data-dup="" dx="128" dy="-128" style="transform-origin:197.676px -91.7539px;transform:matrix(1, 0, 0, 1, 0, 0);animation-timing-function:linear;animation-play-state:paused;animation-name:beat-ecb1af76-fde2-4406-b5c0-47755bbec715;animation-iteration-count:infinite;animation-fill-mode:forwards;animation-duration:14.2857s" ><g transform="translate(128,-128)" style="animation-play-state:paused" ><path fill="none" stroke="#0089D0" stroke-width="3" stroke-miterlimit="10" d="M60.206,40.745c-0.232,3.342,1.993,7.1,5.338,7.266
	c2.88,0.142,5.202-2.266,6.862-4.623c2.703-3.838,4.815-8.092,6.24-12.565c0.509-1.598,0.888-3.486-0.107-4.836
	c-0.805-1.092-2.274-1.464-3.63-1.51C67.007,24.208,60.705,33.579,60.206,40.745z" data-stroke="c1" style="stroke:rgb(133, 162, 182);animation-play-state:paused" ></path></g></g>
<g data-idx="1" data-dup="" dx="-128" dy="-128" style="transform-origin:-26.3164px -44.6016px;transform:matrix(1, 0, 0, 1, 0, 0);animation-timing-function:linear;animation-play-state:paused;animation-name:beat-ecb1af76-fde2-4406-b5c0-47755bbec715;animation-iteration-count:infinite;animation-fill-mode:forwards;animation-duration:14.2857s" ><g transform="translate(-128,-128)" style="animation-play-state:paused" ><path fill="none" stroke="#CC004C" stroke-width="3" stroke-miterlimit="10" d="M102.656,92.571
	c-5.292-0.594-11.436-1.965-11.84-8.101c-0.292-4.443,2.61-8.822,6.827-9.97c5.436-1.481,11.448,1.974,13.878,7.057
	c0.902,1.887,1.391,4.083,0.771,6.081C111.131,91.377,106.548,93.007,102.656,92.571z" data-stroke="c2" style="stroke:rgb(187, 206, 221);animation-play-state:paused" ></path></g></g>
<g data-idx="1" data-dup="" dx="128" dy="-128" style="transform-origin:229.684px -44.6016px;transform:matrix(1, 0, 0, 1, 0, 0);animation-timing-function:linear;animation-play-state:paused;animation-name:beat-ecb1af76-fde2-4406-b5c0-47755bbec715;animation-iteration-count:infinite;animation-fill-mode:forwards;animation-duration:14.2857s" ><g transform="translate(128,-128)" style="animation-play-state:paused" ><path fill="none" stroke="#CC004C" stroke-width="3" stroke-miterlimit="10" d="M102.656,92.571
	c-5.292-0.594-11.436-1.965-11.84-8.101c-0.292-4.443,2.61-8.822,6.827-9.97c5.436-1.481,11.448,1.974,13.878,7.057
	c0.902,1.887,1.391,4.083,0.771,6.081C111.131,91.377,106.548,93.007,102.656,92.571z" data-stroke="c2" style="stroke:rgb(187, 206, 221);animation-play-state:paused" ></path></g></g>
<g data-idx="2" data-dup="" dx="-128" dy="-128" style="transform-origin:-78.9082px 17.3691px;transform:matrix(1, 0, 0, 1, 0, 0);animation-timing-function:linear;animation-play-state:paused;animation-name:beat-ecb1af76-fde2-4406-b5c0-47755bbec715;animation-iteration-count:infinite;animation-fill-mode:forwards;animation-duration:14.2857s" ><g transform="translate(-128,-128)" style="animation-play-state:paused" ><path fill="none" stroke="#F37021" stroke-width="3" stroke-miterlimit="10" d="M52.878,135.483
	c-4.036-0.448-13.768-1.345-15.585,3.655c-2.061,5.669,5.31,7.433,6.404,11.913c0.222,0.908,0.166,1.889,0.556,2.739
	c0.765,1.669,3.026,2.18,4.764,1.589c1.738-0.59,3.068-1.977,4.324-3.315c1.868-1.989,3.735-3.978,5.603-5.967
	c0.891-0.949,1.812-1.949,2.162-3.202c0.568-2.031-0.574-4.247-2.277-5.49C57.126,136.162,54.974,135.716,52.878,135.483z" data-stroke="c3" style="stroke:rgb(220, 228, 235);animation-play-state:paused" ></path></g></g>
<g data-idx="2" data-dup="" dx="128" dy="-128" style="transform-origin:177.092px 17.3691px;transform:matrix(1, 0, 0, 1, 0, 0);animation-timing-function:linear;animation-play-state:paused;animation-name:beat-ecb1af76-fde2-4406-b5c0-47755bbec715;animation-iteration-count:infinite;animation-fill-mode:forwards;animation-duration:14.2857s" ><g transform="translate(128,-128)" style="animation-play-state:paused" ><path fill="none" stroke="#F37021" stroke-width="3" stroke-miterlimit="10" d="M52.878,135.483
	c-4.036-0.448-13.768-1.345-15.585,3.655c-2.061,5.669,5.31,7.433,6.404,11.913c0.222,0.908,0.166,1.889,0.556,2.739
	c0.765,1.669,3.026,2.18,4.764,1.589c1.738-0.59,3.068-1.977,4.324-3.315c1.868-1.989,3.735-3.978,5.603-5.967
	c0.891-0.949,1.812-1.949,2.162-3.202c0.568-2.031-0.574-4.247-2.277-5.49C57.126,136.162,54.974,135.716,52.878,135.483z" data-stroke="c3" style="stroke:rgb(220, 228, 235);animation-play-state:paused" ></path></g></g>
<g data-idx="3" data-dup="" dx="-128" dy="-128" style="transform-origin:31.625px -35.3613px;transform:matrix(1, 0, 0, 1, 0, 0);animation-timing-function:linear;animation-play-state:paused;animation-name:beat-ecb1af76-fde2-4406-b5c0-47755bbec715;animation-iteration-count:infinite;animation-fill-mode:forwards;animation-duration:14.2857s" ><g transform="translate(-128,-128)" style="animation-play-state:paused" ><path fill="none" stroke="#0089D0" stroke-width="3" stroke-miterlimit="10" d="M161.707,96.172c2.364-1.379,2.519-5.336,0.27-6.896
	c-2.305-1.599-6.115,0.032-6.295,2.902C155.502,95.054,159.041,97.728,161.707,96.172z" data-stroke="c1" style="stroke:rgb(133, 162, 182);animation-play-state:paused" ></path></g></g>
<g data-idx="3" data-dup="" dx="128" dy="-128" style="transform-origin:287.625px -35.3613px;transform:matrix(1, 0, 0, 1, 0, 0);animation-timing-function:linear;animation-play-state:paused;animation-name:beat-ecb1af76-fde2-4406-b5c0-47755bbec715;animation-iteration-count:infinite;animation-fill-mode:forwards;animation-duration:14.2857s" ><g transform="translate(128,-128)" style="animation-play-state:paused" ><path fill="none" stroke="#0089D0" stroke-width="3" stroke-miterlimit="10" d="M161.707,96.172c2.364-1.379,2.519-5.336,0.27-6.896
	c-2.305-1.599-6.115,0.032-6.295,2.902C155.502,95.054,159.041,97.728,161.707,96.172z" data-stroke="c1" style="stroke:rgb(133, 162, 182);animation-play-state:paused" ></path></g></g>
<g data-idx="4" data-dup="" dx="-128" dy="-128" style="transform-origin:35.5586px 43.3672px;transform:matrix(1, 0, 0, 1, 0, 0);animation-timing-function:linear;animation-play-state:paused;animation-name:beat-ecb1af76-fde2-4406-b5c0-47755bbec715;animation-iteration-count:infinite;animation-fill-mode:forwards;animation-duration:14.2857s" ><g transform="translate(-128,-128)" style="animation-play-state:paused" ><path fill="none" stroke="#CC004C" stroke-width="3" stroke-miterlimit="10" d="M162.538,162.188
	c2.552,0.017,4.986,0.998,7.348,1.964c1.122,0.459,2.369,1.047,2.74,2.2c0.852,2.645-3.398,4.025-4.362,6.631
	c-0.678,1.834,0.408,4.089-0.615,5.756c-0.557,0.908-1.617,1.385-2.657,1.617c-3.731,0.833-7.904-1.116-9.66-4.511
	c-1.425-2.755-1.124-6.166,0.053-8.951c0.565-1.336,1.215-2.502,2.458-3.251C159.324,162.752,160.778,162.176,162.538,162.188z" data-stroke="c2" style="stroke:rgb(187, 206, 221);animation-play-state:paused" ></path></g></g>
<g data-idx="4" data-dup="" dx="128" dy="-128" style="transform-origin:291.559px 43.3672px;transform:matrix(1, 0, 0, 1, 0, 0);animation-timing-function:linear;animation-play-state:paused;animation-name:beat-ecb1af76-fde2-4406-b5c0-47755bbec715;animation-iteration-count:infinite;animation-fill-mode:forwards;animation-duration:14.2857s" ><g transform="translate(128,-128)" style="animation-play-state:paused" ><path fill="none" stroke="#CC004C" stroke-width="3" stroke-miterlimit="10" d="M162.538,162.188
	c2.552,0.017,4.986,0.998,7.348,1.964c1.122,0.459,2.369,1.047,2.74,2.2c0.852,2.645-3.398,4.025-4.362,6.631
	c-0.678,1.834,0.408,4.089-0.615,5.756c-0.557,0.908-1.617,1.385-2.657,1.617c-3.731,0.833-7.904-1.116-9.66-4.511
	c-1.425-2.755-1.124-6.166,0.053-8.951c0.565-1.336,1.215-2.502,2.458-3.251C159.324,162.752,160.778,162.176,162.538,162.188z" data-stroke="c2" style="stroke:rgb(187, 206, 221);animation-play-state:paused" ></path></g></g>
<g data-idx="5" data-dup="" dx="-128" dy="-128" style="transform-origin:107.637px -8.63086px;transform:matrix(1, 0, 0, 1, 0, 0);animation-timing-function:linear;animation-play-state:paused;animation-name:beat-ecb1af76-fde2-4406-b5c0-47755bbec715;animation-iteration-count:infinite;animation-fill-mode:forwards;animation-duration:14.2857s" ><g transform="translate(-128,-128)" style="animation-play-state:paused" ><path fill="none" stroke="#0DB14B" stroke-width="3" stroke-miterlimit="10" d="M232.889,124.989
	c1.156,0.554,2.496,0.703,3.752,0.447c2.998-0.611,5.26-3.722,4.917-6.762c-0.343-3.04-3.242-5.568-6.3-5.496
	c-2.261,0.054-4.35,1.448-5.212,3.535c-0.409,0.99-0.445,2.105-0.266,3.161C230.125,121.921,230.91,124.04,232.889,124.989z" data-stroke="c4" style="stroke:rgb(253, 253, 253);animation-play-state:paused" ></path></g></g>
<g data-idx="5" data-dup="" dx="128" dy="-128" style="transform-origin:363.637px -8.63086px;transform:matrix(1, 0, 0, 1, 0, 0);animation-timing-function:linear;animation-play-state:paused;animation-name:beat-ecb1af76-fde2-4406-b5c0-47755bbec715;animation-iteration-count:infinite;animation-fill-mode:forwards;animation-duration:14.2857s" ><g transform="translate(128,-128)" style="animation-play-state:paused" ><path fill="none" stroke="#0DB14B" stroke-width="3" stroke-miterlimit="10" d="M232.889,124.989
	c1.156,0.554,2.496,0.703,3.752,0.447c2.998-0.611,5.26-3.722,4.917-6.762c-0.343-3.04-3.242-5.568-6.3-5.496
	c-2.261,0.054-4.35,1.448-5.212,3.535c-0.409,0.99-0.445,2.105-0.266,3.161C230.125,121.921,230.91,124.04,232.889,124.989z" data-stroke="c4" style="stroke:rgb(253, 253, 253);animation-play-state:paused" ></path></g></g>
<g data-idx="6" data-dup="b" dx="-128" dy="-128" style="transform-origin:70.7734px -110.631px;transform:matrix(1, 0, 0, 1, 0, 0);animation-timing-function:linear;animation-play-state:paused;animation-name:beat-ecb1af76-fde2-4406-b5c0-47755bbec715;animation-iteration-count:infinite;animation-fill-mode:forwards;animation-duration:14.2857s" ><g transform="translate(-128,-128)" style="animation-play-state:paused" ><path fill="none" stroke="#F37021" stroke-width="3" stroke-miterlimit="10" d="M198.34,24.866c3.064-0.97,4.796-4.121,6.223-7
	c0.637-1.284,1.273-2.568,1.91-3.852c0.367-0.741,0.744-1.571,0.516-2.366c-0.27-0.937-1.271-1.447-2.205-1.728
	c-4.302-1.297-10.251,0.828-12.968,4.511C188.416,19.038,191.893,26.907,198.34,24.866z" data-stroke="c3" style="stroke:rgb(220, 228, 235);animation-play-state:paused" ></path></g></g>
<g data-idx="6" data-dup="b" dx="128" dy="-128" style="transform-origin:326.773px -110.631px;transform:matrix(1, 0, 0, 1, 0, 0);animation-timing-function:linear;animation-play-state:paused;animation-name:beat-ecb1af76-fde2-4406-b5c0-47755bbec715;animation-iteration-count:infinite;animation-fill-mode:forwards;animation-duration:14.2857s" ><g transform="translate(128,-128)" style="animation-play-state:paused" ><path fill="none" stroke="#F37021" stroke-width="3" stroke-miterlimit="10" d="M198.34,24.866c3.064-0.97,4.796-4.121,6.223-7
	c0.637-1.284,1.273-2.568,1.91-3.852c0.367-0.741,0.744-1.571,0.516-2.366c-0.27-0.937-1.271-1.447-2.205-1.728
	c-4.302-1.297-10.251,0.828-12.968,4.511C188.416,19.038,191.893,26.907,198.34,24.866z" data-stroke="c3" style="stroke:rgb(220, 228, 235);animation-play-state:paused" ></path></g></g>
<g data-idx="7" data-dup="r" dx="-128" dy="-128" style="transform-origin:-104.176px 97.3672px;transform:matrix(1, 0, 0, 1, 0, 0);animation-timing-function:linear;animation-play-state:paused;animation-name:beat-ecb1af76-fde2-4406-b5c0-47755bbec715;animation-iteration-count:infinite;animation-fill-mode:forwards;animation-duration:14.2857s" ><g transform="translate(-128,-128)" style="animation-play-state:paused" ><path fill="none" stroke="#0DB14B" stroke-width="3" stroke-miterlimit="10" d="M14.427,226.895
	c0.381-5.953,5.916-14.342,12.713-10.474c2.952,1.68,4.626,4.943,5.7,8.166c0.288,0.865,0.547,1.796,0.311,2.677
	c-0.226,0.841-0.866,1.498-1.482,2.114c-1.793,1.792-3.623,3.613-5.873,4.78s-5.027,1.6-7.319,0.517
	C15.669,233.348,14.228,229.994,14.427,226.895z" data-stroke="c4" style="stroke:rgb(253, 253, 253);animation-play-state:paused" ></path></g></g>
<g data-idx="7" data-dup="r" dx="128" dy="-128" style="transform-origin:151.824px 97.3672px;transform:matrix(1, 0, 0, 1, 0, 0);animation-timing-function:linear;animation-play-state:paused;animation-name:beat-ecb1af76-fde2-4406-b5c0-47755bbec715;animation-iteration-count:infinite;animation-fill-mode:forwards;animation-duration:14.2857s" ><g transform="translate(128,-128)" style="animation-play-state:paused" ><path fill="none" stroke="#0DB14B" stroke-width="3" stroke-miterlimit="10" d="M14.427,226.895
	c0.381-5.953,5.916-14.342,12.713-10.474c2.952,1.68,4.626,4.943,5.7,8.166c0.288,0.865,0.547,1.796,0.311,2.677
	c-0.226,0.841-0.866,1.498-1.482,2.114c-1.793,1.792-3.623,3.613-5.873,4.78s-5.027,1.6-7.319,0.517
	C15.669,233.348,14.228,229.994,14.427,226.895z" data-stroke="c4" style="stroke:rgb(253, 253, 253);animation-play-state:paused" ></path></g></g>
<g data-idx="8" data-dup="" dx="-128" dy="-128" style="transform-origin:91.082px 90.6641px;transform:matrix(1, 0, 0, 1, 0, 0);animation-timing-function:linear;animation-play-state:paused;animation-name:beat-ecb1af76-fde2-4406-b5c0-47755bbec715;animation-iteration-count:infinite;animation-fill-mode:forwards;animation-duration:14.2857s" ><g transform="translate(-128,-128)" style="animation-play-state:paused" ><path fill="none" stroke="#0089D0" stroke-width="3" stroke-miterlimit="10" d="M217.628,225.383
	c0.836,0.151,1.687,0.158,2.54-0.039c3.133-0.727,9.783-6.699,8.168-10.337c-1.414-3.187-6.723-3.458-9.537-2.995
	c-3.054,0.503-7.33,2.483-8.775,5.39c-0.857,1.724-0.462,3.302,1.02,4.448C212.839,223.238,215.163,224.936,217.628,225.383z" data-stroke="c1" style="stroke:rgb(133, 162, 182);animation-play-state:paused" ></path></g></g>
<g data-idx="8" data-dup="" dx="128" dy="-128" style="transform-origin:347.082px 90.6641px;transform:matrix(1, 0, 0, 1, 0, 0);animation-timing-function:linear;animation-play-state:paused;animation-name:beat-ecb1af76-fde2-4406-b5c0-47755bbec715;animation-iteration-count:infinite;animation-fill-mode:forwards;animation-duration:14.2857s" ><g transform="translate(128,-128)" style="animation-play-state:paused" ><path fill="none" stroke="#0089D0" stroke-width="3" stroke-miterlimit="10" d="M217.628,225.383
	c0.836,0.151,1.687,0.158,2.54-0.039c3.133-0.727,9.783-6.699,8.168-10.337c-1.414-3.187-6.723-3.458-9.537-2.995
	c-3.054,0.503-7.33,2.483-8.775,5.39c-0.857,1.724-0.462,3.302,1.02,4.448C212.839,223.238,215.163,224.936,217.628,225.383z" data-stroke="c1" style="stroke:rgb(133, 162, 182);animation-play-state:paused" ></path></g></g>
<g data-idx="9" data-dup="" dx="-128" dy="-128" style="transform-origin:-32.375px 52.5469px;transform:matrix(1, 0, 0, 1, 0, 0);animation-timing-function:linear;animation-play-state:paused;animation-name:beat-ecb1af76-fde2-4406-b5c0-47755bbec715;animation-iteration-count:infinite;animation-fill-mode:forwards;animation-duration:14.2857s" ><g transform="translate(-128,-128)" style="animation-play-state:paused" ><path fill="none" stroke="#0DB14B" stroke-width="3" stroke-miterlimit="10" d="M97.707,184.08c2.364-1.379,2.519-5.336,0.27-6.896
	c-2.305-1.599-6.115,0.032-6.295,2.902C91.502,182.961,95.041,185.635,97.707,184.08z" data-stroke="c4" style="stroke:rgb(253, 253, 253);animation-play-state:paused" ></path></g></g>
<g data-idx="9" data-dup="" dx="128" dy="-128" style="transform-origin:223.625px 52.5469px;transform:matrix(1, 0, 0, 1, 0, 0);animation-timing-function:linear;animation-play-state:paused;animation-name:beat-ecb1af76-fde2-4406-b5c0-47755bbec715;animation-iteration-count:infinite;animation-fill-mode:forwards;animation-duration:14.2857s" ><g transform="translate(128,-128)" style="animation-play-state:paused" ><path fill="none" stroke="#0DB14B" stroke-width="3" stroke-miterlimit="10" d="M97.707,184.08c2.364-1.379,2.519-5.336,0.27-6.896
	c-2.305-1.599-6.115,0.032-6.295,2.902C91.502,182.961,95.041,185.635,97.707,184.08z" data-stroke="c4" style="stroke:rgb(253, 253, 253);animation-play-state:paused" ></path></g></g>
<g data-idx="10" data-dup="" dx="-128" dy="-128" style="transform-origin:11.6504px 113.393px;transform:matrix(1, 0, 0, 1, 0, 0);animation-timing-function:linear;animation-play-state:paused;animation-name:beat-ecb1af76-fde2-4406-b5c0-47755bbec715;animation-iteration-count:infinite;animation-fill-mode:forwards;animation-duration:14.2857s" ><g transform="translate(-128,-128)" style="animation-play-state:paused" ><path fill="none" stroke="#F37021" stroke-width="3" stroke-miterlimit="10" d="M142.558,245.042
	c-2.599,1.299-5.818,2.495-7.824-0.194c-1.452-1.947-1.424-4.813,0.165-6.59c2.048-2.291,5.826-2.495,8.447-0.889
	c0.973,0.596,1.849,1.456,2.158,2.554C146.084,241.979,144.47,244.086,142.558,245.042z" data-stroke="c3" style="stroke:rgb(220, 228, 235);animation-play-state:paused" ></path></g></g>
<g data-idx="10" data-dup="" dx="128" dy="-128" style="transform-origin:267.65px 113.393px;transform:matrix(1, 0, 0, 1, 0, 0);animation-timing-function:linear;animation-play-state:paused;animation-name:beat-ecb1af76-fde2-4406-b5c0-47755bbec715;animation-iteration-count:infinite;animation-fill-mode:forwards;animation-duration:14.2857s" ><g transform="translate(128,-128)" style="animation-play-state:paused" ><path fill="none" stroke="#F37021" stroke-width="3" stroke-miterlimit="10" d="M142.558,245.042
	c-2.599,1.299-5.818,2.495-7.824-0.194c-1.452-1.947-1.424-4.813,0.165-6.59c2.048-2.291,5.826-2.495,8.447-0.889
	c0.973,0.596,1.849,1.456,2.158,2.554C146.084,241.979,144.47,244.086,142.558,245.042z" data-stroke="c3" style="stroke:rgb(220, 228, 235);animation-play-state:paused" ></path></g></g>
<g data-idx="0" data-dup="" dx="-128" dy="128" style="transform-origin:-58.3242px 164.246px;transform:matrix(1, 0, 0, 1, 0, 0);animation-timing-function:linear;animation-play-state:paused;animation-name:beat-ecb1af76-fde2-4406-b5c0-47755bbec715;animation-iteration-count:infinite;animation-fill-mode:forwards;animation-duration:14.2857s" ><g transform="translate(-128,128)" style="animation-play-state:paused" ><path fill="none" stroke="#0089D0" stroke-width="3" stroke-miterlimit="10" d="M60.206,40.745c-0.232,3.342,1.993,7.1,5.338,7.266
	c2.88,0.142,5.202-2.266,6.862-4.623c2.703-3.838,4.815-8.092,6.24-12.565c0.509-1.598,0.888-3.486-0.107-4.836
	c-0.805-1.092-2.274-1.464-3.63-1.51C67.007,24.208,60.705,33.579,60.206,40.745z" data-stroke="c1" style="stroke:rgb(133, 162, 182);animation-play-state:paused" ></path></g></g>
<g data-idx="0" data-dup="" dx="128" dy="128" style="transform-origin:197.676px 164.246px;transform:matrix(1, 0, 0, 1, 0, 0);animation-timing-function:linear;animation-play-state:paused;animation-name:beat-ecb1af76-fde2-4406-b5c0-47755bbec715;animation-iteration-count:infinite;animation-fill-mode:forwards;animation-duration:14.2857s" ><g transform="translate(128,128)" style="animation-play-state:paused" ><path fill="none" stroke="#0089D0" stroke-width="3" stroke-miterlimit="10" d="M60.206,40.745c-0.232,3.342,1.993,7.1,5.338,7.266
	c2.88,0.142,5.202-2.266,6.862-4.623c2.703-3.838,4.815-8.092,6.24-12.565c0.509-1.598,0.888-3.486-0.107-4.836
	c-0.805-1.092-2.274-1.464-3.63-1.51C67.007,24.208,60.705,33.579,60.206,40.745z" data-stroke="c1" style="stroke:rgb(133, 162, 182);animation-play-state:paused" ></path></g></g>
<g data-idx="1" data-dup="" dx="-128" dy="128" style="transform-origin:-26.3164px 211.398px;transform:matrix(1, 0, 0, 1, 0, 0);animation-timing-function:linear;animation-play-state:paused;animation-name:beat-ecb1af76-fde2-4406-b5c0-47755bbec715;animation-iteration-count:infinite;animation-fill-mode:forwards;animation-duration:14.2857s" ><g transform="translate(-128,128)" style="animation-play-state:paused" ><path fill="none" stroke="#CC004C" stroke-width="3" stroke-miterlimit="10" d="M102.656,92.571
	c-5.292-0.594-11.436-1.965-11.84-8.101c-0.292-4.443,2.61-8.822,6.827-9.97c5.436-1.481,11.448,1.974,13.878,7.057
	c0.902,1.887,1.391,4.083,0.771,6.081C111.131,91.377,106.548,93.007,102.656,92.571z" data-stroke="c2" style="stroke:rgb(187, 206, 221);animation-play-state:paused" ></path></g></g>
<g data-idx="1" data-dup="" dx="128" dy="128" style="transform-origin:229.684px 211.398px;transform:matrix(1, 0, 0, 1, 0, 0);animation-timing-function:linear;animation-play-state:paused;animation-name:beat-ecb1af76-fde2-4406-b5c0-47755bbec715;animation-iteration-count:infinite;animation-fill-mode:forwards;animation-duration:14.2857s" ><g transform="translate(128,128)" style="animation-play-state:paused" ><path fill="none" stroke="#CC004C" stroke-width="3" stroke-miterlimit="10" d="M102.656,92.571
	c-5.292-0.594-11.436-1.965-11.84-8.101c-0.292-4.443,2.61-8.822,6.827-9.97c5.436-1.481,11.448,1.974,13.878,7.057
	c0.902,1.887,1.391,4.083,0.771,6.081C111.131,91.377,106.548,93.007,102.656,92.571z" data-stroke="c2" style="stroke:rgb(187, 206, 221);animation-play-state:paused" ></path></g></g>
<g data-idx="2" data-dup="" dx="-128" dy="128" style="transform-origin:-78.9082px 273.369px;transform:matrix(1, 0, 0, 1, 0, 0);animation-timing-function:linear;animation-play-state:paused;animation-name:beat-ecb1af76-fde2-4406-b5c0-47755bbec715;animation-iteration-count:infinite;animation-fill-mode:forwards;animation-duration:14.2857s" ><g transform="translate(-128,128)" style="animation-play-state:paused" ><path fill="none" stroke="#F37021" stroke-width="3" stroke-miterlimit="10" d="M52.878,135.483
	c-4.036-0.448-13.768-1.345-15.585,3.655c-2.061,5.669,5.31,7.433,6.404,11.913c0.222,0.908,0.166,1.889,0.556,2.739
	c0.765,1.669,3.026,2.18,4.764,1.589c1.738-0.59,3.068-1.977,4.324-3.315c1.868-1.989,3.735-3.978,5.603-5.967
	c0.891-0.949,1.812-1.949,2.162-3.202c0.568-2.031-0.574-4.247-2.277-5.49C57.126,136.162,54.974,135.716,52.878,135.483z" data-stroke="c3" style="stroke:rgb(220, 228, 235);animation-play-state:paused" ></path></g></g>
<g data-idx="2" data-dup="" dx="128" dy="128" style="transform-origin:177.092px 273.369px;transform:matrix(1, 0, 0, 1, 0, 0);animation-timing-function:linear;animation-play-state:paused;animation-name:beat-ecb1af76-fde2-4406-b5c0-47755bbec715;animation-iteration-count:infinite;animation-fill-mode:forwards;animation-duration:14.2857s" ><g transform="translate(128,128)" style="animation-play-state:paused" ><path fill="none" stroke="#F37021" stroke-width="3" stroke-miterlimit="10" d="M52.878,135.483
	c-4.036-0.448-13.768-1.345-15.585,3.655c-2.061,5.669,5.31,7.433,6.404,11.913c0.222,0.908,0.166,1.889,0.556,2.739
	c0.765,1.669,3.026,2.18,4.764,1.589c1.738-0.59,3.068-1.977,4.324-3.315c1.868-1.989,3.735-3.978,5.603-5.967
	c0.891-0.949,1.812-1.949,2.162-3.202c0.568-2.031-0.574-4.247-2.277-5.49C57.126,136.162,54.974,135.716,52.878,135.483z" data-stroke="c3" style="stroke:rgb(220, 228, 235);animation-play-state:paused" ></path></g></g>
<g data-idx="3" data-dup="" dx="-128" dy="128" style="transform-origin:31.625px 220.639px;transform:matrix(1, 0, 0, 1, 0, 0);animation-timing-function:linear;animation-play-state:paused;animation-name:beat-ecb1af76-fde2-4406-b5c0-47755bbec715;animation-iteration-count:infinite;animation-fill-mode:forwards;animation-duration:14.2857s" ><g transform="translate(-128,128)" style="animation-play-state:paused" ><path fill="none" stroke="#0089D0" stroke-width="3" stroke-miterlimit="10" d="M161.707,96.172c2.364-1.379,2.519-5.336,0.27-6.896
	c-2.305-1.599-6.115,0.032-6.295,2.902C155.502,95.054,159.041,97.728,161.707,96.172z" data-stroke="c1" style="stroke:rgb(133, 162, 182);animation-play-state:paused" ></path></g></g>
<g data-idx="3" data-dup="" dx="128" dy="128" style="transform-origin:287.625px 220.639px;transform:matrix(1, 0, 0, 1, 0, 0);animation-timing-function:linear;animation-play-state:paused;animation-name:beat-ecb1af76-fde2-4406-b5c0-47755bbec715;animation-iteration-count:infinite;animation-fill-mode:forwards;animation-duration:14.2857s" ><g transform="translate(128,128)" style="animation-play-state:paused" ><path fill="none" stroke="#0089D0" stroke-width="3" stroke-miterlimit="10" d="M161.707,96.172c2.364-1.379,2.519-5.336,0.27-6.896
	c-2.305-1.599-6.115,0.032-6.295,2.902C155.502,95.054,159.041,97.728,161.707,96.172z" data-stroke="c1" style="stroke:rgb(133, 162, 182);animation-play-state:paused" ></path></g></g>
<g data-idx="4" data-dup="" dx="-128" dy="128" style="transform-origin:35.5586px 299.367px;transform:matrix(1, 0, 0, 1, 0, 0);animation-timing-function:linear;animation-play-state:paused;animation-name:beat-ecb1af76-fde2-4406-b5c0-47755bbec715;animation-iteration-count:infinite;animation-fill-mode:forwards;animation-duration:14.2857s" ><g transform="translate(-128,128)" style="animation-play-state:paused" ><path fill="none" stroke="#CC004C" stroke-width="3" stroke-miterlimit="10" d="M162.538,162.188
	c2.552,0.017,4.986,0.998,7.348,1.964c1.122,0.459,2.369,1.047,2.74,2.2c0.852,2.645-3.398,4.025-4.362,6.631
	c-0.678,1.834,0.408,4.089-0.615,5.756c-0.557,0.908-1.617,1.385-2.657,1.617c-3.731,0.833-7.904-1.116-9.66-4.511
	c-1.425-2.755-1.124-6.166,0.053-8.951c0.565-1.336,1.215-2.502,2.458-3.251C159.324,162.752,160.778,162.176,162.538,162.188z" data-stroke="c2" style="stroke:rgb(187, 206, 221);animation-play-state:paused" ></path></g></g>
<g data-idx="4" data-dup="" dx="128" dy="128" style="transform-origin:291.559px 299.367px;transform:matrix(1, 0, 0, 1, 0, 0);animation-timing-function:linear;animation-play-state:paused;animation-name:beat-ecb1af76-fde2-4406-b5c0-47755bbec715;animation-iteration-count:infinite;animation-fill-mode:forwards;animation-duration:14.2857s" ><g transform="translate(128,128)" style="animation-play-state:paused" ><path fill="none" stroke="#CC004C" stroke-width="3" stroke-miterlimit="10" d="M162.538,162.188
	c2.552,0.017,4.986,0.998,7.348,1.964c1.122,0.459,2.369,1.047,2.74,2.2c0.852,2.645-3.398,4.025-4.362,6.631
	c-0.678,1.834,0.408,4.089-0.615,5.756c-0.557,0.908-1.617,1.385-2.657,1.617c-3.731,0.833-7.904-1.116-9.66-4.511
	c-1.425-2.755-1.124-6.166,0.053-8.951c0.565-1.336,1.215-2.502,2.458-3.251C159.324,162.752,160.778,162.176,162.538,162.188z" data-stroke="c2" style="stroke:rgb(187, 206, 221);animation-play-state:paused" ></path></g></g>
<g data-idx="5" data-dup="" dx="-128" dy="128" style="transform-origin:107.637px 247.369px;transform:matrix(1, 0, 0, 1, 0, 0);animation-timing-function:linear;animation-play-state:paused;animation-name:beat-ecb1af76-fde2-4406-b5c0-47755bbec715;animation-iteration-count:infinite;animation-fill-mode:forwards;animation-duration:14.2857s" ><g transform="translate(-128,128)" style="animation-play-state:paused" ><path fill="none" stroke="#0DB14B" stroke-width="3" stroke-miterlimit="10" d="M232.889,124.989
	c1.156,0.554,2.496,0.703,3.752,0.447c2.998-0.611,5.26-3.722,4.917-6.762c-0.343-3.04-3.242-5.568-6.3-5.496
	c-2.261,0.054-4.35,1.448-5.212,3.535c-0.409,0.99-0.445,2.105-0.266,3.161C230.125,121.921,230.91,124.04,232.889,124.989z" data-stroke="c4" style="stroke:rgb(253, 253, 253);animation-play-state:paused" ></path></g></g>
<g data-idx="5" data-dup="" dx="128" dy="128" style="transform-origin:363.637px 247.369px;transform:matrix(1, 0, 0, 1, 0, 0);animation-timing-function:linear;animation-play-state:paused;animation-name:beat-ecb1af76-fde2-4406-b5c0-47755bbec715;animation-iteration-count:infinite;animation-fill-mode:forwards;animation-duration:14.2857s" ><g transform="translate(128,128)" style="animation-play-state:paused" ><path fill="none" stroke="#0DB14B" stroke-width="3" stroke-miterlimit="10" d="M232.889,124.989
	c1.156,0.554,2.496,0.703,3.752,0.447c2.998-0.611,5.26-3.722,4.917-6.762c-0.343-3.04-3.242-5.568-6.3-5.496
	c-2.261,0.054-4.35,1.448-5.212,3.535c-0.409,0.99-0.445,2.105-0.266,3.161C230.125,121.921,230.91,124.04,232.889,124.989z" data-stroke="c4" style="stroke:rgb(253, 253, 253);animation-play-state:paused" ></path></g></g>
<g data-idx="6" data-dup="b" dx="-128" dy="128" style="transform-origin:70.7734px 145.369px;transform:matrix(1, 0, 0, 1, 0, 0);animation-timing-function:linear;animation-play-state:paused;animation-name:beat-ecb1af76-fde2-4406-b5c0-47755bbec715;animation-iteration-count:infinite;animation-fill-mode:forwards;animation-duration:14.2857s" ><g transform="translate(-128,128)" style="animation-play-state:paused" ><path fill="none" stroke="#F37021" stroke-width="3" stroke-miterlimit="10" d="M198.34,24.866c3.064-0.97,4.796-4.121,6.223-7
	c0.637-1.284,1.273-2.568,1.91-3.852c0.367-0.741,0.744-1.571,0.516-2.366c-0.27-0.937-1.271-1.447-2.205-1.728
	c-4.302-1.297-10.251,0.828-12.968,4.511C188.416,19.038,191.893,26.907,198.34,24.866z" data-stroke="c3" style="stroke:rgb(220, 228, 235);animation-play-state:paused" ></path></g></g>
<g data-idx="6" data-dup="b" dx="128" dy="128" style="transform-origin:326.773px 145.369px;transform:matrix(1, 0, 0, 1, 0, 0);animation-timing-function:linear;animation-play-state:paused;animation-name:beat-ecb1af76-fde2-4406-b5c0-47755bbec715;animation-iteration-count:infinite;animation-fill-mode:forwards;animation-duration:14.2857s" ><g transform="translate(128,128)" style="animation-play-state:paused" ><path fill="none" stroke="#F37021" stroke-width="3" stroke-miterlimit="10" d="M198.34,24.866c3.064-0.97,4.796-4.121,6.223-7
	c0.637-1.284,1.273-2.568,1.91-3.852c0.367-0.741,0.744-1.571,0.516-2.366c-0.27-0.937-1.271-1.447-2.205-1.728
	c-4.302-1.297-10.251,0.828-12.968,4.511C188.416,19.038,191.893,26.907,198.34,24.866z" data-stroke="c3" style="stroke:rgb(220, 228, 235);animation-play-state:paused" ></path></g></g>
<g data-idx="7" data-dup="r" dx="-128" dy="128" style="transform-origin:-104.176px 353.367px;transform:matrix(1, 0, 0, 1, 0, 0);animation-timing-function:linear;animation-play-state:paused;animation-name:beat-ecb1af76-fde2-4406-b5c0-47755bbec715;animation-iteration-count:infinite;animation-fill-mode:forwards;animation-duration:14.2857s" ><g transform="translate(-128,128)" style="animation-play-state:paused" ><path fill="none" stroke="#0DB14B" stroke-width="3" stroke-miterlimit="10" d="M14.427,226.895
	c0.381-5.953,5.916-14.342,12.713-10.474c2.952,1.68,4.626,4.943,5.7,8.166c0.288,0.865,0.547,1.796,0.311,2.677
	c-0.226,0.841-0.866,1.498-1.482,2.114c-1.793,1.792-3.623,3.613-5.873,4.78s-5.027,1.6-7.319,0.517
	C15.669,233.348,14.228,229.994,14.427,226.895z" data-stroke="c4" style="stroke:rgb(253, 253, 253);animation-play-state:paused" ></path></g></g>
<g data-idx="7" data-dup="r" dx="128" dy="128" style="transform-origin:151.824px 353.367px;transform:matrix(1, 0, 0, 1, 0, 0);animation-timing-function:linear;animation-play-state:paused;animation-name:beat-ecb1af76-fde2-4406-b5c0-47755bbec715;animation-iteration-count:infinite;animation-fill-mode:forwards;animation-duration:14.2857s" ><g transform="translate(128,128)" style="animation-play-state:paused" ><path fill="none" stroke="#0DB14B" stroke-width="3" stroke-miterlimit="10" d="M14.427,226.895
	c0.381-5.953,5.916-14.342,12.713-10.474c2.952,1.68,4.626,4.943,5.7,8.166c0.288,0.865,0.547,1.796,0.311,2.677
	c-0.226,0.841-0.866,1.498-1.482,2.114c-1.793,1.792-3.623,3.613-5.873,4.78s-5.027,1.6-7.319,0.517
	C15.669,233.348,14.228,229.994,14.427,226.895z" data-stroke="c4" style="stroke:rgb(253, 253, 253);animation-play-state:paused" ></path></g></g>
<g data-idx="8" data-dup="" dx="-128" dy="128" style="transform-origin:91.082px 346.664px;transform:matrix(1, 0, 0, 1, 0, 0);animation-timing-function:linear;animation-play-state:paused;animation-name:beat-ecb1af76-fde2-4406-b5c0-47755bbec715;animation-iteration-count:infinite;animation-fill-mode:forwards;animation-duration:14.2857s" ><g transform="translate(-128,128)" style="animation-play-state:paused" ><path fill="none" stroke="#0089D0" stroke-width="3" stroke-miterlimit="10" d="M217.628,225.383
	c0.836,0.151,1.687,0.158,2.54-0.039c3.133-0.727,9.783-6.699,8.168-10.337c-1.414-3.187-6.723-3.458-9.537-2.995
	c-3.054,0.503-7.33,2.483-8.775,5.39c-0.857,1.724-0.462,3.302,1.02,4.448C212.839,223.238,215.163,224.936,217.628,225.383z" data-stroke="c1" style="stroke:rgb(133, 162, 182);animation-play-state:paused" ></path></g></g>
<g data-idx="8" data-dup="" dx="128" dy="128" style="transform-origin:347.082px 346.664px;transform:matrix(1, 0, 0, 1, 0, 0);animation-timing-function:linear;animation-play-state:paused;animation-name:beat-ecb1af76-fde2-4406-b5c0-47755bbec715;animation-iteration-count:infinite;animation-fill-mode:forwards;animation-duration:14.2857s" ><g transform="translate(128,128)" style="animation-play-state:paused" ><path fill="none" stroke="#0089D0" stroke-width="3" stroke-miterlimit="10" d="M217.628,225.383
	c0.836,0.151,1.687,0.158,2.54-0.039c3.133-0.727,9.783-6.699,8.168-10.337c-1.414-3.187-6.723-3.458-9.537-2.995
	c-3.054,0.503-7.33,2.483-8.775,5.39c-0.857,1.724-0.462,3.302,1.02,4.448C212.839,223.238,215.163,224.936,217.628,225.383z" data-stroke="c1" style="stroke:rgb(133, 162, 182);animation-play-state:paused" ></path></g></g>
<g data-idx="9" data-dup="" dx="-128" dy="128" style="transform-origin:-32.375px 308.547px;transform:matrix(1, 0, 0, 1, 0, 0);animation-timing-function:linear;animation-play-state:paused;animation-name:beat-ecb1af76-fde2-4406-b5c0-47755bbec715;animation-iteration-count:infinite;animation-fill-mode:forwards;animation-duration:14.2857s" ><g transform="translate(-128,128)" style="animation-play-state:paused" ><path fill="none" stroke="#0DB14B" stroke-width="3" stroke-miterlimit="10" d="M97.707,184.08c2.364-1.379,2.519-5.336,0.27-6.896
	c-2.305-1.599-6.115,0.032-6.295,2.902C91.502,182.961,95.041,185.635,97.707,184.08z" data-stroke="c4" style="stroke:rgb(253, 253, 253);animation-play-state:paused" ></path></g></g>
<g data-idx="9" data-dup="" dx="128" dy="128" style="transform-origin:223.625px 308.547px;transform:matrix(1, 0, 0, 1, 0, 0);animation-timing-function:linear;animation-play-state:paused;animation-name:beat-ecb1af76-fde2-4406-b5c0-47755bbec715;animation-iteration-count:infinite;animation-fill-mode:forwards;animation-duration:14.2857s" ><g transform="translate(128,128)" style="animation-play-state:paused" ><path fill="none" stroke="#0DB14B" stroke-width="3" stroke-miterlimit="10" d="M97.707,184.08c2.364-1.379,2.519-5.336,0.27-6.896
	c-2.305-1.599-6.115,0.032-6.295,2.902C91.502,182.961,95.041,185.635,97.707,184.08z" data-stroke="c4" style="stroke:rgb(253, 253, 253);animation-play-state:paused" ></path></g></g>
<g data-idx="10" data-dup="" dx="-128" dy="128" style="transform-origin:11.6504px 369.393px;transform:matrix(1, 0, 0, 1, 0, 0);animation-timing-function:linear;animation-play-state:paused;animation-name:beat-ecb1af76-fde2-4406-b5c0-47755bbec715;animation-iteration-count:infinite;animation-fill-mode:forwards;animation-duration:14.2857s" ><g transform="translate(-128,128)" style="animation-play-state:paused" ><path fill="none" stroke="#F37021" stroke-width="3" stroke-miterlimit="10" d="M142.558,245.042
	c-2.599,1.299-5.818,2.495-7.824-0.194c-1.452-1.947-1.424-4.813,0.165-6.59c2.048-2.291,5.826-2.495,8.447-0.889
	c0.973,0.596,1.849,1.456,2.158,2.554C146.084,241.979,144.47,244.086,142.558,245.042z" data-stroke="c3" style="stroke:rgb(220, 228, 235);animation-play-state:paused" ></path></g></g>
<g data-idx="10" data-dup="" dx="128" dy="128" style="transform-origin:267.65px 369.393px;transform:matrix(1, 0, 0, 1, 0, 0);animation-timing-function:linear;animation-play-state:paused;animation-name:beat-ecb1af76-fde2-4406-b5c0-47755bbec715;animation-iteration-count:infinite;animation-fill-mode:forwards;animation-duration:14.2857s" ><g transform="translate(128,128)" style="animation-play-state:paused" ><path fill="none" stroke="#F37021" stroke-width="3" stroke-miterlimit="10" d="M142.558,245.042
	c-2.599,1.299-5.818,2.495-7.824-0.194c-1.452-1.947-1.424-4.813,0.165-6.59c2.048-2.291,5.826-2.495,8.447-0.889
	c0.973,0.596,1.849,1.456,2.158,2.554C146.084,241.979,144.47,244.086,142.558,245.042z" data-stroke="c3" style="stroke:rgb(220, 228, 235);animation-play-state:paused" ></path></g></g></g></svg>