<svg height="512" viewBox="0 0 60 60" width="512" xmlns="http://www.w3.org/2000/svg"><g id="024---Money-Bag" fill="none"><g id="Icons_copy" transform="translate(1)"><path id="Shape" d="m50.73 41.84-14.85 4.95c-.858.293-1.424.21-3.62.21 2.59-2.59.065-7-3.83-7h-5.23c-2.0715011-.0028959-4.0808416-.7079276-5.7-2-.9866473-.7848778-2.1232082-1.359964-3.34-1.69 1.22-8.31 4.86-14.92 8.68-22.83h-.01c.94-3.56.77-7.6-1.76-10.82-.2340164-.28754307-.2941504-.6791929-.1571787-1.02369754.1369718-.34450464.4496109-.58794349.8171787-.63630246 3.26-.4 8.616 1.981 8.96 2.03 1.5582463.55987252 3.2662041.53856744 4.81-.06 2.284-.87 6.349-2.27 8.77-1.97.3675678.04835897.6802069.29179782.8171787.63630246.1369717.34450464.0768377.73615447-.1571787 1.02369754-2.53 3.22-2.7 7.26-1.76 10.82h-.01c3.95 8.19 7.72 15.11 8.81 23.69.1353564 1.6528874-.3025177 3.3019777-1.24 4.67z" fill="#e8edfc"/><path id="Shape" d="m51.97 37.17c-1.09-8.58-4.86-15.5-8.81-23.69h.01c-.94-3.56-.77-7.6 1.76-10.82.2340164-.28754307.2941504-.6791929.1571787-1.02369754-.1369718-.34450464-.4496109-.58794349-.8171787-.63630246-.8660685-.07380153-1.7382417-.02328957-2.59.15.2450493.15790551.4119707.41200088.4595872.69960476.0476166.28760388-.0285052.58193818-.2095872.81039524-2.53 3.22-2.7 7.26-1.76 10.82h-.01c3.95 8.19 7.72 15.11 8.81 23.69.1353564 1.6528874-.3025177 3.3019777-1.24 4.67-16.669 5.56-15.368 5.06-15.47 5.16 2.223 0 2.792.073 3.62-.21l14.85-4.95c.9374823-1.3680223 1.3753564-3.0171126 1.24-4.67z" fill="#cad9fc"/><path id="Shape" d="m56.68 45.57-18.74 11.41c-1.0968305.667384-2.3560847 1.020252-3.64 1.02-27.572 0-25.59.05-25.54-.05.343-.64.24.973.24-21.95 3.146 0 5.662-.264 8.5 2 1.6191584 1.2920724 3.6284989 1.9971041 5.7 2h5.23c3.862 0 6.446 4.384 3.83 7h2.35c.937 0-.22.286 19.78-6.38 1.1203519-.3655922 2.349262.0199482 3.06.96v.01c.4649441.6171961.6465512 1.4025179.4997758 2.1611752s-.608183 1.4195768-1.2697758 1.8188248z" fill="#e8edfc"/><path id="Shape" d="m57.45 41.59v-.01c-.710738-.9400518-1.9396481-1.3255922-3.06-.96l-.76.253c.3206834.1744075.6002888.4154819.82.707v.01c.4649441.6171961.6465512 1.4025179.4997758 2.1611752s-.608183 1.4195768-1.2697758 1.8188248l-18.74 11.41c-1.0968305.667384-2.3560847 1.020252-3.64 1.02 2.991 0 4.586.231 6.64-1.02l18.74-11.41c.6615928-.399248 1.1230004-1.0601675 1.2697758-1.8188248s-.0348317-1.5439791-.4997758-2.1611752z" fill="#cad9fc"/><path id="Shape" d="m9 36c0 22.912.1 21.31-.24 21.95-.35317801.6429481-1.02645518 1.0446191-1.76 1.05h-5c-1.10320187-.0032948-1.9967052-.8967981-2-2v-21c.0032948-1.1032019.89679813-1.9967052 2-2h5c1.10320187.0032948 1.9967052.8967981 2 2z" fill="#7facfa"/><path id="Shape" d="m6 36c0 22.912.1 21.31-.24 21.95-.35109868.6449509-1.02568047 1.0474002-1.76 1.05h-2c-1.10320187-.0032948-1.9967052-.8967981-2-2v-21c.0032948-1.1032019.89679813-1.9967052 2-2h2c1.10320187.0032948 1.9967052.8967981 2 2z" fill="#a4c2f7"/></g><g id="Icons" fill="#fff" transform="translate(1)"><path id="Shape" d="m14.8 36c.796129.0100444 1.5882844.1140987 2.36.31 1.22-8.31 4.86-14.92 8.68-22.83h-.01c.94-3.56.77-7.6-1.76-10.82-.1814153-.22967512-.2579817-.52500644-.2110067-.81389313.046975-.28888668.2131684-.54474355.4580067-.70510687-.9070675-.18488534-1.8380051-.22236596-2.757-.111-.3234403.1043294-.5749627.36093463-.6728012.6863972-.0978384.32546256-.0294994.67822247.1828012.9436028 2.53 3.22 2.7 7.26 1.76 10.82h.01c-3.771 7.809-7.357 14.358-8.622 22.52z"/><path id="Shape" d="m2 59h3c-1.10320187-.0032948-1.9967052-.8967981-2-2v-21c.0032948-1.1032019.89679813-1.9967052 2-2h-3c-1.10320187.0032948-1.9967052.8967981-2 2v21c.0032948 1.1032019.89679813 1.9967052 2 2z"/></g><g id="Layer_11" transform="translate(0 -1)"><path id="Rectangle-path" d="m0 37h2v8h-2z" fill="#fff"/><g fill="#428dff"><path id="Shape" d="m1.02 42c.55162546-.0027582.99683094-.4516874.99499446-1.0033167s-.4500212-.9975842-1.0016528-.9966694-.99833476.4483537-.99834166.9999861c-.00000333.2660851.10603959.5211997.29465877.7088804.18861918.1876808.44425948.29245.71034123.2911196z"/><path id="Shape" d="m3 61h5c.84849384-.0026614 1.6557601-.3662948 2.22-1h25.08c1.467221.00049 2.906212-.4032856 4.159-1.167l18.741-11.409c1.6276173-.9901832 2.2517913-3.0449436 1.4499321-4.7731283-.8018593-1.7281847-2.7738821-2.5783375-4.5809321-1.9748717l-1.449.483c.3260941-1.0039529.4411678-2.0644691.338-3.115-1.029-8.1-4.441-14.85-8.029-22.215 2.812.571 8.65 2.171 8.091 4.971-.0839647.3556996.0328053.7288731.3045463.9732685s.6551639.32108 1 .2.5961521-.4206363.6554537-.7812685c.73-3.647-3.481-5.663-7.039-6.7 3.559-1.025 7.769-3.04 7.039-6.692-.1238056-.52447743-.640941-.85652496-1.1693679-.75083958s-.8780721.61108903-.7906321 1.14283958c.6 2.981-6.065 4.651-9.089 5.161-.7738191-3.140584-.1220789-6.46259286 1.781-9.078.4563638-.571213.5688186-1.34429458.294105-2.0218524-.2747136-.67755783-.8937995-1.15403858-1.619105-1.2461476-2.519-.285-6.42.945-9.246 2.028-1.3784036.52854169-2.9035964.52854169-4.282 0-2.827-1.083-6.727-2.316-9.246-2.028-.7267853.09122618-1.3474028.56837976-1.6223375 1.24731276-.2749346.678933-.1611896 1.4534675.2973375 2.02468724 2.712 3.446 2.182 7.621 1.602 9.86-3.6 7.455-7.144 13.957-8.532 21.988-1.174817-.1441205-2.3598781-.1866114-3.542-.127-.4222546-1.1943509-1.54921457-1.9947486-2.816-2h-5c-2.97 0-3.919 4-2 4 .55228475 0 1-.4477153 1-1s.44771525-1 1-1h5c.55228475 0 1 .4477153 1 1v21c0 .5522847-.44771525 1-1 1h-5c-.55228475 0-1-.4477153-1-1v-13c0-.5522847-.44771525-1-1-1s-1 .4477153-1 1v13c0 1.6568542 1.34314575 3 3 3zm19.837-58.006c1.654-.187 4.606.491 8.307 1.908 1.8386411.70553048 3.8733589.70553048 5.712 0 3.7-1.419 6.656-2.094 8.284-1.86-2.2591374 3.0186561-3.0647638 6.88309946-2.2 10.553-.746.067-1.5.1-2.244.151-.288-1.271-.591-3.872.182-5.261.2684104-.48269687.0946969-1.0915896-.388-1.35999999-.4826969-.26841038-1.0915896-.09469687-1.36.38799999-1.045 1.877-.779 4.682-.434 6.367-1.229.058-2.46.08-3.692.093v-4.973c0-.55228475-.4477153-1-1-1s-1 .44771525-1 1v4.974c-1.231-.013-2.462-.035-3.692-.093.345-1.685.611-4.491-.434-6.367-.1736311-.31225014-.5006563-.50815009-.8578884-.51390623-.357232-.00575615-.690399.17950601-.874.48600001-.183601.30649399-.1897427.68765609-.0161116.99990622.774 1.39.469 4 .184 5.26-.748-.05-1.5-.084-2.245-.151.8602083-3.68986471.0429993-7.57124127-2.232-10.601zm1.6 12.545c6.363845.6079853 12.771155.6079853 19.135 0 3.751 7.738 7.36 14.494 8.408 22.734.1004872 1.3165564-.2267403 2.6303766-.933 3.746-16.129 5.375-14.555 4.981-16.008 4.981 1.248-3.464-1.941-7-5.607-7h-5.232c-1.845108-.0020745-3.634951-.6299473-5.077-1.781-.850057-.6765916-1.8031718-1.2124021-2.823-1.587 1.287-7.632 4.655-13.932 8.133-21.093zm-13.437 22.461c2.272 0 4.43-.175 6.875 1.781 1.7968429 1.433449 4.0264332 2.2156563 6.325 2.219h5.23c2.653 0 4.956 2.873 3.371 5h-6.08c-1.9736699-.0018986-3.9033722.5828597-5.544 1.68l-.733.488c-.3042178.195156-.4794522.5392835-.4583434.9001003s.2352753.6821632.5601743.8405141.7099611.1290596 1.0071691-.0766144c1.4717192-1.1684881 3.2909137-1.8131234 5.17-1.832 9.794 0 9.442.086 10.472-.256l18.511-6.171c.8411998-.2802163 1.7587173.1157203 2.1319278.9199915s.0831723 1.7605568-.6739278 2.2220085l-18.745 11.41c-.9395909.5725464-2.018709.8752808-3.119.875l-24.3.0000002z"/><path id="Shape" d="m29 33c0-.5522847-.4477153-1-1-1s-1 .4477153-1 1c0 2.031 1.618 3.739 4 4.528v1.472c0 .5522847.4477153 1 1 1s1-.4477153 1-1v-1.054c.6647226.072002 1.3352774.072002 2 0v1.054c0 .5522847.4477153 1 1 1s1-.4477153 1-1v-1.472c5.336-1.768 5.331-7.289 0-9.056v-5.839c1.0652867.3403772 1.8421933 1.2598462 2 2.367 0 .5522847.4477153 1 1 1s1-.4477153 1-1c0-2.031-1.618-3.739-4-4.528v-1.472c0-.5522847-.4477153-1-1-1s-1 .4477153-1 1v1.054c-.6647226-.072002-1.3352774-.072002-2 0v-1.054c0-.5522847-.4477153-1-1-1s-1 .4477153-1 1v1.472c-5.336 1.768-5.331 7.289 0 9.056v5.839c-1.0652867-.3403772-1.8421933-1.2598462-2-2.367zm8-2.367c2.654 1.226 2.676 3.5 0 4.734zm-4-8.569c.6639244-.0855147 1.3360756-.0855147 2 0v5.99c-.915-.09-1.2-.015-2-.118zm0 7.882c.915.09 1.2.015 2 .118v5.872c-.6639244.0855147-1.3360756.0855147-2 0zm-2-7.313v4.734c-2.654-1.226-2.676-3.498 0-4.734z"/></g></g></g></svg>