<?xml version="1.0" standalone="no"?>
<!DOCTYPE svg PUBLIC "-//W3C//DTD SVG 20010904//EN"
 "http://www.w3.org/TR/2001/REC-SVG-20010904/DTD/svg10.dtd">
<svg version="1.0" xmlns="http://www.w3.org/2000/svg"
 width="2790.000000pt" height="2790.000000pt" viewBox="0 0 2790.000000 2790.000000"
 preserveAspectRatio="xMidYMid meet">
<metadata>
Created by potrace 1.11, written by Peter Selinger 2001-2013
</metadata>
<g transform="translate(0.000000,2790.000000) scale(0.100000,-0.100000)"
fill="#000000" stroke="none">
<path d="M64 15398 c-15 -18 -35 -52 -45 -76 -18 -42 -19 -98 -19 -1341 l0
-1298 23 -34 c56 -83 141 -110 339 -110 79 0 157 3 175 5 93 14 164 97 181
212 4 27 7 412 6 857 0 444 1 807 4 807 15 0 165 -98 252 -164 58 -45 175
-133 260 -196 85 -63 160 -119 165 -123 25 -20 140 -100 240 -168 155 -106
189 -121 271 -118 l67 2 262 201 c307 236 273 211 533 403 113 84 207 151 210
149 2 -3 5 -386 5 -853 2 -839 2 -848 23 -888 25 -48 80 -87 151 -110 55 -18
319 -24 385 -10 67 15 109 52 145 130 l28 60 0 1265 c0 1411 5 1313 -69 1393
l-34 37 -256 0 -256 0 -62 -43 c-35 -24 -103 -72 -151 -108 -49 -35 -98 -71
-110 -79 -32 -22 -771 -577 -844 -634 l-61 -48 -94 65 c-181 127 -501 363
-588 434 -8 7 -71 53 -140 102 -69 50 -129 94 -135 98 -18 15 -209 139 -271
176 l-62 37 -250 0 -250 0 -28 -32z"/>
<path d="M4185 15411 c-51 -24 -88 -63 -117 -126 -21 -47 -23 -62 -23 -240 0
-157 3 -196 17 -226 20 -44 77 -91 139 -116 42 -17 129 -18 1724 -17 l1680 0
42 22 c23 12 55 41 71 64 51 75 59 116 57 303 -1 156 -3 174 -24 218 -27 55
-69 91 -141 118 -49 18 -95 19 -1718 19 -1601 0 -1669 -1 -1707 -19z"/>
<path d="M8160 15413 c-44 -31 -68 -66 -89 -131 -21 -62 -21 -75 -21 -1315 0
-1209 1 -1253 19 -1294 24 -51 86 -98 158 -119 52 -15 291 -21 370 -10 75 11
140 73 170 161 15 45 16 131 17 907 l0 857 36 -27 c20 -15 52 -39 71 -54 19
-15 138 -107 264 -204 339 -262 341 -263 459 -355 166 -128 246 -190 311 -239
33 -25 62 -47 65 -50 4 -5 312 -243 715 -554 72 -55 189 -150 260 -211 128
-109 245 -197 295 -223 40 -21 374 -18 428 3 42 17 82 60 118 125 18 34 19 76
22 1308 l2 1273 -25 52 c-17 37 -38 61 -72 85 l-48 32 -235 0 c-282 0 -279 1
-338 -120 l-27 -55 -2 -804 c-1 -442 -3 -804 -5 -806 -2 -1 -133 98 -293 222
-342 263 -275 212 -654 503 -168 130 -329 253 -357 275 -28 22 -66 51 -84 65
-72 54 -188 146 -250 200 -186 160 -498 399 -622 476 l-72 44 -281 0 c-250 0
-283 -2 -305 -17z"/>
<path d="M12215 15411 c-51 -24 -88 -63 -117 -126 -20 -45 -23 -68 -26 -218
-3 -137 -1 -178 13 -219 19 -60 65 -108 132 -140 48 -22 49 -22 650 -22 332
-1 604 -3 604 -6 1 -3 3 -444 4 -980 1 -536 5 -993 9 -1015 11 -58 62 -119
126 -152 55 -27 57 -28 250 -28 225 0 251 7 303 81 62 88 59 30 62 1104 1 542
3 987 4 990 0 3 308 5 684 5 375 -1 700 3 722 8 57 12 97 46 135 119 l34 63 1
170 c1 119 -3 185 -13 218 -18 64 -73 119 -146 146 l-57 21 -1667 0 c-1601 0
-1669 -1 -1707 -19z"/>
<path d="M16275 15408 c-49 -25 -81 -59 -109 -118 l-21 -45 0 -1296 0 -1295
27 -41 c20 -30 45 -50 95 -75 l68 -33 1684 -1 c1155 -1 1696 2 1719 10 50 15
106 77 131 145 l21 58 0 1261 c0 1246 -1 1261 -21 1309 -23 56 -79 102 -153
127 -45 15 -200 16 -1725 16 -1674 -1 -1676 -1 -1716 -22z m2861 -730 c5 -6
10 -1358 5 -1433 -1 -11 -2235 -14 -2246 -3 -9 9 -12 1437 -2 1441 19 6 2236
1 2243 -5z"/>
<path d="M17556 14295 c-54 -19 -112 -80 -139 -145 -20 -50 -22 -71 -22 -235
0 -179 0 -180 29 -232 32 -58 78 -95 148 -118 38 -14 96 -16 369 -13 317 3
325 3 364 26 46 26 84 77 109 143 15 38 17 75 14 230 -3 163 -5 188 -24 223
-27 52 -77 91 -147 116 -52 18 -81 20 -359 20 -232 -1 -312 -4 -342 -15z"/>
<path d="M24283 15405 c-62 -28 -106 -89 -123 -169 -7 -35 -9 -454 -8 -1317
l3 -1265 27 -41 c20 -30 45 -50 95 -75 l68 -33 1685 -1 c1255 -1 1693 2 1718
10 44 16 95 66 124 124 l23 47 3 1269 c1 901 -1 1280 -9 1310 -15 57 -88 126
-158 149 -50 16 -167 17 -1725 17 l-1671 0 -52 -25z m2868 -740 c3 -129 3
-1425 -1 -1426 -26 -7 -2243 -2 -2247 5 -7 11 -8 1420 -1 1432 4 5 453 9 1127
9 1114 0 1121 0 1122 -20z"/>
<path d="M25566 14295 c-54 -19 -112 -80 -139 -145 -20 -50 -22 -71 -22 -235
0 -179 0 -180 29 -232 32 -58 78 -95 148 -118 38 -14 96 -16 369 -13 317 3
325 3 364 26 46 26 84 77 109 143 15 38 17 75 14 230 -3 163 -5 188 -24 223
-27 52 -77 91 -147 116 -52 18 -81 20 -359 20 -232 -1 -312 -4 -342 -15z"/>
<path d="M20317 15405 c-59 -20 -103 -61 -134 -122 l-28 -58 -3 -1270 c-3
-1404 -7 -1315 61 -1385 17 -18 56 -44 85 -57 49 -23 63 -25 235 -25 146 0
191 3 222 16 46 20 86 62 117 125 22 46 23 50 25 476 1 237 2 438 2 448 1 16
42 17 725 17 l723 0 18 -47 c27 -72 149 -359 225 -528 37 -82 78 -179 90 -215
34 -98 97 -214 144 -265 l42 -45 136 0 c151 0 197 11 312 79 136 78 181 163
149 276 -19 64 -106 288 -149 383 -19 41 -34 75 -34 77 0 2 -27 65 -61 140
-33 76 -58 139 -56 141 2 3 125 5 273 5 263 0 271 0 321 24 34 15 60 36 77 62
53 81 53 81 52 868 -1 717 -1 731 -21 765 -12 19 -40 49 -64 67 -85 65 20 62
-1797 61 -1307 0 -1658 -3 -1687 -13z m2821 -902 l0 -183 -1119 0 c-1059 0
-1119 1 -1120 18 -1 19 -1 322 0 337 1 7 376 10 1120 10 l1119 0 0 -182z"/>
<path d="M4183 14296 c-34 -16 -63 -39 -83 -67 -62 -86 -61 -74 -58 -861 l3
-714 27 -41 c20 -30 45 -50 95 -75 l68 -33 1680 -1 c1829 -1 1716 -4 1778 54
67 63 84 133 81 332 -1 132 -5 162 -22 200 -23 51 -70 99 -122 126 -33 17
-102 18 -1435 19 l-1400 0 -5 145 c-3 80 -3 159 -2 176 l4 30 911 1 c799 0
916 2 948 15 56 24 85 54 114 120 25 56 27 71 29 212 3 215 -25 297 -123 354
l-46 27 -1195 2 -1195 3 -52 -24z"/>
</g>
</svg>
