<?xml version="1.0" encoding="iso-8859-1"?>
<!-- Generator: Adobe Illustrator 19.0.0, SVG Export Plug-In . SVG Version: 6.00 Build 0)  -->
<svg version="1.1" id="Capa_1" xmlns="http://www.w3.org/2000/svg" xmlns:xlink="http://www.w3.org/1999/xlink" x="0px" y="0px"
	 viewBox="0 0 512 512" style="enable-background:new 0 0 512 512;" xml:space="preserve">
<circle style="fill:#F0EFEB;" cx="256" cy="256" r="256"/>
<path style="fill:#16A2E8;" d="M41.139,208.091c0,13.778-0.242,26.544,0.096,39.294c0.186,7.014,4.774,11.409,10.511,15.038
	c44.613,28.216,89.148,56.557,133.709,84.856c21.776,13.828,43.622,27.545,65.272,41.568c3.86,2.5,6.436,2.712,10.492,0.116
	c67.539-43.217,135.23-86.198,202.825-129.327c5.747-3.667,11.358-6.054,17.84-2.263c6.169,3.607,7.268,9.43,7.149,16.026
	c-0.214,11.803-0.07,23.613-0.057,35.419c0.015,13.04-5.421,23.207-16.358,30.23c-68.312,43.867-136.675,87.655-204.981,131.533
	c-6.297,4.045-12.149,3.98-18.427-0.065c-70.939-45.698-141.905-91.353-212.956-136.879c-3.714-2.379-3.597-3.988-1.389-7.331
	c7.049-10.669,6.907-10.753,17.654-3.842c66.938,43.048,133.908,86.047,200.747,129.249c4.047,2.616,6.654,2.393,10.536-0.107
	c65.393-42.123,130.85-84.145,196.408-126.011c7.502-4.791,11.312-10.728,10.788-19.762c-0.44-7.579-0.03-15.204-0.135-22.807
	c-0.023-1.652,1.01-3.935-0.924-4.843c-1.478-0.694-2.844,1.051-4.15,1.88c-20.933,13.288-41.85,26.602-62.765,39.919
	c-45.372,28.89-90.808,57.68-136.046,86.779c-7.801,5.018-14.327,4.799-22.058-0.137c-66.739-42.612-133.52-85.16-200.562-127.294
	c-14.872-9.347-22.31-21.441-21.448-39.117c0.624-12.777,0.167-25.608,0.101-38.416c-0.029-5.648,2.055-10.021,6.861-13.144
	c65.556-42.608,131.096-85.239,196.64-127.864c8.214-5.343,16.506-10.569,24.62-16.061c6.173-4.179,12.055-4.353,18.404-0.307
	c70.492,44.91,141.046,89.721,211.533,134.636c10.858,6.918,10.762,18.718-0.203,25.646
	c-70.998,44.854-142.061,89.604-213.058,134.46c-7.405,4.679-13.761,2.768-20.563-1.523
	c-66.626-42.04-133.34-83.941-200.033-125.876C45.544,210.713,43.835,209.718,41.139,208.091z M54.446,194.462
	c1.112,0.944,1.523,1.389,2.019,1.701c66.164,41.617,132.353,83.197,198.452,124.917c3.441,2.171,5.658,1.206,8.559-0.626
	c66.086-41.743,132.216-83.416,198.333-125.109c5.635-3.554,5.629-3.588,0.254-7.006c-65.621-41.734-131.268-83.427-196.802-125.297
	c-3.685-2.354-6.116-2-9.498,0.215c-38.3,25.084-76.685,50.038-115.048,75.025C112.075,156.934,83.433,175.586,54.446,194.462z"/>
<g>
</g>
<g>
</g>
<g>
</g>
<g>
</g>
<g>
</g>
<g>
</g>
<g>
</g>
<g>
</g>
<g>
</g>
<g>
</g>
<g>
</g>
<g>
</g>
<g>
</g>
<g>
</g>
<g>
</g>
</svg>
