<?xml version="1.0" encoding="iso-8859-1"?>
<!-- Generator: Adobe Illustrator 19.0.0, SVG Export Plug-In . SVG Version: 6.00 Build 0)  -->
<svg version="1.1" id="Capa_1" xmlns="http://www.w3.org/2000/svg" xmlns:xlink="http://www.w3.org/1999/xlink" x="0px" y="0px"
	 viewBox="0 0 512 512" style="enable-background:new 0 0 512 512;" xml:space="preserve">
<path style="fill:#F0EFEB;" d="M512,256c0,72.443-30.083,137.853-78.451,184.414c-4.472,4.315-9.101,8.453-13.876,12.424
	C375.306,489.785,318.255,512,256,512c-58.587,0-112.567-19.675-155.711-52.788c-9.028-6.928-17.575-14.43-25.59-22.476
	C28.536,390.437,0,326.541,0,256C0,114.615,114.615,0,256,0S512,114.615,512,256z"/>
<g>
	<path style="fill:#221A44;" d="M111.031,417.28h-6.729c-1.264,0-2.393,0.836-2.748,2.058l-9.456,32.371l-9.373-32.36
		c-0.355-1.223-1.473-2.069-2.748-2.069h-8.108c-1.975,0-3.365,1.954-2.706,3.824l5.538,15.632
		c8.014,8.046,16.562,15.548,25.59,22.476c0.031-0.073,0.063-0.146,0.094-0.23l13.354-37.888
		C114.395,419.234,113.006,417.28,111.031,417.28z"/>
	<path style="fill:#221A44;" d="M166.682,431.114c-1.097-2.863-2.685-5.381-4.765-7.544c-2.09-2.173-4.629-3.908-7.638-5.204
		c-2.999-1.306-6.447-1.954-10.313-1.954c-3.877,0-7.335,0.648-10.365,1.954c-3.041,1.296-5.601,3.03-7.68,5.204
		c-2.079,2.163-3.657,4.681-4.723,7.544c-1.076,2.863-1.609,5.851-1.609,8.976s0.533,6.113,1.609,8.976
		c1.066,2.863,2.644,5.381,4.723,7.544c2.079,2.173,4.639,3.887,7.68,5.162c3.03,1.275,6.489,1.912,10.365,1.912
		c3.866,0,7.325-0.637,10.355-1.912c3.041-1.275,5.601-2.988,7.68-5.162c2.079-2.163,3.657-4.68,4.723-7.544
		c1.076-2.863,1.609-5.851,1.609-8.976C168.333,436.966,167.779,433.977,166.682,431.114z M153.245,444.907
		c-0.522,1.473-1.233,2.727-2.132,3.772c-0.899,1.034-1.944,1.849-3.166,2.424c-1.212,0.585-2.539,0.867-3.981,0.867
		c-2.957,0-5.381-1.087-7.293-3.25c-1.902-2.173-2.863-5.047-2.863-8.631c0-1.735,0.261-3.333,0.784-4.817
		c0.522-1.473,1.233-2.727,2.121-3.772c0.899-1.034,1.975-1.849,3.218-2.424s2.581-0.867,4.033-0.867
		c2.884,0,5.287,1.087,7.199,3.25c1.902,2.173,2.853,5.047,2.853,8.631C154.018,441.825,153.767,443.434,153.245,444.907z"/>
	<path style="fill:#221A44;" d="M299.99,443.998c-0.637-1.39-1.651-2.623-3.041-3.689c-1.39-1.066-3.197-2.038-5.423-2.905
		s-4.953-1.735-8.192-2.602c-3.062-0.752-5.162-1.442-6.29-2.079c-1.128-0.637-1.693-1.599-1.693-2.863
		c0-1.337,0.522-2.299,1.567-2.905c1.034-0.606,2.309-0.92,3.814-0.92c1.912,0,3.877,0.408,5.893,1.223
		c1.076,0.428,2.236,0.993,3.469,1.703c2.006,1.139,4.566,0.502,5.82-1.432l0.825-1.275c1.327-2.058,0.7-4.807-1.379-6.102
		c-1.651-1.034-3.333-1.818-5.047-2.351c-2.978-0.93-6.175-1.39-9.582-1.39c-2.602,0-5.015,0.376-7.241,1.128
		c-2.226,0.752-4.148,1.797-5.768,3.124s-2.894,2.947-3.814,4.859c-0.93,1.902-1.39,4.012-1.39,6.332
		c0,1.735,0.282,3.239,0.867,4.504c0.575,1.275,1.526,2.403,2.863,3.385c1.327,0.982,3.051,1.881,5.162,2.685
		c2.111,0.815,4.692,1.651,7.753,2.518c3.124,0.805,5.308,1.578,6.551,2.299s1.87,1.693,1.87,2.905s-0.502,2.142-1.484,2.779
		s-2.372,0.951-4.159,0.951c-2.424,0-4.963-0.522-7.586-1.567c-1.452-0.575-2.936-1.275-4.43-2.121
		c-2.09-1.17-4.744-0.481-5.945,1.599l-0.742,1.264c-1.191,2.069-0.512,4.681,1.515,5.945c1.829,1.139,3.856,2.079,6.092,2.811
		c3.751,1.243,7.576,1.87,11.442,1.87c5.726,0,10.261-1.328,13.615-3.992c3.354-2.654,5.036-6.249,5.036-10.752
		C300.941,447.028,300.617,445.377,299.99,443.998z"/>
	<path style="fill:#221A44;" d="M317.116,399.506h-1.306c-3.469,0-6.28,2.811-6.28,6.28c0,3.479,2.811,6.29,6.28,6.29h1.306
		c1.735,0,3.312-0.7,4.441-1.839c1.149-1.139,1.849-2.717,1.849-4.451C323.406,402.317,320.585,399.506,317.116,399.506z
		 M319.791,417.28h-6.656c-1.996,0-3.605,1.62-3.605,3.615v38.306c0,1.996,1.609,3.615,3.605,3.615h6.656
		c1.996,0,3.615-1.62,3.615-3.615v-38.306C323.406,418.9,321.787,417.28,319.791,417.28z"/>
	<path style="fill:#221A44;" d="M379.256,431.114c-1.097-2.863-2.696-5.381-4.775-7.544c-2.079-2.173-4.629-3.908-7.628-5.204
		c-3.009-1.306-6.447-1.954-10.324-1.954s-7.325,0.648-10.365,1.954c-3.03,1.296-5.59,3.03-7.67,5.204
		c-2.079,2.163-3.657,4.681-4.733,7.544c-1.066,2.863-1.599,5.851-1.599,8.976s0.533,6.113,1.599,8.976
		c1.076,2.863,2.654,5.381,4.733,7.544c2.079,2.173,4.639,3.887,7.67,5.162c3.041,1.275,6.489,1.912,10.365,1.912
		s7.325-0.637,10.365-1.912c3.041-1.275,5.59-2.988,7.68-5.162c2.079-2.163,3.647-4.68,4.723-7.544
		c1.066-2.863,1.609-5.851,1.609-8.976S380.353,433.977,379.256,431.114z M365.808,444.907c-0.522,1.473-1.223,2.727-2.121,3.772
		c-0.899,1.034-1.954,1.849-3.166,2.424c-1.212,0.585-2.55,0.867-3.992,0.867c-2.947,0-5.371-1.087-7.283-3.25
		c-1.912-2.173-2.863-5.047-2.863-8.631c0-1.735,0.261-3.333,0.784-4.817c0.522-1.473,1.223-2.727,2.121-3.772
		c0.899-1.034,1.964-1.849,3.208-2.424c1.243-0.575,2.591-0.867,4.033-0.867c2.894,0,5.287,1.087,7.199,3.25
		c1.912,2.173,2.863,5.047,2.863,8.631C366.592,441.825,366.331,443.434,365.808,444.907z"/>
	<path style="fill:#221A44;" d="M433.068,427.771c-0.313-2.017-0.972-3.887-1.954-5.59c-0.982-1.703-2.372-3.093-4.159-4.159
		c-1.797-1.076-4.169-1.609-7.116-1.609c-3.992,0-7.513,0.742-10.574,2.215c-3.072,1.473-5.444,3.574-7.116,6.29v-4.211
		c0-1.891-1.536-3.427-3.427-3.427h-5.632c-1.891,0-3.427,1.536-3.427,3.427v38.672c0,1.902,1.536,3.438,3.427,3.438h7.022
		c1.891,0,3.427-1.536,3.427-3.438v-22.674c0.397-1.149,0.961-2.226,1.693-3.208c0.721-0.982,1.546-1.829,2.466-2.56
		c0.93-0.721,1.881-1.285,2.863-1.682c0.982-0.408,1.964-0.616,2.947-0.616c1.849,0,3.344,0.69,4.472,2.038
		c1.128,1.369,1.693,3.553,1.693,6.551v15.611c4.775-3.971,9.404-8.108,13.876-12.424v-6.74
		C433.549,431.762,433.382,429.798,433.068,427.771z"/>
	<path style="fill:#221A44;" d="M190.794,446.596v-10.761v-32.266c0-2.245-1.82-4.067-4.067-4.067h-5.743
		c-2.245,0-4.067,1.82-4.067,4.067v55.917c0,2.245,1.82,4.067,4.067,4.067h5.743c2.245,0,4.067-1.82,4.067-4.067V446.596z"/>
	<path style="fill:#221A44;" d="M241.797,417.277c-2.205,0-3.992,1.787-3.992,3.992l0,0v24.116c-1.337,2.424-2.863,4.127-4.598,5.11
		c-1.735,0.993-3.532,1.484-5.381,1.484c-2.027,0-3.584-0.742-4.681-2.215s-1.651-3.605-1.651-6.374v-22.131
		c0-2.189-1.791-3.981-3.981-3.981h-5.904c-2.205,0-3.992,1.787-3.992,3.992v25.151c0,5.674,1.202,9.968,3.605,12.884
		c2.393,2.915,5.935,4.378,10.616,4.378c3.824,0,7.273-0.711,10.365-2.121c2.1-0.972,3.981-2.299,5.601-4.002v1.264
		c0,2.205,1.787,3.992,3.992,3.992h5.893c2.205,0,3.992-1.787,3.992-3.992V421.27l0,0c0-2.205-1.787-3.992-3.992-3.992
		L241.797,417.277L241.797,417.277z"/>
</g>
<polygon style="fill:#00D4E8;" points="105.501,157.831 165.271,55.214 278.241,72.386 182.151,249.783 "/>
<path style="fill:#8752F6;" d="M259.109,353.041l53.133-92.029l41.719-72.259c12.79-22.152-3.197-49.843-28.777-49.843H135.48
	c-25.579,0-41.566,27.69-28.776,49.843l94.852,164.288C214.345,375.193,246.319,375.193,259.109,353.041z"/>
<path style="fill:#FFC400;" d="M319.35,249.418l53.133-92.029l41.719-72.259c12.79-22.152-3.197-49.843-28.776-49.843H195.721
	c-25.579,0-41.566,27.69-28.776,49.843l94.852,164.288C274.587,271.571,306.561,271.571,319.35,249.418z"/>
<path id="SVGCleanerId_0" style="fill:#FF397F;" d="M353.974,188.767l-37.254,64.528c0,0.037,0,0.037-0.037,0.037
	c-14.081,18.183-42.908,16.853-54.882-3.917l-63.789-110.503h127.171C350.759,138.91,366.761,166.592,353.974,188.767z"/>
<g>
	<path id="SVGCleanerId_0_1_" style="fill:#FF397F;" d="M353.974,188.767l-37.254,64.528c0,0.037,0,0.037-0.037,0.037
		c-14.081,18.183-42.908,16.853-54.882-3.917l-63.789-110.503h127.171C350.759,138.91,366.761,166.592,353.974,188.767z"/>
</g>
<g>
</g>
<g>
</g>
<g>
</g>
<g>
</g>
<g>
</g>
<g>
</g>
<g>
</g>
<g>
</g>
<g>
</g>
<g>
</g>
<g>
</g>
<g>
</g>
<g>
</g>
<g>
</g>
<g>
</g>
</svg>
