<?xml version="1.0" encoding="iso-8859-1"?>
<!-- Generator: Adobe Illustrator 19.0.0, SVG Export Plug-In . SVG Version: 6.00 Build 0)  -->
<svg version="1.1" id="Capa_1" xmlns="http://www.w3.org/2000/svg" xmlns:xlink="http://www.w3.org/1999/xlink" x="0px" y="0px"
	 viewBox="0 0 512 512" style="enable-background:new 0 0 512 512;" xml:space="preserve">
<path style="fill:#F0EFEB;" d="M512,256c0,45.495-11.87,88.221-32.684,125.252c-15.297,27.22-35.432,51.357-59.235,71.252
	C375.651,489.65,318.443,512,256,512c-61.942,0-118.742-21.995-163.015-58.608c-27.199-22.486-49.674-50.479-65.703-82.275
	C9.832,336.509,0,297.399,0,256C0,114.615,114.615,0,256,0S512,114.615,512,256z"/>
<path style="fill:#4BC2EF;" d="M479.316,381.252c-15.297,27.22-35.432,51.357-59.235,71.252c-27.888,4.88-57.208-7.189-73.08-32.705
	L192.272,171.06c-20.877-33.562-10.595-77.688,22.967-98.555c11.766-7.314,24.827-10.804,37.731-10.804
	c23.907,0,47.271,11.975,60.824,33.761L468.522,344.21C475.711,355.767,479.201,368.577,479.316,381.252z"/>
<path style="fill:#73BF39;" d="M313.511,171.06L158.793,419.798c-14.493,23.301-40.208,35.391-65.808,33.593
	c-27.199-22.486-49.674-50.479-65.703-82.275c1.421-9.289,4.712-18.432,9.979-26.906L191.99,95.462
	c13.563-21.786,36.927-33.761,60.834-33.761c12.904,0,25.966,3.49,37.731,10.804C324.106,93.372,334.388,137.498,313.511,171.06z"/>
<g>
	<path style="fill:#4EA342;" d="M313.509,171.068l-60.619,97.458l-60.619-97.458c-20.881-33.57-10.604-77.685,22.967-98.567
		c8.814-5.487,18.367-8.814,28.04-10.145c1.582-0.207,3.165-0.37,4.747-0.488c1.598-0.103,3.194-0.162,4.792-0.162h0.148
		c1.597,0,3.194,0.06,4.792,0.162c1.582,0.104,3.165,0.266,4.747,0.488c0.636,0.089,1.272,0.178,1.908,0.281
		c9.021,1.494,17.894,4.732,26.132,9.864C324.098,93.381,334.391,137.497,313.509,171.068z"/>
	<path style="fill:#4EA342;" d="M313.509,171.068l-60.619,97.458l-60.619-97.458c-20.881-33.57-10.604-77.685,22.967-98.567
		c8.814-5.487,18.367-8.814,28.04-10.145c1.582-0.222,3.165-0.385,4.747-0.488c1.598-0.103,3.194-0.162,4.792-0.162h0.148
		c1.597,0,3.194,0.06,4.792,0.162c1.582,0.118,3.165,0.281,4.747,0.488c0.636,0.089,1.272,0.178,1.908,0.281
		c9.021,1.494,17.894,4.732,26.132,9.864C324.098,93.381,334.391,137.497,313.509,171.068z"/>
</g>
<g>
</g>
<g>
</g>
<g>
</g>
<g>
</g>
<g>
</g>
<g>
</g>
<g>
</g>
<g>
</g>
<g>
</g>
<g>
</g>
<g>
</g>
<g>
</g>
<g>
</g>
<g>
</g>
<g>
</g>
</svg>
