<?xml version="1.0" encoding="iso-8859-1"?>
<!-- Generator: Adobe Illustrator 19.0.0, SVG Export Plug-In . SVG Version: 6.00 Build 0)  -->
<svg version="1.1" id="Capa_1" xmlns="http://www.w3.org/2000/svg" xmlns:xlink="http://www.w3.org/1999/xlink" x="0px" y="0px"
	 viewBox="0 0 512 512" style="enable-background:new 0 0 512 512;" xml:space="preserve">
<circle style="fill:#F0EFEB;" cx="256" cy="256" r="256"/>
<path style="fill:#8CBB4C;" d="M337.853,105.54c-8.183-8.183-21.453-8.183-29.634,0l-30.317,30.317V20.955
	C277.902,9.382,268.52,0,256.947,0s-20.955,9.382-20.955,20.955v114.901l-30.317-30.317c-8.183-8.183-21.453-8.183-29.634,0
	c-8.184,8.184-8.184,21.451,0,29.634l66.089,66.089c4.091,4.091,9.454,6.138,14.818,6.138c5.363,0,10.726-2.046,14.818-6.138
	l66.089-66.089C346.037,126.991,346.037,113.725,337.853,105.54z"/>
<g>
	<path style="fill:#0070BD;" d="M316.527,320.236H196.769c-8.478,0-16.121-5.109-19.364-12.943l-33.329-80.549h-26.828
		c-11.573,0-20.955-9.382-20.955-20.955s9.382-20.955,20.955-20.955h40.835c8.478,0,16.121,5.109,19.364,12.943l33.329,80.549
		h91.744l33.331-80.549c4.426-10.691,16.68-15.77,27.374-11.35c10.693,4.425,15.776,16.68,11.35,27.374l-38.686,93.491
		C332.647,315.129,325.005,320.236,316.527,320.236z"/>
	<path style="fill:#0070BD;" d="M205.376,391.161c-19.106,0-28.264-24.907-13.378-37.095c14.663-12.005,37.339,0.913,34.008,19.728
		C224.258,383.676,215.441,391.161,205.376,391.161z"/>
	<path style="fill:#0070BD;" d="M308.54,391.161c-11.431,0-20.941-9.537-20.955-20.955c-0.015-11.424,9.526-20.938,20.944-20.939
		s20.94,9.525,20.967,20.939C329.521,381.594,319.906,391.161,308.54,391.161z"/>
</g>
<path style="fill:#8CBB4C;" d="M256.947,483.644c-28.297,0-54.9-11.019-74.909-31.028c-8.184-8.184-8.184-21.451,0-29.634
	c8.183-8.183,21.453-8.183,29.634,0c12.093,12.093,28.173,18.753,45.274,18.753c17.103,0,33.183-6.66,45.275-18.753
	c8.183-8.183,21.453-8.183,29.634,0c8.184,8.184,8.184,21.451,0,29.634C311.848,472.625,285.245,483.644,256.947,483.644z"/>
<g>
</g>
<g>
</g>
<g>
</g>
<g>
</g>
<g>
</g>
<g>
</g>
<g>
</g>
<g>
</g>
<g>
</g>
<g>
</g>
<g>
</g>
<g>
</g>
<g>
</g>
<g>
</g>
<g>
</g>
</svg>
