<?xml version="1.0" encoding="iso-8859-1"?>
<!-- Generator: Adobe Illustrator 19.0.0, SVG Export Plug-In . SVG Version: 6.00 Build 0)  -->
<svg version="1.1" id="Capa_1" xmlns="http://www.w3.org/2000/svg" xmlns:xlink="http://www.w3.org/1999/xlink" x="0px" y="0px"
	 viewBox="0 0 512 512" style="enable-background:new 0 0 512 512;" xml:space="preserve">
<circle style="fill:#F0EFEB;" cx="257.28" cy="256" r="254.72"/>
<g>
	<path style="fill:#179EFF;" d="M399.36,465.671c-40.366,27.925-89.159,44.466-141.815,45.037
		C119.087,512.21,3.529,400.924,0.081,262.501C-3.496,118.846,111.876,1.277,254.723,1.277c64.094,0,122.64,23.671,167.391,62.72
		c4.04,3.525,1.095,10.145-4.23,9.52c-89.5-10.505-177.071-0.72-232.493,42.309c-63.979,49.674-70.064,125.04-33.159,191.419
		c52.075,93.667,167.378,94.588,247.134,149.312C402.567,458.755,402.554,463.462,399.36,465.671z"/>
	<path style="fill:#179EFF;" d="M509.445,256c0,34.637-6.903,67.615-19.414,97.7c-64.088-34.275-132.366-57.607-162.962-69.062
		c-36.174-13.565-67.825-51.246-46.724-84.406c21.101-33.16,73.854-39.188,138.665-22.608c27.638,7.08,53.219,25.232,76.546,46.842
		c8.734,8.092,13.878,19.439,13.888,31.346C509.445,255.874,509.445,255.937,509.445,256z"/>
</g>
<g>
</g>
<g>
</g>
<g>
</g>
<g>
</g>
<g>
</g>
<g>
</g>
<g>
</g>
<g>
</g>
<g>
</g>
<g>
</g>
<g>
</g>
<g>
</g>
<g>
</g>
<g>
</g>
<g>
</g>
</svg>
