<?xml version="1.0" encoding="iso-8859-1"?>
<!-- Generator: Adobe Illustrator 19.0.0, SVG Export Plug-In . SVG Version: 6.00 Build 0)  -->
<svg version="1.1" id="Capa_1" xmlns="http://www.w3.org/2000/svg" xmlns:xlink="http://www.w3.org/1999/xlink" x="0px" y="0px"
	 viewBox="0 0 512 512" style="enable-background:new 0 0 512 512;" xml:space="preserve">
<path style="fill:#353535;" d="M512,256c0,35.067-7.053,68.483-19.811,98.92c-4.253,10.146-9.143,19.947-14.618,29.383v0.01
	C433.257,460.664,350.626,512,256,512S78.744,460.664,34.44,384.324c-5.486-9.446-10.386-19.278-14.639-29.435
	C7.043,324.462,0,291.056,0,256s7.043-68.462,19.801-98.889c4.253-10.156,9.153-19.989,14.639-29.435C78.744,51.336,161.374,0,256,0
	c95.734,0,179.19,52.548,223.096,130.372c0.01,0,0.01,0.01,0.01,0.01c4.859,8.589,9.216,17.492,13.061,26.655v0.01
	C504.947,187.496,512,220.923,512,256z"/>
<path style="fill:#F0EFEB;" d="M492.189,158.083V354.92c-4.253,10.146-9.143,19.947-14.618,29.383v0.01
	c-5.945,4.389-13.302,6.98-21.253,6.98c-19.822,0-35.882-16.071-35.882-35.882V243.785L281.172,380.97
	c-6.844,6.75-15.935,10.324-25.182,10.324c-4.671,0-9.373-0.909-13.845-2.79c-13.343-5.58-22.026-18.63-22.026-33.092V243.785
	L80.854,380.97c-10.303,10.156-25.684,13.124-39.027,7.534c-2.664-1.108-5.13-2.518-7.387-4.18
	c-5.486-9.446-10.386-19.278-14.639-29.435V156.588c0-11.86,5.757-22.392,14.639-28.912c5.945-4.378,13.291-6.969,21.243-6.969
	c19.811,0,35.871,16.071,35.871,35.882V269.71c0,0,137.743-137.113,138.615-138.017c6.524-6.77,15.685-10.985,25.831-10.985
	c19.811,0,35.871,16.071,35.871,35.882v113.121l139.264-137.185c10.303-10.146,25.694-13.124,39.037-7.534
	c3.281,1.369,6.269,3.187,8.923,5.381c0.01,0,0.01,0.01,0.01,0.01c7.889,6.478,12.758,16.144,13.061,26.655v0.01
	C492.189,157.393,492.189,157.738,492.189,158.083z"/>
<path style="fill:#BA1C34;" d="M492.189,158.083V354.92c-4.253,10.146-9.143,19.958-14.618,29.393
	c-5.945,4.389-13.302,6.98-21.253,6.98c-19.822,0-35.882-16.071-35.882-35.882V243.785l-8.976,8.85
	c-14.127,13.908-36.843,13.73-50.74-0.376c-13.908-14.117-13.74-36.833,0.376-50.74l70.04-68.995
	c10.303-10.146,25.694-13.124,39.037-7.534c3.281,1.369,6.28,3.197,8.934,5.392c7.889,6.478,12.758,16.144,13.061,26.655
	C492.189,157.383,492.189,157.727,492.189,158.083z"/>
<g>
</g>
<g>
</g>
<g>
</g>
<g>
</g>
<g>
</g>
<g>
</g>
<g>
</g>
<g>
</g>
<g>
</g>
<g>
</g>
<g>
</g>
<g>
</g>
<g>
</g>
<g>
</g>
<g>
</g>
</svg>
