<?xml version="1.0" encoding="iso-8859-1"?>
<!-- Generator: Adobe Illustrator 19.0.0, SVG Export Plug-In . SVG Version: 6.00 Build 0)  -->
<svg version="1.1" id="Capa_1" xmlns="http://www.w3.org/2000/svg" xmlns:xlink="http://www.w3.org/1999/xlink" x="0px" y="0px"
	 viewBox="0 0 512 512" style="enable-background:new 0 0 512 512;" xml:space="preserve">
<circle style="fill:#F0EFEB;" cx="256" cy="256" r="256"/>
<g>
	<path style="fill:#353535;" d="M148.548,212.14h-43.533c-9.76,0-17.673,7.912-17.673,17.672v36.532
		c0,9.76,7.912,17.673,17.673,17.673h43.533c9.76,0,17.673-7.912,17.673-17.673v-36.531
		C166.22,220.052,158.308,212.14,148.548,212.14z M153.928,261.913c0,6.021-4.881,10.902-10.902,10.902h-32.488
		c-6.021,0-10.902-4.882-10.902-10.902v-27.67c0-6.022,4.881-10.902,10.902-10.902h32.488c6.021,0,10.902,4.881,10.902,10.902
		L153.928,261.913L153.928,261.913z"/>
	<path style="fill:#353535;" d="M234.885,212.14h-43.533c-9.76,0-17.673,7.912-17.673,17.672v36.532
		c0,9.76,7.912,17.673,17.673,17.673h43.533c9.76,0,17.673-7.912,17.673-17.673v-36.531
		C252.558,220.052,244.645,212.14,234.885,212.14z M240.265,261.913c0,6.021-4.881,10.902-10.902,10.902h-32.488
		c-6.021,0-10.902-4.882-10.902-10.902v-27.67c0-6.022,4.881-10.902,10.902-10.902h32.488c6.021,0,10.902,4.881,10.902,10.902
		L240.265,261.913L240.265,261.913z"/>
	<path style="fill:#353535;" d="M407.99,212.14h-43.533c-9.76,0-17.673,7.912-17.673,17.672v36.532
		c0,9.76,7.912,17.673,17.673,17.673h43.533c9.76,0,17.673-7.912,17.673-17.673v-36.531
		C425.662,220.052,417.75,212.14,407.99,212.14z M413.37,261.913c0,6.021-4.881,10.902-10.902,10.902H369.98
		c-6.021,0-10.902-4.882-10.902-10.902v-27.67c0-6.022,4.881-10.902,10.902-10.902h32.488c6.021,0,10.902,4.881,10.902,10.902
		L413.37,261.913L413.37,261.913z"/>
	<path style="fill:#353535;" d="M494.327,212.14h-43.533c-9.76,0-17.673,7.912-17.673,17.672v36.532
		c0,9.76,7.912,17.673,17.673,17.673h43.533c9.76,0,17.673-7.912,17.673-17.673v-36.531C512,220.052,504.087,212.14,494.327,212.14z
		 M499.707,261.913c0,6.021-4.881,10.902-10.902,10.902h-32.488c-6.021,0-10.902-4.882-10.902-10.902v-27.67
		c0-6.022,4.881-10.902,10.902-10.902h32.488c6.021,0,10.902,4.881,10.902,10.902V261.913z"/>
	<path style="fill:#353535;" d="M61.205,212.14H17.673c-1.877,0-3.683,0.295-5.38,0.837v-37.242H0v54.079v32.268v4.263
		c0,9.76,7.913,17.673,17.673,17.673h43.533c9.76,0,17.673-7.912,17.673-17.673v-36.531C78.878,220.052,70.965,212.14,61.205,212.14
		z M66.585,261.913c0,6.021-4.881,10.902-10.902,10.902H23.195c-6.021,0-10.902-4.882-10.902-10.902v-27.67
		c0-6.022,4.881-10.902,10.902-10.902h32.488c6.021,0,10.902,4.881,10.902,10.902V261.913z"/>
	<path style="fill:#353535;" d="M321.644,212.14h-43.533c-1.877,0-3.683,0.295-5.38,0.837v-37.242h-12.293v54.079v32.268v21.1
		h12.293v-21.267v-11.151v-16.519c0-6.022,4.881-10.902,10.902-10.902h32.488c6.021,0,10.902,4.881,10.902,10.902v16.519v11.151
		v21.267h12.293v-53.367C339.317,220.052,331.404,212.14,321.644,212.14z"/>
</g>
<g>
</g>
<g>
</g>
<g>
</g>
<g>
</g>
<g>
</g>
<g>
</g>
<g>
</g>
<g>
</g>
<g>
</g>
<g>
</g>
<g>
</g>
<g>
</g>
<g>
</g>
<g>
</g>
<g>
</g>
</svg>
