<?xml version="1.0" encoding="iso-8859-1"?>
<!-- Generator: Adobe Illustrator 19.0.0, SVG Export Plug-In . SVG Version: 6.00 Build 0)  -->
<svg version="1.1" id="Capa_1" xmlns="http://www.w3.org/2000/svg" xmlns:xlink="http://www.w3.org/1999/xlink" x="0px" y="0px"
	 viewBox="0 0 512 512" style="enable-background:new 0 0 512 512;" xml:space="preserve">
<path style="fill:#005F88;" d="M512,256c0,86.831-43.227,163.558-109.338,209.847c-17.878,12.528-37.439,22.821-58.274,30.48
	C316.844,506.462,287.065,512,256,512c-31.347,0-61.367-5.632-89.119-15.945c-20.564-7.628-39.873-17.836-57.553-30.218
	C43.217,419.547,0,342.821,0,256C0,114.615,114.615,0,256,0S512,114.615,512,256z"/>
<g>
	<polygon style="fill:#F0EFEB;" points="346.332,319.634 164.996,319.634 158.404,341.318 201.507,341.318 210.733,371.214 
		300.627,371.214 309.821,341.318 352.915,341.318 	"/>
	<path style="fill:#F0EFEB;" d="M194.577,197.884c-6.71,9.271-9.422,20.588-7.629,31.886c1.818,11.323,7.924,21.242,17.171,27.965
		l43.403,31.52c2.328,1.688,3.845,4.167,4.3,6.992c0.452,2.825-0.232,5.665-1.912,7.993l6.552,4.733l22.917-31.627
		c5.374-7.401,8.176-16.106,8.176-25.075c0-2.259-0.183-4.538-0.528-6.822c-1.818-11.297-7.917-21.242-17.176-27.951l-43.403-31.533
		c-2.317-1.699-3.845-4.167-4.286-6.992c-0.101-0.567-0.144-1.145-0.144-1.718c0-2.248,0.698-4.424,2.027-6.256l0.025-0.011
		l-6.526-4.72L194.577,197.884z"/>
	<path style="fill:#F0EFEB;" d="M220.742,71.135c-7.779,10.732-11.852,23.369-11.852,36.374c0,3.291,0.246,6.59,0.787,9.908
		c2.606,16.395,11.455,30.784,24.899,40.526l54.55,39.508c7.206,5.211,11.933,12.934,13.337,21.721
		c0.289,1.768,0.427,3.544,0.427,5.301c0,6.967-2.19,13.746-6.363,19.499l0,0l5.224,3.79l42.976-59.39
		c9.756-13.438,13.677-29.87,11.058-46.286c-2.606-16.39-11.444-30.796-24.88-40.526l-65.88-47.863
		c-4.141-3.015-6.873-7.465-7.685-12.5c-0.792-5.055,0.416-10.115,3.418-14.274l-5.23-3.79L220.742,71.135z"/>
	<path style="fill:#F0EFEB;" d="M180.255,440.362c7.628-4.274,14.054-11.003,14.054-23.071v-0.303
		c0-7.346-2.456-13.312-7.335-18.202c-6.113-6.123-15.757-9.477-27.972-9.477h-49.674v76.528
		c17.68,12.382,36.989,22.591,57.553,30.218c20.376-1.682,33.395-11.389,33.395-29.079v-0.303
		C200.276,452.294,192.627,445.106,180.255,440.362z M132.242,409.955h23.239c9.927,0,15.433,3.96,15.433,11.003v0.303
		c0,7.941-6.562,11.306-16.959,11.306h-21.713V409.955L132.242,409.955z M176.88,464.06c0,7.941-6.269,11.609-16.666,11.609v-0.01
		h-27.972v-23.531h27.209c12.079,0,17.429,4.43,17.429,11.63V464.06z"/>
	<path style="fill:#F0EFEB;" d="M210.515,389.31h49.684c12.236,0,21.859,3.354,27.97,9.478c4.885,4.89,7.339,10.858,7.339,18.195
		v0.308c0,12.073-6.426,18.795-14.061,23.073c12.374,4.745,20.028,11.928,20.028,26.309v0.296c0,19.556-15.893,29.356-40.056,29.356
		h-50.9V389.31H210.515L210.515,389.31z M255.15,432.569c10.397,0,16.975-3.368,16.975-11.31v-0.296
		c0-7.043-5.508-11.003-15.466-11.003h-23.231v22.607L255.15,432.569L255.15,432.569z M261.413,475.669
		c10.397,0,16.66-3.663,16.66-11.607v-0.308c0-7.194-5.337-11.632-17.422-11.632h-27.228v23.539h27.99V475.669z"/>
	<path style="fill:#F0EFEB;" d="M382.642,440.362c7.638-4.274,14.064-11.003,14.064-23.071v-0.303
		c0-7.346-2.456-13.312-7.335-18.202c-6.123-6.123-15.747-9.477-27.982-9.477h-49.664v107.018h32.664
		c20.835-7.659,40.396-17.951,58.274-30.48C402.369,452.012,394.783,445.012,382.642,440.362z M334.629,409.955h23.239
		c9.937,0,15.444,3.96,15.444,11.003v0.303c0,7.941-6.583,11.306-16.969,11.306H334.63v-22.612H334.629z M379.267,464.06
		c0,7.941-6.269,11.609-16.656,11.609v-0.01h-27.982v-23.531h27.209c12.089,0,17.429,4.43,17.429,11.63L379.267,464.06
		L379.267,464.06z"/>
</g>
<g>
</g>
<g>
</g>
<g>
</g>
<g>
</g>
<g>
</g>
<g>
</g>
<g>
</g>
<g>
</g>
<g>
</g>
<g>
</g>
<g>
</g>
<g>
</g>
<g>
</g>
<g>
</g>
<g>
</g>
</svg>
