<?xml version="1.0" encoding="iso-8859-1"?>
<!-- Generator: Adobe Illustrator 19.0.0, SVG Export Plug-In . SVG Version: 6.00 Build 0)  -->
<svg version="1.1" id="Capa_1" xmlns="http://www.w3.org/2000/svg" xmlns:xlink="http://www.w3.org/1999/xlink" x="0px" y="0px"
	 viewBox="0 0 512 512" style="enable-background:new 0 0 512 512;" xml:space="preserve">
<path style="fill:#FFD700;" d="M512,256c0,141.385-114.615,256-256,256h-0.334c-57.605-0.073-110.738-19.163-153.475-51.336
	C40.135,413.947,0,339.655,0,256S40.135,98.053,102.191,51.336c10.961-8.244,22.612-15.642,34.837-22.068
	C172.575,10.574,213.044,0,256,0C397.385,0,512,114.615,512,256z"/>
<path style="fill:#2E1E58;" d="M464.948,206.451c0,97.855-79.329,177.183-177.183,177.183h-32.099V512
	c-57.605-0.073-110.738-19.163-153.475-51.336V29.268h185.574c48.922,0,93.226,19.832,125.283,51.9
	C445.116,113.225,464.948,157.518,464.948,206.451z"/>
<path style="fill:#FFD700;" d="M152.998,438.98V80.069h134.767c69.686,0,126.38,56.694,126.38,126.38S357.451,332.83,287.765,332.83
	h-82.9v130.451L152.998,438.98z"/>
<path style="fill:#2E1E58;" d="M203.8,282.029V130.872h83.965c41.675,0,75.578,33.904,75.578,75.579s-33.904,75.579-75.578,75.579
	H203.8V282.029z"/>
<path style="fill:#FFD700;" d="M254.602,231.227v-49.553h33.163c13.662,0,24.777,11.115,24.777,24.776
	c0,13.662-11.115,24.777-24.777,24.777L254.602,231.227L254.602,231.227L254.602,231.227z"/>
<g>
</g>
<g>
</g>
<g>
</g>
<g>
</g>
<g>
</g>
<g>
</g>
<g>
</g>
<g>
</g>
<g>
</g>
<g>
</g>
<g>
</g>
<g>
</g>
<g>
</g>
<g>
</g>
<g>
</g>
</svg>
