<?xml version="1.0" encoding="iso-8859-1"?>
<!-- Generator: Adobe Illustrator 19.0.0, SVG Export Plug-In . SVG Version: 6.00 Build 0)  -->
<svg version="1.1" id="Capa_1" xmlns="http://www.w3.org/2000/svg" xmlns:xlink="http://www.w3.org/1999/xlink" x="0px" y="0px"
	 viewBox="0 0 512 512" style="enable-background:new 0 0 512 512;" xml:space="preserve">
<path style="fill:#F0EFEB;" d="M512,256c0,47.794-13.093,92.526-35.903,130.811c-7.147,12.016-15.255,23.385-24.221,34.022
	C404.919,476.578,334.597,512,256,512c-6.113,0-12.184-0.219-18.192-0.637c-0.543-0.042-1.097-0.073-1.641-0.115
	c-62.631-4.807-118.941-32.131-160.862-73.906c-15.141-15.088-28.411-32.057-39.403-50.531C13.093,348.526,0,303.794,0,256
	s13.093-92.526,35.903-130.811c1.233-2.079,2.497-4.127,3.793-6.165C85.086,47.48,165,0,256,0C397.385,0,512,114.615,512,256z"/>
<path style="fill:#9FD500;" d="M237.808,210.045v301.317c-0.543-0.042-1.097-0.073-1.641-0.115L75.306,437.342
	c-15.141-15.088-28.411-32.057-39.403-50.531V117.279l3.793,1.745L237.808,210.045z"/>
<g>
	<path style="fill:#72BE15;" d="M476.097,128.648v258.163c-7.147,12.016-15.255,23.385-24.221,34.022l-177.685-81.638V203.233
		L476.097,128.648z"/>
	<polygon style="fill:#72BE15;" points="274.186,24.315 476.094,117.083 246.435,199.544 44.528,106.775 	"/>
</g>
<g>
</g>
<g>
</g>
<g>
</g>
<g>
</g>
<g>
</g>
<g>
</g>
<g>
</g>
<g>
</g>
<g>
</g>
<g>
</g>
<g>
</g>
<g>
</g>
<g>
</g>
<g>
</g>
<g>
</g>
</svg>
