<?xml version="1.0" encoding="iso-8859-1"?>
<!-- Generator: Adobe Illustrator 19.0.0, SVG Export Plug-In . SVG Version: 6.00 Build 0)  -->
<svg version="1.1" id="Capa_1" xmlns="http://www.w3.org/2000/svg" xmlns:xlink="http://www.w3.org/1999/xlink" x="0px" y="0px"
	 viewBox="0 0 512 512" style="enable-background:new 0 0 512 512;" xml:space="preserve">
<path style="fill:#008EBD;" d="M512,256c0,4.911-0.136,9.791-0.418,14.639C503.996,405.211,392.474,512,256,512
	C137.049,512,37.042,430.864,8.307,320.92c-3.166-12.11-5.465-24.555-6.834-37.292C0.502,274.557,0,265.331,0,256
	c0-9.791,0.554-19.446,1.62-28.944c1.442-12.863,3.845-25.422,7.126-37.637C38.045,80.321,137.644,0,256,0
	c119.223,0,219.418,81.502,247.892,191.833C509.189,212.344,512,233.838,512,256z"/>
<g>
	<path style="fill:#F0EFEB;" d="M512,256c0,4.911-0.136,9.791-0.418,14.639c-4.221,4.901-10.48,7.993-17.471,7.993
		c-12.758,0-23.103-10.344-23.103-23.103v-19.655H364.763c-12.758,0-23.113-10.344-23.113-23.113
		c0-12.758,10.355-23.103,23.113-23.103h129.348c3.5,0,6.813,0.773,9.78,2.173C509.189,212.344,512,233.838,512,256z"/>
	<path style="fill:#F0EFEB;" d="M82.954,299.886c0,12.758-10.344,23.113-23.113,23.113H17.878c-3.417,0-6.656-0.742-9.571-2.079
		c-3.166-12.11-5.465-24.555-6.834-37.292c4.18-4.232,9.989-6.844,16.405-6.844h41.963C72.61,276.783,82.954,287.128,82.954,299.886
		z"/>
	<path style="fill:#F0EFEB;" d="M257.191,299.886c0,12.758-10.344,23.113-23.103,23.113h-41.974c-4.598,0-9.101-1.379-12.925-3.96
		L52.778,233.754h-34.9c-6.353,0-12.089-2.56-16.259-6.698c1.442-12.863,3.845-25.422,7.126-37.637
		c2.8-1.212,5.883-1.881,9.132-1.881H59.84c4.608,0,9.112,1.369,12.925,3.95l126.422,85.295h34.9
		C246.847,276.783,257.191,287.128,257.191,299.886z"/>
	<path style="fill:#F0EFEB;" d="M428.511,322.995h-60.294c-4.605,0-9.106-1.376-12.925-3.952l-126.415-85.292h-36.494
		c-12.761,0-23.108-10.346-23.108-23.108s10.347-23.108,23.108-23.108h43.561c4.605,0,9.106,1.376,12.925,3.952l126.415,85.292
		h53.227c12.761,0,23.108,10.346,23.108,23.108C451.618,312.649,441.272,322.995,428.511,322.995z"/>
</g>
<g>
</g>
<g>
</g>
<g>
</g>
<g>
</g>
<g>
</g>
<g>
</g>
<g>
</g>
<g>
</g>
<g>
</g>
<g>
</g>
<g>
</g>
<g>
</g>
<g>
</g>
<g>
</g>
<g>
</g>
</svg>
