<?xml version="1.0" encoding="iso-8859-1"?>
<!-- Generator: Adobe Illustrator 19.0.0, SVG Export Plug-In . SVG Version: 6.00 Build 0)  -->
<svg version="1.1" id="Capa_1" xmlns="http://www.w3.org/2000/svg" xmlns:xlink="http://www.w3.org/1999/xlink" x="0px" y="0px"
	 viewBox="0 0 512 512" style="enable-background:new 0 0 512 512;" xml:space="preserve">
<path style="fill:#B59863;" d="M512,256c0,10.7-0.658,21.253-1.933,31.608c-1.484,11.995-3.783,23.74-6.865,35.161
	c-6.719,24.963-17.126,48.421-30.605,69.747c-7.764,12.298-16.551,23.897-26.248,34.659C399.496,479.253,331.567,512,256,512
	s-143.496-32.747-190.349-84.825c-0.178-0.178-0.334-0.366-0.502-0.554c-8.662-9.676-16.593-20.02-23.719-30.939
	c-7.074-10.846-13.354-22.267-18.745-34.168c-5.622-12.413-10.282-25.36-13.887-38.734c-3.082-11.421-5.392-23.165-6.865-35.171
	C0.658,277.253,0,266.7,0,256c0-76.999,33.991-146.056,87.792-192.982c7.178-6.269,14.712-12.131,22.559-17.565
	C151.698,16.792,201.885,0,256,0s104.302,16.792,145.648,45.453c7.847,5.433,15.381,11.295,22.559,17.565
	C478.009,109.944,512,179.001,512,256z"/>
<path style="fill:#9B7D4E;" d="M510.067,287.608c-1.484,11.995-3.783,23.74-6.865,35.161c-6.719,24.963-17.126,48.421-30.605,69.747
	c-7.764,12.298-16.551,23.897-26.248,34.659C399.496,479.253,331.567,512,256,512s-143.496-32.747-190.349-84.825
	c-0.178-0.178-0.334-0.366-0.502-0.554c-8.662-9.676-16.593-20.02-23.719-30.939c-7.074-10.846-13.354-22.267-18.745-34.168
	c-5.622-12.413-10.282-25.36-13.887-38.734c-3.082-11.421-5.392-23.165-6.865-35.171c9.258-24.9,25.412-48.306,47.658-68.618
	L87.792,63.018l1.797-7.335c1.473-6.019,6.478-10.533,12.622-11.379c0.69-0.094,1.379-0.136,2.058-0.136
	c2.121,0,4.19,0.449,6.081,1.285c2.926,1.275,5.433,3.49,7.074,6.405l58.65,104.04c25.757-5.904,52.59-8.892,79.924-8.892
	s54.167,2.988,79.924,8.892l58.65-104.04c1.641-2.915,4.148-5.13,7.074-6.405c1.891-0.836,3.96-1.285,6.081-1.285
	c0.679,0,1.369,0.042,2.058,0.136c6.144,0.846,11.149,5.36,12.622,11.379l1.797,7.335l38.201,155.972
	C484.655,239.303,500.809,262.708,510.067,287.608z"/>
<path style="fill:#FFEBCB;" d="M503.202,322.769c-6.719,24.963-17.126,48.421-30.605,69.747
	c-7.764,12.298-16.551,23.897-26.248,34.659C399.496,479.253,331.567,512,256,512s-143.496-32.747-190.349-84.825
	c-0.178-0.178-0.334-0.366-0.502-0.554c-8.662-9.676-16.593-20.02-23.719-30.939c-7.074-10.846-13.354-22.267-18.745-34.168
	c-5.622-12.413-10.282-25.36-13.887-38.734c4.2-36.091,23.897-69.068,54.356-95.64L104.27,59.277l64.282,114.051
	c27.199-7.241,56.665-11.212,87.448-11.212s60.249,3.971,87.448,11.212L407.73,59.277l41.117,167.863
	C479.305,253.712,498.991,286.689,503.202,322.769z"/>
<g>
	<polygon style="fill:#A38454;" points="359.564,263.257 387.265,263.257 415.596,291.587 396.079,291.587 	"/>
	<polygon style="fill:#A38454;" points="152.436,263.257 124.735,263.257 96.404,291.587 115.921,291.587 	"/>
	<path style="fill:#A38454;" d="M308.527,284.85l-12.852,23.792h-79.35l-12.852-23.792l-13.302,7.178L256,413.874l65.829-121.846
		L308.527,284.85z M256,382.088l-31.514-58.337h63.028L256,382.088z"/>
</g>
<g>
</g>
<g>
</g>
<g>
</g>
<g>
</g>
<g>
</g>
<g>
</g>
<g>
</g>
<g>
</g>
<g>
</g>
<g>
</g>
<g>
</g>
<g>
</g>
<g>
</g>
<g>
</g>
<g>
</g>
</svg>
