<?xml version="1.0" encoding="iso-8859-1"?>
<!-- Generator: Adobe Illustrator 19.0.0, SVG Export Plug-In . SVG Version: 6.00 Build 0)  -->
<svg version="1.1" id="Capa_1" xmlns="http://www.w3.org/2000/svg" xmlns:xlink="http://www.w3.org/1999/xlink" x="0px" y="0px"
	 viewBox="0 0 512 512" style="enable-background:new 0 0 512 512;" xml:space="preserve">
<path style="fill:#009EE3;" d="M508.887,256c0,36.744-7.789,71.68-21.809,103.221c-5.286,11.891-11.455,23.305-18.424,34.147
	c-45.249,70.424-124.283,117.075-214.21,117.075c-104.488,0-194.26-62.977-233.434-153.051c-13.242-30.439-20.709-63.973-21-99.211
	C0,257.454,0,256.727,0,256C0,115.475,113.918,1.557,254.444,1.557S508.887,115.475,508.887,256z"/>
<g>
	<polygon style="fill:#F0EFEB;" points="246.132,185.661 204.59,185.661 204.59,393.371 246.132,393.371 	"/>
	<path style="fill:#F0EFEB;" d="M279.366,185.661v33.233h41.542v119.64c0,15.786,2.492,29.079,11.632,38.218
		c8.308,9.97,19.109,14.955,33.233,14.955s26.587-2.493,37.388-9.139h0.831v-0.831l9.139-39.049l-2.492,1.662
		c-11.632,6.647-19.94,9.97-29.91,9.97c-13.293,0-18.278-7.478-18.278-23.263V218.896h41.542v-33.233h-41.542v-65.636
		l-41.542,22.433v43.203L279.366,185.661L279.366,185.661z"/>
	<path style="fill:#F0EFEB;" d="M487.078,185.66v173.562c-5.286,11.891-11.455,23.305-18.424,34.147h-23.118V185.66H487.078z"/>
	<path style="fill:#F0EFEB;" d="M153.912,328.564l24.094,29.079l-0.831,0.831c-19.109,23.263-43.204,34.895-72.283,34.895
		c-30.741,0-55.666-9.139-75.606-27.418c-2.97-2.742-5.733-5.587-8.277-8.558C7.768,326.954,0.301,293.421,0.01,258.182
		c4.622-19.826,14.384-36.339,29.277-50.089c19.94-18.278,44.865-27.418,75.606-27.418c29.079,0,53.174,11.632,72.283,34.895
		l0.831,0.831l-24.094,28.248l-0.831-0.831c-15.786-14.955-32.403-23.263-49.85-23.263c-18.278,0-33.233,5.816-45.696,18.278
		s-18.278,28.248-18.278,47.358c0,19.109,5.816,34.895,18.278,47.358c11.632,12.463,27.418,19.109,45.696,19.109
		c17.448,0,34.064-8.308,49.85-23.263L153.912,328.564z"/>
</g>
<path style="fill:#EA2230;" d="M222.869,150.767c16.617-16.617,34.895-29.91,56.497-39.049c19.94-9.139,41.542-13.293,63.974-13.293
	s44.034,4.154,64.805,13.293s39.049,22.433,55.666,39.88l0.831,1.662H512l-1.662-3.323c-19.109-26.587-44.034-49.019-73.944-63.974
	c-29.91-16.617-60.651-24.925-93.054-24.925s-63.974,7.478-93.885,23.263s-54.835,37.388-73.944,64.805l-1.662,3.323h48.189
	L222.869,150.767L222.869,150.767z"/>
<path id="SVGCleanerId_0" style="fill:#E92F30;" d="M222.869,150.767c16.617-16.617,34.895-29.91,56.497-39.049
	c19.94-9.139,41.542-13.293,63.974-13.293s44.034,4.154,64.805,13.293s39.049,22.433,55.666,39.88l0.831,1.662H512l-1.662-3.323
	c-19.109-26.587-44.034-49.019-73.944-63.974c-29.91-16.617-60.651-24.925-93.054-24.925s-63.974,7.478-93.885,23.263
	s-54.835,37.388-73.944,64.805l-1.662,3.323h48.189L222.869,150.767L222.869,150.767z"/>
<g>
	<path id="SVGCleanerId_0_1_" style="fill:#E92F30;" d="M222.869,150.767c16.617-16.617,34.895-29.91,56.497-39.049
		c19.94-9.139,41.542-13.293,63.974-13.293s44.034,4.154,64.805,13.293s39.049,22.433,55.666,39.88l0.831,1.662H512l-1.662-3.323
		c-19.109-26.587-44.034-49.019-73.944-63.974c-29.91-16.617-60.651-24.925-93.054-24.925s-63.974,7.478-93.885,23.263
		s-54.835,37.388-73.944,64.805l-1.662,3.323h48.189L222.869,150.767L222.869,150.767z"/>
</g>
<path style="fill:#CE2C2C;" d="M222.869,150.767c16.617-16.617,34.895-29.91,56.497-39.049c19.94-9.139,41.542-13.293,63.974-13.293
	s44.034,4.154,64.805,13.293s39.049,22.433,55.666,39.88l0.831,1.662H512l-1.662-3.323c-19.109-26.587-44.034-49.019-73.944-63.974
	c-29.91-16.617-60.651-24.925-93.054-24.925s-63.974,7.478-93.885,23.263s-54.835,37.388-73.944,64.805l-1.662,3.323h48.189
	L222.869,150.767L222.869,150.767z"/>
<g>
</g>
<g>
</g>
<g>
</g>
<g>
</g>
<g>
</g>
<g>
</g>
<g>
</g>
<g>
</g>
<g>
</g>
<g>
</g>
<g>
</g>
<g>
</g>
<g>
</g>
<g>
</g>
<g>
</g>
</svg>
