<?xml version="1.0" encoding="iso-8859-1"?>
<!-- Generator: Adobe Illustrator 19.0.0, SVG Export Plug-In . SVG Version: 6.00 Build 0)  -->
<svg version="1.1" id="Capa_1" xmlns="http://www.w3.org/2000/svg" xmlns:xlink="http://www.w3.org/1999/xlink" x="0px" y="0px"
	 viewBox="0 0 512 512" style="enable-background:new 0 0 512 512;" xml:space="preserve">
<path style="fill:#353535;" d="M512,256c0,141.385-114.615,256-256,256c-51.942,0-100.258-15.464-140.622-42.036
	c-13.166-8.683-25.496-18.547-36.822-29.445C30.135,393.947,0,328.495,0,256c0-72.265,29.936-137.529,78.096-184.08
	c12.215-11.807,25.61-22.413,39.978-31.619C157.874,14.785,205.208,0,256,0C397.385,0,512,114.615,512,256z"/>
<g>
	<path style="fill:#FDDE5F;" d="M324.337,48.519c30.718,30.718,46.077,63.355,46.077,95.033s-7.679,70.075-23.998,86.394
		c0,0,61.436-23.038,61.436-93.114S324.337,48.519,324.337,48.519z"/>
	<path style="fill:#FDDE5F;" d="M363.694,251.064c0,0,39.357,36.477,39.357,102.712s-39.357,104.633-39.357,104.633
		s73.915-20.158,79.675-103.673S363.694,251.064,363.694,251.064z"/>
	<path style="fill:#FDDE5F;" d="M126.589,40.573v429.599c-3.772-0.094-7.513-0.167-11.212-0.209
		c-13.166-8.683-25.496-18.547-36.822-29.445c7.701-12.163,13.928-31.086,15.402-60.5c4.472-89.6,0-228.467,0-254.067
		c0-14.942-4.138-36.854-15.862-54.032C69.736,59.653,57.522,49.8,40.197,46.602L37,32.517c18.934,3.793,49.382,6.646,81.074,7.784
		C120.905,40.406,123.747,40.5,126.589,40.573z"/>
	<path style="fill:#FDDE5F;" d="M372.334,339.705c-5.126-87.046-87.027-97.28-87.027-97.28s70.382-32.004,53.756-113.905
		c-16.645-81.921-83.207-97.28-130.551-90.886c-14.341,1.938-32.215,2.937-51.203,3.167v430.473
		c28.568,1.21,59.267,2.822,92.154,2.822C332.651,474.095,377.46,426.732,372.334,339.705z M207.225,70.596
		c23.038-9.599,95.033,7.679,95.033,61.436c0,45.923-2.093,81.325-40.394,96.07c-10.54,4.051-21.848,5.702-33.137,5.472
		l-37.821-0.749C190.906,232.825,184.186,80.196,207.225,70.596z M326.257,400.813c-17.278,47.996-87.353,48.957-114.232,36.477
		c-26.878-12.479-20.158-143.03-20.158-172.787c0,0,71.995-14.399,110.392,9.599C340.657,298.101,343.535,352.817,326.257,400.813z"
		/>
</g>
<g>
</g>
<g>
</g>
<g>
</g>
<g>
</g>
<g>
</g>
<g>
</g>
<g>
</g>
<g>
</g>
<g>
</g>
<g>
</g>
<g>
</g>
<g>
</g>
<g>
</g>
<g>
</g>
<g>
</g>
</svg>
