<?xml version="1.0" encoding="iso-8859-1"?>
<!-- Generator: Adobe Illustrator 19.0.0, SVG Export Plug-In . SVG Version: 6.00 Build 0)  -->
<svg version="1.1" id="Capa_1" xmlns="http://www.w3.org/2000/svg" xmlns:xlink="http://www.w3.org/1999/xlink" x="0px" y="0px"
	 viewBox="0 0 512 512" style="enable-background:new 0 0 512 512;" xml:space="preserve">
<path style="fill:#5390DB;" d="M512,256c0,50.239-14.472,97.102-39.487,136.641c-21.567,34.116-50.991,62.798-85.734,83.466
	c-0.481,0.293-0.961,0.585-1.452,0.867c-10.24,5.998-20.919,11.316-32.005,15.862C323.323,505.198,290.461,512,256,512
	C114.615,512,0,397.385,0,256S114.615,0,256,0c69.966,0,133.371,28.066,179.576,73.561c13.991,13.761,26.405,29.132,36.937,45.798
	C497.528,158.898,512,205.761,512,256z"/>
<path style="fill:#74A8E2;" d="M472.513,53.75v338.892c-21.87,34.597-51.816,63.593-87.186,84.334l-11.389-274.954l-57.835,20.365
	l-58.911,33.625l-87.74-39.737L435.576,73.561L472.513,53.75z"/>
<path style="fill:#BAD3F0;" d="M472.515,53.746L187.786,216.274l69.41,39.74l58.901,33.727l12.22,99.651L30.146,206.498
	l311.1-177.558c27.3-15.593,60.783-15.568,88.034,0.049L472.515,53.746z"/>
<path style="fill:#F0EFEB;" d="M386.779,182.032v294.076c-0.481,0.293-0.961,0.585-1.452,0.867
	c-10.24,5.998-20.919,11.316-32.005,15.862L79.444,336.008c-30.48-17.45-49.298-49.904-49.298-85.034v-44.481l285.957,163.756
	V222.386L386.779,182.032z"/>
<g>
</g>
<g>
</g>
<g>
</g>
<g>
</g>
<g>
</g>
<g>
</g>
<g>
</g>
<g>
</g>
<g>
</g>
<g>
</g>
<g>
</g>
<g>
</g>
<g>
</g>
<g>
</g>
<g>
</g>
</svg>
