<?xml version="1.0" encoding="iso-8859-1"?>
<!-- Generator: Adobe Illustrator 19.0.0, SVG Export Plug-In . SVG Version: 6.00 Build 0)  -->
<svg version="1.1" id="Capa_1" xmlns="http://www.w3.org/2000/svg" xmlns:xlink="http://www.w3.org/1999/xlink" x="0px" y="0px"
	 viewBox="0 0 512 512" style="enable-background:new 0 0 512 512;" xml:space="preserve">
<path style="fill:#F0EFEB;" d="M512,256c0,23.333-3.124,45.934-8.976,67.417c-1.055,3.908-2.215,7.774-3.459,11.598
	C476.347,406.643,422.42,464.436,353.3,492.857c-11.734,4.827-23.897,8.808-36.425,11.86C297.367,509.482,276.982,512,256,512
	c-44.92,0-87.134-11.567-123.831-31.901c-6.165-3.406-12.184-7.064-18.024-10.961C45.328,423.246,0,344.921,0,256
	C0,114.615,114.615,0,256,0S512,114.615,512,256z"/>
<g>
	<path style="fill:#E71E24;" d="M248.17,207.265c-9.93,1.71-19.816,3.005-29.834,2.619c-7.037-0.272-14.018-0.852-20.455-4.004
		c-4.503-2.206-8.362-5.333-8.26-10.823c0.101-5.409,3.818-8.562,8.434-10.704c8.051-3.737,16.6-4.276,25.26-3.661
		c11.829,0.839,22.849,4.516,34.064,9.811c-4.147,2.404-7.566,2.163-11.335,0.858c-12.488-4.325-25.277-6.275-38.338-3.039
		c-3.906,0.968-9.909,1.718-9.597,6.381c0.258,3.867,6.118,4.284,10.026,4.862c18.483,2.734,36.326-0.792,53.757-6.405
		c31.022-9.989,58.877-25.249,79.345-51.442c11.191-14.321,17.906-30.328,13.886-49.124c-1.746-8.162-5.521-15.344-11.351-22.428
		c-1.879,6.573-3.232,12.677-5.955,18.295c-0.965,1.992,0.982,2.787,1.929,3.933c2.546,3.085,5.056,6.207,7.746,9.164
		c5.679,6.241,5.483,12.771,0.958,20.055c-3.791-9.002-8.291-17.252-15.835-23.825c-5.668,8.085-11.899,15.385-19.271,21.595
		c-2.463,2.074-1.039,3.205,0.367,4.73c5.631,6.113,10.011,12.972,12.35,21.024c2.1,7.231,2.025,7.417-5.226,12.14
		c-0.59-10.773-5.056-19.655-11.93-27.516c-2.299-2.629-3.894-3.621-7.237-1.024c-9.5,7.379-19.879,13.464-30.798,18.515
		c-3.87,1.79-4.71,2.881-1.263,6.364c7.001,7.073,10.299,15.644,7.675,25.747c-1.438,5.538-1.499,5.522-8.676,7.567
		c6.789-11.944,4.444-21.98-5.043-30.857c-2.916-2.728-5.38-3.006-9.061-1.512c-20.133,8.173-40.929,13.746-62.748,14.91
		c-9.046,0.483-18.047,0.277-26.658-2.892c-4.817-1.773-9.178-4.401-9.864-10.202c-0.672-5.691,2.597-9.506,6.836-12.506
		c8.561-6.058,18.492-8.498,28.64-9.927c20.134-2.833,39.859-1.4,59.1,6.374c-5.287,3.892-7.01,4.184-12.465,2.872
		c-19.675-4.729-39.23-4.676-58.602,1.657c-3.634,1.188-7.12,2.709-10.221,4.944c-1.712,1.234-4.308,2.343-3.746,4.875
		c0.532,2.396,3.299,2.927,5.336,3.285c4.316,0.759,8.741,1.477,13.097,1.356c37.81-1.051,72.022-13.568,103.853-33.273
		c14.934-9.245,28.16-20.455,38.07-35.195c14.988-22.295,11.746-44.388-9.575-60.763c-16.418-12.609-35.148-19.34-56.188-19.381
		c7.49,3.067,14.298,6.855,19.187,13.537c0.867,1.185,3.255,1.304,4.971,1.814c12.293,3.653,24.185,8.283,35.639,14.087
		c6.564,3.326,8.657,9.264,11.238,16.961c-13.95-9.927-27.871-16.316-42.414-21.511c-4.241-1.515-6.728-2.239-6.804,3.918
		c-0.065,5.208-2.473,10.099-5.465,14.426c-2.103,3.043-1.566,4.118,2.034,5.123c15.865,4.43,30.96,10.651,44.94,19.549
		c3.73,2.374,3.625,4.267,1.553,7.541c-2.649,4.184-4.46,0.489-6.133-0.588c-14.626-9.417-30.584-15.608-47.32-19.992
		c-1.522-0.399-3.026-1.14-4.455,0.312c-9.007,9.153-19.495,16.391-31.65,23.548c8.965,1.902,16.667,3.354,24.277,5.19
		c13.103,3.16,25.539,8.061,37.017,15.201c1.304,0.811,4.396,1.383,2.986,3.369c-1.325,1.867-3.323,4.95-6.837,2.98
		c-1.395-0.782-2.742-1.651-4.152-2.402c-20.161-10.742-41.915-15.38-64.501-16.899c-2.734-0.184-5.071,0.69-7.478,1.724
		c-16.413,7.056-33.209,12.819-51.122,14.612c-2.972,0.298-6.015,0.48-8.973,0.185c-4.184-0.417-8.81-0.903-9.818-6.152
		c-1.011-5.263,3.022-7.421,6.857-9.295c6.332-3.095,13.112-4.843,20.01-6.142c11.361-2.138,22.8-3.39,36.068-3.145
		c-15.513,7.937-31.132,10.236-45.917,14.924c37.188-6.145,71.254-19.205,98.971-45.796c5.82-5.584,10.567-12.072,11.727-20.455
		c1.033-7.476-2.056-13.032-9.427-16.448c0.017,4.248,5.46,4.786,5.434,8.97c-11.138-2.287-22.208-4.556-33.275-6.839
		c-2.358-0.487-4.537-0.933-6.829,0.724c-12.345,8.927-25.515,16.494-39.14,23.287c-0.461,0.23-0.791,0.723-2.074,1.939
		c24.414-0.275,47.775,0.777,71.42,5.885c-3.348,4.056-5.814,7.158-11.588,6.075c-24.547-4.601-49.378-4.33-74.212-3.427
		c-1.597,0.059-3.196,0.114-4.792,0.074c-2.473-0.063-4.309-1.235-4.838-3.683c-0.496-2.303,1.057-3.836,2.865-4.791
		c2.645-1.398,5.419-2.565,8.184-3.72c19.968-8.339,38.904-18.603,57.211-30.401c-1.797-1.826-3.22-0.749-4.622,0.14
		c-1.856,1.178-3.618,2.518-5.54,3.573c-3.484,1.911-6.044-0.134-7.405-2.834c-1.469-2.913,1.291-4.341,3.523-5.16
		c6.514-2.391,13.335-2.367,20.154-2.076c2.183,0.093,4.356,0.561,6.49-0.453c10.465-4.975,21.36-4.492,32.342-2.38
		c17.174,3.302,32.905,9.872,46.51,21.042c8.391,6.888,14.652,15.32,17.555,25.918c0.788,2.875,2.49,4.894,4.486,6.91
		c19.751,19.961,25.055,42.974,14.559,69.31c-0.581,1.457-1.228,3.054-1.186,4.568c0.692,25.044-10.989,44.18-29.029,60.034
		c-17.229,15.141-37.161,24.808-60.098,27.77c-3.983,0.514-7.964,0.674-11.949-0.143C249.767,219.39,247.5,216.488,248.17,207.265z
		 M305.635,185.804c-6.059,2.96-12.118,5.92-18.177,8.88c7.931-0.841,12.498-2.971,18.773-8.135
		c0.845-0.743,1.691-1.486,2.536-2.228c-0.187-0.194-0.375-0.389-0.562-0.582C307.347,184.427,306.492,185.115,305.635,185.804z
		 M348.36,150.49c-5.231,5.536-10.27,11.244-16.195,16.018c-4.25,3.424-7.474,7.416-10.356,12.127
		c-9.826,16.062-24.498,24.028-43.33,22.288c-7.292-0.674-13.246,2.171-19.644,3.992c-2.644,0.752-4.964,3.601-4.585,6.421
		c0.439,3.257,4.065,2.504,6.465,2.881c1.741,0.274,3.591,0.004,5.376-0.182c22.082-2.306,40.899-11.982,57.569-26.095
		C335.454,177.95,344.412,165.871,348.36,150.49z M263.104,20.981c-5.56-5.864-16.507-8.116-21.615-4.565
		C248.932,18.162,256.164,18.825,263.104,20.981z"/>
	<path style="fill:#E71E24;" d="M198.625,386.591c-4.786-14.19-16.457-21.608-31.483-21.922c-11.337-0.24-21.358,3.49-30.72,9.488
		c-1.954,1.254-3.866,2.57-6.134,4.075c-0.47-2.957-1.003-5.392-1.212-7.847c-0.251-2.811-1.17-4.106-4.389-3.95
		c-6.269,0.313-12.57,0.272-18.85,0.01c-3.124-0.125-4.012,1.014-4.399,3.939c-0.94,7.011-1.097,6.99,5.736,9.268
		c0.658,0.219,1.306,0.533,1.985,0.648c3.866,0.669,5.057,2.884,5.047,6.792c-0.104,27.345-0.146,54.69-0.063,82.045
		c5.841,3.897,11.86,7.555,18.024,10.961c-0.01-3.824-0.021-7.638-0.021-11.463v-8.391c2.56,1.724,4.232,2.926,5.966,4.012
		c20.877,13.072,48.556,6.238,58.023-15.12C205.155,428.837,205.72,407.604,198.625,386.591z M184.257,423.748
		c-0.418,5.716-1.327,11.368-3.542,16.718c-4.88,11.766-14.879,17.011-27.345,14.326c-3.438-0.742-6.635-2.069-9.77-3.647
		c-7.847-3.929-13.49-8.871-11.651-19.017c0.857-4.733,0.146-9.749,0.146-14.639v-22.194c0-1.536-0.125-2.978,1.432-4.086
		c8.192-5.82,16.844-10.418,27.157-10.961c9.153-0.481,15.966,3.459,19.769,11.849C185.031,402.223,185.051,412.965,184.257,423.748
		z"/>
	<path style="fill:#E71E24;" d="M410.937,369.727c-0.063,0.418-0.01,0.836-0.01,1.264c0.01,6.572,0.042,6.708-6.541,7.743
		c-3.479,0.543-4.827,2.769-6.008,5.632c-14.994,36.174-30.03,72.328-45.077,108.492c-11.734,4.827-23.897,8.808-36.425,11.86
		c-0.094-5.956,0.522-6.437,7.513-6.719c7.346-0.303,11.327-3.365,13.5-10.303c1.776-5.695,4.493-11.118,7.116-16.509
		c1.452-2.999,1.484-5.507,0.146-8.641c-10.836-25.255-21.588-50.542-32.057-75.943c-1.86-4.514-4.232-7.314-9.143-7.69
		c-3.532-0.272-5.016-1.452-3.856-5.559c1.891-6.729,1.557-6.823,8.391-6.823c10.198,0,20.396,0.063,30.595-0.042
		c2.518-0.031,3.845,0.345,3.699,3.344c-0.47,9.916,1.881,7.398-8.046,8.903c-4.921,0.752-4.974,0.554-3.218,4.984
		c7.44,18.808,14.89,37.606,22.371,56.393c0.491,1.243,0.606,2.748,2.236,3.741c3.375-8.161,6.719-16.217,10.052-24.273
		c5.068-12.236,10.094-24.503,15.245-36.707c1.097-2.591,1.317-4.211-2.236-3.971c-0.554,0.031-1.118-0.084-1.672-0.136
		c-8.234-0.815-8.182-0.805-6.541-8.85c0.481-2.32,1.202-3.521,4.002-3.469c10.888,0.199,21.786,0.157,32.684,0.031
		C410.175,366.446,411.366,367.083,410.937,369.727z"/>
	<path style="fill:#E71E24;" d="M302.487,456.673c-1.661-0.01-3.323-0.564-4.984-0.616c-3.459-0.104-4.765-1.557-4.723-5.193
		c0.178-16.624,0.094-33.249,0.063-49.873c0-4.754-0.125-9.488-0.951-14.2c-2.038-11.64-8.046-18.077-19.613-20.585
		c-9.247-1.996-18.578-1.923-27.93-0.899c-5.319,0.575-10.47,1.818-15.172,4.441c-7.596,4.242-11.295,10.867-11.901,19.446
		c-0.157,2.142,0.428,2.999,2.654,3.103c3.626,0.188,7.272,0.428,10.825,1.118c3.051,0.585,3.772-0.47,4.054-3.312
		c0.658-6.489,3.574-9.832,9.718-10.846c6.081-1.003,12.288-1.097,18.359,0.031c6.969,1.285,10.418,5.047,11.379,12.11
		c0.449,3.312,0.585,6.687,0.616,10.031c0.073,8.903,0.01,8.704-9.028,9.488c-10.825,0.93-21.797,0.867-32.35,4.065
		c-11.954,3.615-19.571,11.107-20.846,23.918c-1.808,18.307,6.374,31.577,27.314,31.566c12.016-0.01,22.382-4.002,31.608-11.431
		c1.4-1.118,2.79-2.247,4.723-3.803c0.543,3.699,1.139,6.802,1.411,9.937c0.199,2.267,1.055,3.114,3.396,3.062
		c5.862-0.157,11.734-0.063,17.607-0.052c7.471,0,7.304,0,7.45-7.481C306.228,457.78,305.277,456.704,302.487,456.673z
		 M267.003,447.53c-6.949,4.556-14.012,8.704-22.716,8.579c-8.182-0.104-12.424-4.148-12.863-12.225
		c-0.606-11.045,3.114-15.956,14.127-18.004c8.798-1.641,17.763-1.912,26.655-2.738c2.445-0.23,2.842,0.846,2.748,2.863
		c-0.104,2.09-0.021,4.19-0.021,7.398C277.211,439.923,272.551,443.883,267.003,447.53z"/>
</g>
<g>
	<path style="fill:#393739;" d="M87.721,258.085c-6.798,24.451-13.262,47.666-19.705,70.887c-1.676,6.042-1.647,6.05-7.949,6.05
		c-4.052,0-8.113-0.163-12.152,0.057c-2.693,0.147-3.834-0.767-4.677-3.388c-8.4-26.133-17.1-52.171-25.352-78.35
		c-1.521-4.827-3.837-7.417-8.811-7.72c-3.788-0.231-6.127-1.553-4.087-5.907c0.285-0.609,0.352-1.36,0.371-2.049
		c0.104-3.754,2.058-4.631,5.638-4.547c10.612,0.25,21.235,0.174,31.852,0.028c2.681-0.037,3.56,0.632,3.545,3.436
		c-0.045,8.189,0.097,8.325-8.37,8.958c-3.36,0.251-4.174,0.992-3.049,4.491c6.611,20.563,12.957,41.21,19.396,61.827
		c0.278,0.889,0.155,2.003,1.533,2.542c4.851-17.129,9.69-34.218,14.535-51.306c2.204-7.775,4.609-15.5,6.532-23.344
		c0.736-2.999,2.058-3.688,4.877-3.548c4.599,0.23,9.224,0.209,13.826,0.004c2.561-0.114,3.578,0.66,4.186,3.253
		c5.842,24.925,11.847,49.811,18.1,75.938c1.572-5.05,2.798-8.996,4.026-12.94c5.463-17.565,10.856-35.151,16.453-52.674
		c1.018-3.186,0.345-3.979-2.91-4.219c-9.495-0.701-9.441-0.83-7.074-10.104c0.422-1.653,1.093-2.289,2.814-2.281
		c10.897,0.057,21.796,0.062,32.693-0.005c1.944-0.011,2.915,0.557,2.71,2.609c-0.069,0.692-0.012,1.396-0.01,2.095
		c0.009,6.638,0.027,6.758-6.696,7.731c-3.404,0.492-4.902,2.271-5.888,5.472c-8.162,26.501-16.58,52.922-24.653,79.449
		c-1.118,3.673-2.654,4.863-6.346,4.571c-4.304-0.34-8.664-0.241-12.984-0.023c-2.756,0.139-3.792-0.8-4.439-3.527
		c-5.439-22.919-11.062-45.794-16.637-68.68C88.725,261.669,88.373,260.48,87.721,258.085z"/>
	<path style="fill:#393739;" d="M503.024,323.417c-0.899-0.24-1.933-0.418-3.114-0.543c-0.136-0.01-0.282-0.021-0.418-0.042
		c-5.601-0.596-5.601-0.596-5.601-6.374v-90.509c0-12.152,0-24.304,0.01-36.456c0.01-1.849,0.334-3.5-2.602-3.448
		c-8.516,0.178-17.042,0.115-25.558,0.031c-1.954-0.021-2.539,0.679-2.884,2.56c-1.431,8.004-1.505,7.993,6.071,10.397
		c1.055,0.345,2.079,0.846,3.166,1.045c2.873,0.522,3.887,2.33,3.887,5.068c-0.021,10.752-0.052,21.504,0.021,32.256
		c0.021,2.884-1.024,2.581-2.884,1.39c-3.657-2.341-7.659-3.95-11.807-5.214c-25.057-7.659-46.07,2.717-53.185,27.011
		c-5.12,17.502-5.057,35.328,0.481,52.809c4.075,12.852,12.716,21.295,26.373,23.364c11.724,1.776,22.81-0.428,32.632-7.419
		c3.156-2.247,6.113-4.765,9.634-7.523c0.533,3.971,1.087,7.419,1.421,10.877c0.178,1.766,0.888,2.372,2.633,2.351
		c6.092-0.052,12.173-0.042,18.265-0.031c1.735,0,3.469,0.01,5.204,0.01c1.191,0,2.048-0.125,2.393-1.641
		C508.562,327.314,507.622,324.587,503.024,323.417z M474.718,306.542c-7.314,7.011-14.879,13.563-25.433,15.151
		c-10.25,1.546-19.007-2.947-22.371-12.727c-5.444-15.809-5.402-31.932,0.47-47.585c4.754-12.664,16.008-17.408,29.821-13.699
		c1.609,0.439,3.208,0.94,4.775,1.536c12.633,4.786,13.573,6.144,13.573,19.435v12.999c0,7.126,0.01,14.252-0.01,21.379
		C475.533,304.243,475.805,305.497,474.718,306.542z"/>
	<path style="fill:#393739;" d="M262.447,269.824c-2.821-17.763-11.201-31.065-29.393-36.383c-7.461-2.184-15.13-2.414-22.821-1.87
		c-21.932,1.526-36.948,14.409-41.639,35.819c-2.79,12.748-2.445,25.527,0.94,38.107c4.399,16.374,14.733,26.854,31.525,30.521
		c7.022,1.526,14.148,1.494,21.253,0.888c18.536-1.609,32.026-12.497,37.658-30.229c2.435-7.638,3.385-15.506,3.354-24.503
		C263.461,278.695,263.147,274.244,262.447,269.824z M241.027,305.559c-4.2,11.118-12.852,16.833-25.725,17.032
		c-12.403,0.178-21.713-5.371-25.778-16.311c-5.12-13.782-5.277-27.972-0.658-41.879c4.106-12.372,15.151-18.662,29.132-17.617
		c16.133,1.202,24.44,10.167,25.976,28.181c0.261,3.051,0.031,6.144,0.031,9.216C244.423,291.485,243.628,298.663,241.027,305.559z"
		/>
	<path style="fill:#393739;" d="M384.798,254.004c0,21.223,0.098,42.448-0.093,63.67c-0.033,3.716,1.297,4.972,4.696,5.082
		c2.223,0.073,4.442,0.738,6.65,0.68c3.292-0.085,3.786,1.512,3.731,4.375c-0.138,7.207-0.008,7.209-7.351,7.209
		c-12.567,0-25.135-0.109-37.698,0.076c-3.184,0.047-4.023-0.886-3.954-4.005c0.169-7.639,0.011-7.642,7.816-8.193
		c7.735-0.545,7.735-0.545,7.735-8.103c0-35.884-0.069-71.769,0.091-107.653c0.019-4.335-1.061-6.976-5.546-7.631
		c-0.679-0.099-1.325-0.42-1.989-0.63c-6.881-2.173-6.713-2.151-5.845-9.063c0.375-2.984,1.4-3.885,4.432-3.79
		c7.812,0.243,15.64,0.235,23.453,0.005c3.097-0.091,3.977,0.679,3.953,3.882C384.722,211.277,384.797,232.641,384.798,254.004z"/>
	<path style="fill:#393739;" d="M301.31,246.761c3.012-2.678,5.617-5.13,8.364-7.414c9.974-8.291,21.429-9.332,33.612-6.758
		c1.638,0.346,2.251,1.141,2.235,2.862c-0.078,8.383-0.078,16.767-0.003,25.151c0.018,1.931-0.485,2.951-2.579,2.599
		c-0.136-0.023-0.279-0.007-0.419-0.004c-11.158,0.185-11.158,0.185-13.106-10.711c-1.02-5.703-1.746-6.163-7.361-4.632
		c-6.788,1.851-12.194,6-17.444,10.433c-1.268,1.071-1.154,2.422-1.154,3.812c0.003,18.583,0.052,37.168-0.048,55.752
		c-0.016,2.879,0.614,4.359,3.822,4.501c4.877,0.216,9.727,0.991,14.602,1.245c2.187,0.114,2.765,0.819,2.829,2.961
		c0.252,8.468,0.333,8.465-8.148,8.465c-13.553,0-27.109-0.096-40.66,0.073c-3.136,0.039-4.06-0.805-3.985-3.976
		c0.181-7.601,0.002-7.809,7.77-8.249c4.331-0.246,5.618-1.965,5.578-6.24c-0.196-20.818-0.168-41.638-0.018-62.457
		c0.029-3.983-1.015-6.503-5.21-7.077c-0.539-0.074-1.041-0.393-1.569-0.568c-7.102-2.366-6.927-2.342-5.984-9.801
		c0.368-2.914,1.45-3.654,4.215-3.577c6.562,0.185,13.133,0.122,19.699,0.021c1.995-0.03,3.027,0.375,3.249,2.628
		C299.946,239.336,300.676,242.838,301.31,246.761z"/>
</g>
<g>
</g>
<g>
</g>
<g>
</g>
<g>
</g>
<g>
</g>
<g>
</g>
<g>
</g>
<g>
</g>
<g>
</g>
<g>
</g>
<g>
</g>
<g>
</g>
<g>
</g>
<g>
</g>
<g>
</g>
</svg>
