<?xml version="1.0" encoding="iso-8859-1"?>
<!-- Generator: Adobe Illustrator 19.0.0, SVG Export Plug-In . SVG Version: 6.00 Build 0)  -->
<svg version="1.1" id="Capa_1" xmlns="http://www.w3.org/2000/svg" xmlns:xlink="http://www.w3.org/1999/xlink" x="0px" y="0px"
	 viewBox="0 0 512 512" style="enable-background:new 0 0 512 512;" xml:space="preserve">
<path style="fill:#F0EFEB;" d="M512,256c0,141.385-114.615,256-256,256c-81.178,0-153.537-37.784-200.432-96.737
	c-5.528-6.938-10.7-14.179-15.485-21.682C14.702,353.855,0,306.636,0,256C0,114.615,114.615,0,256,0
	c74.773,0,142.043,32.057,188.834,83.163c0.01,0,0.01,0.01,0.01,0.01c4.493,4.89,8.788,9.958,12.884,15.193
	C491.729,141.824,512,196.545,512,256z"/>
<g>
	<path style="fill:#0081C9;" d="M188.635,247.651c0,0-86.967-13.458-78.691-69.371c8.286-55.902,99.391-111.522,255.728-104.417
		c28.881,1.317,55.296,4.681,79.161,9.3c0.01,0,0.01,0.01,0.01,0.01c4.493,4.89,8.788,9.958,12.884,15.193
		c-29.832-4.89-64.01-8.088-102.41-8.088C191.739,90.279,109.944,151.364,188.635,247.651z"/>
	<path style="fill:#0081C9;" d="M147.219,102.704C96.488,136.87,41.941,167.162,78.887,234.191
		c33.107,60.065,118.027,63.156,127.346,53.837c9.318-9.318-3.668-25.597-3.668-25.597s21.397,17.486,17.027,38.424
		c-4.372,20.938-64.424,11.964-77.079,7.593c-12.655-4.372-95.715-38.885-95.715-96.176S106.138,118.071,147.219,102.704z"/>
	<path style="fill:#0081C9;" d="M289.767,213.653c-34.513-26.23-26.92-40.035,8.974-49.008c35.893-8.973,129.81,3.9,173.255,63.504
		c32.692,44.852,57.981,121.485-69.716,168.423c0,0,90.993-32.386,71.787-109.751S366.667,179.14,318.068,179.14
		S279.413,203.3,289.767,213.653z"/>
	<path style="fill:#0081C9;" d="M305.643,422.797c-44.972,15.141-146.975,29.686-250.075-7.534
		c-5.528-6.938-10.7-14.179-15.485-21.682c45.526,16.938,100.456,28.014,161.332,21.629
		c171.186-17.951,209.836-98.022,101.47-189.827c0,0,65.567-6.896,103.539,46.937C444.385,326.165,373.29,400.018,305.643,422.797z"
		/>
</g>
<g>
</g>
<g>
</g>
<g>
</g>
<g>
</g>
<g>
</g>
<g>
</g>
<g>
</g>
<g>
</g>
<g>
</g>
<g>
</g>
<g>
</g>
<g>
</g>
<g>
</g>
<g>
</g>
<g>
</g>
</svg>
