<?xml version="1.0" encoding="iso-8859-1"?>
<!-- Generator: Adobe Illustrator 19.0.0, SVG Export Plug-In . SVG Version: 6.00 Build 0)  -->
<svg version="1.1" id="Capa_1" xmlns="http://www.w3.org/2000/svg" xmlns:xlink="http://www.w3.org/1999/xlink" x="0px" y="0px"
	 viewBox="0 0 512 512" style="enable-background:new 0 0 512 512;" xml:space="preserve">
<circle style="fill:#F0EFEB;" cx="256" cy="256" r="256"/>
<path style="fill:#353535;" d="M483.445,256.122c0,100.971-73.464,184.799-169.849,200.93
	c-3.706-61.136-20.68-101.447-30.995-120.76c42.956-1.512,77.329-36.823,77.329-80.17c0-42.871-33.629-77.889-75.926-80.108
	c3.829-6.767,23.557-45.017,28.178-121.065C409.262,70.494,483.445,154.651,483.445,256.122z"/>
<g>
	<path style="fill:#FF6500;" d="M28.555,173.803c65.263,0,118.17-52.906,118.17-118.17h121.308
		c0,132.26-107.218,239.478-239.478,239.478L28.555,173.803L28.555,173.803z"/>
	<path style="fill:#FF6500;" d="M269.115,457.052H148.281c-3.67-60.551-49.541-109.701-108.58-118.443v-0.011
		c99.264-7.145,151.584-54.382,151.584-54.382C237.511,327.829,267.006,388.989,269.115,457.052z"/>
</g>
<g>
</g>
<g>
</g>
<g>
</g>
<g>
</g>
<g>
</g>
<g>
</g>
<g>
</g>
<g>
</g>
<g>
</g>
<g>
</g>
<g>
</g>
<g>
</g>
<g>
</g>
<g>
</g>
<g>
</g>
</svg>
