<?xml version="1.0" encoding="iso-8859-1"?>
<!-- Generator: Adobe Illustrator 19.0.0, SVG Export Plug-In . SVG Version: 6.00 Build 0)  -->
<svg version="1.1" id="Capa_1" xmlns="http://www.w3.org/2000/svg" xmlns:xlink="http://www.w3.org/1999/xlink" x="0px" y="0px"
	 viewBox="0 0 512 512" style="enable-background:new 0 0 512 512;" xml:space="preserve">
<path style="fill:#5DBC3E;" d="M512,256c0,8.098-0.376,16.102-1.118,24.001c-0.825,9.007-2.132,17.878-3.887,26.582
	c-2.612,13.072-6.228,25.788-10.762,38.055C460.184,442.337,366.226,512,256,512c-109.767,0-203.4-69.078-239.783-166.139
	C11.755,333.96,8.15,321.64,5.496,308.966c-2.476-11.724-4.138-23.751-4.942-36.007C0.188,267.358,0,261.695,0,256
	c0-23.991,3.302-47.208,9.477-69.235C39.675,79.015,138.606,0,256,0c117.885,0,217.172,79.684,246.899,188.134
	c3.636,13.239,6.238,26.906,7.701,40.908c0.805,7.69,1.264,15.475,1.369,23.343C511.99,253.586,512,254.798,512,256z"/>
<g>
	<path style="fill:#F0EFEB;" d="M393.467,189.085c0-1.891-0.533-2.393-2.382-2.372c-10.459,0.073-20.919,0.094-31.378-0.021
		c-2.184-0.021-2.602,0.742-2.55,2.717c0.136,4.692,0.042,9.394,0.042,14.629c-0.92-0.993-1.452-1.588-2.006-2.163
		c-8.067-8.526-17.607-14.524-29.215-16.948c-10.386-2.163-20.773-1.996-31.128,0.125c-23.124,4.733-40.145,23.03-42.235,45.955
		c-1.954,21.514-2.152,43.081-0.125,64.616c1.985,21.149,12.246,36.801,31.775,45.526c23.751,10.616,46.31,8.37,67.072-7.826
		c1.975-1.546,3.699-3.417,5.705-5.287c0,4.921,0.303,9.571-0.073,14.158c-0.502,6.175-2.8,11.776-7.137,16.342
		c-10.553,11.097-23.761,14.649-38.546,13.03c-8.411-0.93-15.799-4.817-22.8-9.394c-0.972-0.637-1.661-1.076-2.738,0.021
		c-7.231,7.325-14.514,14.597-21.828,21.838c-0.93,0.909-0.752,1.327,0.157,2.038c21.107,16.624,44.628,24.033,71.429,18.641
		c15.067-3.041,28.515-9.613,39.278-20.626c12.884-13.176,18.369-29.811,18.505-47.804
		C393.665,287.222,393.415,238.153,393.467,189.085z M356.822,285.686c-0.721,11.964-7.137,19.864-17.377,25.046
		c-15.026,7.607-36.54,3.803-47.031-8.161c-3.615-4.117-5.684-8.934-6.217-14.367c-1.578-15.736-1.411-31.472-0.125-47.208
		c0.752-9.185,5.831-15.653,13.218-20.584c14.67-9.77,37.407-7.983,49.131,3.866c5.099,5.151,7.899,11.285,8.328,18.62
		c0.418,7.387,0.418,14.764,0.46,22.862C357.083,271.924,357.23,278.8,356.822,285.686z"/>
	<path style="fill:#F0EFEB;" d="M247.578,233.493c-1.055-22.131-12.884-38.118-33.938-44.837c-20.344-6.489-41.096-7.064-61.9-2.278
		c-13.667,3.145-26.112,9.08-37.272,17.617c-0.94,0.721-1.933,1.191-0.512,2.581c6.583,6.447,13.072,12.999,19.56,19.54
		c0.763,0.763,1.306,0.961,2.299,0.24c11.348-8.255,24.21-12.194,38.097-12.758c8.15-0.334,16.269,0.272,23.991,3.281
		c9.707,3.772,14.242,10.428,14.242,20.793c0,3.814-0.146,7.638,0.052,11.452c0.125,2.403-0.397,3.208-3.041,3.176
		c-15.611-0.146-31.222-0.073-46.832-0.073c-8.265,0-16.394,0.982-24.263,3.594c-13.458,4.472-23.04,12.904-26.812,26.99
		c-2.257,8.401-2.226,16.917-0.711,25.422c3.009,16.865,12.267,28.766,28.484,34.774c13.552,5.015,27.564,5.601,41.702,3.187
		c12.246-2.09,22.706-7.638,31.42-17.586c0,4.921,0.094,9.132-0.042,13.333c-0.063,1.86,0.439,2.393,2.33,2.372
		c10.209-0.094,20.417-0.104,30.636,0.01c2.152,0.021,2.8-0.491,2.79-2.738c-0.084-25.736-0.01-51.482-0.063-77.218
		C247.777,254.077,248.069,243.775,247.578,233.493z M211.257,297.524c-2.048,8.526-7.105,14.44-15.663,16.217
		c-14.263,2.957-28.662,3.082-42.851-0.648c-5.757-1.515-10.397-4.796-12.392-10.825c-2.957-8.965,0.909-16.718,9.801-19.79
		c6.374-2.205,13.009-2.361,19.644-2.456c5.475-0.084,10.951-0.021,16.426-0.021c7.973,0,15.935,0.042,23.897-0.031
		c1.714-0.021,2.309,0.46,2.267,2.226C212.261,287.326,212.47,292.456,211.257,297.524z"/>
	<path style="fill:#F0EFEB;" d="M435.524,280.001h75.358C511.624,272.102,512,264.098,512,256c0-1.202-0.01-2.414-0.031-3.615
		h-77.343c-1.191,0-2.32,0.199-2.215-1.682c0.742-12.372,5.12-22.883,15.506-30.292c16.165-11.546,41.639-10.762,56.445,1.808
		c2.466,2.09,4.535,4.378,6.238,6.823c-1.463-14.002-4.065-27.669-7.701-40.908c-0.825-0.282-1.672-0.554-2.529-0.815
		c-14.2-4.274-28.756-5.11-43.353-2.759c-26.164,4.221-44.481,18.693-54.042,43.426c-8.432,21.817-8.892,44.325-2.779,66.738
		c6.092,22.382,20.24,38.128,41.9,46.707c17.586,6.969,35.662,7.91,53.969,3.25c0.052-0.01,0.115-0.031,0.167-0.042
		c4.535-12.267,8.15-24.984,10.762-38.055c-14.127,8.443-29.863,10.083-46.582,6.363c-15.966-3.542-25.736-14.503-27.826-29.686
		C432.149,280.001,432.149,280.001,435.524,280.001z"/>
	<path style="fill:#F0EFEB;" d="M90.676,330.982c-7.743,6.719-16.833,10.93-26.749,13.155c-16.541,3.699-32.475,4.399-47.71,1.724
		C11.755,333.96,8.15,321.64,5.496,308.966c1.463,0.669,2.947,1.264,4.483,1.797c15.851,5.475,31.869,6.917,47.929,0.815
		c4.462-1.693,8.568-4.044,11.577-7.899c5.622-7.199,3.197-16.875-5.141-20.49c-4.556-1.975-9.435-2.466-14.305-2.978
		c-12.936-1.369-25.987-1.755-38.766-4.472c-3.636-0.773-7.231-1.661-10.721-2.779C0.188,267.358,0,261.695,0,256
		c0-23.991,3.302-47.208,9.477-69.235c8.547-2.393,17.418-3.396,26.52-3.354c23.939,0.355,46.226,6.134,66.006,20.135
		c2.487,1.766,2.466,1.787,0.408,3.856c-6.05,6.05-12.142,12.048-18.108,18.171c-1.264,1.306-2.048,1.202-3.511,0.334
		c-18.474-10.94-38.275-14.952-59.496-10.971c-4.744,0.888-9.247,2.581-13.281,5.36c-8.829,6.092-8.464,15.914,0.836,21.253
		c6.248,3.584,13.208,4.754,20.198,5.768c9.78,1.411,19.696,1.296,29.487,2.529c11.097,1.39,21.87,3.992,31.483,10.052
		c10.459,6.593,16.217,16.112,17.095,28.484C108.293,305.142,103.654,319.707,90.676,330.982z"/>
</g>
<g>
</g>
<g>
</g>
<g>
</g>
<g>
</g>
<g>
</g>
<g>
</g>
<g>
</g>
<g>
</g>
<g>
</g>
<g>
</g>
<g>
</g>
<g>
</g>
<g>
</g>
<g>
</g>
<g>
</g>
</svg>
