<?xml version="1.0" encoding="iso-8859-1"?>
<!-- Generator: Adobe Illustrator 19.0.0, SVG Export Plug-In . SVG Version: 6.00 Build 0)  -->
<svg version="1.1" id="Capa_1" xmlns="http://www.w3.org/2000/svg" xmlns:xlink="http://www.w3.org/1999/xlink" x="0px" y="0px"
	 viewBox="0 0 512 512" style="enable-background:new 0 0 512 512;" xml:space="preserve">
<circle style="fill:#5C5560;" cx="256" cy="256" r="256"/>
<path style="fill:#FDCC0D;" d="M486.373,191.108c5.81,20.642,8.909,42.404,8.909,64.897c0,106.692-69.838,197.084-166.299,227.934
	l-14.582-140.285L486.373,191.108z"/>
<path style="fill:#F34F42;" d="M314.401,343.653l14.582,140.285c-23.004,7.368-47.525,11.343-72.979,11.343
	c-9.923,0-19.709-0.601-29.308-1.785l-24.059-50.713L314.401,343.653z"/>
<path style="fill:#7AC43B;" d="M202.637,442.783l24.059,50.713c-21.932-2.67-42.94-8.317-62.617-16.513L202.637,442.783z"/>
<path style="fill:#4DB545;" d="M171.999,378.195l30.639,64.588l-38.559,34.201c-12.366-5.144-24.204-11.303-35.418-18.37
	L171.999,378.195z"/>
<path style="fill:#48AB47;" d="M91.912,209.34l80.086,168.856l-43.337,80.419C61.402,416.266,16.718,341.348,16.718,256.004
	c0-8.585,0.455-17.073,1.339-25.421L91.912,209.34z"/>
<polygon style="fill:#D1341E;" points="294.392,151.088 171.999,378.195 91.912,209.34 "/>
<polygon style="fill:#F13D17;" points="294.392,151.088 314.401,343.653 202.637,442.783 171.999,378.195 "/>
<path style="fill:#F67F00;" d="M486.373,191.108L314.401,343.653l-20.01-192.564l60.832-112.885
	C418.644,67.14,467.223,122.965,486.373,191.108z"/>
<path style="fill:#2CA8E3;" d="M355.223,38.205l-60.832,112.883L280.557,17.96C306.952,20.653,332.074,27.632,355.223,38.205z"/>
<path style="fill:#005FB0;" d="M53.532,128.418l38.38,80.922l-73.854,21.243C21.993,193.306,34.481,158.586,53.532,128.418z"/>
<path style="fill:#1283CD;" d="M280.557,17.96l13.834,133.128l-202.48,58.251l-38.379-80.921
	c42.388-67.12,117.225-111.7,202.472-111.7C264.296,16.718,272.484,17.141,280.557,17.96z"/>
<path style="fill:#444344;" d="M437.78,196.552l-17.851,7.027c-1.614-2.491-3.254-4.941-4.933-7.359
	c-38.81-56.101-92.785-92.526-113.29-105.11c-5.29-3.245-8.357-4.909-8.357-4.909l7.035-16.228c2.645,1.81,5.275,3.644,7.879,5.501
	c58.324,41.496,105.175,92.802,122.401,112.672C435.289,193.485,437.78,196.552,437.78,196.552z"/>
<path style="fill:#F13D17;" d="M469.564,116.287c0,30.079-15.474,56.539-38.899,71.859c-2.28,1.493-4.633,2.881-7.059,4.146
	c-2.784,1.469-5.656,2.775-8.609,3.928c-38.81-56.101-92.785-92.526-113.29-105.11c0.325-1.047,0.666-2.093,1.03-3.124
	c1.502-4.342,3.359-8.52,5.525-12.512C322.77,48.68,351.137,30.48,383.755,30.48C431.143,30.48,469.564,68.901,469.564,116.287z"/>
<path style="fill:#C2301D;" d="M423.605,192.292c-2.784,1.469-5.656,2.775-8.609,3.928c-38.81-56.101-92.785-92.526-113.29-105.11
	c0.325-1.047,0.666-2.093,1.03-3.124C302.736,87.985,383.196,129.878,423.605,192.292z"/>
<g>
</g>
<g>
</g>
<g>
</g>
<g>
</g>
<g>
</g>
<g>
</g>
<g>
</g>
<g>
</g>
<g>
</g>
<g>
</g>
<g>
</g>
<g>
</g>
<g>
</g>
<g>
</g>
<g>
</g>
</svg>
