<?xml version="1.0" encoding="iso-8859-1"?>
<!-- Generator: Adobe Illustrator 19.0.0, SVG Export Plug-In . SVG Version: 6.00 Build 0)  -->
<svg version="1.1" id="Capa_1" xmlns="http://www.w3.org/2000/svg" xmlns:xlink="http://www.w3.org/1999/xlink" x="0px" y="0px"
	 viewBox="0 0 512.001 512.001" style="enable-background:new 0 0 512.001 512.001;" xml:space="preserve">
<path style="fill:#D41B2E;" d="M40.594,298.559l-12.401,74.362c-9.44-18.389-16.741-38.06-21.541-58.698L40.594,298.559z"/>
<path style="fill:#AE1D1F;" d="M40.594,298.559l38.805,80.777L62.911,424.08c-13.526-15.522-25.216-32.691-34.718-51.159
	L40.594,298.559z"/>
<path style="fill:#F24113;" d="M0.618,238.229l39.977,60.329L6.652,314.223C2.296,295.517,0,276.036,0,256
	C0,250.029,0.206,244.105,0.618,238.229z"/>
<polygon style="fill:#F35A17;" points="96.03,221.741 164.69,303.817 79.399,379.336 40.594,298.559 "/>
<polygon style="fill:#FBA900;" points="151.449,196.399 328.066,115.622 164.69,303.817 96.03,221.741 "/>
<polygon style="fill:#8F9990;" points="328.066,115.622 347.865,437.939 164.69,303.817 "/>
<polygon style="fill:#F00075;" points="347.865,437.939 79.399,379.336 164.69,303.817 "/>
<path style="fill:#BB1D48;" d="M79.399,379.336l162.013,132.253c-71.163-3.992-134.549-37.063-178.501-87.508L79.399,379.336z"/>
<path style="fill:#CE0586;" d="M347.865,437.939l-34.323,67.568c-18.5,4.245-37.759,6.494-57.542,6.494
	c-4.894,0-9.757-0.142-14.588-0.412L79.399,379.336L347.865,437.939z"/>
<path style="fill:#007394;" d="M347.865,437.939l136.212-65.572c-33.942,66.395-96.03,116.018-170.535,133.14L347.865,437.939z"/>
<path style="fill:#025F8A;" d="M347.865,437.939L512,257.394c-0.222,41.387-10.264,80.445-27.924,114.972L347.865,437.939z"/>
<path style="fill:#0090A4;" d="M512,256c0,0.459,0,0.935,0,1.394L347.865,437.939l152.051-259.881
	C507.771,202.64,512,228.821,512,256z"/>
<polygon style="fill:#00AAA8;" points="499.916,178.058 347.865,437.939 328.066,115.622 "/>
<path style="fill:#05AAE7;" d="M499.916,178.058l-171.849-62.436l23.314-97.249C421.767,46.629,476.68,105.264,499.916,178.058z"/>
<path style="fill:#AAD128;" d="M351.382,18.372l-23.314,97.249L278.175,0.951C303.848,3.152,328.43,9.139,351.382,18.372z"/>
<path style="fill:#E0E500;" d="M278.175,0.951l49.892,114.672L142.152,26.641C176.442,9.599,215.105,0,256,0
	C263.477,0,270.872,0.317,278.175,0.951z"/>
<path style="fill:#FA9A00;" d="M151.449,196.399L96.03,221.741l-55.435,76.817L0.618,238.229c0.966-14.302,3.12-28.272,6.367-41.83
	H151.449z"/>
<path style="fill:#FECE00;" d="M328.066,115.622l-176.617,80.777H6.984C24.755,121.863,75.107,59.996,142.152,26.641
	L328.066,115.622z"/>
<path style="fill:#FFFFFF;" d="M508.263,299.873c-3.516,20.273-9.393,39.739-17.375,58.081H353.329
	c-17.835,0-30.648-17.185-25.547-34.29c8.378-28.051,19.64-65.635,24.629-81.854c8.442-27.464-39.074-46.471-52.806-11.625
	c-13.717,34.845-21.113,69.69-29.555,99.261c-8.458,29.571-26.925,31.677-41.719,26.925c-14.777-4.752-16.884-23.758-13.717-35.906
	c3.168-12.133,19.006-70.212,21.636-78.132c2.645-7.919,3.168-25.342-14.254-28.51c-17.423-3.168-39.058,2.106-46.978,35.367
	c-7.919,33.261-17.96,69.69-21.652,81.839c-3.69,12.148-9.504,24.281-32.739,27.448c-23.219,3.167-26.388-24.281-20.59-41.181
	c5.812-16.884,25.88-95.554,25.88-95.554H2.281c2.693-20.21,7.745-39.66,14.888-58.081h159.954c8.743,0,15.839,7.096,15.839,15.839
	c0,0,5.021-5.021,13.732-10.025c8.711-5.005,21.113-10.026,35.89-10.026c29.571,0,47.516,29.555,47.516,29.555
	s30.631-36.952,84.483-27.448s39.058,74.964,32.723,95.031s-13.717,43.287-13.717,43.287L508.263,299.873L508.263,299.873z"/>
<g>
</g>
<g>
</g>
<g>
</g>
<g>
</g>
<g>
</g>
<g>
</g>
<g>
</g>
<g>
</g>
<g>
</g>
<g>
</g>
<g>
</g>
<g>
</g>
<g>
</g>
<g>
</g>
<g>
</g>
</svg>
