<?xml version="1.0" encoding="iso-8859-1"?>
<!-- Generator: Adobe Illustrator 19.0.0, SVG Export Plug-In . SVG Version: 6.00 Build 0)  -->
<svg version="1.1" id="Capa_1" xmlns="http://www.w3.org/2000/svg" xmlns:xlink="http://www.w3.org/1999/xlink" x="0px" y="0px"
	 viewBox="0 0 512 512" style="enable-background:new 0 0 512 512;" xml:space="preserve">
<path style="fill:#353535;" d="M512,256c0,141.385-114.615,256-256,256c-115.973,0-213.922-77.113-245.394-182.857
	c-5.371-18.035-8.808-36.895-10.062-56.362C0.178,267.233,0,261.642,0,256C0,114.615,114.615,0,256,0S512,114.615,512,256z"/>
<g>
	<path style="fill:#F0EFEB;" d="M243.524,365.154h-78.549l-19.642,93.838h98.191c21.244,0,39.837-14.273,45.326-34.796l0,0
		C296.818,394.402,274.365,365.154,243.524,365.154z"/>
	<path style="fill:#F0EFEB;" d="M265.885,235.308h-78.549l-19.642,93.838h98.191c21.244,0,39.837-14.273,45.326-34.796l0,0
		C319.18,264.556,296.726,235.308,265.885,235.308z"/>
	<path style="fill:#F0EFEB;" d="M431.2,310.597h-78.549l-19.642,93.838H431.2c21.244,0,39.837-14.273,45.326-34.796l0,0
		C484.495,339.845,462.042,310.597,431.2,310.597z"/>
	<path style="fill:#F0EFEB;" d="M453.561,180.751h-78.549l-19.642,93.838h98.191c21.244,0,39.837-14.273,45.326-34.796l0,0
		C506.856,209.998,484.403,180.751,453.561,180.751z"/>
	<path style="fill:#F0EFEB;" d="M293.717,105.463h-78.549l-19.642,93.838h98.191c21.244,0,39.837-14.273,45.326-34.796l0,0
		C347.011,134.709,324.558,105.463,293.717,105.463z"/>
	<path style="fill:#F0EFEB;" d="M133.883,282.133c0,4.012-0.522,8.108-1.62,12.215c-5.486,20.522-24.085,34.795-45.328,34.795
		h-76.33c-5.371-18.035-8.808-36.895-10.062-56.362l7.847-37.47h78.545C113.528,235.311,133.883,257.045,133.883,282.133z"/>
	<path style="fill:#F0EFEB;" d="M114.768,105.463H36.219l-19.642,93.838h98.191c21.244,0,39.837-14.273,45.326-34.796l0,0
		C168.063,134.709,145.611,105.463,114.768,105.463z"/>
</g>
<g>
</g>
<g>
</g>
<g>
</g>
<g>
</g>
<g>
</g>
<g>
</g>
<g>
</g>
<g>
</g>
<g>
</g>
<g>
</g>
<g>
</g>
<g>
</g>
<g>
</g>
<g>
</g>
<g>
</g>
</svg>
