<?xml version="1.0" encoding="iso-8859-1"?>
<!-- Generator: Adobe Illustrator 19.0.0, SVG Export Plug-In . SVG Version: 6.00 Build 0)  -->
<svg version="1.1" id="Capa_1" xmlns="http://www.w3.org/2000/svg" xmlns:xlink="http://www.w3.org/1999/xlink" x="0px" y="0px"
	 viewBox="0 0 512 512" style="enable-background:new 0 0 512 512;" xml:space="preserve">
<path style="fill:#F0EFEB;" d="M512,256c0,36.415-7.607,71.053-21.305,102.41c-5.883,13.479-12.904,26.342-20.908,38.484
	C423.978,466.244,345.328,512,256,512C130.79,512,26.582,422.118,4.378,303.355c-1.62-8.673-2.811-17.492-3.532-26.446
	c-0.115-1.358-0.219-2.727-0.303-4.096c-0.209-3.302-0.366-6.614-0.449-9.947C0.031,260.587,0,258.299,0,256
	c0-2.664,0.042-5.319,0.125-7.962c0.073-2.508,0.188-5.016,0.345-7.502c0.125-2.194,0.282-4.368,0.47-6.541
	c0.606-7.168,1.515-14.242,2.706-21.222C24.179,91.972,129.348,0,256,0c98.576,0,184.132,55.714,226.91,137.362
	c4.315,8.234,8.192,16.729,11.598,25.454c5.413,13.855,9.665,28.296,12.601,43.207v0.01c1.954,9.77,3.333,19.759,4.117,29.915v0.01
	C511.739,242.573,512,249.25,512,256z"/>
<g>
	<path style="fill:#FF6A17;" d="M71.502,190.966c-30.887,0-50.573,17.962-57.543,43.029H0.94c-0.188,2.173-0.345,4.347-0.47,6.541
		c-0.157,2.487-0.272,4.995-0.345,7.502h11.337c-0.219,2.476-0.345,5.005-0.345,7.565c0,2.456,0.115,4.88,0.313,7.262H0.094
		c0.084,3.333,0.24,6.646,0.449,9.947c0.084,1.369,0.188,2.738,0.303,4.096h13.04c6.896,25.213,26.614,43.321,57.616,43.321
		c39.215,0,60.385-28.933,60.385-64.627S110.717,190.966,71.502,190.966z M71.502,301.004c-16.436,0-27.638-9.759-32.967-24.095
		H56.33l8.014-14.043H35.338c-0.251-2.361-0.376-4.796-0.376-7.262c0-2.581,0.136-5.11,0.408-7.565h35.265l8.014-14.043H38.64
		c5.371-14.179,16.53-23.803,32.862-23.803c23.73,0,36.551,20.323,36.551,45.411C108.053,280.68,95.232,301.004,71.502,301.004z"/>
	<path style="fill:#FF6A17;" d="M231.225,310.29l-53.514-53.514l49-46.17c3.808-3.587,1.269-9.984-3.962-9.984h-10.713
		c-2.141,0-4.202,0.819-5.757,2.29l-41.281,39.029v-31.169c0-5.313-4.308-9.621-9.621-9.621h-4.331
		c-5.313,0-9.621,4.307-9.621,9.621v99.834c0,5.313,4.308,9.621,9.621,9.621h4.331c5.313,0,9.621-4.308,9.621-9.621v-37.6
		l44.692,44.692c1.572,1.572,3.703,2.454,5.926,2.454h11.524C232.288,320.154,234.866,313.93,231.225,310.29z"/>
</g>
<g>
	<path style="fill:#EE551E;" d="M317.503,201.153h-40.95c-5.642,0-10.23,4.577-10.23,10.23V310c0,5.653,4.587,10.23,10.23,10.23
		h3.124c5.642,0,10.219-4.577,10.219-10.23v-34.712h27.606c18.766,0,33.97-15.203,33.97-33.97v-6.196
		C351.472,216.357,336.269,201.153,317.503,201.153z M328.871,240.765c0,9.226-7.481,16.718-16.718,16.718h-18.651
		c-1.985,0-3.605-1.62-3.605-3.605v-29.55c0-1.985,1.62-3.605,3.605-3.605h18.651c9.237,0,16.718,7.481,16.718,16.718V240.765z"/>
	<path style="fill:#EE551E;" d="M449.431,314.786l-41.65-103.152c-5.799-14.357-26.122-14.357-31.911,0l-41.639,103.152
		c-1.212,2.988,0.993,6.249,4.211,6.249h10.574c3.929,0,7.461-2.393,8.934-6.029l10.522-26.06h46.717l10.512,26.06
		c1.473,3.636,5.005,6.029,8.934,6.029h10.585C448.439,321.034,450.633,317.774,449.431,314.786z M405.41,270.879h-27.178
		c-1.181,0-1.985-1.202-1.546-2.299l15.141-37.501l15.141,37.501C407.406,269.678,406.601,270.879,405.41,270.879z"/>
	<path style="fill:#EE551E;" d="M511.227,235.948v0.01l-20.992,29.623V310c0,5.653-4.577,10.23-10.23,10.23h-3.114
		c-5.653,0-10.23-4.577-10.23-10.23v-46.08l-39.246-55.4c-1.829-2.591,0.021-6.175,3.197-6.175h14.064
		c2.309,0,4.472,1.118,5.81,3.009l28.547,40.302l28.076-39.623C509.064,215.803,510.443,225.792,511.227,235.948z"/>
</g>
<g>
</g>
<g>
</g>
<g>
</g>
<g>
</g>
<g>
</g>
<g>
</g>
<g>
</g>
<g>
</g>
<g>
</g>
<g>
</g>
<g>
</g>
<g>
</g>
<g>
</g>
<g>
</g>
<g>
</g>
</svg>
