<?xml version="1.0" encoding="iso-8859-1"?>
<!-- Generator: Adobe Illustrator 19.0.0, SVG Export Plug-In . SVG Version: 6.00 Build 0)  -->
<svg version="1.1" id="Capa_1" xmlns="http://www.w3.org/2000/svg" xmlns:xlink="http://www.w3.org/1999/xlink" x="0px" y="0px"
	 viewBox="0 0 512 512" style="enable-background:new 0 0 512 512;" xml:space="preserve">
<path style="fill:#65350F;" d="M512,256c0,127.07-92.578,232.521-213.964,252.552c-3.218,0.543-6.468,1.014-9.728,1.421
	C277.723,511.31,266.94,512,256,512c-9.341,0-18.568-0.502-27.648-1.484c-3.208-0.345-6.405-0.752-9.571-1.212
	C95.033,491.29,0,384.742,0,256c0-18.902,2.048-37.334,5.945-55.077c8.819-40.281,27.136-77.009,52.485-107.719
	C105.378,36.279,176.452,0,256,0c77.772,0,147.435,34.68,194.382,89.412c29.268,34.105,49.695,76.006,57.762,122.149
	C510.683,225.991,512,240.839,512,256z"/>
<path style="fill:#F0EFEB;" d="M508.144,211.56c-3.312,12.852-9.091,25.224-17.335,36.362l-101.47,137.111l0.167,0.209
	l-91.47,123.308c-3.218,0.543-6.468,1.014-9.728,1.421C277.723,511.31,266.94,512,256,512c-9.341,0-18.568-0.502-27.648-1.484
	c-3.208-0.345-6.405-0.752-9.571-1.212l-92.024-124.061l0.157-0.209L25.443,247.923c-10.501-14.2-17-30.365-19.498-47
	c-0.794-5.214-1.191-10.48-1.191-15.747c0-22.089,6.928-44.178,20.762-62.84c9.226-12.434,20.49-22.141,32.914-29.132
	c15.987-9.007,33.896-13.511,51.806-13.511c31.859,0,63.707,14.252,84.793,42.736c15.684,21.201,39.393,31.817,63.101,31.817
	s47.417-10.616,63.101-31.817c31.117-42.068,85.723-53.081,129.149-33.019c15.36,7.074,29.33,18.056,40.354,32.925
	C510.13,148.48,515.939,181.373,508.144,211.56z"/>
<g>
</g>
<g>
</g>
<g>
</g>
<g>
</g>
<g>
</g>
<g>
</g>
<g>
</g>
<g>
</g>
<g>
</g>
<g>
</g>
<g>
</g>
<g>
</g>
<g>
</g>
<g>
</g>
<g>
</g>
</svg>
