<svg id="Layer_1" height="512" viewBox="0 0 512 512" width="512" xmlns="http://www.w3.org/2000/svg" data-name="Layer 1"><path d="m46 70.621c0-21.33 17.78-38.621 39.72-38.621h-30c-21.94 0-39.72 17.291-39.72 38.621v370.71c0-18.07 12.761-33.235 30-37.451z" fill="#d4e1f4"/><g fill="#0635c9"><path d="m309.9 480v-72.242l12.455-.046a6 6 0 0 0 5.978-6v-296.784h-12v290.806l-260.616.976a46.1 46.1 0 0 0 -33.717 14.53v-340.622c0-17.218 13.867-31.355 31.365-32.529v84.941a8.609 8.609 0 0 0 13.189 7.282l.61-.383 17.043-17.542 17.042 17.541.61.384a8.608 8.608 0 0 0 13.189-7.282v-85.03h201.289v43.031h12v-49.031a6 6 0 0 0 -6-6h-266.616c-25.211 0-45.721 20.015-45.721 44.618v370.737.027c0 24.603 20.51 44.618 45.721 44.618h248.179a6 6 0 0 0 6-6zm-206.852-365.441-13.648-14.049-.609-.383a8.658 8.658 0 0 0 -9.164 0l-.61.383-13.65 14.05v-76.56h37.683zm194.852 359.441h-242.179c-18.594 0-33.721-14.632-33.721-32.673 0-17.985 15.127-32.617 33.743-32.617l242.157-.91z"/><path d="m180.168 213.738a6 6 0 0 0 -6-6h-22.15a6 6 0 1 0 0 12h22.15a6 6 0 0 0 6-6z"/><path d="m69.868 219.738h60.142a6 6 0 0 0 0-12h-60.142a6 6 0 1 0 0 12z"/><path d="m154.168 257.666h-53.468a6 6 0 1 0 0 12h53.468a6 6 0 0 0 0-12z"/><path d="m69.868 269.666h9.18a6 6 0 0 0 0-12h-9.18a6 6 0 1 0 0 12z"/><path d="m154.168 307.666h-.042a6.021 6.021 0 1 0 .042 0z"/><path d="m69.868 319.666h62.18a6 6 0 0 0 0-12h-62.18a6 6 0 1 0 0 12z"/></g><path d="m484.775 213.605a143.005 143.005 0 0 0 -42.647-97.369 147.138 147.138 0 0 0 -206.233.008 143.039 143.039 0 0 0 -42.659 97.773 24.1 24.1 0 0 0 -15.965 22.646v74.037a24.114 24.114 0 0 0 24.11 24.063h44.4a8.25 8.25 0 0 0 8.244-8.238v-105.686a8.251 8.251 0 0 0 -8.244-8.239h-16.416a107.7 107.7 0 0 1 32.016-71.059 111.051 111.051 0 0 1 155.594-.006 107.677 107.677 0 0 1 32.018 71.065h-15.5a8.251 8.251 0 0 0 -8.244 8.239v105.686a8.25 8.25 0 0 0 8.244 8.238h23.695a42.26 42.26 0 0 1 -28.152 33.931l-.122.042a42.669 42.669 0 0 1 -33.154-2.4l-29.639-15.226c-13.582-6.978-26.467-9.43-37.784-7.269v12.3c9.157-2.568 20-.678 32.3 5.641l29.639 15.226a54.721 54.721 0 0 0 42.524 3.082l.123-.042a54.259 54.259 0 0 0 36.363-45.285h8.6a24.114 24.114 0 0 0 24.114-24.063v-74.037a24.109 24.109 0 0 0 -17.225-23.058zm-255.258 11h12.5v98.163h-12.5zm-12 98.163h-16.136a12.1 12.1 0 0 1 -12.11-12.063v-74.042a12.1 12.1 0 0 1 12.11-12.063h16.136zm232.237 0h-12.5v-98.168h12.5zm-24.34-189.768a123.052 123.052 0 0 0 -172.473.007 119.615 119.615 0 0 0 -35.6 79.59h-12.041a131.108 131.108 0 0 1 39.039-87.825 135.141 135.141 0 0 1 189.356-.008 131.083 131.083 0 0 1 39.036 87.836h-11.716a119.594 119.594 0 0 0 -35.601-79.6zm64.586 177.7a12.1 12.1 0 0 1 -12.11 12.063h-16.136v-98.163h16.136a12.1 12.1 0 0 1 12.11 12.063z" fill="#1ae5be"/></svg>