<svg id="Layer_1" height="512" viewBox="0 0 512 512" width="512" xmlns="http://www.w3.org/2000/svg" data-name="Layer 1"><path d="m86.62 384.481v-218.261a20.221 20.221 0 0 1 17.339-20l-27.089-.23a20.238 20.238 0 0 0 -20.25 20.23v218.261a20.238 20.238 0 0 0 20.25 20.23h30a20.238 20.238 0 0 1 -20.25-20.23z" fill="#d4e1f4"/><path d="m475.747 168.48h-19.076v12h19.076a14.258 14.258 0 0 1 14.253 14.231v231.089a14.258 14.258 0 0 1 -14.253 14.231h-247.371v-35.32h-12v68.7l-7.785-7.4a7.792 7.792 0 0 0 -10.744 0l-7.784 7.4v-68.7h-12v35.614l-141.81-.294a14.258 14.258 0 0 1 -14.253-14.231v-231.089a14.258 14.258 0 0 1 14.253-14.231h20.363v-12h-20.363a26.272 26.272 0 0 0 -26.253 26.231v231.089a26.269 26.269 0 0 0 26.241 26.231l141.822.294v30.875a7.8 7.8 0 0 0 13.168 5.649l11.989-11.395 11.987 11.394a7.8 7.8 0 0 0 13.169-5.648v-31.172h247.371a26.272 26.272 0 0 0 26.253-26.228v-231.089a26.272 26.272 0 0 0 -26.253-26.231z" fill="#1ae5be"/><g fill="#0635c9"><path d="m436.418 139.992h-35.218v12h35.217a14.258 14.258 0 0 1 14.253 14.231v232.485h-172.182a9.088 9.088 0 0 0 -6.371 2.587l-9.614 9.352-2-200.063-12 .12 2 199.666-9.331-9.075a9.084 9.084 0 0 0 -6.37-2.587h-157.932a14.259 14.259 0 0 1 -14.254-14.231v-218.254a14.247 14.247 0 0 1 14.2-14.231l48.944.416.1-12-48.994-.417a26.272 26.272 0 0 0 -26.254 26.231v218.255a26.273 26.273 0 0 0 26.258 26.231h156.766l16.636 16.181a9.089 9.089 0 0 0 12.743 0l16.636-16.181h175.017a8.011 8.011 0 0 0 8-8v-236.485a26.272 26.272 0 0 0 -26.25-26.231z"/><path d="m209.955 250.9h-58.672a6 6 0 1 0 0 12h58.672a6 6 0 0 0 0-12z"/><path d="m129.3 250.9h-33.437a6 6 0 0 0 0 12h33.437a6 6 0 1 0 0-12z"/><path d="m209.955 301.479h-14.762a6 6 0 0 0 0 12h14.762a6 6 0 0 0 0-12z"/><path d="m89.863 307.479a6 6 0 0 0 6 6h77.046a6 6 0 0 0 0-12h-77.046a6 6 0 0 0 -6 6z"/><path d="m412.487 262.9a6 6 0 0 0 0-12h-14.6a6 6 0 0 0 0 12z"/><path d="m376.177 250.9h-77.783a6 6 0 0 0 0 12h77.783a6 6 0 0 0 0-12z"/><path d="m334.36 307.479a6 6 0 0 0 6 6h72.127a6 6 0 0 0 0-12h-72.127a6 6 0 0 0 -6 6z"/><path d="m298.394 313.479h18.215a6 6 0 0 0 0-12h-18.215a6 6 0 0 0 0 12z"/><path d="m197.677 64.4a23 23 0 1 0 -23 23 23.026 23.026 0 0 0 23-23zm-34 0a11 11 0 1 1 11 11 11.012 11.012 0 0 1 -11-11z"/><path d="m138.73 119.842 11.979.708a18.008 18.008 0 0 1 17.968-16.918h12a18.012 18.012 0 0 1 17.967 16.9l11.978-.721a30.026 30.026 0 0 0 -29.945-28.176h-12a30.021 30.021 0 0 0 -29.947 28.207z"/></g><path d="m137.556 352.056a6 6 0 1 0 0 12h72.4a6 6 0 0 0 0-12z" fill="#1ae5be"/><path d="m95.863 364.056h19.577a6 6 0 0 0 0-12h-19.577a6 6 0 0 0 0 12z" fill="#1ae5be"/><path d="m374.543 352.056a6 6 0 0 0 0 12h37.944a6 6 0 0 0 0-12z" fill="#1ae5be"/><path d="m298.394 352.056a6 6 0 0 0 0 12h51.966a6 6 0 0 0 0-12z" fill="#1ae5be"/><path d="m118.815 156.7a59.4 59.4 0 0 0 59.359 59.3h170.749a59.3 59.3 0 0 0 16.263-116.333 59.394 59.394 0 0 0 -72.162-50.885 80.754 80.754 0 0 0 -89.672-20.095 57.375 57.375 0 0 0 -70.759 88.743 64.669 64.669 0 0 0 -13.778 39.27zm114.853-121.919a68.561 68.561 0 0 1 52.7 24.6 6 6 0 0 0 6.323 1.895 47.364 47.364 0 0 1 60.855 43.424 6 6 0 0 0 4.81 5.648 47.3 47.3 0 0 1 -9.433 93.652h-170.749a47.384 47.384 0 0 1 -47.359-47.3 53.065 53.065 0 0 1 10.842-31.37 57.382 57.382 0 0 0 73.188-87.93 68.59 68.59 0 0 1 18.823-2.619zm-58.991-1.781a45.4 45.4 0 1 1 -45.477 45.4 45.486 45.486 0 0 1 45.477-45.4z" fill="#1ae5be"/></svg>