<svg id="Layer_1" height="512" viewBox="0 0 512 512" width="512" xmlns="http://www.w3.org/2000/svg" data-name="Layer 1"><path d="m153.43 19.291a33.995 33.995 0 0 0 -34.19 33.79l-.75 260.4 30.014-53.23.736-207.17a33.995 33.995 0 0 1 34.19-33.79z" fill="#d4e1f4"/><g fill="#0635c9"><path d="m299.939 15.028a6 6 0 0 0 -4.218-1.733h-142.3c-22.157 0-40.183 17.849-40.183 39.771l-.756 280.394 12 .032.756-280.409a28.019 28.019 0 0 1 28.188-27.783h136.3v45.639a40.032 40.032 0 0 0 40.174 39.787h46.248v219.105h12v-225.1a6 6 0 0 0 -1.783-4.267zm1.782 55.911v-37.277l65.825 65.064h-37.646a28.019 28.019 0 0 1 -28.179-27.787z"/><path d="m274.423 63.937a5.959 5.959 0 0 0 5.952-6 6.025 6.025 0 1 0 -6.049 6z"/><path d="m249.75 63.937a6 6 0 0 0 0-12h-35.65a6 6 0 0 0 0 12z"/><path d="m184.525 51.937h-30.656a6 6 0 0 0 0 12h30.656a6 6 0 0 0 0-12z"/><path d="m187.646 108.34a6 6 0 0 0 6 6h80.68a6 6 0 0 0 0-12h-80.68a6 6 0 0 0 -6 6z"/><path d="m153.869 114.34h17.9a6 6 0 0 0 0-12h-17.9a6 6 0 0 0 0 12z"/><path d="m333.888 152.743h-78.372a6 6 0 0 0 0 12h78.372a6 6 0 0 0 0-12z"/><path d="m221.992 152.743a6 6 0 0 0 0 12h11.414a6 6 0 0 0 0-12z"/><path d="m199.836 152.743h-45.967a6 6 0 1 0 0 12h45.967a6 6 0 0 0 0-12z"/><path d="m333.888 203.146h-30.068a6 6 0 0 0 0 12h30.068a6 6 0 0 0 0-12z"/><path d="m281.924 203.146h-67.824a6 6 0 0 0 0 12h67.827a6 6 0 0 0 0-12z"/><path d="m190.905 203.146h-37.036a6 6 0 0 0 0 12h37.036a6 6 0 0 0 0-12z"/></g><path d="m386.225 324.657a75.245 75.245 0 0 0 -92.592-65.534 102.914 102.914 0 0 0 -179.325 68.977v.644a75.26 75.26 0 0 0 30.921 143.861h90.771l.06 19.769a6 6 0 0 0 5.93 5.981l29.771.348h.07a6 6 0 0 0 6-6.018l-.061-20.08h89a75.258 75.258 0 0 0 19.456-147.95zm-120.416 161.977-17.771-.207-.235-77.19a11.073 11.073 0 0 0 -10.939-11.21l-17.9-.209 38.06-52.772a1.938 1.938 0 0 1 1.243-.449 1.94 1.94 0 0 1 1.192.411l35.862 53.7-18.552-.216a11.09 11.09 0 0 0 -11.2 11.038zm145.662-44.56a62.794 62.794 0 0 1 -44.7 18.533h-89.04l-.152-50.105 28.717.335a6.157 6.157 0 0 0 4.932-9.928l-42.134-63.092a6.011 6.011 0 0 0 -.586-.744 14 14 0 0 0 -10.208-4.473h-.026a14 14 0 0 0 -10.205 4.44 6.183 6.183 0 0 0 -.478.582l-44.521 61.722a6.271 6.271 0 0 0 4.69 10.344l28.046.327.153 50.592h-90.728a63.262 63.262 0 0 1 -22.664-122.3 6 6 0 0 0 3.845-5.873c-.07-1.559-.1-2.975-.1-4.327a90.913 90.913 0 0 1 160.66-58.355 6 6 0 0 0 6.329 1.9 63.222 63.222 0 0 1 81.254 58.075 6 6 0 0 0 4.808 5.648 63.248 63.248 0 0 1 32.112 106.706z" fill="#1ae5be"/></svg>