<svg id="Layer_1" height="512" viewBox="0 0 512 512" width="512" xmlns="http://www.w3.org/2000/svg" data-name="Layer 1"><path d="m168.95 108.14c0 .381 0 .761.02 1.14a57.085 57.085 0 0 0 -45.65 54c-1.07 32.451 25.47 59.011 57.93 59.011l27.928-.053c-31.507-1.1-56.9-27.2-55.858-58.958a57.085 57.085 0 0 1 45.65-54c-.02-.379-.02-.759-.02-1.14a71.367 71.367 0 0 1 56.377-69.763 71.41 71.41 0 0 0 -86.377 69.763z" fill="#d4e1f4"/><g fill="#1ae5be"><path d="m48.434 395.628h43.816a6 6 0 0 0 0-12h-43.816a6 6 0 0 0 0 12z"/><path d="m48.434 375.49h43.816a6 6 0 0 0 0-12h-43.816a6 6 0 1 0 0 12z"/><path d="m232.532 395.628h43.815a6 6 0 0 0 0-12h-43.815a6 6 0 1 0 0 12z"/><path d="m232.532 375.49h43.815a6 6 0 0 0 0-12h-43.815a6 6 0 0 0 0 12z"/><path d="m501 306.046h-54.539l-.161-24.653a25.624 25.624 0 0 0 -25.613-25.578h-159.487v-34.238h-12v34.238h-158.394a25.625 25.625 0 0 0 -25.614 25.578v24.653h-39.746a20.281 20.281 0 0 0 -20.446 20.065v135.037a20.281 20.281 0 0 0 20.446 20.065h96.832a6 6 0 0 0 6-6v-22.15h1.406a6 6 0 0 0 6-6v-135.017a6 6 0 0 0 -6-6h-52.492v-24.653a13.611 13.611 0 0 1 13.614-13.578h158.394v38.231h-39.656a20.281 20.281 0 0 0 -20.444 20.065v135.037a20.281 20.281 0 0 0 20.446 20.065h96.832a6 6 0 0 0 6-6v-22.15h1.406a6 6 0 0 0 6-6v-135.017a6 6 0 0 0 -6-6h-52.584v-38.231h159.487a13.619 13.619 0 0 1 13.613 13.617l.16 24.614h-37.7a20.281 20.281 0 0 0 -20.446 20.065v135.037a20.281 20.281 0 0 0 20.446 20.065h96.832a6 6 0 0 0 6-6v-22.15h1.408a6 6 0 0 0 6-6v-135.017a6 6 0 0 0 -6-6zm-384.722 163.167h-90.832a8.083 8.083 0 1 1 0-16.15h90.832zm7.406-28.15h-98.238a20.658 20.658 0 0 0 -8.446 1.793v-116.745a8.272 8.272 0 0 1 8.446-8.065h98.238zm176.692 28.15h-90.832a8.083 8.083 0 1 1 0-16.15h90.832zm7.406-28.15h-98.238a20.658 20.658 0 0 0 -8.446 1.793v-116.745a8.272 8.272 0 0 1 8.446-8.065h98.238zm179.812 28.15h-90.832a8.083 8.083 0 1 1 0-16.15h90.832zm7.406-28.15h-98.238a20.658 20.658 0 0 0 -8.446 1.793v-116.745a8.272 8.272 0 0 1 8.446-8.065h98.238z"/><path d="m419.75 395.628h43.816a6 6 0 0 0 0-12h-43.816a6 6 0 0 0 0 12z"/><path d="m419.75 375.49h43.816a6 6 0 1 0 0-12h-43.816a6 6 0 0 0 0 12z"/></g><path d="m353.184 93.977a41.7 41.7 0 0 0 -54.218-36.25 77.347 77.347 0 0 0 -135.929 46.819 62.783 62.783 0 0 0 -45.71 58.541 62.148 62.148 0 0 0 17.66 45.618 64.7 64.7 0 0 0 46.267 19.589h.011l148.443-.28c.18 0 .36-.008.54-.026a71.4 71.4 0 0 0 45.457-22.188 69.446 69.446 0 0 0 19-47.142 70.561 70.561 0 0 0 -41.521-64.681zm13.782 103.6a59.408 59.408 0 0 1 -37.558 18.436l-148.163.28a51.935 51.935 0 0 1 -37.633-15.932 50.248 50.248 0 0 1 -14.292-36.877 50.839 50.839 0 0 1 40.84-48.327 6 6 0 0 0 4.8-6.1c-.011-.306-.009-.612-.009-.925a65.343 65.343 0 0 1 117.317-39.61 6 6 0 0 0 7.232 1.835 29.682 29.682 0 0 1 41.826 27.076v.4a6 6 0 0 0 3.863 5.813 58.48 58.48 0 0 1 37.52 54.915 57.479 57.479 0 0 1 -15.743 39.017z" fill="#0635c9"/></svg>