<svg id="Layer_1" height="512" viewBox="0 0 512 512" width="512" xmlns="http://www.w3.org/2000/svg" data-name="Layer 1"><path d="m112.84 394.16v-207.6a4.354 4.354 0 0 1 4.36-4.349h-30a4.354 4.354 0 0 0 -4.36 4.349v207.6a4.355 4.355 0 0 0 4.36 4.35h30a4.355 4.355 0 0 1 -4.36-4.35z" fill="#d4e1f4"/><path d="m88.836 392.509v-204.294h30.158v-12h-31.794a10.365 10.365 0 0 0 -10.361 10.346v207.6a10.365 10.365 0 0 0 10.361 10.348h342.049a10.365 10.365 0 0 0 10.361-10.346v-207.6a10.365 10.365 0 0 0 -10.361-10.346h-30.117v12h28.478v204.292z" fill="#0635c9"/><path d="m479.771 430.342v-265.807a30.208 30.208 0 0 0 -30.214-30.135h-51.191v12h51.191a18.2 18.2 0 0 1 18.214 18.134v265.328h-141.994a18.107 18.107 0 0 0 -18.107 18.067 6.094 6.094 0 0 1 -6.107 6.071h-96.854a6.094 6.094 0 0 1 -6.107-6.067 18.108 18.108 0 0 0 -18.102-18.071h-131.825v-265.327a18.2 18.2 0 0 1 18.214-18.135h52.871v-12h-52.871a30.208 30.208 0 0 0 -30.214 30.134v265.356a32.693 32.693 0 0 0 1.112 65.37h436.426a32.689 32.689 0 0 0 5.558-64.918zm9.155 46.841a20.693 20.693 0 0 1 -14.713 6.077h-436.426a20.7 20.7 0 1 1 0-41.4h142.713a6.094 6.094 0 0 1 6.107 6.067 18.108 18.108 0 0 0 18.102 18.073h96.854a18.108 18.108 0 0 0 18.107-18.067 6.094 6.094 0 0 1 6.107-6.067h148.436a20.77 20.77 0 0 1 20.787 20.675 20.521 20.521 0 0 1 -6.074 14.642z" fill="#0635c9"/><g fill="#1ae5be"><path d="m403.772 325.071h-238.413a6 6 0 0 0 0 12h238.413a6 6 0 1 0 0-12z"/><path d="m140.411 325.071h-27.969a6 6 0 0 0 0 12h27.969a6 6 0 0 0 0-12z"/><path d="m403.772 359.753h-238.413a6 6 0 1 0 0 12h238.413a6 6 0 0 0 0-12z"/><path d="m140.411 359.753h-27.969a6 6 0 0 0 0 12h27.969a6 6 0 0 0 0-12z"/><path d="m221.726 157.883h-.2a6 6 0 0 0 0 12h.2a6 6 0 0 0 0-12z"/><path d="m406.313 163.883c0-81.135-66.056-147.144-147.251-147.144s-147.25 66.009-147.25 147.144 66.056 147.143 147.25 147.143 147.251-66.009 147.251-147.143zm-253.268 83.817a134.4 134.4 0 0 1 -29.093-77.817h48.581a197.305 197.305 0 0 0 8.989 54.842 146.941 146.941 0 0 0 -28.477 22.975zm28.478-144.658a197.328 197.328 0 0 0 -8.99 54.841h-48.581a134.4 134.4 0 0 1 29.093-77.818 146.981 146.981 0 0 0 28.478 22.977zm3.013 66.841h15.233a6 6 0 0 0 0-12h-15.233a186.225 186.225 0 0 1 7.679-48.834 146.939 146.939 0 0 0 60.847 15.851v32.979h-9.484a6 6 0 0 0 0 12h9.484v32.979a147.015 147.015 0 0 0 -60.848 15.856 186.24 186.24 0 0 1 -7.678-48.831zm180.564-89.792a134.394 134.394 0 0 1 29.072 77.792h-48.59c-.11-4.062-.322-8.105-.654-12.075a203.446 203.446 0 0 0 -2.721-20.292 187.7 187.7 0 0 0 -5.579-22.329 145.41 145.41 0 0 0 28.472-23.096zm-28.5 144.469q2.329-7.314 4.1-15.038a197.815 197.815 0 0 0 3.6-21.256c.688-6.015 1.117-12.175 1.285-18.383h48.582a134.4 134.4 0 0 1 -29.067 77.792 145.435 145.435 0 0 0 -28.494-23.115zm-71.544-9.716a133.488 133.488 0 0 1 56.915 15.175c-11.574 29.917-31.22 53.153-56.915 67.024zm0-12.011v-32.95h68.525c-.166 5.75-.567 11.454-1.2 17.02a185.453 185.453 0 0 1 -3.381 19.961q-1.358 5.976-3.086 11.682a145.347 145.347 0 0 0 -60.852-15.713zm65.35-75.115a191.609 191.609 0 0 1 2.559 19.09c.3 3.64.5 7.348.607 11.075h-68.51v-32.957a145.538 145.538 0 0 0 60.857-15.714 176.54 176.54 0 0 1 4.493 18.506zm-65.35-14.8v-82.188c25.844 13.925 45.411 37.091 56.944 67.013a133.536 133.536 0 0 1 -56.938 15.176zm-12-.025a135.187 135.187 0 0 1 -56.874-15.308c11.485-29.55 31.015-52.9 56.874-66.855zm0 101.978v82.17c-25.863-13.963-45.4-37.316-56.88-66.871a135.1 135.1 0 0 1 56.886-15.298zm35.882 80.829c18.94-14.871 33.759-35.147 43.517-59.55a133.382 133.382 0 0 1 24.745 20.634 135.3 135.3 0 0 1 -68.262 38.916zm68.262-224.718a133.455 133.455 0 0 1 -24.713 20.618c-9.724-24.412-24.5-44.647-43.5-59.524a135.282 135.282 0 0 1 68.213 38.906zm-127.966-38.924c-19.051 14.942-33.841 35.242-43.544 59.408a134.9 134.9 0 0 1 -24.743-20.5 135.287 135.287 0 0 1 68.287-38.908zm-68.287 224.742a134.928 134.928 0 0 1 24.739-20.5c9.7 24.16 24.489 44.467 43.537 59.41a135.288 135.288 0 0 1 -68.276-38.91z"/></g></svg>