<svg id="Layer_1" height="512" viewBox="0 0 512 512" width="512" xmlns="http://www.w3.org/2000/svg" data-name="Layer 1"><path d="m238.16 214.14v-126.23a34.906 34.906 0 0 1 34.92-34.91h-30a34.906 34.906 0 0 0 -34.92 34.91v126.23a34.906 34.906 0 0 0 34.92 34.91h30a34.906 34.906 0 0 1 -34.92-34.91z" fill="#d4e1f4"/><path d="m310 249.05h-30v45.771l30-20.836z" fill="#d4e1f4"/><g fill="#0635c9"><path d="m69.82 206.122v173.433a9.642 9.642 0 0 0 9.631 9.631h284.832a9.642 9.642 0 0 0 9.631-9.631v-130.5h-12v128.131h-280.094v-168.686l126.329.294.028-12-128.726-.3a9.642 9.642 0 0 0 -9.631 9.628z"/><path d="m407.357 408.955v-159.9h-12v159.335h-117.237a16.1 16.1 0 0 0 -16.082 16.081 4.086 4.086 0 0 1 -4.081 4.081h-80.657a4.086 4.086 0 0 1 -4.081-4.081 16.1 16.1 0 0 0 -16.082-16.081h-108.76v-220.669a14.178 14.178 0 0 1 14.163-14.162h145.623v-12h-145.623a26.193 26.193 0 0 0 -26.163 26.162v220.743a28.3 28.3 0 0 0 1.929 56.536h363.419a28.305 28.305 0 0 0 5.632-56.045zm5.9 39.263a16.2 16.2 0 0 1 -11.532 4.782h-363.419a16.305 16.305 0 1 1 0-32.61h118.835a4.086 4.086 0 0 1 4.082 4.081 16.1 16.1 0 0 0 16.077 16.081h80.653a16.1 16.1 0 0 0 16.081-16.081 4.086 4.086 0 0 1 4.082-4.081h123.609a16.3 16.3 0 0 1 11.536 27.828z"/><path d="m281.6 320h62.132a6 6 0 0 0 0-12h-62.132a6 6 0 0 0 0 12z"/><path d="m136.6 314a6 6 0 0 0 6 6h117.877a6 6 0 0 0 0-12h-117.877a6 6 0 0 0 -6 6z"/><path d="m101.994 320h18.483a6 6 0 0 0 0-12h-18.483a6 6 0 0 0 0 12z"/><path d="m196.918 275.653a6 6 0 0 0 6 6h35.182a6 6 0 0 0 0-12h-35.182a6 6 0 0 0 -6 6z"/><path d="m101.994 281.653h78.483a6 6 0 0 0 0-12h-78.483a6 6 0 0 0 0 12z"/><path d="m101.994 243.307h48.483a6 6 0 0 0 0-12h-48.483a6 6 0 0 0 0 12z"/><path d="m206.117 346.344a6 6 0 0 0 0 12h139.683a6 6 0 0 0 0-12z"/><path d="m167.935 346.344a6 6 0 0 0 0 12h16.391a6 6 0 0 0 0-12z"/><path d="m101.994 358.344h44.692a6 6 0 0 0 0-12h-44.692a6 6 0 1 0 0 12z"/></g><path d="m461.083 47h-218a40.964 40.964 0 0 0 -40.918 40.916v126.223a40.964 40.964 0 0 0 40.918 40.916h30.917v39.762a6 6 0 0 0 9.422 4.928l64.358-44.69h113.3a40.963 40.963 0 0 0 40.92-40.916v-126.223a40.963 40.963 0 0 0 -40.917-40.916zm28.917 167.139a28.949 28.949 0 0 1 -28.917 28.916h-115.183a6 6 0 0 0 -3.423 1.072l-56.477 39.218v-34.29a6 6 0 0 0 -6-6h-36.919a28.949 28.949 0 0 1 -28.918-28.916v-126.223a28.949 28.949 0 0 1 28.918-28.916h218a28.949 28.949 0 0 1 28.919 28.916z" fill="#1ae5be"/><path d="m446.977 88.751h-152.3a6 6 0 0 0 0 12h152.3a6 6 0 0 0 0-12z" fill="#1ae5be"/><path d="m269.955 88.751h-19.168a6 6 0 0 0 0 12h19.168a6 6 0 0 0 0-12z" fill="#1ae5be"/><path d="m446.977 143.169h-152.3a6 6 0 0 0 0 12h152.3a6 6 0 0 0 0-12z" fill="#1ae5be"/><path d="m269.955 143.169h-19.168a6 6 0 0 0 0 12h19.168a6 6 0 0 0 0-12z" fill="#1ae5be"/><path d="m446.977 197.588h-152.3a6 6 0 0 0 0 12h152.3a6 6 0 0 0 0-12z" fill="#1ae5be"/><path d="m269.955 197.588h-19.168a6 6 0 0 0 0 12h19.168a6 6 0 0 0 0-12z" fill="#1ae5be"/></svg>