<svg id="Layer_1" height="512" viewBox="0 0 512 512" width="512" xmlns="http://www.w3.org/2000/svg" data-name="Layer 1"><path d="m174.884 223.883h-30a12.432 12.432 0 0 0 -12.44 12.43v154.42a12.438 12.438 0 0 0 12.44 12.43h30a12.438 12.438 0 0 1 -12.44-12.43v-154.42a12.432 12.432 0 0 1 12.44-12.43z" fill="#d4e1f4"/><g fill="#0635c9"><path d="m365.449 217h-94.1a22.623 22.623 0 0 0 -16.665 7.31 22.616 22.616 0 0 0 -16.659-7.31h-92.247a18.457 18.457 0 0 0 -18.443 18.43v154.416a18.458 18.458 0 0 0 18.443 18.431h95.376l9.547 9.286a7.887 7.887 0 0 0 11.056 0l9.548-9.287h94.144a18.459 18.459 0 0 0 18.444-18.431v-154.418a18.457 18.457 0 0 0 -18.444-18.427zm-117.117 181.517a7.888 7.888 0 0 0 -5.524-2.24h-97.03a6.445 6.445 0 0 1 -6.443-6.431v-154.419a6.445 6.445 0 0 1 6.443-6.43h92.247a10.66 10.66 0 0 1 10.655 10.671l1.42 160.572zm123.561-8.671a6.445 6.445 0 0 1 -6.444 6.431h-95.8a7.882 7.882 0 0 0 -5.527 2.244l-2.019 1.963-1.424-160.87h.018a10.648 10.648 0 0 1 10.656-10.614h94.1a6.445 6.445 0 0 1 6.444 6.43z"/><path d="m228.927 244.112h-44.775a6 6 0 1 0 0 12h44.775a6 6 0 0 0 0-12z"/><path d="m156.433 256.112h5.639a6 6 0 0 0 0-12h-5.639a6 6 0 1 0 0 12z"/><path d="m228.927 284.993h-10.775a6 6 0 0 0 0 12h10.775a6 6 0 0 0 0-12z"/><path d="m156.433 296.993h39.85a6 6 0 0 0 0-12h-39.85a6 6 0 0 0 0 12z"/><path d="m228.927 325.874h-27.018a6 6 0 0 0 0 12h27.018a6 6 0 1 0 0-12z"/><path d="m156.433 337.874h23.382a6 6 0 0 0 0-12h-23.382a6 6 0 0 0 0 12z"/><path d="m228.927 366.755h-2.956a6 6 0 0 0 0 12h2.956a6 6 0 1 0 0-12z"/><path d="m204.172 366.755h-47.739a6 6 0 0 0 0 12h47.739a6 6 0 1 0 0-12z"/><path d="m329.111 256.112h24.247a6 6 0 0 0 0-12h-24.247a6 6 0 1 0 0 12z"/><path d="m280.864 256.112h26.816a6 6 0 1 0 0-12h-26.816a6 6 0 1 0 0 12z"/><path d="m353.8 284.993h-.442a6 6 0 0 0 0 12h.442a6 6 0 0 0 0-12z"/><path d="m280.864 296.993h50.579a6 6 0 0 0 0-12h-50.579a6 6 0 0 0 0 12z"/><path d="m353.358 325.874h-19.527a6 6 0 0 0 0 12h19.527a6 6 0 0 0 0-12z"/><path d="m280.864 337.874h30.756a6 6 0 0 0 0-12h-30.756a6 6 0 0 0 0 12z"/><path d="m353.358 366.755h-5.122a6 6 0 0 0 0 12h5.122a6 6 0 1 0 0-12z"/><path d="m327.61 366.755h-46.746a6 6 0 1 0 0 12h46.746a6 6 0 0 0 0-12z"/></g><path d="m490.943 118.423-219.343-102.46a37.089 37.089 0 0 0 -15.6-3.463 37.082 37.082 0 0 0 -15.592 3.463l-219.351 102.46c-6.623 2.677-11.057 9.577-11.057 17.241v36.092c0 10.149 7.64 18.406 17.03 18.406h1.647v4.622a25.9 25.9 0 0 0 19.863 25.146v216.043h-24.54a14.016 14.016 0 0 0 -14 14v35.527a14.016 14.016 0 0 0 14 14h464a14.016 14.016 0 0 0 14-14v-35.527a14.016 14.016 0 0 0 -14-14h-27.6l.774-216.035a25.9 25.9 0 0 0 19.895-25.154v-4.622h3.9c9.39 0 17.03-8.257 17.03-18.406v-36.092c.001-7.664-4.433-14.564-11.056-17.241zm-450.266 76.361v-4.622h75.509v4.622a13.884 13.884 0 0 1 -13.877 13.859h-47.755a13.884 13.884 0 0 1 -13.877-13.859zm362.765 25.55-1 215.639h-291.348v-216.867a25.9 25.9 0 0 0 17.092-24.322v-4.622h253.373v4.622a25.9 25.9 0 0 0 21.883 25.55zm-342.9.309h38.552v215.33h-38.554zm429.458 229.33v35.527a2 2 0 0 1 -2 2h-464a2 2 0 0 1 -2-2v-35.527a2 2 0 0 1 2-2h464a2 2 0 0 1 2 2zm-75.554-14 .995-215.33h33.728l-.772 215.33zm54.62-241.189a13.883 13.883 0 0 1 -13.876 13.859h-47.755a13.883 13.883 0 0 1 -13.876-13.859v-4.622h75.507zm15.9-16.622h-457.936c-2.726 0-5.03-2.934-5.03-6.406v-19.256h125.612a6 6 0 0 0 0-12h-125.612v-4.836c0-2.79 1.482-5.313 3.6-6.135l.188-.073 219.696-102.621a24.85 24.85 0 0 1 21.033 0l219.508 102.536.371.158c2.122.822 3.6 3.345 3.6 6.135v4.836h-126.071a6 6 0 0 0 0 12h126.075v19.256c0 3.472-2.3 6.406-5.03 6.406z" fill="#1ae5be"/><path d="m276.922 81.731a33.654 33.654 0 0 1 7.939 7.612 6 6 0 0 0 9.608-7.191 45.687 45.687 0 0 0 -10.769-10.323 6 6 0 1 0 -6.777 9.9z" fill="#1ae5be"/><path d="m295.479 95.455a6 6 0 0 0 -4.662 7.09 33.443 33.443 0 1 1 -27.77-26.272 6 6 0 0 0 1.777-11.868 46.047 46.047 0 0 0 -6.79-.5 45.423 45.423 0 1 0 44.535 36.215 6 6 0 0 0 -7.09-4.665z" fill="#1ae5be"/></svg>