<svg id="Layer_1" height="512" viewBox="0 0 512 512" width="512" xmlns="http://www.w3.org/2000/svg" data-name="Layer 1"><path d="m116.37 333.771v-203.52a4.266 4.266 0 0 1 4.27-4.261h-30a4.266 4.266 0 0 0 -4.27 4.261v203.52a4.258 4.258 0 0 0 4.27 4.259h30a4.258 4.258 0 0 1 -4.27-4.259z" fill="#d4e1f4"/><path d="m90.642 344.034h335.071a10.279 10.279 0 0 0 10.272-10.261v-203.521a10.278 10.278 0 0 0 -10.272-10.261h-19.188a6 6 0 1 0 0 12h17.46v200.043h-331.614v-200.043h266.146a6 6 0 0 0 0-12h-267.875a10.278 10.278 0 0 0 -10.271 10.261v203.521a10.279 10.279 0 0 0 10.271 10.261z" fill="#0635c9"/><path d="m378.6 131.991h6.318a6 6 0 0 0 0-12h-6.318a6 6 0 1 0 0 12z" fill="#0635c9"/><path d="m475.327 369.142v-260.482a29.723 29.723 0 0 0 -29.72-29.66h-374.858a29.723 29.723 0 0 0 -29.72 29.66v260.022a32.169 32.169 0 0 0 1.211 64.318h427.52a32.206 32.206 0 0 0 32.24-32.206 32.247 32.247 0 0 0 -26.673-31.652zm-404.578-278.142h374.858a17.71 17.71 0 0 1 17.72 17.66v259.991h-138.974a17.866 17.866 0 0 0 -17.86 17.83 5.851 5.851 0 0 1 -5.86 5.83h-94.878a5.851 5.851 0 0 1 -5.859-5.83 17.866 17.866 0 0 0 -17.86-17.83h-129.007v-259.991a17.71 17.71 0 0 1 17.72-17.66zm413.335 324.079a20.139 20.139 0 0 1 -14.324 5.921h-427.52a20.175 20.175 0 1 1 0-40.349h139.8a5.852 5.852 0 0 1 5.86 5.83 17.865 17.865 0 0 0 17.859 17.83h94.878a17.865 17.865 0 0 0 17.86-17.83 5.852 5.852 0 0 1 5.86-5.83h145.403a20.235 20.235 0 0 1 20.24 20.155 20.012 20.012 0 0 1 -5.916 14.273z" fill="#0635c9"/><g fill="#1ae5be"><path d="m379.921 171.665h-187.84a6 6 0 0 0 0 12h187.84a6 6 0 0 0 0-12z"/><path d="m118.416 187.549 8.232 4.612a10.418 10.418 0 0 0 13.227-2.543l14.562-18.011a6 6 0 0 0 -9.332-7.544l-13.735 16.989-7.088-3.972a6 6 0 0 0 -5.866 10.469z"/><path d="m379.921 225.977h-187.84a6 6 0 0 0 0 12h187.84a6 6 0 0 0 0-12z"/><path d="m118.416 241.862 8.232 4.612a10.418 10.418 0 0 0 13.227-2.543l14.562-18.011a6 6 0 0 0 -9.332-7.545l-13.735 16.989-7.088-3.971a6 6 0 0 0 -5.866 10.469z"/><path d="m379.921 280.29h-187.84a6 6 0 1 0 0 12h187.84a6 6 0 0 0 0-12z"/><path d="m118.416 296.175 8.232 4.612a10.421 10.421 0 0 0 13.227-2.543l14.562-18.012a6 6 0 1 0 -9.332-7.544l-13.735 16.989-7.088-3.971a6 6 0 0 0 -5.866 10.469z"/></g></svg>