<svg id="Layer_1" height="512" viewBox="0 0 512 512" width="512" xmlns="http://www.w3.org/2000/svg" data-name="Layer 1"><path d="m161.49 273.74v-194.109a30.557 30.557 0 0 1 9.02-21.71 30.871 30.871 0 0 1 6.777-5.109 30.788 30.788 0 0 0 -45.8 26.819v194.109a21.956 21.956 0 0 0 21.99 21.92h30a21.956 21.956 0 0 1 -21.987-21.92z" fill="#d4e1f4"/><path d="m277.44 210.381-.3-161.46a21.949 21.949 0 0 1 21.99-21.921h-30a21.949 21.949 0 0 0 -21.99 21.92l.3 161.46a26.925 26.925 0 0 1 -26.96 26.89l35.684-.6a26.913 26.913 0 0 0 21.276-26.289z" fill="#d4e1f4"/><path d="m425.713 178.548h-28.586v12h26.858v199.652h-331.615v-199.652h39.13v-12h-40.857a10.274 10.274 0 0 0 -10.273 10.252v203.145a10.275 10.275 0 0 0 10.273 10.255h335.07a10.274 10.274 0 0 0 10.272-10.253v-203.147a10.274 10.274 0 0 0 -10.272-10.252z" fill="#0635c9"/><path d="m475.327 427.238v-259.99a29.7 29.7 0 0 0 -29.72-29.616h-48.707v12h48.711a17.688 17.688 0 0 1 17.72 17.616v259.5h-138.978a17.855 17.855 0 0 0 -17.86 17.808 5.841 5.841 0 0 1 -5.859 5.808h-94.878a5.841 5.841 0 0 1 -5.86-5.808 17.855 17.855 0 0 0 -17.86-17.808h-129.007v-259.5a17.688 17.688 0 0 1 17.719-17.616h60.752v-12h-60.752a29.7 29.7 0 0 0 -29.719 29.616v259.531a32.12 32.12 0 0 0 1.211 64.221h427.52a32.113 32.113 0 0 0 5.567-63.762zm8.793 45.819a20.161 20.161 0 0 1 -14.36 5.943h-427.52a20.126 20.126 0 1 1 0-40.252h139.8a5.841 5.841 0 0 1 5.86 5.808 17.853 17.853 0 0 0 17.86 17.808h94.878a17.854 17.854 0 0 0 17.859-17.808 5.841 5.841 0 0 1 5.86-5.808h145.403a20.212 20.212 0 0 1 20.24 20.106 19.938 19.938 0 0 1 -5.88 14.203z" fill="#0635c9"/><g fill="#1ae5be"><path d="m374.591 21h-105.463a28.015 28.015 0 0 0 -27.328 21.924h-79.515a36.788 36.788 0 0 0 -36.79 36.7v194.114a27.986 27.986 0 0 0 27.985 27.923h123.22a27.954 27.954 0 0 0 27.986-28.036l-.168-31.78 70.68-1.2a27.989 27.989 0 0 0 27.929-27.945l-.55-163.78a27.987 27.987 0 0 0 -27.986-27.92zm-133.15 189.379a20.951 20.951 0 0 1 -20.194 20.875l-.819.014a20.956 20.956 0 0 1 -20.918-20.909l-.434-130.871a36.51 36.51 0 0 0 -9.619-24.564h51.7zm46.6 74.575a15.9 15.9 0 0 1 -11.347 4.707h-123.214a15.972 15.972 0 0 1 -15.98-15.923v-194.111a24.791 24.791 0 0 1 49.581-.1l.032 9.557c-.171-.015-.344-.026-.519-.026h-28.948a6 6 0 0 0 0 12h28.943c.188 0 .374-.011.558-.028l.144 43.191a6.026 6.026 0 0 0 -.7-.045h-28.945a6 6 0 0 0 0 12h28.943a6.04 6.04 0 0 0 .741-.05l.143 43.241a5.99 5.99 0 0 0 -.884-.072h-28.943a6 6 0 1 0 0 12h28.943a6.087 6.087 0 0 0 .942-.081 32.962 32.962 0 0 0 32.945 32.051c.363 0 .724-.006 1.085-.018l70.955-1.2.167 31.631a15.79 15.79 0 0 1 -4.639 11.276zm87.1-56.307-128.867 2.183a32.7 32.7 0 0 0 7.167-20.463l-.3-161.443a15.973 15.973 0 0 1 15.987-15.924h105.463a15.978 15.978 0 0 1 15.986 15.944l.55 163.78a15.973 15.973 0 0 1 -15.986 15.923z"/><path d="m371.906 63.173h-68.447a6 6 0 0 0 0 12h68.447a6 6 0 0 0 0-12z"/><path d="m272.29 75.173h9.81a6 6 0 0 0 0-12h-9.81a6 6 0 0 0 0 12z"/><path d="m259.4 254.416h-69.619a6 6 0 0 0 0 12h69.619a6 6 0 0 0 0-12z"/><path d="m167.589 254.416h-9.943a6 6 0 0 0 0 12h9.943a6 6 0 0 0 0-12z"/><path d="m371.906 187.218h-7.447a6 6 0 0 0 0 12h7.447a6 6 0 0 0 0-12z"/><path d="m342.1 187.218h-69.81a6 6 0 0 0 0 12h69.81a6 6 0 0 0 0-12z"/><path d="m371.906 147.332h-62.577a6 6 0 0 0 0 12h62.577a6 6 0 1 0 0-12z"/><path d="m272.29 159.332h15.03a6 6 0 0 0 0-12h-15.03a6 6 0 0 0 0 12z"/><path d="m371.906 107.446h-12.957a6 6 0 0 0 0 12h12.957a6 6 0 0 0 0-12z"/><path d="m272.29 119.446h64.525a6 6 0 0 0 0-12h-64.525a6 6 0 0 0 0 12z"/><path d="m387.556 318.113h-65.456a6 6 0 0 0 0 12h65.457a6 6 0 0 0 0-12z"/><path d="m300.65 330.113a6 6 0 0 0 0-12h-9.132a6 6 0 0 0 0 12z"/><path d="m147.744 330.113h122.037a6 6 0 0 0 0-12h-122.037a6 6 0 1 0 0 12z"/><path d="m387.556 351.019h-25.434a6 6 0 0 0 0 12h25.434a6 6 0 1 0 0-12z"/><path d="m340.277 351.019h-141.615a6 6 0 0 0 0 12h141.615a6 6 0 1 0 0-12z"/><path d="m176.589 351.019h-28.845a6 6 0 0 0 0 12h28.845a6 6 0 0 0 0-12z"/></g></svg>