<svg id="Layer_1" height="512" viewBox="0 0 512 512" width="512" xmlns="http://www.w3.org/2000/svg" data-name="Layer 1"><path d="m46 396.95v-341.17a21.8 21.8 0 0 1 21.82-21.78h-30a21.8 21.8 0 0 0 -21.82 21.78v341.17a21.8 21.8 0 0 0 21.82 21.781h30a21.8 21.8 0 0 1 -21.82-21.781z" fill="#d4e1f4"/><path d="m474.182 28h-436.364a27.831 27.831 0 0 0 -27.818 27.782v341.164a27.832 27.832 0 0 0 27.821 27.782l368.952-.146-.005-12-368.95.146a15.818 15.818 0 0 1 -15.818-15.782v-267.952h468v267.952c0 9.165-9.166 19.229-17.513 19.229v12c14.894 0 29.513-15.468 29.513-31.229v-341.164a27.831 27.831 0 0 0 -27.818-27.782zm-452.182 88.994v-61.212a15.818 15.818 0 0 1 15.818-15.782h436.364a15.818 15.818 0 0 1 15.818 15.782v61.212z" fill="#0635c9"/><path d="m60.571 54.622a23.115 23.115 0 1 0 23.143 23.115 23.155 23.155 0 0 0 -23.143-23.115zm0 34.229a11.115 11.115 0 1 1 11.143-11.114 11.141 11.141 0 0 1 -11.143 11.114z" fill="#0635c9"/><path d="m122.286 54.622a23.115 23.115 0 1 0 23.143 23.115 23.155 23.155 0 0 0 -23.143-23.115zm0 34.229a11.115 11.115 0 1 1 11.143-11.114 11.141 11.141 0 0 1 -11.143 11.114z" fill="#0635c9"/><path d="m182.857 54.622a23.115 23.115 0 1 0 23.143 23.115 23.155 23.155 0 0 0 -23.143-23.115zm0 34.229a11.115 11.115 0 1 1 11.143-11.114 11.141 11.141 0 0 1 -11.143 11.114z" fill="#0635c9"/><path d="m469.714 70.6h-196.571a6 6 0 0 0 0 12h196.571a6 6 0 0 0 0-12z" fill="#0635c9"/><g fill="#1ae5be"><path d="m441.179 374.351a9.16 9.16 0 0 0 -12.867-1.31l-11.761 9.591-20.632-25.264a116.955 116.955 0 0 0 11.874-160.723c-40.876-50.054-114.755-57.645-164.693-16.928a116.937 116.937 0 0 0 -16.431 164.636 117.224 117.224 0 0 0 159.941 20.588l20.641 25.275-11.751 9.584a9.145 9.145 0 0 0 -1.3 12.872l49.109 60.136a30.4 30.4 0 0 0 42.709 4.38 30.333 30.333 0 0 0 4.272-42.7zm-205.211-37.589a104.856 104.856 0 1 1 162.532-132.527 104.938 104.938 0 0 1 -14.719 147.746c-44.812 36.541-111.12 29.719-147.813-15.219zm249.091 118.784a18.136 18.136 0 0 1 -6.627 12.343 18.39 18.39 0 0 1 -25.83-2.671l-47.3-57.925 28.386-23.148 47.309 57.932a18.288 18.288 0 0 1 4.062 13.469z"/><path d="m213.952 178.463a6 6 0 0 0 -6-6h-118.471a6 6 0 1 0 0 12h118.471a6 6 0 0 0 6-6z"/><path d="m50 184.463h15.459a6 6 0 0 0 0-12h-15.459a6 6 0 0 0 0 12z"/><path d="m50 308.125h127.952a6 6 0 0 0 0-12h-127.952a6 6 0 0 0 0 12z"/><path d="m199.952 350.711h-149.952a6 6 0 0 0 0 12h149.952a6 6 0 0 0 0-12z"/><path d="m416.667 176.811h44.975a6 6 0 0 0 0-12h-44.975a6 6 0 0 0 0 12z"/><path d="m461.642 232.42h-15.975a6 6 0 0 0 0 12h15.975a6 6 0 0 0 0-12z"/><path d="m461.642 296.125h-12.975a6 6 0 1 0 0 12h12.975a6 6 0 1 0 0-12z"/><path d="m461.642 350.711h-22.975a6 6 0 1 0 0 12h22.975a6 6 0 1 0 0-12z"/><path d="m386.249 334.228v-55.507a8.009 8.009 0 0 0 -8-8h-23.907a8.009 8.009 0 0 0 -8 8v55.507a8.009 8.009 0 0 0 8 8h23.907a8.009 8.009 0 0 0 8-8zm-12-4h-15.907v-47.507h15.907z"/><path d="m329.727 251.088h-23.907a8.009 8.009 0 0 0 -8 8v75.14a8.009 8.009 0 0 0 8 8h23.907a8.009 8.009 0 0 0 8-8v-75.14a8.009 8.009 0 0 0 -8-8zm-4 79.14h-15.907v-67.14h15.907z"/><path d="m281.2 234.952h-23.9a8.009 8.009 0 0 0 -8 8v91.276a8.009 8.009 0 0 0 8 8h23.9a8.009 8.009 0 0 0 8-8v-91.276a8.009 8.009 0 0 0 -8-8zm-4 95.276h-15.9v-83.276h15.9z"/><path d="m275.227 215.92q.093 0 .186 0a6 6 0 0 0 5.994-5.817l.281-9.178 36.642 33.54.714.368a8 8 0 0 0 3.632.869h48.005a6 6 0 0 0 0-12h-46.337l-31.65-28.97 6.327-.231a6 6 0 0 0 -.438-11.993l-20.786.76a7.52 7.52 0 0 0 -7.772 6.686l-.612 19.783a6 6 0 0 0 5.814 6.183z"/><path d="m177.952 232.42h-88.471a6 6 0 1 0 0 12h88.471a6 6 0 0 0 0-12z"/><path d="m50 244.42h15.459a6 6 0 1 0 0-12h-15.459a6 6 0 1 0 0 12z"/></g></svg>