<svg id="Layer_1" height="512" viewBox="0 0 512 512" width="512" xmlns="http://www.w3.org/2000/svg" data-name="Layer 1"><path d="m46 426.7v-341.4a21.81 21.81 0 0 1 21.82-21.8h-30a21.81 21.81 0 0 0 -21.82 21.8v341.4a21.811 21.811 0 0 0 21.82 21.8h30a21.811 21.811 0 0 1 -21.82-21.8z" fill="#d4e1f4"/><path d="m474.182 57.5h-436.364a27.838 27.838 0 0 0 -27.818 27.8v341.4a27.839 27.839 0 0 0 27.818 27.8h436.364a27.839 27.839 0 0 0 27.818-27.8v-341.4a27.838 27.838 0 0 0 -27.818-27.8zm-436.364 12h436.364a15.826 15.826 0 0 1 15.818 15.8v61.26h-468v-61.26a15.826 15.826 0 0 1 15.818-15.8zm436.364 373h-436.364a15.826 15.826 0 0 1 -15.818-15.8v-268.143h468v268.143a15.826 15.826 0 0 1 -15.818 15.8z" fill="#0635c9"/><path d="m60.571 130.394a23.127 23.127 0 1 0 -23.142-23.127 23.161 23.161 0 0 0 23.142 23.127zm0-34.253a11.127 11.127 0 1 1 -11.142 11.126 11.147 11.147 0 0 1 11.142-11.126z" fill="#0635c9"/><path d="m121.714 130.394a23.127 23.127 0 1 0 -23.143-23.127 23.161 23.161 0 0 0 23.143 23.127zm0-34.253a11.127 11.127 0 1 1 -11.143 11.126 11.148 11.148 0 0 1 11.143-11.126z" fill="#0635c9"/><path d="m182.857 130.394a23.127 23.127 0 1 0 -23.143-23.127 23.161 23.161 0 0 0 23.143 23.127zm0-34.253a11.127 11.127 0 1 1 -11.143 11.126 11.148 11.148 0 0 1 11.143-11.126z" fill="#0635c9"/><path d="m273.143 112.126h196.571a6 6 0 0 0 0-12h-196.571a6 6 0 0 0 0 12z" fill="#0635c9"/><g fill="#1ae5be"><path d="m456.876 184.69h-44.815a6 6 0 0 0 0 12h44.815a6 6 0 0 0 0-12z"/><path d="m393.539 190.69a6 6 0 0 0 -6-6h-97.448a6 6 0 0 0 0 12h97.448a6 6 0 0 0 6-6z"/><path d="m206.245 196.69h57.674a6 6 0 0 0 0-12h-57.674a6 6 0 0 0 0 12z"/><path d="m457.876 239.44h-73.337a6 6 0 0 0 0 12h73.337a6 6 0 0 0 0-12z"/><path d="m362.791 239.44h-112.645a6 6 0 0 0 0 12h112.645a6 6 0 0 0 0-12z"/><path d="m206.245 251.44h21.907a6 6 0 0 0 0-12h-21.907a6 6 0 0 0 0 12z"/><path d="m462.876 300.19a6 6 0 0 0 -6-6h-144.315a6 6 0 0 0 0 12h144.315a6 6 0 0 0 6-6z"/><path d="m291.723 306.19a6 6 0 0 0 0-12h-25.9a6 6 0 0 0 0 12z"/><path d="m206.245 306.19h37.5a6 6 0 1 0 0-12h-37.5a6 6 0 0 0 0 12z"/><path d="m457.876 348.94h-54.509a6 6 0 0 0 0 12h54.509a6 6 0 0 0 0-12z"/><path d="m355.085 348.94a6 6 0 0 0 0 12h26.476a6 6 0 0 0 0-12z"/><path d="m206.245 360.94h126.576a6 6 0 0 0 0-12h-126.576a6 6 0 1 0 0 12z"/><path d="m457.876 403.69h-401.631a6 6 0 0 0 0 12h401.631a6 6 0 0 0 0-12z"/><path d="m101.958 180.245a6.026 6.026 0 0 0 -1.074-.1 32.47 32.47 0 0 0 -32.433 32.434v60.753a32.47 32.47 0 0 0 32.433 32.433h2.148a32.471 32.471 0 0 0 32.434-32.433v-60.749a32.471 32.471 0 0 0 -32.434-32.434 6.043 6.043 0 0 0 -1.074.096zm21.508 82.242h-43.015v-43.9h43.015zm-20.434 31.282h-2.148a20.442 20.442 0 0 1 -20.375-19.282h42.9a20.441 20.441 0 0 1 -20.377 19.282zm19.532-87.186h-41.211a20.468 20.468 0 0 1 19.531-14.434 6.026 6.026 0 0 0 1.074-.1 6.043 6.043 0 0 0 1.074.1 20.469 20.469 0 0 1 19.532 14.434z"/><path d="m95.958 328.492v30.508h-16.264a6 6 0 0 0 0 12h44.133a6 6 0 0 0 0-12h-15.869v-30.632a54.389 54.389 0 0 0 29.478-13.18 6 6 0 0 0 -7.931-9.006 42.5 42.5 0 0 1 -70.573-32.068 6 6 0 0 0 -12 0 54.685 54.685 0 0 0 49.026 54.378z"/><path d="m147.727 290.022a6 6 0 0 0 -8.02 2.771c-.523 1.076-1.1 2.146-1.718 3.18a6 6 0 1 0 10.308 6.144c.789-1.324 1.53-2.695 2.2-4.075a6 6 0 0 0 -2.77-8.02z"/><path d="m155.5 281.45a55.365 55.365 0 0 0 .488-7.336 6 6 0 0 0 -12 0 43.414 43.414 0 0 1 -.381 5.743 6 6 0 0 0 5.15 6.743 6.089 6.089 0 0 0 .8.054 6 6 0 0 0 5.943-5.204z"/></g></svg>