<svg id="Layer_1" height="512" viewBox="0 0 512 512" width="512" xmlns="http://www.w3.org/2000/svg" data-name="Layer 1"><path d="m116.37 333.771v-203.521a4.265 4.265 0 0 1 4.27-4.259h-30a4.265 4.265 0 0 0 -4.27 4.259v203.521a4.26 4.26 0 0 0 4.27 4.26h30a4.26 4.26 0 0 1 -4.27-4.26z" fill="#d4e1f4"/><path d="m90.643 344.034h335.07a10.279 10.279 0 0 0 10.272-10.261v-203.521a10.278 10.278 0 0 0 -10.272-10.261h-335.07a10.279 10.279 0 0 0 -10.273 10.261v203.521a10.28 10.28 0 0 0 10.273 10.261zm1.727-212.043h331.615v200.043h-331.615z" fill="#0635c9"/><path d="m475.327 369.142v-260.482a29.723 29.723 0 0 0 -29.72-29.66h-374.859a29.723 29.723 0 0 0 -29.719 29.66v260.022a32.169 32.169 0 0 0 1.211 64.318h427.52a32.165 32.165 0 0 0 5.567-63.858zm-404.579-278.142h374.859a17.71 17.71 0 0 1 17.72 17.66v259.991h-138.974a17.866 17.866 0 0 0 -17.86 17.83 5.851 5.851 0 0 1 -5.859 5.83h-94.878a5.851 5.851 0 0 1 -5.86-5.83 17.866 17.866 0 0 0 -17.86-17.83h-129.007v-259.991a17.71 17.71 0 0 1 17.719-17.66zm413.352 324.06a20.139 20.139 0 0 1 -14.34 5.94h-427.52a20.175 20.175 0 1 1 0-40.349h139.8a5.852 5.852 0 0 1 5.86 5.83 17.864 17.864 0 0 0 17.86 17.83h94.878a17.865 17.865 0 0 0 17.859-17.83 5.852 5.852 0 0 1 5.86-5.83h145.403a20.236 20.236 0 0 1 20.24 20.155 20.007 20.007 0 0 1 -5.9 14.254z" fill="#0635c9"/><g fill="#1ae5be"><path d="m380.031 273.471c4.85-8.556 5.278-16.208 5.278-23.336 0-32.37-29.579-58.7-65.935-58.7a73.118 73.118 0 0 0 -20.13 2.808v-4.587a24.789 24.789 0 0 0 -24.762-24.761h-117.13a24.788 24.788 0 0 0 -24.761 24.761v67.822a24.788 24.788 0 0 0 24.761 24.761h23.248v18.588a6 6 0 0 0 9.421 4.929l33.866-23.517h40.32c11.789 16 32.107 26.6 55.163 26.6 12.457 0 27.972-5.605 35.593-9.45a58.052 58.052 0 0 0 28.382 8.331 8.394 8.394 0 0 0 8.157-12.737c-6.042-9.809-10.335-18.183-11.471-21.512zm-158.019-3.236a5.994 5.994 0 0 0 -3.422 1.072l-25.99 18.045v-13.117a6 6 0 0 0 -6-6h-29.248a12.775 12.775 0 0 1 -12.761-12.761v-67.822a12.775 12.775 0 0 1 12.761-12.761h117.13a12.775 12.775 0 0 1 12.762 12.761v9.248c-20.149 10.056-33.805 29.248-33.805 51.235a52.736 52.736 0 0 0 3.984 20.1zm151.738 24.121a46.405 46.405 0 0 1 -13.343-5.707 10.169 10.169 0 0 0 -10.147-.335c-7.72 4.1-21.724 8.525-30.886 8.525-29.739 0-53.935-20.952-53.935-46.7s24.2-46.7 53.935-46.7 53.935 20.952 53.935 46.7c0 7.669-.69 12.661-4.459 18.661-1.564 2.487-3.475 5.534 8.747 26.353q-1.942-.319-3.847-.797z"/><path d="m318.523 212.92a22.118 22.118 0 0 0 -22.431 22.117 6 6 0 1 0 12 0 10.116 10.116 0 0 1 10.264-10.118 10.12 10.12 0 0 1 1.556 20.1 9.189 9.189 0 0 0 -7.7 9.072v8.561a6 6 0 0 0 12 0v-6.312a21.986 21.986 0 0 0 16.116-21.612 22.267 22.267 0 0 0 -21.805-21.808z"/><circle cx="318.456" cy="281.992" r="7.185"/><path d="m236.447 201.15a6 6 0 0 0 -6-6h-59.06a6 6 0 0 0 0 12h59.06a6 6 0 0 0 6-6z"/><path d="m266.447 201.15a6 6 0 0 0 -6-6h-9.06a6 6 0 0 0 0 12h9.06a6 6 0 0 0 6-6z"/><path d="m180.447 225.15h-9.06a6 6 0 0 0 0 12h9.06a6 6 0 0 0 0-12z"/><path d="m240.447 225.15h-39.06a6 6 0 0 0 0 12h39.06a6 6 0 0 0 0-12z"/></g></svg>