<svg id="Layer_1" height="512" viewBox="0 0 512 512" width="512" xmlns="http://www.w3.org/2000/svg" data-name="Layer 1"><path d="m86.62 384.481v-218.261a20.221 20.221 0 0 1 17.339-20l-27.089-.23a20.238 20.238 0 0 0 -20.25 20.23v218.261a20.238 20.238 0 0 0 20.25 20.23h30a20.238 20.238 0 0 1 -20.25-20.23z" fill="#d4e1f4"/><path d="m475.747 172.039h-19.076v12h19.076a14.257 14.257 0 0 1 14.253 14.227v231.041a14.256 14.256 0 0 1 -14.253 14.227h-247.371v-35.313h-12v68.686l-7.785-7.4a7.8 7.8 0 0 0 -10.743 0l-7.785 7.4v-68.686h-12v35.607l-141.81-.294a14.256 14.256 0 0 1 -14.253-14.227v-231.041a14.257 14.257 0 0 1 14.253-14.227h20.363v-12h-20.363a26.269 26.269 0 0 0 -26.253 26.227v231.041a26.268 26.268 0 0 0 26.241 26.227l141.822.294v30.872a7.8 7.8 0 0 0 13.168 5.649l11.989-11.392 11.988 11.392a7.8 7.8 0 0 0 13.168-5.649v-31.166h247.371a26.27 26.27 0 0 0 26.253-26.227v-231.041a26.269 26.269 0 0 0 -26.253-26.227z" fill="#1ae5be"/><g fill="#0635c9"><path d="m436.515 143.557-70.535-1.148-.195 12 70.633 1.15a14.256 14.256 0 0 1 14.253 14.227v232.435h-172.183a9.089 9.089 0 0 0 -6.37 2.587l-9.615 9.351-1.69-168.659-12 .12 1.687 168.26-9.331-9.074a9.089 9.089 0 0 0 -6.37-2.587h-157.93a14.256 14.256 0 0 1 -14.253-14.227v-218.208a14.256 14.256 0 0 1 14.253-14.227h66.955v-12h-66.955a26.269 26.269 0 0 0 -26.253 26.227v218.21a26.269 26.269 0 0 0 26.253 26.227h156.768l16.635 16.179a9.091 9.091 0 0 0 12.743 0l16.635-16.179h175.018a8.01 8.01 0 0 0 8-8v-236.437a26.249 26.249 0 0 0 -26.153-26.227z"/><path d="m209.955 266.445a6 6 0 0 0 0-12h-27.046a6 6 0 0 0 0 12z"/><path d="m161.9 254.445h-66.037a6 6 0 0 0 0 12h66.037a6 6 0 0 0 0-12z"/><path d="m126.824 311.012a6 6 0 0 0 6 6h77.131a6 6 0 0 0 0-12h-77.131a6 6 0 0 0 -6 6z"/><path d="m95.863 317.012h15.337a6 6 0 0 0 0-12h-15.337a6 6 0 0 0 0 12z"/><path d="m209.955 355.58h-32.265a6 6 0 0 0 0 12h32.265a6 6 0 0 0 0-12z"/><path d="m95.863 367.58h60.387a6 6 0 0 0 0-12h-60.387a6 6 0 0 0 0 12z"/><path d="m149.2 203.877h-3.6a6 6 0 1 0 0 12h3.6a6 6 0 0 0 0-12z"/><path d="m95.863 215.877h28.012a6 6 0 0 0 0-12h-28.012a6 6 0 0 0 0 12z"/><path d="m410.462 203.877h-19.89a6 6 0 0 0 0 12h19.89a6 6 0 0 0 0-12z"/><path d="m368.819 215.877a6 6 0 0 0 0-12h-11.691a6 6 0 0 0 0 12z"/><path d="m395.974 254.445a6 6 0 0 0 0 12h16.513a6 6 0 0 0 0-12z"/><path d="m292.394 260.445a6 6 0 0 0 6 6h75.942a6 6 0 0 0 0-12h-75.942a6 6 0 0 0 -6 6z"/><path d="m339.441 311.012a6 6 0 0 0 6 6h67.046a6 6 0 0 0 0-12h-67.046a6 6 0 0 0 -6 6z"/><path d="m298.394 317.012h25.942a6 6 0 0 0 0-12h-25.942a6 6 0 0 0 0 12z"/><path d="m412.487 355.58h-53.3a6 6 0 0 0 0 12h53.3a6 6 0 0 0 0-12z"/><path d="m298.394 367.58h39.145a6 6 0 0 0 0-12h-39.145a6 6 0 0 0 0 12z"/></g><path d="m366.465 156.779a6 6 0 0 0 5.418-5.971v-32.554a6 6 0 0 0 -5.425-5.972l-19.906-1.916a93.539 93.539 0 0 0 -9.944-23.6l12.648-15.254a6 6 0 0 0 -.352-8.047l-22.704-22.965a6 6 0 0 0 -8.091-.406l-15.309 12.669a95.63 95.63 0 0 0 -23.612-9.963l-1.919-19.876a6 6 0 0 0 -5.969-5.424h-32.6a6 6 0 0 0 -5.972 5.424l-1.917 19.876a93.8 93.8 0 0 0 -23.644 9.936l-15.282-12.642a6 6 0 0 0 -8.063.378l-22.992 22.962a6 6 0 0 0 -.379 8.075l12.678 15.291a95.441 95.441 0 0 0 -9.971 23.566l-19.908 1.917a6 6 0 0 0 -5.426 5.972v32.554a6 6 0 0 0 5.426 5.972l19.905 1.916a93.582 93.582 0 0 0 9.944 23.6l-12.648 15.252a6 6 0 0 0 .379 8.076l22.992 22.962a6 6 0 0 0 8.063.378l15.315-12.665a95.636 95.636 0 0 0 23.608 9.963l1.918 19.876a6 6 0 0 0 5.972 5.424h32.6a6 6 0 0 0 5.972-5.424l1.918-19.872a93.825 93.825 0 0 0 23.644-9.937l15.282 12.638a6 6 0 0 0 8.064-.377l22.991-22.962a6 6 0 0 0 .379-8.076l-12.678-15.29a95.44 95.44 0 0 0 9.972-23.571zm-30.311-4.915a83.6 83.6 0 0 1 -11.69 27.661 6 6 0 0 0 .421 7.085l11.934 14.39-15.262 15.242-14.422-11.928a6 6 0 0 0 -7.149-.371 81.273 81.273 0 0 1 -27.627 11.628 6 6 0 0 0 -4.706 5.288l-1.805 18.7h-21.7l-1.805-18.7a6 6 0 0 0 -4.706-5.288 83.823 83.823 0 0 1 -27.7-11.677 6 6 0 0 0 -7.074.42l-14.423 11.928-15.26-15.242 11.933-14.392a6 6 0 0 0 .372-7.161 81.032 81.032 0 0 1 -11.641-27.586 6 6 0 0 0 -5.289-4.7l-18.731-1.8v-21.661l18.731-1.8a6 6 0 0 0 5.289-4.7 83.587 83.587 0 0 1 11.69-27.661 6 6 0 0 0 -.421-7.086l-11.933-14.393 15.261-15.242 14.423 11.928a6 6 0 0 0 7.149.371 81.268 81.268 0 0 1 27.626-11.628 6 6 0 0 0 4.706-5.288l1.805-18.7h21.7l1.805 18.7a6 6 0 0 0 4.706 5.288 83.818 83.818 0 0 1 27.7 11.678 6 6 0 0 0 7.074-.421l14.395-11.9 15.02 15.192-11.956 14.414a6 6 0 0 0 -.372 7.161 81.024 81.024 0 0 1 11.641 27.587 6 6 0 0 0 5.289 4.7l18.731 1.8v21.66l-18.447 1.8a6 6 0 0 0 -5.282 4.704z" fill="#1ae5be"/><path d="m255 70.778a63.753 63.753 0 1 0 63.828 63.753 63.863 63.863 0 0 0 -63.828-63.753zm0 115.506a51.753 51.753 0 1 1 51.828-51.753 51.848 51.848 0 0 1 -51.828 51.753z" fill="#1ae5be"/></svg>