<svg id="Layer_1" height="512" viewBox="0 0 512 512" width="512" xmlns="http://www.w3.org/2000/svg" data-name="Layer 1"><path d="m110.41 431.38 17.2-29.429a19.507 19.507 0 0 0 1.35-14.49l-12.03-52.561a63.512 63.512 0 0 1 4.08-40.141l20.24-38.433.66-56.406-.95-.01-49.95 94.85a63.512 63.512 0 0 0 -4.08 40.14l12.03 52.56a19.507 19.507 0 0 1 -1.35 14.49l-17.2 29.43 67.38 17.31.04-.169a33.679 33.679 0 0 1 1.842-7.054z" fill="#d4e1f4"/><g fill="#0635c9"><path d="m322.693 77.675h-112.342a8.008 8.008 0 0 0 -8 8v86.309a8.009 8.009 0 0 0 8 8h112.342a8.009 8.009 0 0 0 8-8v-86.309a8.009 8.009 0 0 0 -8-8zm-4 90.309h-104.342v-78.309h104.342z"/><path d="m252 152.272a8.021 8.021 0 0 0 8 0l29.127-16.847a8 8 0 0 0 0-13.85l-29.127-16.854a8 8 0 0 0 -12.006 6.925v33.7a8.021 8.021 0 0 0 4.006 6.926zm8-33.691 17.139 9.913-17.139 9.914z"/><path d="m322.694 199.187h-108.822a6 6 0 0 0 0 12h108.822a6 6 0 1 0 0-12z"/><path d="m322.694 245.767h-108.822a6 6 0 0 0 0 12h108.822a6 6 0 0 0 0-12z"/><path d="m322.694 292.347h-108.822a6 6 0 0 0 0 12h108.822a6 6 0 0 0 0-12z"/><path d="m322.694 338.926h-108.822a6 6 0 0 0 0 12h108.822a6 6 0 0 0 0-12z"/><path d="m396.423 79.489h-46.369a6 6 0 0 0 -6 6v34.9a6 6 0 0 0 6 6h46.369a6 6 0 0 0 6-6v-34.9a6 6 0 0 0 -6-6zm-6 34.9h-34.369v-22.9h34.369z"/><path d="m396.423 155.148h-46.369a6 6 0 0 0 -6 6v34.9a6 6 0 0 0 6 6h46.369a6 6 0 0 0 6-6v-34.9a6 6 0 0 0 -6-6zm-6 34.9h-34.369v-22.9h34.369z"/><path d="m396.423 230.807h-46.369a6 6 0 0 0 -6 6v34.9a6 6 0 0 0 6 6h46.369a6 6 0 0 0 6-6v-34.9a6 6 0 0 0 -6-6zm-6 34.9h-34.369v-22.9h34.369z"/><path d="m396.423 306.466h-46.369a6 6 0 0 0 -6 6v34.9a6 6 0 0 0 6 6h46.369a6 6 0 0 0 6-6v-34.9a6 6 0 0 0 -6-6zm-6 34.9h-34.369v-22.9h34.369z"/><path d="m427.449 10h-257.4a33.614 33.614 0 0 0 -33.549 33.6v106.459l-1.539 130.946 12 .141 1.54-131.017v-106.529a21.6 21.6 0 0 1 21.551-21.6h257.4a21.6 21.6 0 0 1 21.548 21.6v367.1a21.6 21.6 0 0 1 -21.553 21.6l-275.426.109v12l275.424-.109a33.614 33.614 0 0 0 33.555-33.6v-367.1a33.614 33.614 0 0 0 -33.551-33.6z"/><path d="m283.977 401.349a6 6 0 0 0 0 12h29.548a6 6 0 0 0 0-12z"/><path d="m419.674 366.042v-294.5a16.018 16.018 0 0 0 -16-16h-209.846a16.018 16.018 0 0 0 -16 16v294.5a16.017 16.017 0 0 0 16 16h209.846a16.017 16.017 0 0 0 16-16zm-229.846 0v-294.5a4 4 0 0 1 4-4h209.846a4 4 0 0 1 4 4v294.5a4 4 0 0 1 -4 4h-209.846a4 4 0 0 1 -4-4z"/></g><path d="m166.517 447.314-11.517-2.96a28.347 28.347 0 0 1 5.012-8.964l7.552-9.1c.1-.127.206-.258.3-.393a63.829 63.829 0 0 0 3.9-67.334l-1.931-3.563a35.692 35.692 0 0 1 -4.255-15.454l-1.433-35.241a32.161 32.161 0 0 0 -21.1-28.861 32.634 32.634 0 0 0 -12.741-2 6 6 0 0 0 -5.732 6.513l2.6 30a141.19 141.19 0 0 1 -.157 26.021 6 6 0 1 0 11.941 1.181 153.174 153.174 0 0 0 .171-28.238l-1.973-22.777q.87.237 1.723.553a20.191 20.191 0 0 1 13.275 18.1l1.434 35.241a47.77 47.77 0 0 0 5.692 20.679l1.928 3.561a51.891 51.891 0 0 1 -3.041 54.545l-7.391 8.9a40.355 40.355 0 0 0 -7.419 13.637l-53.755-13.809 13.188-22.577c.055-.093.107-.188.156-.284a25.4 25.4 0 0 0 1.821-18.749l-11.984-52.364a57.889 57.889 0 0 1 3.625-36.185l39.646-75.279v-25.39l-50.352 95.243c-.057.107-.11.216-.16.327a69.966 69.966 0 0 0 -4.462 43.945l12.032 52.562c.029.126.062.252.1.376a13.445 13.445 0 0 1 -.87 9.9l-14.769 25.281-13.41-3.757c-.042-.012-.085-.024-.127-.034a10.439 10.439 0 0 0 -13.025 10.534l2.191 53.741a10.461 10.461 0 0 0 9.66 9.993l101.632 7.133q.411.033.821.033a10.442 10.442 0 0 0 10.43-10.871l-1.388-34.122a10.377 10.377 0 0 0 -7.838-9.693zm-101.389 35.651-2.042-50.207 15.708 4.4c.042.013.084.024.127.034l83.486 21.451 1.271 31.234z" fill="#1ae5be"/><path d="m74.778 463.075a14.339 14.339 0 0 0 4.722 10.092 14.547 14.547 0 0 0 9.845 3.806c.2 0 .41 0 .616-.012a14.568 14.568 0 0 0 14-15.078 14.342 14.342 0 0 0 -4.718-10.092 14.625 14.625 0 0 0 -24.46 11.284zm14.49-3.088a2.637 2.637 0 0 1 1.893.679 2.434 2.434 0 0 1 .8 1.7 2.553 2.553 0 0 1 -2.5 2.6 2.62 2.62 0 0 1 -1.894-.679 2.431 2.431 0 0 1 -.8-1.7 2.553 2.553 0 0 1 2.501-2.6z" fill="#1ae5be"/></svg>