<svg id="Layer_1" height="512" viewBox="0 0 512 512" width="512" xmlns="http://www.w3.org/2000/svg" data-name="Layer 1"><path d="m123.44 406.39v-195.619a4.089 4.089 0 0 1 4.09-4.091h-30a4.089 4.089 0 0 0 -4.09 4.091v195.619a4.1 4.1 0 0 0 4.09 4.1h30a4.1 4.1 0 0 1 -4.09-4.1z" fill="#d4e1f4"/><g fill="#0635c9"><path d="m416.736 404.488h-317.298v-191.808h53.486v-12h-55.392a10.106 10.106 0 0 0 -10.094 10.095v195.618a10.105 10.105 0 0 0 10.094 10.1h321.11a10.105 10.105 0 0 0 10.094-10.1v-195.618a10.106 10.106 0 0 0 -10.094-10.095h-48.571v12h46.665z"/><path d="m466.438 440.2v-250.178a28.77 28.77 0 0 0 -28.731-28.742h-67.636v12h67.636a16.756 16.756 0 0 1 16.731 16.742v249.662h-132.933a17.387 17.387 0 0 0 -17.366 17.37 5.374 5.374 0 0 1 -5.366 5.371h-90.924a5.375 5.375 0 0 1 -5.366-5.371 17.387 17.387 0 0 0 -17.365-17.37h-123.382v-249.662a16.756 16.756 0 0 1 16.731-16.742h74.457v-12h-74.457a28.77 28.77 0 0 0 -28.731 28.742v249.7a31.156 31.156 0 0 0 1.411 62.278h409.706a31.155 31.155 0 0 0 5.585-61.8zm7.959 44.187a19.013 19.013 0 0 1 -13.544 5.613h-409.706a19.158 19.158 0 0 1 0-38.316h133.971a5.373 5.373 0 0 1 5.365 5.37 17.388 17.388 0 0 0 17.366 17.371h90.924a17.388 17.388 0 0 0 17.366-17.371 5.374 5.374 0 0 1 5.366-5.37h139.348a19.16 19.16 0 0 1 13.544 32.7z"/><path d="m320.66 332.166h57.713a6 6 0 0 0 0-12h-57.713a6 6 0 0 0 0 12z"/><path d="m186.832 332.166h112.346a6 6 0 0 0 0-12h-112.346a6 6 0 0 0 0 12z"/><path d="m142.667 326.166a6 6 0 0 0 6 6h16.289a6 6 0 0 0 0-12h-16.289a6 6 0 0 0 -6 6z"/><path d="m378.373 376.546a6 6 0 0 0 0-12h-95a6 6 0 0 0 0 12z"/><path d="m261.544 376.546a6 6 0 0 0 0-12h-36.38a6 6 0 0 0 0 12z"/><path d="m203 376.546a6 6 0 0 0 0-12h-54.333a6 6 0 1 0 0 12z"/></g><path d="m403.729 71.333-139.838-60.833a6 6 0 0 0 -4.787 0l-139.837 60.833a6 6 0 0 0 -3.606 5.5v21.62a6 6 0 0 0 6 6h25.263v123.661h-12.551a6 6 0 0 0 -6 6v21.132h-10.95a6 6 0 0 0 -6 6v27.132a6 6 0 0 0 6 6h283.912a6 6 0 0 0 6-6v-27.132a6 6 0 0 0 -6-6h-9.153v-21.132a6 6 0 0 0 -6-6h-10.111v-123.659h25.264a6 6 0 0 0 6-6v-21.62a6 6 0 0 0 -3.606-5.502zm-244.8 33.122h13.425v123.659h-13.43zm153.24 123.659v-123.659h26.482v123.659zm-12 0h-13.43v-123.659h13.425zm-25.425 0h-26.488v-123.659h26.483zm-38.483 0h-13.429v-123.659h13.424zm-25.424 0h-26.488v-123.659h26.483zm184.5 54.264h-271.914v-15.132h271.912zm-15.153-27.132h-239.811v-15.132h239.809zm-16.111-27.132h-13.427v-123.659h13.425zm31.262-135.659h-267.674v-11.688l133.839-58.224 133.835 58.224z" fill="#1ae5be"/><path d="m238.548 60.026a22.95 22.95 0 1 0 22.952-22.958 22.98 22.98 0 0 0 -22.952 22.958zm33.9 0a10.95 10.95 0 1 1 -10.948-10.958 10.966 10.966 0 0 1 10.948 10.958z" fill="#1ae5be"/></svg>