<svg id="Layer_1" height="512" viewBox="0 0 512 512" width="512" xmlns="http://www.w3.org/2000/svg" data-name="Layer 1"><path d="m46 426.7v-341.4a21.81 21.81 0 0 1 21.82-21.8h-30a21.81 21.81 0 0 0 -21.82 21.8v341.4a21.811 21.811 0 0 0 21.82 21.8h30a21.811 21.811 0 0 1 -21.82-21.8z" fill="#d4e1f4"/><path d="m60.571 130.394a23.127 23.127 0 1 0 -23.142-23.127 23.161 23.161 0 0 0 23.142 23.127zm0-34.253a11.127 11.127 0 1 1 -11.142 11.126 11.147 11.147 0 0 1 11.142-11.126z" fill="#0635c9"/><path d="m122.286 130.394a23.127 23.127 0 1 0 -23.143-23.127 23.161 23.161 0 0 0 23.143 23.127zm0-34.253a11.127 11.127 0 1 1 -11.143 11.126 11.148 11.148 0 0 1 11.143-11.126z" fill="#0635c9"/><path d="m182.857 130.394a23.127 23.127 0 1 0 -23.143-23.127 23.161 23.161 0 0 0 23.143 23.127zm0-34.253a11.127 11.127 0 1 1 -11.143 11.126 11.148 11.148 0 0 1 11.143-11.126z" fill="#0635c9"/><path d="m273.143 112.126h196.571a6 6 0 0 0 0-12h-196.571a6 6 0 0 0 0 12z" fill="#0635c9"/><g fill="#1ae5be"><path d="m233.7 192.14a8 8 0 0 0 -12 6.929v98.731a8.005 8.005 0 0 0 12 6.929l85.506-49.367a8 8 0 0 0 0-13.857zm0 98.734v-84.874l73.506 42.438z"/><path d="m16 356.18h480v12h-480z"/><path d="m53.452 397.587h-5.911a6 6 0 0 0 0 12h5.911a6 6 0 0 0 0-12z"/><path d="m83.452 397.587h-5.911a6 6 0 0 0 0 12h5.911a6 6 0 0 0 0-12z"/><path d="m463.452 397.587h-325.052v-2.437a6 6 0 0 0 -12 0v2.437h-8.855a6 6 0 1 0 0 12h8.855v2.372a6 6 0 0 0 12 0v-2.372h325.052a6 6 0 0 0 0-12z"/></g><path d="m474.182 57.5h-436.364a27.838 27.838 0 0 0 -27.818 27.8v341.4a27.839 27.839 0 0 0 27.818 27.8h436.364a27.839 27.839 0 0 0 27.818-27.8v-341.4a27.838 27.838 0 0 0 -27.818-27.8zm-436.364 12h436.364a15.826 15.826 0 0 1 15.818 15.8v61.26h-468v-61.26a15.826 15.826 0 0 1 15.818-15.8zm436.364 373h-436.364a15.826 15.826 0 0 1 -15.818-15.8v-268.143h468v268.143a15.826 15.826 0 0 1 -15.818 15.8z" fill="#0635c9"/></svg>