<svg id="Layer_1" height="512" viewBox="0 0 512 512" width="512" xmlns="http://www.w3.org/2000/svg" data-name="Layer 1"><path d="m139.19 465.07v-170.41a15.788 15.788 0 0 1 15.77-15.8h-30a15.788 15.788 0 0 0 -15.77 15.8v170.41a15.78 15.78 0 0 0 15.77 15.791h30a15.78 15.78 0 0 1 -15.77-15.791z" fill="#d4e1f4"/><g fill="#0635c9"><path d="m230.324 307.321h-15.886a6 6 0 0 0 0 12h15.886a6 6 0 0 0 0-12z"/><path d="m138.458 319.321h54.142a6 6 0 1 0 0-12h-54.142a6 6 0 1 0 0 12z"/><path d="m230.324 350.233h-54.256a6 6 0 0 0 0 12h54.256a6 6 0 0 0 0-12z"/><path d="m138.458 362.233h15.765a6 6 0 0 0 0-12h-15.765a6 6 0 0 0 0 12z"/><path d="m230.324 393.144h-45.007a6 6 0 0 0 0 12h45.007a6 6 0 1 0 0-12z"/><path d="m138.458 405.144h25.7a6 6 0 1 0 0-12h-25.7a6 6 0 1 0 0 12z"/><path d="m230.324 436.056h-18.447a6 6 0 0 0 0 12h18.447a6 6 0 0 0 0-12z"/><path d="m190.488 436.056h-52.03a6 6 0 0 0 0 12h52.03a6 6 0 0 0 0-12z"/><path d="m388.009 307.321h-52.926a6 6 0 1 0 0 12h52.926a6 6 0 0 0 0-12z"/><path d="m296.143 319.321h17.551a6 6 0 1 0 0-12h-17.551a6 6 0 1 0 0 12z"/><path d="m388.009 350.233h-23.609a6 6 0 0 0 0 12h23.609a6 6 0 0 0 0-12z"/><path d="m296.143 362.233h45.932a6 6 0 0 0 0-12h-45.932a6 6 0 0 0 0 12z"/><path d="m388.009 393.144h-21.66a6 6 0 1 0 0 12h21.66a6 6 0 0 0 0-12z"/><path d="m296.143 405.144h48.85a6 6 0 0 0 0-12h-48.85a6 6 0 0 0 0 12z"/><path d="m388.009 436.056h-52.933a6 6 0 0 0 0 12h52.933a6 6 0 0 0 0-12z"/><path d="m312.7 436.056h-16.557a6 6 0 0 0 0 12h16.557a6 6 0 0 0 0-12z"/></g><path d="m391.421 65.347a191.918 191.918 0 0 0 -38.3-28.823 193.905 193.905 0 0 0 -97.121-26.04c-107.153 0-194.329 87.388-194.329 194.8 0 46.435 14.429 87.508 42.886 122.076l9.264-7.627c-26.641-32.363-40.15-70.869-40.15-114.449a183.3 183.3 0 0 1 3.987-38.064l9.573-1.894a20.928 20.928 0 0 1 22.16 10.057 44.371 44.371 0 0 0 7.944 10.035l14.537 13.716a33.221 33.221 0 0 0 13.993 7.858l1.694.463a18.227 18.227 0 0 1 12.694 12.678l7.794 28.19a38.786 38.786 0 0 0 6.543 13.2l15.952 20.977 9.551-7.266-15.952-20.968a26.816 26.816 0 0 1 -4.528-9.137l-7.794-28.19a30.279 30.279 0 0 0 -21.1-21.055l-1.694-.463a21.2 21.2 0 0 1 -8.92-5.01l-14.537-13.717a32.349 32.349 0 0 1 -5.8-7.321 32.929 32.929 0 0 0 -34.868-15.817l-4.022.8c19.988-68.964 79.481-121.236 152.176-130.429l21.729 31.415a21.191 21.191 0 0 1 -.631 25.054l-6.435 8.37a14.178 14.178 0 0 1 -12.985 5.409l-7.3-.935a27 27 0 0 0 -26.754 13.152 14.322 14.322 0 0 1 -14.174 6.981l-16.854-2.145a27.906 27.906 0 0 0 -26.771 12.128 24.956 24.956 0 0 0 -.42 27.3l11.141 17.623a23.248 23.248 0 0 0 30.546 8.049l11.463-6.156a20.452 20.452 0 0 1 20.126.49l21.756 13.087a6.007 6.007 0 0 0 3.093.858 30.444 30.444 0 0 1 24.7 12.714l10.949 15.3c.754 1.054 1.564 2.093 2.408 3.089l13.925 16.423a6.538 6.538 0 0 1 -.994 9.4l-21.1 16.245a34.563 34.563 0 0 0 -12.019 17.322l-3.931 12.784 11.471 3.526 3.931-12.783a22.616 22.616 0 0 1 7.861-11.339l21.1-16.245a18.539 18.539 0 0 0 2.826-26.67l-13.924-16.422c-.631-.745-1.237-1.523-1.8-2.313l-10.95-15.3a42.481 42.481 0 0 0 -32.733-17.695l-20.388-12.263a32.5 32.5 0 0 0 -31.989-.779l-11.464 6.157a11.208 11.208 0 0 1 -14.724-3.888l-11.139-17.626a12.955 12.955 0 0 1 .219-14.17 15.964 15.964 0 0 1 15.313-6.942l16.853 2.145a26.3 26.3 0 0 0 26.039-12.811 15.026 15.026 0 0 1 14.881-7.323l7.3.934a26.2 26.2 0 0 0 24.021-10l6.436-8.37a33.157 33.157 0 0 0 .986-39.195l-17.845-25.8q4.569-.23 9.193-.232a181.918 181.918 0 0 1 91.135 24.438q7.542 4.319 14.621 9.34l-22.091 36.48q-.042.069-.081.138a20.934 20.934 0 0 0 2.42 24.113 26.41 26.41 0 0 0 16.684 8.86l2.641.326a12.745 12.745 0 0 1 10.624 8.969 12.289 12.289 0 0 1 -3.6 12.722l-26.169 23.173a25.632 25.632 0 0 0 -8.63 19.181v6.15a22.286 22.286 0 0 0 10.214 18.787 11.426 11.426 0 0 1 5.185 8.507l.613 6.14a20.605 20.605 0 0 0 20.554 18.636h15.319a33.238 33.238 0 0 0 30.433-19.921l.922-2.1a11.5 11.5 0 0 1 10.065-6.928l3.6-.164c.593-.026 1.187-.07 1.778-.129l5.561-.561a194.562 194.562 0 0 1 -23.913 79.329l10.439 5.916a203.15 203.15 0 0 0 26.011-98.594 195.653 195.653 0 0 0 -58.91-139.941zm46.887 141.175-7.28.734q-.56.057-1.121.082l-3.6.164a23.422 23.422 0 0 0 -20.51 14.1l-.922 2.1a21.238 21.238 0 0 1 -19.442 12.736h-15.317a8.642 8.642 0 0 1 -8.613-7.827l-.612-6.14a23.369 23.369 0 0 0 -10.61-17.392 10.33 10.33 0 0 1 -4.731-8.711v-6.15a13.626 13.626 0 0 1 4.585-10.2l26.165-23.168a24.321 24.321 0 0 0 7.13-25.178 24.752 24.752 0 0 0 -20.642-17.407l-2.642-.326a14.425 14.425 0 0 1 -9.112-4.841 8.926 8.926 0 0 1 -1.061-10.217l21.387-35.312q6.073 4.943 11.7 10.387a183.66 183.66 0 0 1 55.267 131.33c.002.414-.016.825-.019 1.236z" fill="#1ae5be"/><path d="m403.33 272.865h-119.242a27.06 27.06 0 0 0 -21.116 10.135 27.064 27.064 0 0 0 -21.117-10.134h-116.9a21.808 21.808 0 0 0 -21.769 21.8v170.4a21.808 21.808 0 0 0 21.769 21.8h121.51l12.563 12.256a8.391 8.391 0 0 0 11.786 0l12.564-12.255h119.952a21.808 21.808 0 0 0 21.769-21.8v-170.4a21.808 21.808 0 0 0 -21.769-21.802zm-149.522 204.393a8.4 8.4 0 0 0 -5.892-2.4h-122.959a9.794 9.794 0 0 1 -9.769-9.8v-170.4a9.793 9.793 0 0 1 9.769-9.8h116.9a15.14 15.14 0 0 1 15.1 15.177l1.819 182.067zm159.292-12.192a9.794 9.794 0 0 1 -9.769 9.8h-121.4a8.4 8.4 0 0 0 -5.893 2.4l-5.256 5.127-1.822-182.4h.023a15.128 15.128 0 0 1 15.105-15.117h119.242a9.793 9.793 0 0 1 9.769 9.8z" fill="#0635c9"/></svg>