<svg height="512" viewBox="0 0 60 60" width="512" xmlns="http://www.w3.org/2000/svg"><g id="003---Global-Funding" fill="none"><g id="Icons_copy"><path id="Shape" d="m7.03 32.9v.01l-.03.02v-.06z" fill="#2fa8cc"/><path id="Shape" d="m41 32.9c.002261 8.6330482-6.466431 15.8970123-15.0420286 16.8913215s-16.53478779-4.5967946-18.5079714-13.0013215c-.31627133-1.2681307-.4575813-2.5735657-.42-3.88v-.01l-.03-.03c.00828447-9.3888406 7.6261594-16.9932839 17.015-16.9849996 9.3888406.0082842 16.9932841 7.626159 16.985 17.0149996z" fill="#cad9fc"/><path id="Shape" d="m38 32.9c-.0037304 8.8201641-6.752423 16.1725043-15.54 16.93-8.7420121-.8003735-15.43928071-8.1214498-15.46-16.9l.03-.02v-.01l-.03-.03c.00328375-8.7853359 6.7096804-16.1163904 15.46-16.9 8.787577.7574957 15.5362696 8.1098359 15.54 16.93z" fill="#e8edfc"/><path id="Shape" d="m59 10c-.0031198 4.7747418-3.7344058 8.7160289-8.5018284 8.9803214s-8.911493-3.2404071-9.4423682-7.9855457c-.5308752-4.74513861 2.7362369-9.07898422 7.4441966-9.8747757 2.6126118-.43843689 5.2857736.29524803 7.3085327 2.00592423 2.022759 1.7106762 3.190067 4.22493154 3.1914673 6.87407577z" fill="#cad9fc"/><ellipse id="Oval" cx="48.5" cy="10" fill="#e8edfc" rx="7.5" ry="8.88"/><path id="Shape" d="m59 48c-.0052852 2.563808-1.9489176 4.7081776-4.4998738 4.9646182s-4.8825198-1.4581554-5.3980073-3.9696115c-.5154876-2.5114561.9521607-5.0058572 3.3978811-5.7750067 1.5202835-.4726657 3.1747074-.1949284 4.4573017.7482717 1.2825944.9432002 2.040786 2.4396633 2.0426983 4.0317283z" fill="#cad9fc"/><path id="Shape" d="m11 6c-.0052852 2.56380799-1.94891762 4.7081776-4.49987382 4.9646182s-4.88251979-1.45815536-5.39800731-3.96961149c-.51548753-2.51145614.9521607-5.00585723 3.39788113-5.77500671 1.52028351-.47266565 3.17470738-.19492843 4.45730172.74827171 1.28259438.94320015 2.04078598 2.43966324 2.04269828 4.03172829z" fill="#a4c2f7"/><path id="Shape" d="m9 56c-.00093362 1.4556384-1.0466857 2.7005654-2.48031794 2.9527216-1.43363224.2521561-2.84141291-.5612283-3.33897844-1.9291876-.49756554-1.3679593.05867643-2.8957143 1.31929638-3.623534.92850089-.5360705 2.07250429-.5358873 3.00083341.0004806.92832912.536368 1.49985424 1.527379 1.49916659 2.5995194z" fill="#cad9fc"/><path id="Shape" d="m28 6c-.0009336 1.45563844-1.0466857 2.70056541-2.4803179 2.95272155-1.4336323.25215615-2.8414129-.56122824-3.3389785-1.92918754-.4975655-1.36795931.0586764-2.89571434 1.3192964-3.62353401.9285009-.53607053 2.0725043-.5358873 3.0008334.00048064.9283291.53636793 1.4998543 1.52737896 1.4991666 2.59951936z" fill="#cad9fc"/><ellipse id="Oval" cx="52.5" cy="48" fill="#e8edfc" rx="3.5" ry="4.78"/><ellipse id="Oval" cx="4.5" cy="6" fill="#cad9fc" rx="3.5" ry="4.78"/><g fill="#e8edfc"><path id="Shape" d="m4.5 58.6c-.93008329-.5353928-1.50333705-1.526827-1.50333705-2.6s.57325376-2.0646072 1.50333705-2.6c.93008329.5353928 1.50333705 1.526827 1.50333705 2.6s-.57325376 2.0646072-1.50333705 2.6z"/><path id="Shape" d="m23.5 8.6c-.9300833-.53539277-1.503337-1.52682697-1.503337-2.6s.5732537-2.06460723 1.503337-2.6c.9300833.53539277 1.503337 1.52682697 1.503337 2.6s-.5732537 2.06460723-1.503337 2.6z"/></g></g><g id="Icons" fill="#fff" transform="translate(0 1)"><path id="Shape" d="m7.489 52.409c-.92177258-.5419276-2.06398064-.5453668-2.989-.009-.93008329.5353928-1.50333705 1.526827-1.50333705 2.6s.57325376 2.0646072 1.50333705 2.6c.92501936.5363668 2.06722742.5329276 2.989-.009-.92132734-.537716-1.48780987-1.5242374-1.48780987-2.591s.56648253-2.053284 1.48780987-2.591z"/><path id="Shape" d="m7.71 27.02c-1.60871672 5.3935249-.44534695 11.2336174 3.1073758 15.5989629 3.5527227 4.3653455 9.0347718 6.6906944 14.6426242 6.2110371-8.7574739-.7984835-15.46054102-8.1440078-15.4563858-16.9378072.0041553-8.7937994 6.7141612-16.1329859 15.4723858-16.9231928-8.0307653-.7054511-15.4520425 4.3285358-17.766 12.051z"/><path id="Shape" d="m7.452 9.76c-2.05462629-.67735741-3.4427505-2.59659938-3.4427505-4.76s1.38812421-4.08264259 3.4427505-4.76c-2.04520354-.63187349-4.26544057.11334259-5.51525755 1.85118007-1.24981697 1.73783749-1.24981697 4.07980237 0 5.81763986 1.24981698 1.73783749 3.47005401 2.48305357 5.51525755 1.85118007z"/></g><g id="Layer_11" transform="translate(0 -1)"><path id="Shape" d="m.008 6.823 2 .058c-.03214388 1.07994413.37394777 2.12696293 1.12586749 2.90280395.75191972.77584105 1.78571143 1.21451345 2.86613251 1.21619605v2c-1.62105801-.0014559-3.17254841-.6587854-4.30125345-1.8223386-1.12870504-1.1635533-1.73856843-2.73430827-1.69074655-4.3546614z" fill="#fff"/><g fill="#428dff"><path id="Shape" d="m60 11c.0081334-4.43670729-2.9080241-8.3483114-7.1623671-9.60728071-4.254343-1.25896932-8.8295545.43574631-11.2371652 4.16238666-2.4076108 3.72664036-2.0719024 8.59407515.8245323 11.95489405l-3.437 3.871c.168-5.706-4.321-9.512-12.988-6.1v-4.423c1.9503067-.503567 3.2219252-2.37878672 2.9681188-4.37700052-.2538064-1.99821379-1.9538507-3.49598283-3.9681188-3.49598283s-3.7143124 1.49776904-3.9681188 3.49598283c-.2538064 1.9982138 1.0178121 3.87343352 2.9681188 4.37700052v5.042c-3.4847429-.0011736-6.8938458 1.0162045-9.808 2.927l-4.519-7.1c2.2013415-1.7072195 2.93632-4.70603656 1.77388-7.23768348-1.1624399-2.53164692-3.91585199-3.92872221-6.64539525-3.37185913-2.72954325.55686308-4.71564612 2.92086237-4.79348475 5.70554261-.03040007.28799956.07422409.57385149.28335635.77418024s.49921685.29257014.78564365.24981976c.49045576-.07910957.86956564-.47289467.93-.966.06528351-2.19336937 1.88542446-3.92465662 4.07931428-3.88017465 2.19388981.04448197 3.94235872 1.84812417 3.91868222 4.04233715-.02367639 2.19421297-1.81065767 3.9597063-4.0049965 3.9568375-.55228475 0-1 .4477153-1 1s.44771525 1 1 1c.64862241-.0009157 1.29275037-.1076511 1.907-.316l3.983 6.252c-6.339-.406-8.978 4.3-7.279 10.665-3.059 1.168-4.611 2.61-4.611 4.299s1.552 3.132 4.611 4.3c-1.622 6.081.689 10.87 6.889 10.68l-3.792 4.52c-1.81720604-.8599074-3.9903379-.234704-5.07275783 1.4594169s-.73653861 3.9287903.80739332 5.2164054c1.54393194 1.2876151 3.80438703 1.2265895 5.2765971-.1424525 1.47221011-1.369042 1.69701651-3.6191183.52476741-5.2523698l4.839-5.769c3.0772207 2.0525242 6.720155 3.0894158 10.417 2.965 10.081 4.717 15.771.286 14.222-7.655.9625775-1.3669434 1.7293313-2.8617431 2.278-4.441l7.762 6.31c-1.5214776 2.7229343-.7028399 6.1575013 1.883312 7.9013716 2.5861518 1.7438704 6.0771505 1.2153382 8.0311952-1.2159113 1.9540448-2.4312496 1.7193213-5.9542204-.5399914-8.1047484-2.2593128-2.1505281-5.789572-2.211258-8.1215158-.1397119l-7.428-6.037c3.59-1.218 5.413-2.758 5.413-4.595 0-2.045-2.265-3.723-6.72-5-.4808999-1.6588909-1.1997056-3.2393205-2.134-4.692l4.73-5.327c3.0130993 2.334123 7.09103 2.7524883 10.5153017 1.0787916 3.4242718-1.6736967 5.5993765-5.1483863 5.6086983-8.9597916zm-54 48c-1.1045695 0-2-.8954305-2-2s.8954305-2 2-2 2 .8954305 2 2-.8954305 2-2 2zm48-14c2.209139 0 4 1.790861 4 4s-1.790861 4-4 4-4-1.790861-4-4 1.790861-4 4-4zm-8-11.1c0 .542-.935 1.665-4.234 2.757.3110061-1.8251795.3110061-3.6898205 0-5.515 3.299 1.095 4.234 2.218 4.234 2.758zm-9.018-12.434c-2.2912957-2.3913536-5.1979349-4.1041946-8.4-4.95 4.892-1.378 8.627-.069 8.4 4.95zm-13.982-14.466c0-1.1045695.8954305-2 2-2s2 .8954305 2 2-.8954305 2-2 2-2-.8954305-2-2zm13.568 17.033c-.8397788 2.9390266-2.1848647 5.709396-3.975 8.187-4.111-5.129-10.132-10.18-16.305-12.328 6.8594026-3.7888813 15.4550781-2.0337189 20.28 4.141zm-2.3 14.227c-1.413.188-2.9.334-4.436.44.984-1.016 1.916-2.055 2.765-3.115.614.892 1.166 1.786 1.667 2.675zm-20.136-16.926c6.368 1.621 12.992 7.12 17.222 12.566-1.3664517 1.778314-2.8848279 3.434542-4.538 4.95-6.1946003.2755362-12.3986693-.2586424-18.455-1.589-1.29157763-5.9765275.95076841-12.1650296 5.771-15.927zm-2.566-.415c-2.29025886 2.1897223-3.96190546 4.9452141-4.846 7.988-.063.018-.128.035-.191.054-1.209-4.71.124-8.261 5.037-8.042zm-5.541 13.486c-.3.643-.569 1.274-.8 1.89-2.479-.97-3.225-1.91-3.225-2.395s.746-1.424 3.225-2.393c.231.616.5 1.248.8 1.89 0 .169-.025.333-.025.5s.021.34.025.508zm.5 4.439c.062.019.127.036.19.054.88356279 3.0417461 2.55413379 5.7964808 4.843 7.986-4.9.222-6.24-3.322-5.028-8.04zm2.492.634c5.0860616 1.0225314 10.2667436 1.4992319 15.454 1.422-3.0292933 2.5456385-6.5494494 4.4415261-10.342 5.57-2.3104238-1.8190957-4.0769798-4.2376896-5.107-6.992zm7.263 8.433c4.2126117-1.5992043 8.0714847-4.0074753 11.359-7.089 2.5414145-.0958179 5.0763357-.3204397 7.595-.673.5550285 1.1635731.9999677 2.3765263 1.329 3.623-4.8250294 6.1733409-13.4196096 7.927605-20.278 4.139zm12.3 3.378c3.2024479-.8448881 6.1093214-2.5578671 8.4-4.95.229 5.019-3.504 6.327-8.398 4.95zm9.428-9.673c-.2066667-.596-.443-1.196-.709-1.8.574-.1 1.135-.215 1.677-.334-.2693335.7340186-.5922015 1.4472697-.966 2.134zm1.629-4.355c-1.014.2533333-2.096.4793333-3.246.678-.7503095-1.4017656-1.5945695-2.7511784-2.527-4.039 1.7416812-2.3597193 3.1377504-4.9558828 4.146-7.71 1.8665658 3.3710273 2.4454433 7.3051915 1.629 11.071zm10.363-34.261c3.6073451-.00559016 6.7722004 2.40373886 7.7270521 5.88242085.9548517 3.47868195-.5365319 7.16608625-3.6412403 9.00286505-3.1047083 1.8367787-7.0546324 1.3685103-9.6438118-1.1432859-2.3272728-2.2702042-3.0512355-5.7220521-1.8322235-8.73602548 1.2190121-3.01397335 4.139096-4.99197386 7.3902235-5.00597452z"/><path id="Shape" d="m47.667 13.5c0-.5522847-.4477153-1-1-1-1.825 0-1.209 3.726 2.346 4.4.0331679.5207463.4651985.9261351.987.9261351s.9538321-.4053888.987-.9261351c1.7842443-.188694 3.1858932-1.6129636 3.346-3.4-.15753-1.7833785-1.5531095-3.2070119-3.333-3.4v-2.938c.772.251 1.333.767 1.333 1.338 0 .55228475.4477153 1 1 1 1.825 0 1.209-3.726-2.346-4.4-.0331679-.52074627-.4651985-.92613507-.987-.92613507s-.9538321.4053888-.987.92613507c-1.7842443.18869396-3.1858932 1.61296362-3.346 3.4.15753 1.7833785 1.5531095 3.2070119 3.333 3.4v2.941c-.772-.254-1.333-.77-1.333-1.341zm3.333-1.338c1.77.575 1.772 2.1 0 2.676zm-2-5v2.676c-1.77-.575-1.772-2.101 0-2.676z"/><path id="Shape" d="m3.4 10.514c-.00385272-.55458714-.45540198-1.00166562-1.01-1-.55094938.00550977-.99364192.45563532-.98997789 1.0066001.00366403.5509647.45230402.9951627 1.00327794.9933445.55097393-.0018183.9966724-.4489677.99669995-.9999446z"/></g></g></g></svg>