<svg id="Layer_1" height="512" viewBox="0 0 512 512" width="512" xmlns="http://www.w3.org/2000/svg" data-name="Layer 1"><path d="m103.5 398.28v-205.39a25.246 25.246 0 0 1 25.21-25.269h-30a25.246 25.246 0 0 0 -25.21 25.269v205.39a25.248 25.248 0 0 0 25.21 25.28h30a25.248 25.248 0 0 1 -25.21-25.28z" fill="#d4e1f4"/><path d="m413.286 161.621h-63.293v12h63.293a19.265 19.265 0 0 1 19.214 19.273v176.315h-353v-176.315a19.265 19.265 0 0 1 19.214-19.273h68.062v-12h-68.062a31.279 31.279 0 0 0 -31.214 31.273v205.39a31.279 31.279 0 0 0 31.214 31.273h103.052v60.443h-25.53a6 6 0 0 0 0 12h159.528a6 6 0 0 0 0-12h-25.53v-60.443h103.052a31.279 31.279 0 0 0 31.214-31.273v-205.39a31.279 31.279 0 0 0 -31.214-31.273zm-115.052 328.379h-84.468v-60.443h84.468zm115.052-72.443h-314.572a19.265 19.265 0 0 1 -19.214-19.273v-17.075h353v17.075a19.265 19.265 0 0 1 -19.214 19.273z" fill="#0635c9"/><g fill="#1ae5be"><path d="m360.982 331.5h-176.25v-2.73a6 6 0 0 0 -12 0v2.73h-17.088a6 6 0 0 0 0 12h17.088v1.8a6 6 0 0 0 12 0v-1.8h176.25a6 6 0 0 0 0-12z"/><path d="m258.387 136.226a48.838 48.838 0 0 0 48.783-48.783v-28.66a48.783 48.783 0 0 0 -97.566 0v28.66a48.838 48.838 0 0 0 48.783 48.783zm-36.787-77.443a36.783 36.783 0 0 1 73.566 0v28.66a36.783 36.783 0 0 1 -73.566 0z"/><path d="m315.432 147.684h-18.032a6.814 6.814 0 0 1 -6.8-6.814 6 6 0 0 0 -11.667-1.973l-8.776 8.787h-23.338l-9.743-10.962a6 6 0 0 0 -8.733-.25l-.161.161a6 6 0 0 0 -1.751 4.237 6.814 6.814 0 0 1 -6.8 6.814h-18.29a56.007 56.007 0 0 0 -55.914 55.973v78.531a6 6 0 0 0 6 6h213.919a6 6 0 0 0 6-6v-78.531a56.007 56.007 0 0 0 -55.914-55.973zm-51.18 12-3.223 9.417h-5.285l-3.223-9.417zm-6.19 21.417h1.965l10.062 57.941-11.866 13.876-11.5-13.774zm101.284 95.087h-201.918v-72.531a43.993 43.993 0 0 1 43.914-43.973h18.29a18.777 18.777 0 0 0 15.068-7.574l4.141 4.658 7.663 20.918-12.1 61.961a6 6 0 0 0 1.283 5l17.877 21.417a6 6 0 0 0 4.57 2.155h.036a6 6 0 0 0 4.56-2.1l18.313-21.419a6 6 0 0 0 1.352-4.926l-11.079-63.792 6.559-19.037 4.617-4.623a18.786 18.786 0 0 0 14.311 7.357c.112 0 .225.009.339.009h18.29a43.993 43.993 0 0 1 43.914 43.973z"/><path d="m328.629 201.508h-27.459a6 6 0 0 0 0 12h27.459a6 6 0 0 0 0-12z"/></g></svg>