<svg id="Layer_1" height="512" viewBox="0 0 512 512" width="512" xmlns="http://www.w3.org/2000/svg" data-name="Layer 1"><path d="m75 383.081v-237.33a29.181 29.181 0 0 1 29.15-29.21h-30a29.181 29.181 0 0 0 -29.15 29.21v237.33a29.181 29.181 0 0 0 29.15 29.21h30a29.181 29.181 0 0 1 -29.15-29.21z" fill="#d4e1f4"/><path d="m437.789 110.543-73.047.728.119 12 72.988-.728a23.2 23.2 0 0 1 23.151 23.204v204.674h-410v-204.674a23.2 23.2 0 0 1 23.151-23.2h75.354v-12h-75.354a35.218 35.218 0 0 0 -35.151 35.2v237.338a35.217 35.217 0 0 0 35.151 35.2h120.082v71.715h-27.833a6 6 0 0 0 0 12h179.44a6 6 0 1 0 0-12h-28.073v-71.711h120.082a35.217 35.217 0 0 0 35.151-35.204v-237.338a35.231 35.231 0 0 0 -35.211-35.204zm-132.022 379.457h-99.534v-71.711h99.534zm132.082-83.711h-363.698a23.2 23.2 0 0 1 -23.151-23.204v-20.664h410v20.664a23.2 23.2 0 0 1 -23.151 23.204z" fill="#0635c9"/><g fill="#1ae5be"><path d="m370.8 126.872a114.082 114.082 0 0 0 -162.711-103.339c-34.873-14.377-75.519-20.411-89.87-1.916-11.59 14.937-7.064 40.3 12.745 71.4 3.87 6.078 8.246 12.261 13.064 18.5a117.587 117.587 0 0 0 -1.009 15.236 113.822 113.822 0 0 0 53.007 96.666 12 12 0 0 1 5.664 10.13v41.292h-8.5a6 6 0 0 0 0 12h8.5v8.026a18.073 18.073 0 0 0 18.039 18.066h8.282a30.978 30.978 0 0 0 56.883 10.239 6 6 0 0 0 -10.245-6.251 18.966 18.966 0 0 1 -34.255-3.988h53.7a18.072 18.072 0 0 0 18.038-18.066v-8.026h10.288a6 6 0 0 0 0-12h-10.29v-35.641q4.2 1.65 8.3 3.1a180.761 180.761 0 0 0 21.728 6.23 117.716 117.716 0 0 0 14.632 2.249q3.708.315 7.17.315a63.3 63.3 0 0 0 9.8-.718c9.919-1.559 17.481-5.615 22.479-12.056 14.806-19.081-17.234-60.672-30.787-76.691a115.06 115.06 0 0 0 5.348-34.757zm-113.919-102.221q.72 0 1.44.01a102.063 102.063 0 0 1 100.479 102.211 101.87 101.87 0 0 1 -47.573 86.5 23.92 23.92 0 0 0 -8.281 8.855c-25.428-11.653-52.837-28.6-79.169-49.128-26.473-20.637-49.595-43.059-67.092-64.885a101.662 101.662 0 0 1 100.196-83.563zm-115.795 61.924c-16.638-26.128-21.517-47.123-13.387-57.6 6.84-8.815 32.009-10.454 66.833 2.16a114.253 114.253 0 0 0 -47.29 64.575q-3.262-4.604-6.156-9.135zm159.044 208.29a6.059 6.059 0 0 1 -6.038 6.066h-74.363a6.059 6.059 0 0 1 -6.039-6.066v-8.026h86.44zm0-47.438h-39.2a6 6 0 1 0 0 12h39.2v15.412h-86.44v-15.412h2.746a6 6 0 1 0 0-12h-2.746v-13.88a23.939 23.939 0 0 0 -11.227-20.257 101.881 101.881 0 0 1 -47.444-86.527c0-.6.013-1.2.023-1.8 16.939 19.58 37.889 39.3 61.36 57.6 27.778 21.654 56.826 39.5 83.728 51.573zm86.629-16.472c-3.063 3.946-8.063 6.489-14.863 7.558a59.412 59.412 0 0 1 -14.088.3 105.792 105.792 0 0 1 -13.13-2.024 168.984 168.984 0 0 1 -20.274-5.821c-3.388-1.189-6.842-2.515-10.337-3.932a11.993 11.993 0 0 1 3.584-3.528 113.95 113.95 0 0 0 42.863-49.052c23.308 28.744 31.103 50.238 26.245 56.499z"/><path d="m238.83 259.427h.1a6 6 0 1 0 0-12h-.1a6 6 0 1 0 0 12z"/><path d="m236.689 86.129a17.783 17.783 0 0 0 5.244-.789l7.512 12.724a21.366 21.366 0 0 0 13.588 37.059l5.757 19.841a17.855 17.855 0 1 0 11.506-3.409l-5.607-19.326a21.361 21.361 0 0 0 7.915-28.861l9.007-6.213a17.712 17.712 0 0 0 9.276 2.63 17.961 17.961 0 1 0 -16.846-11.985l-10.176 7.019a20.918 20.918 0 0 0 -13.654-2.119l-8.623-14.61a17.855 17.855 0 1 0 -14.9 8.039zm48.486 83.271a5.87 5.87 0 1 1 -5.869-5.9 5.89 5.89 0 0 1 5.869 5.9zm15.712-93.414a5.9 5.9 0 1 1 -5.869 5.9 5.891 5.891 0 0 1 5.869-5.897zm-27.581 37.77a9.374 9.374 0 1 1 -9.373-9.409 9.4 9.4 0 0 1 9.373 9.412zm-36.617-51.422a5.9 5.9 0 1 1 -5.87 5.9 5.89 5.89 0 0 1 5.87-5.9z"/><path d="m214.448 147.067a17.9 17.9 0 1 0 -17.87-17.9 17.9 17.9 0 0 0 17.87 17.9zm0-23.8a5.9 5.9 0 1 1 -5.87 5.9 5.891 5.891 0 0 1 5.87-5.896z"/></g></svg>