<?xml version="1.0"?>
<svg xmlns="http://www.w3.org/2000/svg" height="512px" viewBox="0 0 64 64" width="512px" class=""><g><g id="girl-book-mouse-graduate-onlie_education" data-name="girl-book-mouse-graduate-onlie education"><g fill="#bddbff"><path d="m56 47a5 5 0 0 0 -5 5v4a5 5 0 0 0 10 0v-4a4.985 4.985 0 0 0 -5-5z" data-original="#BDDBFF" class="" style="fill:#0069D9" data-old_color="#BDDBFF"/><path d="m57 13-6 2h10v-10h-4z" data-original="#BDDBFF" class="" style="fill:#0069D9" data-old_color="#BDDBFF"/><path d="m45 5h-4v10h10l-6-2z" data-original="#BDDBFF" class="" style="fill:#0069D9" data-old_color="#BDDBFF"/><path d="m31 21v4a8 8 0 0 0 8 8v-4a8 8 0 0 0 -8-8z" data-original="#BDDBFF" class="" style="fill:#0069D9" data-old_color="#BDDBFF"/><path d="m37 8-6 1.88v7.12h-20v-7.12l-6-1.88 16-5z" data-original="#BDDBFF" class="" style="fill:#0069D9" data-old_color="#BDDBFF"/><path d="m38 38-13 6.88v16.12h-8v-16.12l-13-6.88 14-2 3 11 3-11z" data-original="#BDDBFF" class="" style="fill:#0069D9" data-old_color="#BDDBFF"/><path d="m11 25v-4a8 8 0 0 0 -8 8v4a8 8 0 0 0 8-8z" data-original="#BDDBFF" class="" style="fill:#0069D9" data-old_color="#BDDBFF"/></g><path d="m35.19 21.04a2.993 2.993 0 0 0 -2.19-5.04h-1v-5.39l4-1.25v6.64h2v-8a.987.987 0 0 0 -.7-.95l-16-5a1.023 1.023 0 0 0 -.6 0l-16 5a.995.995 0 0 0 0 1.9l5.3 1.66v5.39h-1a2.993 2.993 0 0 0 -2.19 5.04 9 9 0 0 0 -4.81 7.96v4a1 1 0 0 0 1 1 9 9 0 0 0 8.59-6.33 11.106 11.106 0 0 0 5.41 4.57v2.89l-13.14 1.88a1 1 0 0 0 -.86.99v23a1 1 0 0 0 1 1h34a1 1 0 0 0 1-1v-23a1 1 0 0 0 -.86-.99l-13.14-1.88v-2.89a11.106 11.106 0 0 0 5.41-4.57 9 9 0 0 0 8.59 6.33 1 1 0 0 0 1-1v-4a9 9 0 0 0 -4.81-7.96zm-25.19 3.96a7.013 7.013 0 0 1 -6 6.93v-2.93a7.013 7.013 0 0 1 6-6.93zm0-5h-1a1 1 0 0 1 0-2h1zm23-2a1 1 0 0 1 0 2h-1v-2zm-15.73 19.12 2.16 7.92-12.24-6.49zm-1.27 22.88h-11v-20.34l11 5.82zm4 0h-2v-13.46l2 1.06zm-1-24.13v-3.06a10.621 10.621 0 0 0 4 0v3.06l-2 7.33zm5 24.13h-2v-12.4l2-1.06zm13 0h-11v-14.52l11-5.82zm-2.19-21.45-12.24 6.49 2.16-7.92zm-4.81-16.55a9 9 0 0 1 -18 0v-4h18zm0-6h-18v-4.77l8.7 2.72a.925.925 0 0 0 .6 0l8.7-2.72zm-9-4.05-12.65-3.95 12.65-3.95 12.65 3.95zm17 19.98a7.013 7.013 0 0 1 -6-6.93v-2.93a7.013 7.013 0 0 1 6 6.93z" fill="#57a4ff" data-original="#57A4FF" class="active-path" style="fill:#0062CC" data-old_color="#57a4ff"/><path d="m61 16a1 1 0 0 0 1-1v-10a1 1 0 0 0 -1-1h-3v-1a.983.983 0 0 0 -.42-.81 1 1 0 0 0 -.9-.14l-5.68 1.9-5.68-1.9a1 1 0 0 0 -.9.14.983.983 0 0 0 -.42.81v1h-3a1 1 0 0 0 -1 1v10a1 1 0 0 0 1 1h9v20a1 1 0 0 0 1 1h4v9.09a6.007 6.007 0 0 0 -5 5.91v4a6 6 0 0 0 12 0v-4a6.007 6.007 0 0 0 -5-5.91v-10.09a1 1 0 0 0 -1-1h-4v-19zm-3.68-2.05a1.014 1.014 0 0 0 .68-.95v-7h2v8h-2.84zm-15.32.05v-8h2v7a1.014 1.014 0 0 0 .68.95l.16.05zm18 38v4a4 4 0 0 1 -8 0v-4a4 4 0 0 1 8 0zm-9-38.05-5-1.67v-7.89l4.68 1.56a1 1 0 0 0 .64 0l4.68-1.56v7.89z" fill="#57a4ff" data-original="#57A4FF" class="active-path" style="fill:#0062CC" data-old_color="#57a4ff"/><path d="m55 50h2v4h-2z" fill="#57a4ff" data-original="#57A4FF" class="active-path" style="fill:#0062CC" data-old_color="#57a4ff"/></g></g> </svg>
