<?xml version="1.0" encoding="iso-8859-1"?>
<!-- Generator: Adobe Illustrator 19.0.0, SVG Export Plug-In . SVG Version: 6.00 Build 0)  -->
<svg version="1.1" id="Capa_1" xmlns="http://www.w3.org/2000/svg" xmlns:xlink="http://www.w3.org/1999/xlink" x="0px" y="0px"
	 viewBox="0 0 511.92 511.92" style="enable-background:new 0 0 511.92 511.92;" xml:space="preserve">
<g>
	<path style="fill:#A4C2F7;" d="M256.042,435.203c-98.81,0,153.6-80.39,153.6-179.2s-252.41-179.2-153.6-179.2
		c98.969,0,179.2,80.231,179.2,179.2S355.012,435.203,256.042,435.203L256.042,435.203z"/>
	<path style="fill:#FFFFFF;" d="M256.042,435.203c-98.969,0-179.2-80.231-179.2-179.2s80.231-179.2,179.2-179.2
		c98.81,0-153.6,80.39-153.6,179.2S354.852,435.203,256.042,435.203z"/>
	
		<linearGradient id="SVGID_1_" gradientUnits="userSpaceOnUse" x1="-48.6823" y1="652.4446" x2="-47.9143" y2="651.7864" gradientTransform="matrix(307.2 0 0 -358.4 15093.2744 233974.2188)">
		<stop  offset="0" style="stop-color:#D3DFF2"/>
		<stop  offset="0.1717" style="stop-color:#D3DFF2"/>
		<stop  offset="0.2" style="stop-color:#D3DFF2"/>
		<stop  offset="0.2002" style="stop-color:#DAE2F2"/>
		<stop  offset="0.2007" style="stop-color:#EBEAF2"/>
		<stop  offset="0.2014" style="stop-color:#F6EFF2"/>
		<stop  offset="0.2023" style="stop-color:#FDF2F2"/>
		<stop  offset="0.205" style="stop-color:#FFF3F2"/>
		<stop  offset="0.2522" style="stop-color:#FFF3F2"/>
		<stop  offset="0.26" style="stop-color:#FFF3F2"/>
		<stop  offset="0.26" style="stop-color:#D3DFF2"/>
		<stop  offset="0.3974" style="stop-color:#D3DFF2"/>
		<stop  offset="0.42" style="stop-color:#D3DFF2"/>
		<stop  offset="0.4202" style="stop-color:#DAE2F2"/>
		<stop  offset="0.4207" style="stop-color:#EBEAF2"/>
		<stop  offset="0.4214" style="stop-color:#F6EFF2"/>
		<stop  offset="0.4223" style="stop-color:#FDF2F2"/>
		<stop  offset="0.425" style="stop-color:#FFF3F2"/>
		<stop  offset="0.4894" style="stop-color:#FFF3F2"/>
		<stop  offset="0.5" style="stop-color:#FFF3F2"/>
		<stop  offset="0.5" style="stop-color:#F8F0F2"/>
		<stop  offset="0.5001" style="stop-color:#E7E8F2"/>
		<stop  offset="0.5003" style="stop-color:#DCE3F2"/>
		<stop  offset="0.5005" style="stop-color:#D5E0F2"/>
		<stop  offset="0.501" style="stop-color:#D3DFF2"/>
		<stop  offset="0.7062" style="stop-color:#D3DFF2"/>
		<stop  offset="0.74" style="stop-color:#D3DFF2"/>
		<stop  offset="0.741" style="stop-color:#FFF3F2"/>
		<stop  offset="0.8346" style="stop-color:#FFF3F2"/>
		<stop  offset="0.85" style="stop-color:#FFF3F2"/>
		<stop  offset="0.851" style="stop-color:#D3DFF2"/>
	</linearGradient>
	<ellipse style="fill:url(#SVGID_1_);" cx="256.042" cy="256.003" rx="153.6" ry="179.2"/>
	<circle style="fill:#A4C2F7;" cx="256.042" cy="247.47" r="25.6"/>
	<g>
		<path style="fill:#428DFF;" d="M8.576,264.537c-2.263,0.001-4.434-0.898-6.035-2.499s-2.499-3.771-2.499-6.035
			C-0.186,185.859,28.637,118.751,79.663,70.62c3.415-3.249,8.817-3.115,12.067,0.3s3.115,8.817-0.3,12.067
			c-47.626,44.918-74.531,107.55-74.321,173.017c0.001,2.263-0.898,4.434-2.499,6.035C13.01,263.638,10.839,264.537,8.576,264.537z"
			/>
		<path style="fill:#428DFF;" d="M426.709,85.495c-2.193,0.003-4.303-0.842-5.887-2.358C340.248,6.146,217.099-4.785,124.226,56.811
			c-2.54,1.715-5.803,1.936-8.551,0.58c-2.748-1.356-4.558-4.081-4.742-7.14c-0.184-3.059,1.286-5.981,3.852-7.657
			c99.514-66.007,231.472-54.302,317.813,28.192c2.526,2.406,3.332,6.108,2.036,9.347C433.336,83.373,430.198,85.496,426.709,85.495
			z"/>
		<path style="fill:#428DFF;" d="M256.042,443.737c-103.682,0-187.733-84.051-187.733-187.733S152.36,68.27,256.042,68.27
			s187.733,84.051,187.733,187.733C443.659,359.637,359.676,443.62,256.042,443.737z M256.042,85.337
			c-94.257,0-170.667,76.41-170.667,170.667s76.41,170.667,170.667,170.667s170.667-76.41,170.667-170.667
			C426.603,161.791,350.255,85.443,256.042,85.337z"/>
		<path style="fill:#428DFF;" d="M256.042,128.003c-2.263,0.001-4.434-0.898-6.035-2.499s-2.499-3.771-2.499-6.035v-17.067
			c0-4.713,3.821-8.533,8.533-8.533s8.533,3.821,8.533,8.533v17.067c0.001,2.263-0.898,4.434-2.499,6.035
			C260.476,127.105,258.306,128.004,256.042,128.003z"/>
		<path style="fill:#428DFF;" d="M256.042,418.137c-2.263,0.001-4.434-0.898-6.035-2.499c-1.6-1.6-2.499-3.771-2.499-6.035v-17.067
			c0-4.713,3.821-8.533,8.533-8.533s8.533,3.821,8.533,8.533v17.067c0.001,2.263-0.898,4.434-2.499,6.035
			C260.476,417.238,258.306,418.137,256.042,418.137L256.042,418.137z"/>
		<path style="fill:#428DFF;" d="M409.642,264.537h-17.067c-4.713,0-8.533-3.82-8.533-8.533s3.82-8.533,8.533-8.533h17.067
			c4.713,0,8.533,3.821,8.533,8.533S414.355,264.537,409.642,264.537z"/>
		<path style="fill:#428DFF;" d="M119.509,264.537h-17.067c-4.713,0-8.533-3.82-8.533-8.533s3.821-8.533,8.533-8.533h17.067
			c4.713,0,8.533,3.821,8.533,8.533S124.222,264.537,119.509,264.537z"/>
		<path style="fill:#428DFF;" d="M256.042,281.603c-18.851,0-34.133-15.282-34.133-34.133s15.282-34.133,34.133-34.133
			s34.133,15.282,34.133,34.133C290.155,266.313,274.885,281.583,256.042,281.603z M256.042,230.403
			c-9.426,0-17.067,7.641-17.067,17.067c0,9.426,7.641,17.067,17.067,17.067c9.426,0,17.067-7.641,17.067-17.067
			C273.098,238.049,265.463,230.414,256.042,230.403L256.042,230.403z"/>
		<path style="fill:#428DFF;" d="M256.042,230.403c-2.263,0.001-4.434-0.898-6.035-2.499s-2.499-3.771-2.499-6.035v-51.2
			c0-4.713,3.821-8.533,8.533-8.533s8.533,3.82,8.533,8.533v51.2c0.001,2.263-0.898,4.434-2.499,6.035
			C260.476,229.505,258.306,230.404,256.042,230.403z"/>
		<path style="fill:#428DFF;" d="M162.176,349.87c-3.451-0.001-6.562-2.08-7.882-5.268s-0.591-6.858,1.849-9.298l75.767-75.767
			c3.332-3.332,8.735-3.332,12.067,0c3.332,3.332,3.332,8.735,0,12.067l-75.767,75.766
			C166.61,348.973,164.439,349.873,162.176,349.87z"/>
		<path style="fill:#428DFF;" d="M435.242,85.337h-76.8c-4.713,0-8.533-3.821-8.533-8.533c0-4.713,3.82-8.533,8.533-8.533h59.733
			V8.537c0-4.713,3.82-8.533,8.533-8.533s8.533,3.821,8.533,8.533V85.337z"/>
		<path style="fill:#428DFF;" d="M251.092,511.92c-2.266-0.038-4.424-0.979-5.994-2.614c-1.57-1.635-2.423-3.828-2.369-6.094l0,0
			c0.105-4.707,3.996-8.444,8.704-8.358l0,0c4.706,0.107,8.442,3.994,8.363,8.7l0,0c-0.059,4.661-3.872,8.399-8.533,8.367H251.092
			L251.092,511.92z M268.33,503.295c-0.194-2.252,0.515-4.488,1.971-6.217c1.456-1.729,3.539-2.808,5.792-2.999l0,0
			c4.708-0.361,8.824,3.145,9.217,7.85l0,0c0.207,2.246-0.499,4.481-1.96,6.2c-1.461,1.719-3.553,2.776-5.803,2.934v0.083h-0.683
			C272.408,511.151,268.694,507.735,268.33,503.295L268.33,503.295z M224.721,510.128v-0.092c-2.25-0.248-4.305-1.392-5.701-3.173
			s-2.016-4.05-1.719-6.294l0,0c0.259-2.246,1.406-4.294,3.185-5.689c1.779-1.395,4.042-2.02,6.285-1.736l0,0
			c2.245,0.26,4.292,1.407,5.687,3.185c1.395,1.778,2.02,4.04,1.738,6.282l0,0c-0.495,4.29-4.132,7.525-8.45,7.517L224.721,510.128
			L224.721,510.128z M293.759,500.737c-0.847-4.636,2.198-9.089,6.825-9.983l0,0c2.229-0.423,4.535,0.059,6.409,1.34
			c1.873,1.281,3.16,3.254,3.575,5.485l0,0c0.822,4.631-2.212,9.068-6.825,9.983l0,0c-0.509,0.076-1.023,0.107-1.537,0.092l0,0
			C298.097,507.667,294.556,504.767,293.759,500.737L293.759,500.737z M198.613,505.52c-4.575-1.089-7.427-5.652-6.4-10.242l0,0
			c1.076-4.583,5.646-7.441,10.238-6.4l0,0c2.216,0.493,4.142,1.855,5.346,3.78s1.583,4.253,1.054,6.462l0,0
			c-0.888,3.851-4.322,6.577-8.275,6.567l0,0C199.917,505.714,199.257,505.658,198.613,505.52z M318.846,495.528
			c-0.665-2.161-0.434-4.498,0.641-6.486c1.075-1.988,2.904-3.462,5.075-4.089l0,0c4.499-1.363,9.256,1.15,10.667,5.633l0,0
			c1.363,4.524-1.195,9.297-5.717,10.667l0,0c-0.805,0.23-1.638,0.345-2.475,0.341l0,0
			C323.271,501.592,319.948,499.131,318.846,495.528L318.846,495.528z M173.184,498.262c-4.447-1.537-6.813-6.381-5.292-10.833l0,0
			c0.722-2.148,2.275-3.918,4.312-4.912c2.037-0.994,4.387-1.131,6.525-0.379l0,0c2.146,0.724,3.913,2.277,4.907,4.312
			c0.994,2.035,1.133,4.383,0.384,6.521l0,0c-1.188,3.417-4.407,5.71-8.025,5.717l0,0
			C175.044,498.672,174.098,498.529,173.184,498.262L173.184,498.262z M343.25,487.77c-1.803-4.361,0.257-9.358,4.608-11.183l0,0
			c4.359-1.784,9.343,0.27,11.179,4.608l0,0c1.784,4.361-0.27,9.345-4.608,11.183l0,0c-1.063,0.402-2.192,0.602-3.329,0.592l0,0
			C347.676,492.971,344.584,490.923,343.25,487.77L343.25,487.77z M148.604,488.362c-4.257-2.011-6.088-7.084-4.096-11.35l0,0
			c0.946-2.063,2.682-3.658,4.816-4.428c2.135-0.77,4.489-0.648,6.534,0.336l0,0c2.041,0.947,3.621,2.668,4.389,4.782
			c0.769,2.115,0.663,4.448-0.293,6.485l0,0c-1.391,3.032-4.431,4.966-7.767,4.942l0,0
			C150.953,489.122,149.734,488.861,148.604,488.362L148.604,488.362z M366.717,477.445c-1.104-1.975-1.364-4.312-0.721-6.481
			c0.642-2.169,2.133-3.988,4.134-5.044l0,0c1.975-1.103,4.311-1.362,6.48-0.718c2.169,0.643,3.986,2.134,5.041,4.135l0,0
			c1.104,1.974,1.364,4.31,0.722,6.478c-0.642,2.168-2.133,3.985-4.134,5.039l0,0c-1.211,0.73-2.599,1.113-4.012,1.108l0,0
			C371.075,481.978,368.179,480.236,366.717,477.445L366.717,477.445z M125.226,475.995c-1.941-1.161-3.339-3.047-3.884-5.242
			c-0.545-2.195-0.193-4.516,0.98-6.45l0,0c1.147-1.954,3.027-3.369,5.223-3.931c2.195-0.562,4.524-0.224,6.469,0.939l0,0
			c1.937,1.164,3.332,3.05,3.876,5.244c0.545,2.193,0.195,4.513-0.973,6.448l0,0c-1.528,2.602-4.324,4.196-7.342,4.183l0,0
			C128.042,477.204,126.536,476.791,125.226,475.995L125.226,475.995z M388.988,464.812c-1.295-1.854-1.797-4.147-1.397-6.372
			s1.671-4.2,3.53-5.486l0,0c1.864-1.287,4.166-1.777,6.393-1.361c2.227,0.416,4.196,1.704,5.47,3.578l0,0
			c1.297,1.853,1.801,4.147,1.4,6.373c-0.4,2.226-1.672,4.2-3.533,5.485l0,0c-1.436,0.966-3.132,1.472-4.863,1.45l0,0
			C393.19,468.499,390.565,467.124,388.988,464.812L388.988,464.812z M103.292,461.312L103.292,461.312
			c-1.83-1.339-3.05-3.354-3.386-5.597c-0.337-2.243,0.237-4.527,1.594-6.345l0,0c1.339-1.833,3.356-3.053,5.601-3.39
			c2.245-0.337,4.531,0.239,6.349,1.598l0,0c3.737,2.836,4.532,8.134,1.792,11.942l0,0c-1.619,2.186-4.192,3.458-6.913,3.417l0,0
			C106.518,462.961,104.748,462.39,103.292,461.312L103.292,461.312z M409.813,449.962c-1.474-1.719-2.204-3.954-2.028-6.211
			c0.176-2.258,1.243-4.352,2.965-5.822l0,0c1.72-1.472,3.955-2.199,6.212-2.023c2.257,0.177,4.351,1.243,5.822,2.964l0,0
			c1.473,1.72,2.201,3.955,2.024,6.212c-0.177,2.257-1.244,4.352-2.966,5.821l0,0c-1.547,1.319-3.513,2.045-5.546,2.05l0,0
			C413.803,452.945,411.437,451.853,409.813,449.962L409.813,449.962z M82.901,444.42L82.901,444.42
			c-1.685-1.533-2.688-3.676-2.784-5.951c-0.096-2.276,0.722-4.496,2.271-6.165l0,0c3.197-3.43,8.555-3.66,12.033-0.517l0,0v0.083
			l0,0c1.666,1.527,2.655,3.654,2.75,5.911c0.095,2.258-0.711,4.46-2.242,6.122l0,0c-1.641,1.737-3.923,2.725-6.313,2.733l0,0
			C86.504,446.626,84.469,445.836,82.901,444.42z M429.013,432.987c-1.652-1.549-2.61-3.698-2.659-5.962
			c-0.049-2.264,0.817-4.452,2.401-6.071l0,0c1.56-1.633,3.705-2.578,5.963-2.626c2.258-0.048,4.442,0.803,6.07,2.368l0,0
			c1.632,1.56,2.577,3.706,2.624,5.964s-0.805,4.442-2.37,6.07l0,0c-1.584,1.706-3.814,2.665-6.142,2.642l0,0
			C432.699,435.391,430.58,434.533,429.013,432.987z M64.384,425.47c-1.507-1.684-2.282-3.897-2.155-6.153
			c0.127-2.256,1.147-4.368,2.834-5.872l0,0c1.695-1.498,3.918-2.26,6.176-2.116c2.258,0.144,4.366,1.181,5.858,2.882l0,0
			c1.507,1.685,2.283,3.901,2.154,6.158c-0.128,2.257-1.149,4.371-2.838,5.875l0,0c-1.551,1.378-3.555,2.137-5.629,2.133l0,0
			C68.322,428.418,65.973,427.351,64.384,425.47L64.384,425.47z M446.334,414.211c-3.685-2.908-4.332-8.245-1.45-11.95l0,0
			c1.373-1.798,3.409-2.972,5.653-3.26c2.244-0.288,4.51,0.334,6.293,1.727l0,0c1.797,1.373,2.971,3.407,3.26,5.65
			c0.289,2.243-0.331,4.508-1.722,6.291l0,0c-1.607,2.098-4.098,3.33-6.741,3.333l0,0
			C449.714,415.996,447.857,415.367,446.334,414.211z M47.826,404.82c-2.735-3.844-1.859-9.175,1.963-11.942l0,0
			c3.854-2.701,9.159-1.831,11.95,1.958l0,0c2.743,3.845,1.866,9.184-1.963,11.95l0,0c-1.436,1.051-3.17,1.617-4.95,1.617l0,0
			C52.053,408.401,49.449,407.068,47.826,404.82L47.826,404.82z M461.692,393.728c-3.999-2.502-5.22-7.769-2.729-11.775l0,0
			c2.527-3.965,7.76-5.18,11.775-2.733l0,0c4.002,2.5,5.225,7.768,2.733,11.775l0,0c-1.55,2.515-4.3,4.038-7.254,4.017l0,0
			C464.621,395,463.057,394.557,461.692,393.728L461.692,393.728z M33.576,382.553c-1.141-1.954-1.449-4.284-0.855-6.466
			c0.594-2.183,2.04-4.036,4.013-5.142l0,0c1.952-1.143,4.282-1.452,6.465-0.858c2.183,0.594,4.035,2.041,5.139,4.016h0.087
			c2.304,4.102,0.854,9.294-3.242,11.608l0,0c-1.272,0.732-2.716,1.114-4.183,1.108l0,0
			C37.937,386.839,35.101,385.209,33.576,382.553L33.576,382.553z M474.834,371.795c-4.214-2.097-5.963-7.19-3.925-11.433l0,0
			c2.081-4.235,7.195-5.99,11.437-3.925l0,0c2.039,0.993,3.599,2.757,4.336,4.902c0.737,2.145,0.589,4.495-0.41,6.531l0,0
			c-1.443,2.926-4.421,4.78-7.683,4.783l0,0C477.287,372.665,476.001,372.371,474.834,371.795L474.834,371.795z M21.63,358.912
			c-1.882-4.312,0.06-9.335,4.354-11.258l0,0c4.312-1.887,9.339,0.055,11.263,4.35l0,0c1.882,4.312-0.061,9.335-4.354,11.258l0,0
			c-1.068,0.501-2.232,0.765-3.412,0.775l0,0C26.085,364.012,23.018,362.009,21.63,358.912L21.63,358.912z M485.671,348.586
			c-2.122-0.773-3.848-2.362-4.793-4.414c-0.945-2.052-1.032-4.396-0.24-6.511l0,0c0.76-2.134,2.342-3.876,4.393-4.837
			s4.402-1.062,6.528-0.28l0,0c2.122,0.773,3.848,2.362,4.794,4.414c0.946,2.051,1.033,4.396,0.243,6.512l0,0
			c-1.196,3.398-4.419,5.661-8.021,5.633l0,0C487.585,349.098,486.603,348.923,485.671,348.586L485.671,348.586z M12.242,334.17
			c-0.699-2.162-0.507-4.514,0.534-6.533c1.041-2.02,2.845-3.54,5.012-4.225l0,0c2.15-0.698,4.491-0.504,6.496,0.54
			s3.508,2.849,4.17,5.01l0,0c1.432,4.474-1.002,9.266-5.458,10.75l0,0c-0.861,0.24-1.752,0.355-2.646,0.341l0,0
			C16.665,340.037,13.401,337.669,12.242,334.17L12.242,334.17z M494.034,324.436c-4.557-1.203-7.322-5.823-6.229-10.408l0,0
			c1.204-4.559,5.825-7.325,10.412-6.233l0,0c4.565,1.19,7.31,5.846,6.142,10.417l0,0c-0.949,3.801-4.358,6.471-8.275,6.483l0,0
			C495.392,324.695,494.704,324.608,494.034,324.436L494.034,324.436z M5.501,308.57c-0.483-2.209-0.06-4.52,1.175-6.414
			s3.179-3.213,5.395-3.661l0,0c2.209-0.484,4.52-0.06,6.414,1.176c1.894,1.236,3.211,3.182,3.657,5.399l0,0
			c0.484,2.208,0.061,4.518-1.175,6.411c-1.236,1.893-3.18,3.21-5.396,3.656l0,0c-0.586,0.145-1.189,0.204-1.792,0.175l0,0
			C9.764,315.33,6.296,312.506,5.501,308.57L5.501,308.57z M499.838,299.436c-2.245-0.307-4.274-1.498-5.636-3.309
			c-1.362-1.81-1.945-4.09-1.618-6.332l0,0c0.698-4.643,4.987-7.871,9.642-7.258l0,0c4.665,0.666,7.911,4.983,7.254,9.65l0,0
			c-0.596,4.207-4.197,7.333-8.446,7.333l0,0C500.634,299.531,500.233,299.503,499.838,299.436L499.838,299.436z M1.405,282.37
			c-0.237-2.243,0.432-4.487,1.859-6.234c1.427-1.747,3.492-2.851,5.737-3.066l0,0c2.252-0.241,4.507,0.425,6.268,1.849
			c1.761,1.424,2.883,3.49,3.119,5.743l0,0c0.239,2.253-0.427,4.508-1.852,6.27c-1.425,1.762-3.491,2.885-5.744,3.122H9.855
			C5.484,290.04,1.832,286.72,1.405,282.37L1.405,282.37z M502.997,274.095c-4.706-0.204-8.365-4.168-8.192-8.875l0,0
			c0.201-4.707,4.167-8.368,8.875-8.192l0,0c2.266,0.082,4.405,1.066,5.943,2.732c1.538,1.666,2.347,3.877,2.249,6.143l0,0
			c-0.194,4.574-3.955,8.185-8.533,8.192H502.997L502.997,274.095z M0.042,256.003c0.013-4.707,3.826-8.52,8.533-8.533l0,0
			c4.707,0.015,8.518,3.827,8.533,8.533l0,0c-0.015,4.707-3.827,8.518-8.533,8.533l0,0C3.868,264.523,0.056,260.711,0.042,256.003z"
			/>
	</g>
</g>
<g>
</g>
<g>
</g>
<g>
</g>
<g>
</g>
<g>
</g>
<g>
</g>
<g>
</g>
<g>
</g>
<g>
</g>
<g>
</g>
<g>
</g>
<g>
</g>
<g>
</g>
<g>
</g>
<g>
</g>
</svg>
