<svg id="Layer_1" height="512" viewBox="0 0 512 512" width="512" xmlns="http://www.w3.org/2000/svg" data-name="Layer 1"><path d="m41 329.99v-280.719a24.368 24.368 0 0 1 24.37-24.361h-30a24.368 24.368 0 0 0 -24.37 24.361v280.719a24.37 24.37 0 0 0 24.37 24.371h30a24.37 24.37 0 0 1 -24.37-24.371z" fill="#d4e1f4"/><path d="m122.153 333.867h91.39v12h-91.39z" fill="#0635c9"/><path d="m290.704 333.867h86.791v12h-86.791z" fill="#0635c9"/><path d="m456.658 252.544h-355.185v-15.5a6 6 0 0 0 -12 0v15.5h-34.131a6 6 0 0 0 0 12h34.131v15.5a6 6 0 0 0 12 0v-15.5h355.185a6 6 0 1 0 0-12z" fill="#0635c9"/><path d="m294.543 159.363a6 6 0 0 0 8.2 2.2l13.52-7.806a8.436 8.436 0 0 0 0-14.612l-84.063-48.537a8.437 8.437 0 0 0 -12.655 7.306v97.066a8.441 8.441 0 0 0 12.655 7.306l24.6-14.2a6 6 0 0 0 -6-10.392l-19.257 11.118v-84.726l73.371 42.361-8.174 4.72a6 6 0 0 0 -2.197 8.196z" fill="#0635c9"/><path d="m279.093 161.355-8.363 4.828a6 6 0 1 0 6 10.393l8.363-4.829a6 6 0 0 0 -6-10.392z" fill="#0635c9"/><path d="m476.634 4.419h-441.268a30.4 30.4 0 0 0 -30.366 30.365v280.716a30.393 30.393 0 0 0 30.331 30.365h9.374v-12h-9.339a18.387 18.387 0 0 1 -18.366-18.365v-280.716a18.386 18.386 0 0 1 18.366-18.365h441.268a18.386 18.386 0 0 1 18.366 18.365v280.716a18.383 18.383 0 0 1 -13.273 17.628v12.3a30.41 30.41 0 0 0 25.273-29.928v-280.716a30.4 30.4 0 0 0 -30.366-30.365z" fill="#0635c9"/><g fill="#1ae5be"><path d="m277.11 426.8h-48.419a36.041 36.041 0 0 0 -36 36v38.71a6 6 0 0 0 6 6h108.419a6 6 0 0 0 6-6v-38.71a36.041 36.041 0 0 0 -36-36zm24 68.707h-96.419v-32.707a24.028 24.028 0 0 1 24-24h48.419a24.027 24.027 0 0 1 24 24z"/><path d="m283.43 459.141h-10.816a6 6 0 0 0 0 12h10.816a6 6 0 0 0 0-12z"/><path d="m106.883 426.8h-48.419a36.041 36.041 0 0 0 -36 36v38.71a6 6 0 0 0 6 6h108.419a6 6 0 0 0 6-6v-38.71a36.041 36.041 0 0 0 -36-36zm24 68.707h-96.419v-32.707a24.027 24.027 0 0 1 24-24h48.419a24.028 24.028 0 0 1 24 24z"/><path d="m113.2 459.141h-10.814a6 6 0 0 0 0 12h10.814a6 6 0 1 0 0-12z"/><path d="m441.14 421.875h-48.419a36.041 36.041 0 0 0 -36 36v43.706a6 6 0 0 0 6 6h108.419a6 6 0 0 0 6-6v-43.706a36.041 36.041 0 0 0 -36-36zm24 73.706h-96.419v-37.706a24.027 24.027 0 0 1 24-24h48.419a24.027 24.027 0 0 1 24 24z"/><path d="m447.46 454.213h-10.817a6 6 0 0 0 0 12h10.817a6 6 0 0 0 0-12z"/><path d="m252.9 421.062a45.477 45.477 0 0 0 45.425-45.425v-37.454a45.477 45.477 0 0 0 -45.425-45.425h-39.424a6 6 0 0 0 -6 6v76.879a45.477 45.477 0 0 0 45.424 45.425zm-33.425-116.3h33.425a33.48 33.48 0 0 1 31.824 23.214l-4.734 1.758a21.362 21.362 0 0 1 -18.955-2.081 33.276 33.276 0 0 0 -22.683-5.014l-18.877 2.642zm0 32.636 20.541-2.876a21.282 21.282 0 0 1 14.5 3.206 33.41 33.41 0 0 0 29.649 3.256l2.159-.8v35.459a33.425 33.425 0 0 1 -66.85 0z"/><path d="m82.674 421.062a45.477 45.477 0 0 0 45.426-45.425v-43.137h1.1a6 6 0 0 0 6-6 29.723 29.723 0 0 0 -29.688-29.689 28.356 28.356 0 0 1 -8.239-1.237c-6.153-1.868-11.065-2.815-14.6-2.815a45.476 45.476 0 0 0 -45.424 45.425v37.454a45.476 45.476 0 0 0 45.425 45.424zm33.426-84.036a10.652 10.652 0 0 1 -3.721-4.527h3.721zm-66.85 1.157a33.462 33.462 0 0 1 33.425-33.425c2.253 0 6.3.838 11.113 2.3a40.359 40.359 0 0 0 11.725 1.754 17.719 17.719 0 0 1 16.64 11.688h-40.412a14.338 14.338 0 0 0 -14.322 14.322 12.192 12.192 0 0 1 -12.179 12.178h-5.991zm0 20.816h5.99a24.205 24.205 0 0 0 24.179-24.178 2.324 2.324 0 0 1 2.322-2.322h18.166a22.652 22.652 0 0 0 16.193 17.585v25.553a33.425 33.425 0 1 1 -66.85 0z"/><path d="m460.44 313.224h-9.34a45.4 45.4 0 0 0 -79.59 29.887v27.6a45.419 45.419 0 0 0 90.834.639 29.093 29.093 0 0 0 -1.9-58.124zm-10.085 57.485a33.425 33.425 0 0 1 -66.85 0v-12.727h2.586a73.734 73.734 0 0 0 45.575-15.937c4.09 7.469 10.477 14.936 18.689 16.259zm0-24.969c-5.312-2.748-9.806-12.466-10.932-15.612a6 6 0 0 0 -9.914-2.223 61.58 61.58 0 0 1 -43.418 18.077h-2.586v-2.871a33.425 33.425 0 0 1 66.85 0zm12 13.562v-16.191a45.155 45.155 0 0 0 -3.676-17.887h1.761a17.093 17.093 0 0 1 1.915 34.078z"/></g></svg>